<svg width="30" height="30" viewBox="0 0 30 30" fill="none" xmlns="http://www.w3.org/2000/svg">
<g clip-path="url(#clip0_108_9681)">
<path d="M15 0C6.72867 0 0 6.72867 0 15C0 23.2713 6.72867 30 15 30C23.2713 30 30 23.2713 30 15C30 6.72867 23.2713 0 15 0Z" fill="#965036"/>
<path d="M21.5624 16.2498H16.2498V21.5624C16.2498 22.2525 15.69 22.8123 14.9999 22.8123C14.3098 22.8123 13.75 22.2525 13.75 21.5624V16.2498H8.43742C7.74734 16.2498 7.1875 15.69 7.1875 14.9999C7.1875 14.3098 7.74734 13.75 8.43742 13.75H13.75V8.43742C13.75 7.74734 14.3098 7.1875 14.9999 7.1875C15.69 7.1875 16.2498 7.74734 16.2498 8.43742V13.75H21.5624C22.2525 13.75 22.8123 14.3098 22.8123 14.9999C22.8123 15.69 22.2525 16.2498 21.5624 16.2498Z" fill="white"/>
</g>
<defs>
<clipPath id="clip0_108_9681">
<rect width="30" height="30" fill="white"/>
</clipPath>
</defs>
</svg>
