<svg width="40" height="40" viewBox="0 0 40 40" fill="none" xmlns="http://www.w3.org/2000/svg">
<g clip-path="url(#clip0_108_8544)">
<path d="M7.4873 37.8868L7.84483 35.3479C8.62389 29.8155 13.3708 25.7007 18.973 25.7017C24.5753 25.7026 29.3208 29.8189 30.0981 35.3516L30.4547 37.8906" fill="#36CC84"/>
<path d="M30.0982 35.3515C29.5643 31.5515 27.1584 28.4198 23.8888 26.8306C23.9106 26.8545 23.9321 26.8785 23.9535 26.9025C26.8554 30.1645 24.5259 35.326 20.1599 35.3253L7.84859 35.3232C7.84859 35.3232 7.84842 35.3234 7.84824 35.3235L7.4873 37.8866L30.4548 37.8904L30.0982 35.3515Z" fill="#00A081"/>
<path d="M25.9285 37.8628H26.7844C26.8586 36.382 26.4677 35.0076 25.6186 33.7752C25.4849 33.5811 25.2187 33.5318 25.0243 33.6658C24.83 33.7996 24.7809 34.0658 24.9149 34.2601C25.6626 35.3454 26.0023 36.5571 25.9285 37.8628Z" fill="#333333"/>
<path d="M18.9786 31.3167H18.9657C17.6846 31.3165 16.6462 30.2778 16.6465 28.9967L16.6475 23.0215L21.2997 23.0223L21.2987 28.9975C21.2985 30.2786 20.2597 31.317 18.9786 31.3167Z" fill="#FFDACC"/>
<path d="M20.4316 30.8039H20.4187C19.1376 30.8037 18.0992 29.7649 18.0995 28.4839L18.1003 23.0217L16.6474 23.0215L16.6465 28.9967C16.6463 30.2778 17.6846 31.3165 18.9657 31.3167H18.9786C19.5295 31.3168 20.0352 31.1245 20.4331 30.8039C20.4326 30.8039 20.4321 30.8039 20.4316 30.8039Z" fill="#FFB9AB"/>
<path d="M30.1497 16.8675C27.1225 17.3785 26.7406 13.9168 26.7406 13.9168C26.7406 13.9168 26.5002 12.2341 25.5004 10.784C25.3742 11.4943 25.1376 12.1932 24.7513 12.8493C24.1394 13.8886 22.8703 15.3 22.2675 15.0409C21.8031 14.8412 21.9809 13.7555 21.9023 12.7033C21.8455 11.9433 21.6436 11.0558 21.1492 10.0659C20.3447 11.1898 19.5501 12.8351 17.8314 13.5546C14.7168 14.8584 13.6303 9.93301 10.8055 11.1644C7.98068 12.3957 8.07529 16.7759 8.07529 16.7759C8.07529 16.7863 8.07487 16.7968 8.07487 16.8072V16.8081C6.82845 17.0058 5.87598 18.0764 5.87598 19.368C5.87598 20.8001 7.04692 21.961 8.49128 21.961C8.58529 21.961 8.67811 21.9558 8.76957 21.9462C10.3714 25.9626 14.3355 28.8066 18.975 28.8066C23.6145 28.8066 27.5785 25.9627 29.1803 21.9462C29.2719 21.9557 29.3647 21.961 29.4587 21.961C30.9032 21.961 32.074 20.8 32.074 19.368C32.074 18.1731 31.2586 17.168 30.1497 16.8675Z" fill="#FFDACC"/>
<path d="M15.7607 15.5057C17.907 16.2216 19.5523 14.3969 19.7984 14.2066C20.7802 13.4481 21.3662 12.4919 21.7147 11.5687C21.5952 11.0998 21.4146 10.5979 21.1489 10.0659C20.3444 11.1898 19.5498 12.8351 17.8312 13.5546C14.7165 14.8584 13.63 9.93301 10.8053 11.1644C10.4587 11.3154 10.1564 11.5141 9.89209 11.746C10.4531 11.8685 11.0387 12.0705 11.6136 12.3957C13.4689 13.4454 14.1588 14.9715 15.7607 15.5057Z" fill="#FFB9AB"/>
<path d="M38.8887 5.49339C38.8887 2.70894 36.6149 0.449198 33.8016 0.427403C30.9807 0.405523 28.6494 2.67065 28.6324 5.46228C28.6231 6.99416 29.3021 8.36954 30.3817 9.30441C31.1829 9.99826 31.656 10.9907 31.656 12.0443H35.865C35.865 11.0029 36.3161 10.0077 37.1128 9.32732C38.2005 8.39826 38.8887 7.02527 38.8887 5.49339Z" fill="#FFD946"/>
<path d="M32.9381 11.6167C32.9381 10.563 32.465 9.57067 31.6637 8.87673C30.5841 7.94186 29.9052 6.56639 29.9145 5.0346C29.9265 3.05511 31.1029 1.34144 32.7917 0.519043C30.4451 0.967846 28.6473 3.01195 28.6324 5.46195C28.6231 6.99383 29.3021 8.36921 30.3816 9.30409C31.1829 9.99793 31.656 10.9903 31.656 12.044H32.9381V11.6167Z" fill="#FF7B39"/>
<path d="M35.8973 13.0082H31.6235C31.0669 13.0082 30.6157 12.557 30.6157 12.0005C30.6157 11.4439 31.0669 10.9927 31.6235 10.9927H35.8973C36.4538 10.9927 36.905 11.4439 36.905 12.0005C36.905 12.557 36.4538 13.0082 35.8973 13.0082Z" fill="#CCEFFF"/>
<path d="M31.9832 12.0005C31.9832 11.4439 32.4344 10.9927 32.991 10.9927H31.6235C31.0669 10.9927 30.6157 11.4439 30.6157 12.0005C30.6157 12.557 31.0669 13.0082 31.6235 13.0082H32.991C32.4344 13.0082 31.9832 12.557 31.9832 12.0005Z" fill="white"/>
<path d="M31.8979 13.0083V13.6433C31.8979 14.672 32.7318 15.5058 33.7604 15.5058C34.7891 15.5058 35.6229 14.672 35.6229 13.6433V13.0083H31.8979Z" fill="#3AC4EC"/>
<path d="M33.18 13.6433V13.0083H31.8979V13.6433C31.8979 14.672 32.7318 15.5058 33.7604 15.5058C33.9856 15.5058 34.2016 15.4658 34.4015 15.3926C33.6886 15.1313 33.18 14.4468 33.18 13.6433Z" fill="#5045CC"/>
<path d="M33.7608 6.82015C34.4927 6.82015 35.086 6.23158 35.086 5.50553C35.086 4.77949 34.4927 4.19092 33.7608 4.19092C33.0289 4.19092 32.4355 4.77949 32.4355 5.50553C32.4355 6.23158 33.0289 6.82015 33.7608 6.82015Z" fill="white"/>
<path d="M10.7598 39.5724V34.3304C11.1657 33.9047 11.452 33.4098 11.6529 32.9435C12.1481 31.7944 12.8124 30.7247 13.5988 29.7514C14.1942 29.0144 14.6847 28.154 14.4253 27.5229C13.6393 25.6105 11.2282 28.1817 11.2282 28.1817C11.2282 28.1817 13.2934 23.0648 11.3887 22.2727C9.59353 21.5261 8.84968 26.8791 8.84968 26.8791C8.84968 26.8791 9.84626 20.2104 7.27763 20.8068C5.75532 21.1602 6.31507 27.0314 6.31507 27.0314C6.31507 27.0314 5.10028 22.4844 3.8072 22.6903C1.49088 23.0592 4.47755 28.8383 4.47755 28.8383C4.47755 28.8383 2.18575 25.9162 1.33498 26.8321C0.473272 27.7597 2.32985 30.0452 2.96225 31.0078C2.96225 31.0078 3.35062 32.7915 4.68114 34.0979V39.5724" fill="#FFDACC"/>
<path d="M4.41524 31.0077C3.82396 30.1076 2.16284 28.0513 2.65387 27.0295C2.14336 26.6732 1.64404 26.4992 1.33498 26.832C0.473272 27.7597 2.32985 30.045 2.96225 31.0077C2.96225 31.0077 3.35062 32.7914 4.68114 34.0978V39.5724H6.13413V34.0979C4.80361 32.7914 4.41524 31.0077 4.41524 31.0077Z" fill="#FFB9AB"/>
<path d="M18.9946 25.9802C18.2346 25.9802 17.5257 25.5712 17.1445 24.9129C17.0263 24.7087 17.0958 24.4473 17.2998 24.3289C17.5038 24.2106 17.765 24.2802 17.8832 24.4844C18.1123 24.8799 18.5381 25.1255 18.9946 25.1255C19.4512 25.1255 19.8771 24.8798 20.1062 24.4841C20.2243 24.28 20.4855 24.2103 20.6896 24.3287C20.8936 24.447 20.9632 24.7084 20.845 24.9127C20.4638 25.5711 19.7547 25.9802 18.9946 25.9802Z" fill="#333333"/>
<path d="M15.2331 18.5902C15.1661 18.2299 15.0052 17.7928 14.6331 17.4513C14.4595 17.2918 14.1895 17.3034 14.0299 17.4773C13.8706 17.6513 13.8822 17.9216 14.056 18.0811C14.2456 18.2553 14.3378 18.4931 14.3826 18.6973C14.1803 18.7646 13.9873 18.8613 13.8068 18.9831C13.5734 18.6913 13.1961 18.3449 12.6618 18.226C12.432 18.1751 12.2036 18.3202 12.1524 18.5505C12.1012 18.7809 12.2464 19.0092 12.4765 19.0604C12.8071 19.1339 13.0458 19.3847 13.1842 19.5734C13.0171 19.7915 12.876 20.0396 12.7691 20.3137C12.6835 20.5336 12.792 20.7814 13.0117 20.8672C13.2314 20.9528 13.4789 20.8443 13.5646 20.6244C13.8454 19.9037 14.4384 19.4381 15.0751 19.4381C15.7341 19.4381 16.3357 19.9268 16.6076 20.6831C16.691 20.915 16.9618 21.0292 17.1863 20.9271C17.386 20.8361 17.4854 20.6003 17.4111 20.3936C17.0362 19.3508 16.1922 18.6591 15.2331 18.5902Z" fill="#333333"/>
<path d="M25.837 18.5505C25.7859 18.3202 25.5578 18.175 25.3276 18.2261C24.7933 18.3449 24.4159 18.6914 24.1826 18.9831C24.0022 18.8613 23.8091 18.7647 23.6068 18.6973C23.6516 18.4932 23.7437 18.2554 23.9334 18.0812C24.1073 17.9216 24.119 17.6514 23.9596 17.4774C23.8002 17.3033 23.5299 17.2919 23.3563 17.4512C22.9842 17.7928 22.8233 18.2299 22.7563 18.5902C21.7973 18.6591 20.9533 19.3508 20.5783 20.3936C20.504 20.6002 20.6034 20.8361 20.8031 20.9271C21.0274 21.0292 21.2983 20.915 21.3818 20.6831C21.6538 19.9267 22.2552 19.4381 22.9142 19.4381C23.5509 19.4381 24.1439 19.9037 24.4247 20.6244C24.5105 20.8443 24.7582 20.9529 24.9776 20.8672C25.1974 20.7814 25.3059 20.5337 25.2202 20.3137C25.1133 20.0395 24.972 19.7914 24.8049 19.5731C24.9428 19.3849 25.1814 19.1342 25.5128 19.0604C25.7431 19.0093 25.8881 18.781 25.837 18.5505Z" fill="#333333"/>
<path d="M33.8102 8.60889e-05C31.4287 -0.0133327 29.2174 1.54316 28.4793 3.82248C27.7965 3.33684 26.9412 3.12248 26.1114 3.22932C25.6624 1.13633 23.2435 -0.00905917 21.3358 0.956496C20.0523 -0.3047 17.925 -0.302734 16.6444 0.96171C14.736 -0.0127344 12.3077 1.13427 11.8582 3.22932C9.63234 2.94282 7.69371 5.00248 8.16037 7.21564C5.92482 7.71752 4.83473 10.4174 6.12465 12.3238C4.51046 13.6432 4.51456 16.1771 6.13601 17.4887C5.72337 18.0062 5.48089 18.6603 5.48089 19.3684C5.48089 20.1095 5.75738 20.8242 6.24832 21.374C5.88593 22.2772 5.8449 23.3166 5.82422 24.2776C5.15362 22.7932 4.49815 22.1533 3.77431 22.2685C1.70183 22.5989 2.74431 25.6798 3.17935 26.8617C2.61841 26.4238 1.67909 25.8732 1.05875 26.5415C-0.149968 27.8439 1.88687 30.1174 2.59978 31.1815C2.69328 31.5518 3.12909 33.0602 4.28755 34.2734V39.5727C4.28755 39.8087 4.47875 40 4.71448 40C4.95029 40 5.1414 39.8087 5.1414 39.5727V34.098C5.1414 33.9833 5.09533 33.8734 5.01354 33.7932C3.79627 32.5968 3.4179 30.9332 3.41439 30.9172C3.40319 30.8659 3.38277 30.8173 3.35405 30.7734C2.93858 30.1403 0.960887 27.9026 1.68431 27.1232C2.14157 26.6296 3.95926 28.8271 4.17516 29.1023C4.31114 29.2756 4.55661 29.3171 4.74183 29.1979C4.92704 29.0786 4.9914 28.838 4.89029 28.6422C4.52969 27.9438 2.30858 23.3674 3.90849 23.1125C4.07439 23.0885 4.55046 23.4353 5.18191 24.9421C5.63106 26.0138 5.9314 27.1308 5.93431 27.142C5.99174 27.3568 6.20405 27.4916 6.42243 27.4522C6.64097 27.4128 6.79285 27.2123 6.77174 26.991C6.77037 26.9766 6.63508 25.5336 6.68396 24.0661C6.77114 21.4456 7.34029 21.2382 7.4049 21.2232C9.19567 20.8081 8.59029 25.8721 8.47174 26.7119C8.3708 27.3864 9.22294 27.5065 9.31696 26.8322C9.41174 26.1937 10.0738 22.1778 11.2516 22.6674C12.3929 23.1426 11.48 26.4801 10.8592 28.0221C10.687 28.4499 11.2508 28.8101 11.5664 28.4744C11.9855 28.0284 13.0429 27.1426 13.6346 27.2518C14.7489 27.4574 13.5692 29.1387 13.2913 29.4829C12.4568 30.5168 11.7826 31.6243 11.2873 32.7745C11.0727 33.273 10.8004 33.6973 10.4781 34.0356C10.4023 34.1151 10.3601 34.2207 10.3601 34.3305V39.5727C10.3601 39.8087 10.5513 40 10.787 40C11.0229 40 11.214 39.8087 11.214 39.5727V34.4966C11.5545 34.1091 11.8426 33.6443 12.0714 33.1127C12.5359 32.034 13.1698 30.9934 13.9554 30.02C14.4167 29.4485 14.7158 28.9293 14.855 28.465C15.3089 28.6403 15.7711 28.7874 16.2411 28.9029C16.1991 30.4334 17.4487 31.7439 18.985 31.7443C20.5293 31.7482 21.7847 30.4431 21.7427 28.9024C22.7641 28.6522 23.7458 28.2624 24.6643 27.7397C27.4108 29.4331 29.2354 32.2152 29.684 35.4115L30.0404 37.9504C30.1155 38.4866 30.9636 38.3844 30.8859 37.8315L30.5295 35.2926C30.0648 31.9815 28.2328 29.0822 25.4663 27.2387C25.4679 27.2376 25.4694 27.2366 25.4711 27.2356C27.2495 26.0164 28.6267 24.345 29.4686 22.3887C31.1443 22.3882 32.5075 21.0335 32.5075 19.3684C32.5075 18.6662 32.2609 18.0071 31.8409 17.4845C32.3817 17.0459 32.7696 16.4508 32.953 15.7836C33.0858 15.8343 33.2245 15.8727 33.3676 15.898C33.5936 17.4399 35.0254 18.3154 36.5031 18.1938C36.7389 18.1938 36.93 18.0026 36.93 17.7665C36.93 17.5304 36.7389 17.3391 36.5031 17.3391C35.5017 17.4391 34.4579 16.9532 34.2324 15.8853C35.3553 15.6513 36.1432 14.5635 36.0532 13.4274C36.7721 13.3509 37.3341 12.7403 37.3341 12.0007C37.3341 11.456 37.0294 10.9813 36.5816 10.7382C36.7698 10.3212 37.0436 9.95009 37.392 9.65222C38.6149 8.60684 39.3161 7.09103 39.3161 5.49333C39.3161 2.48786 36.8462 0.0235904 33.8102 8.60889e-05ZM20.3351 30.3357C19.9788 30.6922 19.4799 30.8664 18.9853 30.8897C17.9703 30.8895 17.1399 30.0844 17.0972 29.0786C18.3476 29.2856 19.6349 29.2844 20.8851 29.078C20.8652 29.5532 20.6731 29.9974 20.3351 30.3357ZM29.468 21.5339C29.2156 21.5339 28.9133 21.487 28.7933 21.7883C27.1979 25.7924 23.3517 28.3796 18.9943 28.3796C17.5748 28.3796 16.2015 28.106 14.9082 27.5669C14.7806 27.0188 14.3566 26.5155 13.7887 26.4111C13.2495 26.3119 12.6587 26.5599 12.1547 26.8807C12.6605 25.1673 13.1421 22.5286 11.5796 21.8782C10.5661 21.4561 9.84362 22.3936 9.45661 23.1926C9.36815 22.1739 9.12772 21.2179 8.59131 20.7223C8.11012 20.2776 7.25935 20.1914 6.74337 20.6282C6.48029 20.2634 6.33473 19.8227 6.33473 19.3682C6.33473 18.2984 7.10721 17.3994 8.17149 17.2303C8.4079 17.1927 8.53439 16.9906 8.53183 16.7668C8.53089 16.7258 8.47277 12.6604 11.0032 11.5563C12.0774 11.0874 12.7976 11.665 13.8833 12.6461C16.7879 15.2703 19.1736 13.8432 21.0869 10.9465C21.4139 11.8091 21.5124 12.6719 21.5173 13.5896C21.522 14.4432 21.526 15.1803 22.1149 15.4337C23.297 15.9418 24.6571 13.875 25.1329 13.0663C25.3469 12.7023 25.5248 12.3135 25.6652 11.9034C26.163 12.9444 26.3181 13.9024 26.329 13.9732C26.5623 15.9342 28.0362 17.6106 30.1303 17.3046C31.0315 17.588 31.6537 18.4245 31.6537 19.3682C31.6539 20.5625 30.6732 21.5339 29.468 21.5339ZM35.1996 13.6434C35.1996 14.4348 34.5564 15.0785 33.7658 15.0785C32.8759 15.0785 32.2903 14.2719 32.3321 13.4357H35.1996V13.6434ZM35.9007 12.5811H31.631C31.3112 12.5811 31.0511 12.3207 31.0511 12.0007C31.0511 11.6807 31.3112 11.4203 31.631 11.4203H35.9007C36.2205 11.4203 36.4805 11.6807 36.4805 12.0007C36.4805 12.3207 36.2205 12.5811 35.9007 12.5811ZM36.8377 9.00231C36.3436 9.42462 35.9641 9.96068 35.7253 10.5655H34.1928V7.19282C34.9522 7.00248 35.5167 6.31923 35.5167 5.50539C35.5167 4.54487 34.7313 3.76333 33.7658 3.76333C32.8004 3.76333 32.015 4.54487 32.015 5.50539C32.015 6.31915 32.5795 7.00239 33.3389 7.19282V10.5655H31.801C31.5583 9.96009 31.1723 9.41692 30.6698 8.98145C29.6447 8.09291 29.0615 6.81111 29.0697 5.46479C29.0852 2.91709 31.2776 0.836667 33.8036 0.854702C36.3724 0.874531 38.4623 2.95547 38.4623 5.49325C38.4623 6.84068 37.8701 8.11966 36.8377 9.00231ZM33.7658 6.39274C33.2713 6.39274 32.8688 5.9947 32.8688 5.50547C32.8688 5.01615 33.2712 4.61812 33.7658 4.61812C34.2605 4.61812 34.6629 5.01615 34.6629 5.50547C34.6629 5.9947 34.2605 6.39274 33.7658 6.39274Z" fill="#333333"/>
</g>
<defs>
<clipPath id="clip0_108_8544">
<rect width="40" height="40" fill="white"/>
</clipPath>
</defs>
</svg>
