<svg width="40" height="40" viewBox="0 0 40 40" fill="none" xmlns="http://www.w3.org/2000/svg">
<g clip-path="url(#clip0_108_8319)">
<path d="M37.1465 30.4867C37.2711 31.1371 37.3336 31.7978 37.3332 32.46C37.3679 33.3587 37.1234 34.246 36.6332 35C35.5265 36.5067 29.6398 37.9867 24.9665 36.7C23.4465 37.96 20.7065 39.3334 15.9998 39.3334C13.1 39.2194 10.2783 38.3607 7.80651 36.84C5.99351 38.0333 3.87027 38.6684 1.69984 38.6667C1.56402 38.6671 1.42945 38.6407 1.30388 38.5889C1.17831 38.5371 1.06423 38.4611 0.968184 38.365C0.872142 38.269 0.796044 38.1549 0.74427 38.0293C0.692496 37.9037 0.666069 37.7692 0.666509 37.6334V18.3667C0.666069 18.2309 0.692496 18.0963 0.74427 17.9707C0.796044 17.8452 0.872142 17.7311 0.968184 17.635C1.06423 17.539 1.17831 17.4629 1.30388 17.4111C1.42945 17.3593 1.56402 17.3329 1.69984 17.3333H1.99984C4.15342 17.3313 6.25704 17.9821 8.03318 19.2C10.0001 17.9114 12.3162 17.2596 14.6665 17.3333C17.8388 17.2624 20.9451 18.2447 23.4998 20.1267C23.6132 20.2133 23.7265 20.3 23.8332 20.3933C24.2664 20.7294 24.6721 21.0995 25.0465 21.5L25.0665 21.52C25.4716 20.3041 26.0607 19.1575 26.8132 18.12C27.5928 17.0043 28.0073 15.6744 27.9998 14.3133V11.3333H21.4332C21.0725 11.3336 20.7206 11.2221 20.4259 11.0142C20.1312 10.8062 19.9082 10.512 19.7876 10.1721C19.6669 9.83219 19.6546 9.46325 19.7524 9.11605C19.8501 8.76885 20.053 8.46047 20.3332 8.23335L18.7665 4.57335C18.6781 4.36516 18.6475 4.13696 18.678 3.91283C18.7085 3.68871 18.799 3.47698 18.9398 3.30001L20.6732 1.13334C20.8281 0.940345 21.0371 0.797933 21.2735 0.724308C21.5098 0.650682 21.7627 0.649186 21.9998 0.720012C25.7976 1.91884 29.6989 2.76027 33.6532 3.23335C33.9355 3.26196 34.2006 3.38248 34.4077 3.5764C34.6149 3.77031 34.7527 4.02688 34.7998 4.30668C35.7465 10.1067 39.3332 16.9067 39.3332 22.6667C39.3593 25.4044 38.613 28.0939 37.1798 30.4267C37.1665 30.4467 37.1598 30.46 37.1465 30.48V30.4867Z" fill="#F4C0A6"/>
<path d="M1.7 39.3332C3.86084 39.3362 5.98052 38.7424 7.82533 37.6172C10.3107 39.0766 13.1198 39.8953 16 39.9999C20.7053 39.9999 23.5333 38.6499 25.122 37.4292C29.6973 38.5472 35.8053 37.2532 37.172 35.3932C37.9613 34.3132 38.188 32.7072 37.846 30.6172C39.2813 28.2155 40.0266 25.4644 40 22.6666C40 19.1959 38.748 15.3892 37.5373 11.7086C36.6565 9.26157 35.9616 6.75154 35.4587 4.19991C35.3898 3.77508 35.1826 3.3849 34.8691 3.09001C34.5557 2.79512 34.1536 2.61204 33.7253 2.56924C29.881 2.11039 26.0872 1.29807 22.392 0.142575L22.192 0.0805748C21.8274 -0.0279298 21.4388 -0.0254516 21.0756 0.0876935C20.7124 0.200839 20.3911 0.419529 20.1527 0.715908L18.4193 2.88391C18.2035 3.1551 18.0648 3.4795 18.0178 3.82293C17.9709 4.16635 18.0175 4.51608 18.1527 4.83524L19.5433 8.08324C19.3236 8.35659 19.1668 8.67503 19.0842 9.01588C19.0016 9.35674 18.9951 9.71162 19.0653 10.0552C19.1728 10.6039 19.4679 11.0981 19.9 11.453C20.3321 11.8078 20.8742 12.0012 21.4333 11.9999H27.3333V14.3132C27.3431 15.5361 26.9714 16.7315 26.27 17.7332C25.6875 18.5421 25.1946 19.4119 24.8 20.3272C22.0028 17.876 18.3846 16.569 14.6667 16.6666C12.3365 16.6066 10.0369 17.2076 8.034 18.3999C6.22703 17.2632 4.13477 16.6622 2 16.6666H1.7C1.24935 16.6673 0.817357 16.8466 0.498697 17.1653C0.180038 17.4839 0.000705246 17.9159 0 18.3666L0 21.3332C0 21.5101 0.0702379 21.6796 0.195262 21.8046C0.320286 21.9297 0.489856 21.9999 0.666667 21.9999C0.843478 21.9999 1.01305 21.9297 1.13807 21.8046C1.2631 21.6796 1.33333 21.5101 1.33333 21.3332V18.3666C1.33289 18.3183 1.34207 18.2704 1.36034 18.2257C1.37861 18.181 1.4056 18.1404 1.43974 18.1063C1.47387 18.0722 1.51447 18.0452 1.55916 18.0269C1.60385 18.0086 1.65172 17.9995 1.7 17.9999H2C3.7 17.999 5.37193 18.4333 6.85667 19.2612C5.60238 20.2869 4.63099 21.6161 4.03467 23.1226C3.97904 23.2899 3.99193 23.4723 4.07052 23.6301C4.1491 23.7879 4.28698 23.9082 4.454 23.9646C4.62127 24.0209 4.80405 24.0086 4.96227 23.9304C5.12048 23.8521 5.24122 23.7144 5.298 23.5472C5.93917 22.0036 7.02115 20.6833 8.40867 19.7512C10.2672 18.5428 12.4509 17.9317 14.6667 17.9999C16.442 17.9443 18.2106 18.2439 19.8685 18.8812C21.5265 19.5186 23.0404 20.4807 24.3213 21.7112C24.1135 22.4566 24.0055 23.2262 24 23.9999C24 28.1999 25.418 29.1212 25.702 29.2666C25.7982 29.3141 25.904 29.3388 26.0113 29.3386C26.135 29.3399 26.2566 29.3069 26.3626 29.2431C26.4686 29.1792 26.5547 29.0872 26.6113 28.9772C26.6519 28.9009 26.6769 28.8173 26.6847 28.7312C26.6926 28.6451 26.6832 28.5583 26.657 28.4759C26.6309 28.3935 26.5885 28.3171 26.5325 28.2513C26.4765 28.1855 26.4078 28.1315 26.3307 28.0926C26.322 28.0826 25.3333 27.3866 25.3333 23.9999C25.338 23.2264 25.4621 22.4582 25.7013 21.7226C26.0873 20.5726 26.6454 19.4878 27.3567 18.5052C28.2185 17.2781 28.6764 15.8128 28.6667 14.3132V11.9239C29.2697 11.8071 29.8339 11.5411 30.3076 11.1502C30.7814 10.7592 31.1496 10.2558 31.3787 9.68591L31.9527 8.24591C32.0165 8.08198 32.013 7.89945 31.9428 7.73813C31.8726 7.5768 31.7416 7.44974 31.5781 7.38465C31.4147 7.31955 31.2321 7.3217 31.0703 7.39062C30.9084 7.45954 30.7803 7.58964 30.714 7.75258L30.1413 9.19058C29.9683 9.62152 29.6717 9.99163 29.2887 10.2543C28.9058 10.5169 28.4537 10.6604 27.9893 10.6666H21.4333C21.185 10.6674 20.9441 10.5824 20.7513 10.4259C20.5565 10.2659 20.4231 10.0432 20.374 9.79591C20.3341 9.60493 20.3479 9.40663 20.414 9.22304C20.48 9.03944 20.5956 8.87775 20.748 8.75591L20.7553 8.74724L20.764 8.74258C20.9301 8.60501 21.1344 8.5217 21.3493 8.50391L26.1007 8.10391C26.3539 8.08306 26.5991 8.00508 26.8178 7.87582C27.0365 7.74657 27.2231 7.5694 27.3635 7.35765C27.5039 7.14589 27.5945 6.90506 27.6284 6.65327C27.6623 6.40147 27.6387 6.14526 27.5593 5.90391L27.2993 5.12391C27.2717 5.04074 27.2279 4.96383 27.1705 4.89758C27.1131 4.83133 27.0432 4.77703 26.9649 4.73778C26.8865 4.69853 26.8012 4.6751 26.7137 4.66883C26.6263 4.66256 26.5385 4.67358 26.4553 4.70124C26.3722 4.72891 26.2953 4.77268 26.229 4.83007C26.1628 4.88746 26.1084 4.95733 26.0692 5.03571C26.03 5.11408 26.0065 5.19941 26.0003 5.28684C25.994 5.37427 26.005 5.46207 26.0327 5.54524L26.2927 6.32524C26.3093 6.37443 26.3143 6.4268 26.3074 6.47826C26.3004 6.52971 26.2817 6.57887 26.2527 6.62191C26.2238 6.66626 26.1851 6.70335 26.1395 6.73029C26.0939 6.75724 26.0428 6.7733 25.99 6.77724L24.846 6.87324L23.9333 5.03591C23.8543 4.87766 23.7156 4.75729 23.5479 4.70128C23.3801 4.64527 23.1969 4.65821 23.0387 4.73724C22.8804 4.81628 22.7601 4.95494 22.704 5.12272C22.648 5.2905 22.661 5.47366 22.74 5.63191L23.42 6.99124L21.236 7.17524C21.0409 7.1947 20.8488 7.23768 20.664 7.30324L19.384 4.31391C19.342 4.21597 19.3273 4.10851 19.3414 4.0029C19.3555 3.89728 19.3978 3.79743 19.464 3.71391L21.1933 1.55191C21.2652 1.46156 21.3624 1.39466 21.4725 1.35976C21.5825 1.32485 21.7005 1.32351 21.8113 1.35591L22.0113 1.41724C25.782 2.59696 29.6536 3.42625 33.5767 3.89458C33.7149 3.90673 33.8452 3.96415 33.9474 4.05793C34.0496 4.15171 34.118 4.27661 34.142 4.41324C34.658 7.03339 35.3693 9.61125 36.27 12.1252C37.4487 15.7066 38.6667 19.4092 38.6667 22.6666C38.6961 25.2998 37.9733 27.8866 36.5833 30.1232C36.5793 30.1292 36.578 30.1372 36.574 30.1439C36.2709 30.638 35.9208 31.1017 35.5287 31.5286C35.465 31.5901 35.4142 31.6636 35.3793 31.745C35.3443 31.8263 35.3259 31.9138 35.3252 32.0023C35.3244 32.0908 35.3413 32.1786 35.3748 32.2605C35.4083 32.3425 35.4578 32.4169 35.5204 32.4795C35.583 32.5421 35.6574 32.5916 35.7394 32.6251C35.8213 32.6586 35.9091 32.6755 35.9976 32.6747C36.0861 32.674 36.1736 32.6556 36.2549 32.6206C36.3363 32.5857 36.4098 32.5349 36.4713 32.4712C36.4793 32.4632 36.5507 32.3906 36.6607 32.2652C36.7253 33.0853 36.5278 33.9047 36.0967 34.6052C35.1973 35.8286 29.5633 37.2719 25.146 36.0579C24.16 35.8005 23.2269 35.3717 22.3893 34.7912C22.2457 34.6882 22.067 34.6464 21.8925 34.6751C21.718 34.7038 21.5621 34.8006 21.459 34.9442C21.3559 35.0879 21.3141 35.2666 21.3428 35.4411C21.3715 35.6156 21.4683 35.7715 21.612 35.8746C22.207 36.2914 22.8489 36.6366 23.5247 36.9032C22.0133 37.8186 19.636 38.6666 16 38.6666C12.9333 38.6666 10.034 37.3592 8.14067 36.2666C7.06874 35.6579 6.05336 34.9547 5.10667 34.1652C4.97289 34.0575 4.80267 34.0055 4.63152 34.0202C4.46037 34.0349 4.30149 34.1151 4.18801 34.244C4.07452 34.373 4.0152 34.5408 4.0224 34.7124C4.0296 34.884 4.10278 35.0462 4.22667 35.1652C4.94644 35.7694 5.7069 36.3234 6.50267 36.8232C5.01966 37.5959 3.37221 37.9995 1.7 37.9999C1.6517 38.0005 1.60378 37.9913 1.55905 37.9731C1.51432 37.9549 1.47369 37.9279 1.43953 37.8937C1.40538 37.8596 1.37839 37.8189 1.36015 37.7742C1.34192 37.7295 1.3328 37.6815 1.33333 37.6332V23.9999C1.33333 23.8231 1.2631 23.6535 1.13807 23.5285C1.01305 23.4035 0.843478 23.3332 0.666667 23.3332C0.489856 23.3332 0.320286 23.4035 0.195262 23.5285C0.0702379 23.6535 0 23.8231 0 23.9999L0 37.6332C0.000529308 38.084 0.179806 38.516 0.498503 38.8347C0.8172 39.1534 1.24929 39.3327 1.7 39.3332Z" fill="#272727"/>
<path d="M14.7608 29.2419C17.406 29.2225 20.004 28.5389 22.3162 27.2539C22.3933 27.2124 22.4615 27.1561 22.5169 27.0882C22.5723 27.0204 22.6137 26.9423 22.6389 26.8584C22.6641 26.7745 22.6726 26.6865 22.6637 26.5994C22.6549 26.5122 22.629 26.4277 22.5875 26.3505C22.546 26.2734 22.4897 26.2052 22.4219 26.1498C22.354 26.0945 22.2759 26.053 22.192 26.0278C22.0226 25.9769 21.8399 25.9954 21.6842 26.0792C13.5288 30.4692 7.34151 25.6845 7.08417 25.4792C6.946 25.3689 6.76965 25.318 6.59393 25.3376C6.41821 25.3573 6.2575 25.446 6.14717 25.5842C6.03684 25.7224 5.98592 25.8987 6.00561 26.0745C6.02531 26.2502 6.114 26.4109 6.25217 26.5212C7.65262 27.5424 9.23281 28.2907 10.9102 28.7272C12.1652 29.0687 13.4601 29.2418 14.7608 29.2419Z" fill="#272727"/>
</g>
<defs>
<clipPath id="clip0_108_8319">
<rect width="40" height="40" fill="white"/>
</clipPath>
</defs>
</svg>
