<svg width="40" height="40" viewBox="0 0 40 40" fill="none" xmlns="http://www.w3.org/2000/svg">
<g clip-path="url(#clip0_108_8780)">
<path d="M4.78613 0.512695H7.53135V8.13868H4.78613V0.512695Z" fill="#EEEEEE"/>
<path d="M5.98271 5.39346V0.512695H4.78613V8.13868H7.53135V6.9421C6.67605 6.9421 5.98271 6.24876 5.98271 5.39346Z" fill="#E0E0E0"/>
<path d="M2.04102 1.3667H4.78623V7.28516H2.04102V1.3667Z" fill="#E0E0E0"/>
<path d="M3.2376 4.53995V1.3667H2.04102V7.28516H4.78623V6.08858C3.93093 6.08858 3.2376 5.39525 3.2376 4.53995Z" fill="#C9C9C9"/>
<path d="M32.458 0.512695H35.2032V8.13868H32.458V0.512695Z" fill="#EEEEEE"/>
<path d="M34.0066 5.39346V0.512695H35.2032V8.13868H32.458V6.9421C33.3133 6.9421 34.0066 6.24876 34.0066 5.39346Z" fill="#E0E0E0"/>
<path d="M35.2036 1.3667H37.9488V7.28516H35.2036V1.3667Z" fill="#E0E0E0"/>
<path d="M36.7522 4.53995V1.3667H37.9488V7.28516H35.2036V6.08858C36.0589 6.08858 36.7522 5.39525 36.7522 4.53995Z" fill="#C9C9C9"/>
<path d="M25.2565 39.4872H21.8576L20.0396 23.0913H25.2565V39.4872Z" fill="#FDD2B5"/>
<path d="M23.7178 23.0913H25.2562V39.4872H23.7178V23.0913Z" fill="#F9B995"/>
<path d="M18.1425 39.4872H14.7437V23.0913H19.9606L18.1425 39.4872Z" fill="#FDD2B5"/>
<path d="M14.7437 23.0913H16.2821V39.4872H14.7437V23.0913Z" fill="#F9B995"/>
<path d="M25.2565 23.0913H20.0396L21.2329 33.8534H25.2565V23.0913Z" fill="#5C6BC0"/>
<path d="M20.0396 23.0913L20.2101 24.6298H22.0086C22.9527 24.6298 23.718 25.3951 23.718 26.3392V33.8534H25.2565V23.0913H20.0396Z" fill="#5060A3"/>
<path d="M14.7437 23.0913V33.8534H18.7672L19.9606 23.0913H14.7437Z" fill="#5C6BC0"/>
<path d="M18.077 24.7152H19.7805L19.9606 23.0913H14.7437V33.8534H16.3676V26.4246C16.3676 25.4805 17.1329 24.7152 18.077 24.7152Z" fill="#5060A3"/>
<path d="M23.0623 13.386L23.0622 13.3433L23.0603 13.3453H16.9397C16.9469 14.5452 15.9654 15.5166 14.7643 15.4984H14.7437V23.0912H25.2565V15.498C24.0807 15.4853 23.1186 14.5592 23.0623 13.386Z" fill="#ED4848"/>
<path d="M16.4531 16.353H16.4737C17.6748 16.3712 18.6563 15.3997 18.6491 14.1999V13.3452H16.9397C16.9469 14.5451 15.9654 15.5165 14.7643 15.4983H14.7437V23.0911H16.4531V16.353Z" fill="#CC4040"/>
<path d="M16.9396 13.3454L13.0784 9.06574V3.53138C13.0784 2.68266 12.3896 1.99463 11.5399 1.99463C10.6903 1.99463 10.0015 2.68266 10.0015 3.53138V9.65702C10.0015 10.0836 10.1613 10.4948 10.4496 10.8096L14.7435 15.4982V15.4986H14.7642C15.9652 15.5167 16.9467 14.5452 16.9396 13.3454Z" fill="#FDD2B5"/>
<path d="M16.2172 14.8148H16.1965V14.8145L11.9026 10.1258C11.6143 9.81104 11.4545 9.39993 11.4545 8.97326V2.84762C11.4545 2.53591 11.548 2.24634 11.7076 2.00412C11.6525 1.99813 11.5966 1.99463 11.5399 1.99463C10.6903 1.99463 10.0015 2.68266 10.0015 3.53138V9.65702C10.0015 10.0836 10.1613 10.4948 10.4496 10.8096L14.7435 15.4982V15.4986H14.7642C15.3986 15.5081 15.9716 15.2416 16.3702 14.8111C16.3196 14.8139 16.2686 14.8156 16.2172 14.8148Z" fill="#F9B995"/>
<path d="M28.4599 1.99463C27.6102 1.99463 26.9214 2.68266 26.9214 3.53138V9.06574L23.062 13.3433L23.0621 13.3861C23.1183 14.5593 24.0805 15.4854 25.2563 15.4981L29.5502 10.8095C29.8385 10.4947 29.9983 10.0836 29.9983 9.65694V3.5313C29.9983 2.68266 29.3095 1.99463 28.4599 1.99463Z" fill="#FDD2B5"/>
<path d="M28.4599 1.99463C28.3384 1.99463 28.2207 2.01018 28.1074 2.03677C28.4277 2.31839 28.6308 2.72984 28.6308 3.18959V9.31523C28.6308 9.74181 28.471 10.153 28.1827 10.4678L23.9683 15.0697C24.3303 15.3349 24.7754 15.4931 25.2563 15.4983L29.5502 10.8097C29.8385 10.4949 29.9983 10.0838 29.9983 9.65711V3.53147C29.9983 2.68266 29.3095 1.99463 28.4599 1.99463Z" fill="#F9B995"/>
<path d="M20.0001 15.6349C19.1741 15.6349 18.5044 14.9652 18.5044 14.1391V8.68896H21.4958V14.1391C21.4958 14.9652 20.8262 15.6349 20.0001 15.6349Z" fill="#FDD2B5"/>
<path d="M19.8719 14.1391V8.68896H18.5044V14.1391C18.5044 14.9652 19.1741 15.6349 20.0001 15.6349C20.2467 15.6349 20.4788 15.5741 20.6839 15.4684C20.202 15.22 19.8719 14.7185 19.8719 14.1391Z" fill="#F9B995"/>
<path d="M20 11.7335C22.313 11.7335 24.1881 9.86056 24.1881 7.55012C24.1881 5.23968 22.313 3.3667 20 3.3667C17.6871 3.3667 15.812 5.23968 15.812 7.55012C15.812 9.86056 17.6871 11.7335 20 11.7335Z" fill="#FDD2B5"/>
<path d="M17.5214 7.55012C17.5214 5.53225 18.9517 3.84832 20.8547 3.45414C20.5788 3.39696 20.293 3.3667 20 3.3667C17.6871 3.3667 15.812 5.23969 15.812 7.55012C15.812 9.86055 17.6871 11.7335 20 11.7335C20.293 11.7335 20.5788 11.7033 20.8547 11.6461C18.9517 11.2519 17.5214 9.56798 17.5214 7.55012Z" fill="#F9B995"/>
<path d="M21.7648 3.75627C21.2284 3.50687 20.6307 3.3667 20 3.3667C17.6871 3.3667 15.812 5.23969 15.812 7.55012C18.3662 7.55012 20.6885 6.07012 21.7648 3.75627Z" fill="#616161"/>
<path d="M20.641 3.41699C19.6365 5.1558 17.8911 6.33443 15.916 6.62528C15.8488 6.92306 15.812 7.23229 15.812 7.55033C18.3662 7.55033 20.6885 6.07024 21.7648 3.75648C21.4139 3.59332 21.0365 3.47802 20.641 3.41699Z" fill="#4C4C4C"/>
<path d="M39.487 39.9998H37.693C37.4098 39.9998 37.1802 39.7701 37.1802 39.4869C37.1802 39.2038 37.4098 38.9741 37.693 38.9741H39.487C39.7702 38.9741 39.9998 39.2038 39.9998 39.4869C39.9998 39.7701 39.7702 39.9998 39.487 39.9998Z" fill="#333333"/>
<path d="M8.45051 34.7244H3.93128C3.64812 34.7244 3.41846 34.4947 3.41846 34.2116C3.41846 33.9284 3.64812 33.6987 3.93128 33.6987H8.45051C8.73367 33.6987 8.96333 33.9284 8.96333 34.2116C8.96333 34.4947 8.73367 34.7244 8.45051 34.7244Z" fill="#333333"/>
<path d="M6.74124 30.3669H1.36731C1.08415 30.3669 0.854492 30.1373 0.854492 29.8541C0.854492 29.571 1.08415 29.3413 1.36731 29.3413H6.74124C7.02441 29.3413 7.25407 29.571 7.25407 29.8541C7.25407 30.1373 7.02441 30.3669 6.74124 30.3669Z" fill="#333333"/>
<path d="M36.0682 34.7244H31.549C31.2658 34.7244 31.0361 34.4947 31.0361 34.2116C31.0361 33.9284 31.2658 33.6987 31.549 33.6987H36.0682C36.3513 33.6987 36.581 33.9284 36.581 34.2116C36.581 34.4947 36.3513 34.7244 36.0682 34.7244Z" fill="#333333"/>
<path d="M38.6324 30.3669H33.2584C32.9753 30.3669 32.7456 30.1373 32.7456 29.8541C32.7456 29.571 32.9753 29.3413 33.2584 29.3413H38.6324C38.9155 29.3413 39.1452 29.571 39.1452 29.8541C39.1452 30.1373 38.9155 30.3669 38.6324 30.3669Z" fill="#333333"/>
<path d="M16.5436 28.5577C16.564 29.0839 16.866 29.4724 17.218 29.4253C17.5701 29.3782 17.8389 28.9134 17.8185 28.3871C17.798 27.8608 17.4961 27.4724 17.144 27.5195C16.792 27.5667 16.5231 28.0315 16.5436 28.5577Z" fill="white"/>
<path d="M20.8352 20.3808C21.3486 20.3808 21.7647 19.7293 21.7647 18.9257C21.7647 18.1221 21.3486 17.4707 20.8352 17.4707C20.3219 17.4707 19.9058 18.1221 19.9058 18.9257C19.9058 19.7293 20.3219 20.3808 20.8352 20.3808Z" fill="white"/>
<path d="M37.9589 0.853761H35.7265V0.512821C35.7265 0.229658 35.4968 0 35.2137 0H32.4685C32.1853 0 31.9556 0.229658 31.9556 0.512821V3.81299H30.5113V3.53128C30.5113 2.40111 29.591 1.48171 28.46 1.48171C27.3289 1.48171 26.4087 2.4012 26.4087 3.53128V3.81299H22.843C22.0529 3.21162 21.0677 2.8535 20 2.8535C18.9323 2.8535 17.9471 3.21154 17.157 3.81299H13.5913V3.53128C13.5913 2.40111 12.671 1.48171 11.54 1.48171C10.409 1.48171 9.48872 2.4012 9.48872 3.53128V3.81299H8.04436V0.512821C8.04436 0.229658 7.8147 0 7.53154 0H4.78632C4.50316 0 4.2735 0.229658 4.2735 0.512821V0.853761H2.04111C1.75795 0.853761 1.52829 1.08342 1.52829 1.36658V7.28504C1.52829 7.56821 1.75795 7.79786 2.04111 7.79786H4.2735V8.1388C4.2735 8.42197 4.50316 8.65162 4.78632 8.65162H7.53154C7.8147 8.65162 8.04436 8.42197 8.04436 8.1388V4.83863H9.48872V9.65692C9.48872 10.2132 9.69564 10.7455 10.0715 11.1559L14.2308 15.6974V38.9744H0.512821C0.229658 38.9744 0 39.204 0 39.4872C0 39.7703 0.229658 40 0.512821 40H34.7872C35.0703 40 35.3 39.7703 35.3 39.4872C35.3 39.204 35.0703 38.9744 34.7872 38.9744H25.7692V23.0913V15.6975L29.9285 11.156C30.3044 10.7456 30.5113 10.2132 30.5113 9.65701V4.83863H31.9556V8.1388C31.9556 8.42197 32.1853 8.65162 32.4685 8.65162H35.2137C35.4968 8.65162 35.7265 8.42197 35.7265 8.1388V7.79786H37.9589C38.2421 7.79786 38.4717 7.56821 38.4717 7.28504V1.36658C38.4717 1.08342 38.2421 0.853761 37.9589 0.853761ZM4.2735 6.77222H2.55393V1.8794H4.2735V6.77222ZM7.01872 7.62607H5.29915V1.02564H7.01872V7.62607ZM26.4087 4.83863V8.86846L22.8323 12.8325H22.0085V11.7947C23.5985 11.0409 24.7009 9.42171 24.7009 7.54974C24.7009 6.54034 24.3793 5.60504 23.8348 4.83855L26.4087 4.83863ZM20 3.87923C20.3489 3.87923 20.7076 3.93145 21.0422 4.03051C20.0675 5.70145 18.2908 6.83256 16.3648 7.01051C16.6274 5.23701 18.2095 3.87923 20 3.87923ZM21.9785 4.45889C22.9978 5.11205 23.6752 6.25308 23.6752 7.54983C23.6752 9.57385 22.0265 11.2204 20 11.2204C18.1397 11.2204 16.5989 9.83248 16.3585 8.03923C18.7038 7.85615 20.8236 6.50624 21.9785 4.45889ZM20.9829 12.1421V14.1389C20.9829 14.6809 20.542 15.1218 20 15.1218C19.458 15.1218 19.0171 14.6809 19.0171 14.1389V12.1421C19.3343 12.2097 19.6629 12.2462 20 12.2462C20.3371 12.2462 20.6657 12.2097 20.9829 12.1421ZM13.5913 4.83863H16.1652C15.6207 5.60513 15.2991 6.54043 15.2991 7.54983C15.2991 9.42179 16.4015 11.0409 17.9915 11.7948V12.8326H17.1677L13.5913 8.86855V4.83863ZM10.8279 10.4632C10.6257 10.2425 10.5144 9.95607 10.5144 9.65692V3.53128C10.5144 2.96667 10.9744 2.50735 11.54 2.50735C12.1056 2.50735 12.5656 2.96667 12.5656 3.53128V9.06564C12.5656 9.19248 12.6127 9.31496 12.6977 9.40923L16.417 13.5315C16.3381 14.2821 15.7134 14.9027 14.9616 14.9769L10.8279 10.4632ZM18.308 33.3405H15.2564V23.6041H19.3876L18.308 33.3405ZM15.2564 38.9744V34.3662H18.1944L17.6834 38.9744H15.2564ZM18.7153 38.9744L20 27.3881L21.2847 38.9744H18.7153ZM24.7436 38.9744H22.3166L21.8056 34.3662H24.7436V38.9744ZM24.7436 33.3405H21.692L21.6919 33.3403L20.6123 23.6041H23.3478H24.7436V33.3405ZM24.7436 22.5785H15.2564V15.9716C16.3256 15.7869 17.2028 14.9244 17.4046 13.8582H17.9915V14.1389C17.9915 15.2464 18.8925 16.1474 20 16.1474C21.1075 16.1474 22.0085 15.2464 22.0085 14.1389V13.8582H22.6094C22.8389 14.9181 23.6826 15.7456 24.7436 15.9577V22.5785ZM29.4856 9.65692C29.4856 9.95607 29.3743 10.2425 29.1721 10.4632L25.0467 14.9678C24.297 14.8645 23.6983 14.2753 23.5902 13.5237L27.3023 9.40923C27.3873 9.31496 27.4344 9.19256 27.4344 9.06564V3.53128C27.4344 2.96667 27.8944 2.50735 28.46 2.50735C29.0256 2.50735 29.4856 2.96667 29.4856 3.53128V9.65692ZM34.7009 7.62607H32.9813V1.02564H34.7009V7.62607ZM37.4461 6.77222H35.7265V1.8794H37.4461V6.77222Z" fill="#333333"/>
</g>
<defs>
<clipPath id="clip0_108_8780">
<rect width="40" height="40" fill="white"/>
</clipPath>
</defs>
</svg>
