<svg width="40" height="40" viewBox="0 0 40 40" fill="none" xmlns="http://www.w3.org/2000/svg">
<g clip-path="url(#clip0_108_8610)">
<path d="M39.015 21.1474C38.6446 20.4116 38.6439 19.541 39.0121 18.8041C40.3779 16.0698 40.35 12.6112 38.6456 9.63812C36.7761 6.37692 33.3956 4.58325 30.0639 4.72957C29.2158 4.76684 28.3974 4.38077 27.8839 3.70479C26.1879 1.47214 23.2835 0 19.9849 0C16.6787 0 13.7686 1.47889 12.0744 3.72017C11.5613 4.39889 10.7418 4.78684 9.89163 4.75239C6.56949 4.61795 3.20334 6.41086 1.33932 9.66239C-0.370081 12.6443 -0.393158 16.1146 0.985048 18.8527C1.35539 19.5885 1.35607 20.4591 0.987954 21.196C-0.377858 23.9303 -0.349995 27.3889 1.35436 30.362C3.22394 33.6232 6.60445 35.4168 9.93616 35.2705C10.7842 35.2332 11.6026 35.6193 12.1161 36.2953C13.8121 38.5279 16.7165 40 20.0151 40C23.3213 40 26.2314 38.5211 27.9256 36.2798C28.4387 35.6011 29.2582 35.2132 30.1084 35.2476C33.4306 35.3821 36.7967 33.5891 38.6607 30.3376C40.3701 27.3557 40.3932 23.8854 39.015 21.1474Z" fill="#F0EBF8"/>
<g opacity="0.5">
<path d="M33.7545 8.51055C34.085 8.51055 34.3528 8.24268 34.3528 7.91226C34.3528 7.58183 34.085 7.31396 33.7545 7.31396C33.4241 7.31396 33.1562 7.58183 33.1562 7.91226C33.1562 8.24268 33.4241 8.51055 33.7545 8.51055Z" fill="white"/>
</g>
<g opacity="0.5">
<path d="M6.26382 8.71807C6.59424 8.71807 6.86211 8.4502 6.86211 8.11977C6.86211 7.78935 6.59424 7.52148 6.26382 7.52148C5.93339 7.52148 5.66553 7.78935 5.66553 8.11977C5.66553 8.4502 5.93339 8.71807 6.26382 8.71807Z" fill="white"/>
</g>
<g opacity="0.6">
<path d="M29.0729 15.7066L29.5695 15.8118L28.9952 15.9747C28.6927 16.0606 28.4618 16.3054 28.3939 16.6124L28.2874 17.0939L28.1809 16.6124C28.1131 16.3054 27.8821 16.0606 27.5796 15.9747L27.0054 15.8118L27.502 15.7066C27.8235 15.6385 28.0774 15.392 28.1552 15.0727L28.2874 14.5298L28.4196 15.0727C28.4974 15.392 28.7514 15.6385 29.0729 15.7066Z" fill="#AD9CDB"/>
</g>
<g opacity="0.6">
<path d="M12.0246 16.2804L12.5211 16.3856L11.9469 16.5485C11.6444 16.6343 11.4134 16.8792 11.3456 17.1862L11.2391 17.6676L11.1326 17.1862C11.0647 16.8792 10.8338 16.6343 10.5313 16.5485L9.95703 16.3856L10.4536 16.2804C10.7752 16.2122 11.0291 15.9657 11.1069 15.6464L11.2391 15.1035L11.3713 15.6464C11.4491 15.9657 11.703 16.2122 12.0246 16.2804Z" fill="#FF8A80"/>
</g>
<path d="M20.0211 0.427246C19.2808 0.427246 18.5626 0.512118 17.8777 0.671434C16.9018 0.898528 16.2075 1.76246 16.2075 2.76443C15.576 2.14648 14.5729 2.13451 13.9217 2.73152C12.4079 4.1193 11.4741 6.02118 11.4741 8.11955C11.4741 12.3679 15.3007 15.8119 20.0211 15.8119C24.7416 15.8119 28.5681 12.3679 28.5681 8.11955C28.5681 3.87118 24.7415 0.427246 20.0211 0.427246Z" fill="#616161"/>
<path d="M13.1835 8.1198C13.1835 6.02142 14.1173 4.11954 15.631 2.73176C15.7157 2.65407 15.8066 2.58732 15.9016 2.53022C15.2838 2.15834 14.4757 2.22381 13.9216 2.73176C12.4079 4.11954 11.4741 6.02142 11.4741 8.1198C11.4741 12.3682 15.3007 15.8121 20.0211 15.8121C20.3096 15.8121 20.5947 15.799 20.8758 15.7739C16.5568 15.3879 13.1835 12.1085 13.1835 8.1198Z" fill="#474747"/>
<path d="M38.3345 21.5557L36.0976 13.0827C36.026 12.8117 35.9185 12.5515 35.778 12.3089L35.7609 12.2794C35.1661 11.2532 34.0696 10.623 32.8845 10.6256L32.3909 10.6265C31.3439 10.6285 30.4977 11.4807 30.5032 12.5277C30.5086 13.5683 31.3538 14.4092 32.3945 14.4092H32.6447L33.781 20.4494C31.8006 19.3818 29.4169 19.378 27.433 20.4391L27.4139 20.4494C22.6533 18.7887 17.4717 18.783 12.7075 20.4333L12.6611 20.4494C10.6633 19.3808 8.26474 19.3765 6.26329 20.4381L6.242 20.4494L7.37824 14.4092H7.62756C8.67235 14.4092 9.51936 13.5622 9.51936 12.5174C9.51936 11.4735 8.67371 10.6269 7.62987 10.6256L7.14918 10.625C5.95653 10.6235 4.85337 11.2573 4.25389 12.2883C4.0991 12.5546 3.98337 12.834 3.90636 13.1258C3.53628 14.5283 2.36491 18.966 1.66303 21.6248C1.34893 22.8146 1.95534 24.0541 3.08705 24.5371L3.14944 24.5637C5.03252 25.3672 7.09337 25.6211 9.10406 25.3002C9.63559 25.2154 9.8503 25.154 9.8503 25.154V37.1123C9.8503 37.9619 10.5391 38.6507 11.3888 38.6507H28.4288C29.2765 38.6507 29.9645 37.9649 29.9672 37.1172L30.0053 25.1813L30.99 25.3504C32.9575 25.6382 34.9661 25.3777 36.7949 24.5972L36.8615 24.5688C38.0323 24.0693 38.6594 22.7865 38.3345 21.5557Z" fill="#F9ED99"/>
<path d="M11.56 37.1122V25.1538C11.56 25.1538 11.3452 25.2153 10.8137 25.3C10.4937 25.3512 10.1723 25.3859 9.85059 25.408V37.1121C9.85059 37.9618 10.5394 38.6506 11.389 38.6506H13.0984C12.2488 38.6506 11.56 37.9618 11.56 37.1122Z" fill="#FFC480"/>
<path d="M4.85884 24.5637L4.79645 24.5371C3.66465 24.0542 3.05833 22.8146 3.37243 21.6248C4.07431 18.966 5.24568 14.5283 5.61577 13.1258C5.69277 12.834 5.80841 12.5547 5.96329 12.2884C6.44226 11.4647 7.2432 10.8956 8.15397 10.7004C7.98747 10.6523 7.81183 10.6259 7.62987 10.6256L7.14918 10.625C5.95653 10.6235 4.85337 11.2573 4.25389 12.2883C4.0991 12.5546 3.98337 12.834 3.90636 13.1257C3.53628 14.5283 2.36491 18.9659 1.66303 21.6247C1.34893 22.8145 1.95534 24.0541 3.08705 24.5371L3.14944 24.5636C4.7691 25.2547 6.52012 25.538 8.25773 25.4C7.09483 25.3077 5.94713 25.0281 4.85884 24.5637Z" fill="#FFC480"/>
<path d="M16.8403 12.1484V21.071C16.8403 22.8277 18.2644 24.2518 20.0211 24.2518C21.7778 24.2518 23.2019 22.8277 23.2019 21.071V12.1484H16.8403Z" fill="#FFDECF"/>
<path d="M18.5497 21.071V12.1484H16.8403V21.071C16.8403 22.8277 18.2644 24.2518 20.0211 24.2518C20.3173 24.2518 20.6038 24.2104 20.8758 24.1347C19.5343 23.7612 18.5497 22.5315 18.5497 21.071Z" fill="#FFC7B3"/>
<path d="M14.2485 5.68722V13.5297C14.2485 16.7178 16.833 19.3023 20.0211 19.3023C23.2092 19.3023 25.7937 16.7178 25.7937 13.5297V4.83252L20.8353 7.59269C18.4916 8.89731 15.5337 8.04167 14.2485 5.68722Z" fill="#FFDECF"/>
<path d="M17.2752 12.2577C17.6054 12.2577 17.8731 11.9513 17.8731 11.5734C17.8731 11.1955 17.6054 10.8892 17.2752 10.8892C16.945 10.8892 16.6772 11.1955 16.6772 11.5734C16.6772 11.9513 16.945 12.2577 17.2752 12.2577Z" fill="#333333"/>
<path d="M22.7469 12.2577C23.0771 12.2577 23.3448 11.9513 23.3448 11.5734C23.3448 11.1955 23.0771 10.8892 22.7469 10.8892C22.4166 10.8892 22.1489 11.1955 22.1489 11.5734C22.1489 11.9513 22.4166 12.2577 22.7469 12.2577Z" fill="#333333"/>
<path d="M20.0645 16.9526C19.4254 16.9526 18.8157 16.6416 18.4412 16.1228C18.3031 15.9314 18.3463 15.6644 18.5375 15.5262C18.7289 15.3881 18.9961 15.4313 19.1341 15.6226C19.5718 16.2289 20.5121 16.2462 20.9707 15.6518L21.0011 15.6121C21.1451 15.425 21.4133 15.39 21.6005 15.5341C21.7875 15.678 21.8225 15.9463 21.6786 16.1334C21.3023 16.6438 20.6999 16.9526 20.0645 16.9526Z" fill="#333333"/>
<path d="M36.0977 13.0826C36.0262 12.8116 35.9187 12.5514 35.7781 12.3088L35.7611 12.2793C35.1663 11.2531 34.0698 10.6228 32.8846 10.6255L32.3911 10.6264C31.3441 10.6284 30.498 11.4806 30.5034 12.5275C30.5088 13.5682 31.354 14.4091 32.3947 14.4091H32.645L33.043 16.5252H37.0067L36.0977 13.0826Z" fill="#FFDECF"/>
<path d="M7.37842 14.4092H7.62774C8.67253 14.4092 9.51953 13.5622 9.51953 12.5174C9.51953 11.4735 8.67389 10.6269 7.63005 10.6256L7.14936 10.625C5.95671 10.6235 4.85355 11.2573 4.25406 12.2883C4.09928 12.5546 3.98355 12.834 3.90654 13.1257C3.73612 13.7717 3.39552 15.0619 3.00928 16.5253H6.98039L7.37842 14.4092Z" fill="#FFDECF"/>
<path d="M5.445 13.8949C5.52201 13.6031 5.63765 13.3238 5.79253 13.0576C6.39201 12.0265 7.49517 11.3928 8.68782 11.3942L9.15039 11.3948C8.80629 10.9289 8.25364 10.6264 7.63005 10.6256L7.14936 10.625C5.95671 10.6235 4.85355 11.2573 4.25406 12.2883C4.09928 12.5546 3.98355 12.834 3.90654 13.1257C3.73612 13.7717 3.39552 15.0619 3.00928 16.5253H4.75073C5.0509 15.3884 5.30518 14.4247 5.445 13.8949Z" fill="#FFC7B3"/>
<path d="M15.2107 26.8009C15.3837 36.422 8.33484 39.5723 8.33484 39.5723C8.33484 39.5723 1.21971 37.1912 1.45903 26.8009L1.5057 26.7932C3.19835 26.5149 4.43817 25.0484 4.431 23.333H12.2386C12.2316 25.0485 13.4716 26.5151 15.1644 26.7933L15.2107 26.8009Z" fill="#89DCBD"/>
<path d="M3.08296 27.741L3.12963 27.7334C4.82228 27.4551 5.89117 25.9886 5.88399 24.2732V23.333H4.431C4.43818 25.0484 3.19835 26.5149 1.5057 26.7932L1.45903 26.8009C1.24843 35.9445 6.73236 38.8851 8.05168 39.4593C5.96262 37.9583 2.92518 34.5898 3.08296 27.741Z" fill="#5EC2CD"/>
<path d="M12.7569 32.1055C12.2566 33.4609 11.5364 34.6768 10.6076 35.7348C10.327 36.0544 10.3462 36.5382 10.6467 36.8391L10.6468 36.8392C10.9772 37.1701 11.5201 37.1563 11.8284 36.8046C12.7332 35.7722 13.6331 34.4151 14.2773 32.6747C14.4396 32.2362 14.1979 31.7512 13.7504 31.616C13.342 31.4926 12.9047 31.7053 12.7569 32.1055Z" fill="white"/>
<path d="M11.2393 30.8542H8.76068V28.3756C8.76068 28.1396 8.5694 27.9482 8.33333 27.9482C8.09727 27.9482 7.90598 28.1396 7.90598 28.3756V30.8542H5.42735C5.19128 30.8542 5 31.0456 5 31.2816C5 31.5176 5.19128 31.7089 5.42735 31.7089H7.90598V34.1876C7.90598 34.4235 8.09727 34.6149 8.33333 34.6149C8.5694 34.6149 8.76068 34.4235 8.76068 34.1876V31.7089H11.2393C11.4754 31.7089 11.6667 31.5176 11.6667 31.2816C11.6667 31.0456 11.4754 30.8542 11.2393 30.8542Z" fill="#333333"/>
<path d="M37.927 33.3176C37.5377 33.0346 37.0714 32.966 36.6517 33.0758C36.5138 33.1119 36.367 33.0868 36.2435 33.0156C36.0192 32.886 35.9104 32.6256 35.9768 32.3784C36.0926 31.9469 36.1546 31.4935 36.1546 31.0255C36.1546 30.558 36.0927 30.105 35.9772 29.674C35.9108 29.4262 36.0191 29.1651 36.2411 29.0368C36.3661 28.9645 36.5146 28.9395 36.6543 28.9757C37.0733 29.0846 37.5384 29.0157 37.9269 28.7333C38.4952 28.3203 38.7044 27.5493 38.4222 26.906C38.0527 26.0638 37.0491 25.7503 36.2757 26.1972C35.9179 26.4039 35.6774 26.7349 35.5752 27.1041C35.5367 27.2436 35.4408 27.3602 35.3154 27.4327C35.0926 27.5614 34.8112 27.5246 34.6294 27.3426C33.994 26.7066 33.1952 26.2345 32.3013 25.9945C32.0505 25.9271 31.8739 25.7033 31.8739 25.4436C31.8739 25.2947 31.9334 25.1527 32.0369 25.0457C32.3352 24.7373 32.5042 24.3032 32.4541 23.8295C32.3804 23.1315 31.8184 22.5651 31.1207 22.488C30.2072 22.3872 29.4341 23.1003 29.4341 23.9941C29.4341 24.4035 29.5969 24.7741 29.8607 25.0465C29.964 25.1533 30.023 25.2951 30.023 25.4436C30.023 25.7033 29.8464 25.9271 29.5957 25.9945C28.7017 26.2345 27.9029 26.7066 27.2675 27.3426C27.0857 27.5246 26.8044 27.5615 26.5816 27.4327C26.4564 27.3604 26.3604 27.244 26.3219 27.1047C26.2066 26.6872 25.9144 26.3186 25.4758 26.1231C24.8345 25.8371 24.0626 26.0414 23.6471 26.6074C23.1031 27.3488 23.3336 28.3754 24.107 28.8223C24.4645 29.0289 24.8707 29.072 25.241 28.9762C25.3816 28.9398 25.531 28.9646 25.6569 29.0373C25.8791 29.1657 25.9872 29.4238 25.9212 29.6687C25.8047 30.1013 25.7424 30.5561 25.7424 31.0254C25.7424 31.4929 25.8043 31.9459 25.9198 32.3768C25.9863 32.6246 25.878 32.8857 25.6559 33.0141C25.531 33.0863 25.3824 33.1114 25.2427 33.0751C24.8238 32.9662 24.3586 33.0352 23.97 33.3176C23.4017 33.7307 23.1926 34.5015 23.4748 35.1449C23.8443 35.987 24.8479 36.3005 25.6213 35.8537C25.9791 35.6469 26.2196 35.316 26.3217 34.9468C26.3603 34.8073 26.4562 34.6907 26.5815 34.6183C26.8043 34.4896 27.0856 34.5264 27.2675 34.7084C27.9028 35.3445 28.7016 35.8164 29.5957 36.0565C29.8464 36.1239 30.023 36.3476 30.023 36.6073C30.023 36.7562 29.9635 36.898 29.86 37.0051C29.5617 37.3136 29.3927 37.7477 29.4428 38.2215C29.5166 38.9195 30.0786 39.4859 30.7763 39.5629C31.6898 39.6638 32.4628 38.9507 32.4628 38.0568C32.4628 37.6474 32.3 37.2768 32.0362 37.0045C31.9328 36.8978 31.8739 36.7559 31.8739 36.6074C31.8739 36.3477 32.0505 36.1239 32.3013 36.0565C33.1952 35.8164 33.994 35.3444 34.6294 34.7084C34.8113 34.5263 35.0927 34.4895 35.3154 34.6182C35.4407 34.6906 35.5366 34.8073 35.5752 34.9468C35.6774 35.316 35.9179 35.6469 36.2757 35.8537C37.0491 36.3006 38.0527 35.9871 38.4221 35.1449C38.7045 34.5015 38.4953 33.7306 37.927 33.3176Z" fill="#FC7855"/>
<path d="M30.9486 34.0565C32.6212 34.0565 33.9772 32.6994 33.9772 31.0253C33.9772 29.3513 32.6212 27.9941 30.9486 27.9941C29.2759 27.9941 27.9199 29.3513 27.9199 31.0253C27.9199 32.6994 29.2759 34.0565 30.9486 34.0565Z" fill="#FFC8C5"/>
<path d="M30.9487 34.484C29.0431 34.484 27.4927 32.9325 27.4927 31.0254C27.4927 29.1184 29.0431 27.5669 30.9487 27.5669C32.8544 27.5669 34.4048 29.1183 34.4048 31.0254C34.4048 32.9325 32.8544 34.484 30.9487 34.484ZM30.9487 28.4216C29.5144 28.4216 28.3474 29.5897 28.3474 31.0254C28.3474 32.4613 29.5143 33.6293 30.9487 33.6293C32.3832 33.6293 33.5501 32.4612 33.5501 31.0254C33.55 29.5897 32.3831 28.4216 30.9487 28.4216Z" fill="#333333"/>
<path d="M30.803 30.793C31.1747 30.793 31.476 30.4914 31.476 30.1194C31.476 29.7474 31.1747 29.4458 30.803 29.4458C30.4312 29.4458 30.1299 29.7474 30.1299 30.1194C30.1299 30.4914 30.4312 30.793 30.803 30.793Z" fill="#333333"/>
<path d="M31.1078 32.8322C31.3866 32.8322 31.6126 32.606 31.6126 32.327C31.6126 32.048 31.3866 31.8218 31.1078 31.8218C30.829 31.8218 30.603 32.048 30.603 32.327C30.603 32.606 30.829 32.8322 31.1078 32.8322Z" fill="#333333"/>
<path d="M38.1782 32.9722C37.7041 32.6276 37.1084 32.5148 36.5434 32.6627C36.4418 32.6674 36.3905 32.6096 36.3894 32.4895C36.6454 31.5359 36.6455 30.5173 36.3899 29.5636C36.3897 29.441 36.442 29.383 36.5467 29.3896C37.1105 29.5359 37.7051 29.423 38.1781 29.0792C38.9092 28.548 39.1764 27.5619 38.8135 26.7346C38.3582 25.6971 37.0494 25.257 36.0618 25.8274C35.619 26.0833 35.3 26.4964 35.1635 26.9903C35.1167 27.0862 35.0395 27.1031 34.9317 27.0407C34.4383 26.5467 33.8583 26.1505 33.2257 25.8702C34.5068 25.7938 35.771 25.4987 36.9624 24.9903C38.34 24.4342 39.1281 22.8881 38.7475 21.4465L36.5106 12.9733C36.0843 11.36 34.5583 10.1981 32.8919 10.1981C31.4649 10.1574 30.0671 10.91 30.0757 12.5297C30.0821 13.7666 31.0658 14.7791 32.2896 14.8341L33.2073 19.7124C31.3224 18.9698 29.2076 19.0605 27.3789 19.9853C26.1545 19.5694 24.8992 19.262 23.6291 19.0611V18.5668C25.077 17.5266 26.0605 15.8794 26.2024 14.0003C27.9218 12.5203 28.9953 10.4314 28.9953 8.11966C28.9953 3.64248 24.9694 0 20.021 0C19.2626 0 18.5088 0.0858974 17.7806 0.255299C16.8485 0.472222 16.1388 1.16342 15.8832 2.0388C15.1464 1.71752 14.2599 1.84154 13.6328 2.41658C11.9651 3.94556 11.0466 5.97085 11.0466 8.11974C11.0466 10.4312 12.1203 12.5195 13.8394 13.9996C13.9811 15.879 14.9646 17.5264 16.4128 18.5668V19.0664C15.1537 19.2674 13.9092 19.5732 12.6949 19.9856C10.8507 19.0597 8.71636 18.9691 6.81473 19.715L7.73285 14.8342C8.96285 14.7787 9.94636 13.7607 9.94636 12.5174C9.94636 10.93 8.56055 10.1673 7.14465 10.1977C5.44756 10.1977 3.92567 11.3777 3.49268 13.0168C3.1226 14.4193 1.95131 18.857 1.24935 21.5158C0.799862 23.2193 1.91884 24.5681 3.43234 25.1361C2.97337 25.7769 2.26926 26.235 1.4361 26.372L1.38943 26.3797C1.18661 26.4131 1.03627 26.5861 1.03149 26.7915C0.917041 31.7643 2.91354 38.2076 8.19909 39.978C8.30337 40.0119 8.4067 40.0068 8.50909 39.9629C8.55815 39.941 9.33328 39.5881 10.3591 38.7845C10.6586 38.9702 11.0109 39.0781 11.3886 39.0781H28.4285C28.7067 39.0781 28.9709 39.0185 29.211 38.9132C29.5342 39.5527 30.2058 39.9998 30.9444 39.9998C31.9985 39.9998 32.8902 39.1119 32.8902 38.0572C32.8902 37.551 32.6959 37.0717 32.3432 36.7075C32.2699 36.6147 32.2928 36.5354 32.4122 36.4696C33.3619 36.2145 34.2333 35.71 34.9317 35.0108C35.0394 34.9485 35.1167 34.9653 35.1634 35.0611C35.3002 35.5553 35.6192 35.9683 36.0618 36.224C37.0488 36.7943 38.358 36.3552 38.8135 35.3169C39.1763 34.4897 38.9092 33.5036 38.1782 32.9722ZM33.0645 14.3302C33.0264 14.1281 32.85 13.9818 32.6445 13.9818C31.7705 14.037 30.9352 13.4616 30.9303 12.5254C30.9246 11.3986 31.9443 11.0208 32.8917 11.0529C34.1731 11.0529 35.3558 11.9497 35.6841 13.1916L36.4514 16.0979H33.3971L33.397 16.0978L33.0645 14.3302ZM14.1428 5.27316C13.9535 5.32145 13.8211 5.49197 13.8211 5.68726V12.8047C12.6243 11.5389 11.9013 9.90359 11.9013 8.11974C11.9013 6.21333 12.7214 4.41171 14.2104 3.04675C14.683 2.6135 15.4476 2.61915 15.9084 3.07009C16.1736 3.32966 16.6347 3.13573 16.6347 2.76462C16.6347 1.96094 17.1855 1.27145 17.9743 1.08795C18.6391 0.933248 19.3277 0.854786 20.021 0.854786C24.4982 0.854786 28.1406 4.11385 28.1406 8.11974C28.1406 9.90359 27.4176 11.5387 26.2209 12.8044V4.83256C26.2209 4.51231 25.8657 4.30308 25.5857 4.45915L20.6273 7.21923C18.5194 8.39265 15.7776 7.59684 14.6235 5.48248C14.5299 5.31103 14.3322 5.22504 14.1428 5.27316ZM14.6758 13.5297V6.99684C16.3029 8.71453 18.9768 9.11641 21.043 7.96607L25.3662 5.55957V13.5297C25.3662 16.477 22.9683 18.8749 20.021 18.8749C17.0736 18.8749 14.6758 16.4771 14.6758 13.5297ZM4.31918 13.2349C4.65337 11.9691 5.83439 11.0524 7.14473 11.0524C8.0867 11.0196 9.09174 11.3963 9.09174 12.5174C9.09174 13.325 8.43473 13.9819 7.62721 13.9819C7.36294 13.9361 7.01627 14.0206 6.95798 14.3303L6.62542 16.098H3.56354C3.8902 14.8604 4.16995 13.8006 4.31918 13.2349ZM8.31371 39.1062C3.66448 37.1711 1.84892 31.8115 1.88097 27.1527C3.49268 26.757 4.6673 25.4026 4.83713 23.7608H11.8323C12.0022 25.4019 13.1758 26.7558 14.7864 27.1521C14.787 30.8662 13.6966 34.0037 11.5429 36.4826C10.1725 38.0599 8.76995 38.8683 8.31371 39.1062ZM19.6358 38.2234H11.3885C11.2805 38.2234 11.1768 38.2062 11.0781 38.1774C11.4291 37.8588 11.7942 37.4936 12.1592 37.0763C13.7968 35.2038 15.7296 31.8999 15.6377 26.7937C15.6336 26.5609 15.438 26.4135 15.2335 26.3721C13.7395 26.1265 12.6596 24.8494 12.6658 23.3352C12.6422 23.0738 12.4997 22.9308 12.2384 22.9061H4.43089C4.16961 22.9308 4.02713 23.0738 4.00354 23.3352C4.00508 23.6983 3.94354 24.0474 3.82935 24.3723C2.69414 23.9594 1.7226 23.0723 2.07584 21.7338C2.43123 20.3877 2.90679 18.5859 3.33798 16.9526H6.46465L5.82174 20.3703C5.74841 20.7598 6.15627 20.9423 6.46328 20.8155C8.34243 19.8189 10.584 19.823 12.4593 20.8261C12.5645 20.8824 12.6886 20.892 12.801 20.8529L12.8471 20.8368C14.0111 20.4337 15.2046 20.1321 16.4128 19.9315V21.0711C16.4128 22.9306 17.8267 24.4656 19.6358 24.6585V38.2234ZM17.2675 21.0713V19.0824C18.9863 19.9382 21.0552 19.9384 22.7744 19.0824V21.0712C22.7744 22.5895 21.5393 23.8246 20.021 23.8246C18.5027 23.8246 17.2675 22.5896 17.2675 21.0713ZM29.5529 36.7084C29.2004 37.0729 29.0072 37.5562 29.0071 38.0592C28.8385 38.1631 28.6405 38.2235 28.4285 38.2235H20.4905V24.6479C22.2588 24.4168 23.6291 22.9016 23.6291 21.0713V19.927C24.8641 20.1302 26.0841 20.4381 27.2729 20.8528C27.3855 20.8922 27.5099 20.8826 27.6152 20.8262L27.6345 20.8158C29.4968 19.8197 31.7186 19.8231 33.5781 20.8255C33.8885 20.9929 34.266 20.7168 34.2008 20.3703L33.5579 16.9526H36.6771L37.9212 21.6647C38.1973 22.711 37.6145 23.7987 36.627 24.2042C35.344 24.7516 33.97 25.0313 32.5861 25.0352C32.8203 24.6674 32.9259 24.2286 32.879 23.7848C32.7841 22.8864 32.0643 22.1626 31.1676 22.0635C30.0358 21.939 29.0068 22.8539 29.0068 23.9943C29.0068 24.5003 29.201 24.9797 29.5537 25.3439C29.627 25.4368 29.6041 25.5161 29.4847 25.5819C28.5351 25.8369 27.6637 26.3415 26.9651 27.0408C26.8578 27.1029 26.7807 27.0864 26.7338 26.9911C26.5787 26.4295 26.1835 25.9709 25.6498 25.7329C24.8242 25.3648 23.837 25.6263 23.3026 26.3548C22.6289 27.2724 22.9058 28.622 23.8931 29.1926C24.3355 29.4481 24.8522 29.5184 25.3478 29.3902C25.4522 29.382 25.5058 29.4379 25.5085 29.5579C25.2516 30.5126 25.2509 31.5329 25.507 32.4879C25.5073 32.6104 25.455 32.6685 25.3502 32.6618C24.7864 32.5152 24.1917 32.6284 23.7188 32.9722C22.9877 33.5035 22.7205 34.4896 23.0834 35.3169C23.5386 36.3544 24.8476 36.7946 25.8349 36.224C26.2776 35.9682 26.5967 35.5552 26.7335 35.0609C26.7803 34.9652 26.8575 34.9485 26.9651 35.0108C27.6638 35.7102 28.5351 36.2145 29.4847 36.4696C29.6046 36.5357 29.6273 36.6153 29.5529 36.7084ZM38.0306 34.9736C37.775 35.5565 37.0417 35.8031 36.4894 35.484C36.242 35.3411 36.0637 35.11 35.9871 34.8333C35.7901 34.1207 34.849 33.8841 34.327 34.4068C33.7343 35 32.9955 35.428 32.1904 35.6442C31.4718 35.8372 31.2106 36.7668 31.7292 37.3021C31.9268 37.5061 32.0355 37.7742 32.0355 38.0572C32.0355 38.6965 31.4546 39.2089 30.8232 39.1385C30.3227 39.0833 29.9208 38.6788 29.8678 38.1769C29.8337 37.8533 29.9428 37.5347 30.1673 37.3026C30.6905 36.7614 30.4218 35.8362 29.7065 35.6441C28.9015 35.428 28.1627 35.0001 27.5699 34.4068C27.3784 34.215 27.1231 34.1152 26.8652 34.1152C26.4358 34.1152 26.0248 34.4172 25.9098 34.8331C25.8332 35.1099 25.6548 35.341 25.4074 35.484C24.8532 35.8044 24.1211 35.5547 23.8662 34.9736C23.6635 34.5115 23.8128 33.9605 24.2212 33.6636C24.4866 33.4706 24.8199 33.407 25.1353 33.4891C25.857 33.6766 26.5205 32.9677 26.3325 32.2665C26.1159 31.459 26.1163 30.5876 26.3338 29.7803C26.5241 29.0742 25.8452 28.3789 25.1339 28.5627C24.8566 28.6344 24.5677 28.5954 24.3207 28.4526C23.7663 28.1322 23.6158 27.3724 23.9916 26.8605C24.2899 26.4539 24.841 26.3081 25.3017 26.5136C25.6013 26.6472 25.823 26.9042 25.9099 27.2187C26.1065 27.9313 27.0484 28.1669 27.5697 27.6448C28.1625 27.0515 28.9013 26.6236 29.7064 26.4074C30.4249 26.2144 30.6862 25.2847 30.1676 24.7494C29.97 24.5455 29.8613 24.2773 29.8613 23.9944C29.8613 23.3544 30.4423 22.8436 31.0736 22.9131C31.5741 22.9683 31.9759 23.3727 32.0289 23.8747C32.0631 24.1982 31.9541 24.5168 31.7295 24.7489C31.2061 25.2901 31.475 26.2152 32.1903 26.4074C32.9954 26.6237 33.7342 27.0515 34.327 27.6449C34.8493 28.1675 35.7896 27.9309 35.987 27.2183C36.0635 26.9416 36.2418 26.7105 36.4894 26.5675C37.0436 26.2473 37.7757 26.4968 38.0306 27.078C38.2334 27.5401 38.084 28.091 37.6755 28.3879C37.41 28.5808 37.0768 28.6443 36.7616 28.5624C36.0398 28.375 35.3763 29.0837 35.5643 29.785C35.7804 30.5916 35.7805 31.4613 35.5639 32.2679C35.3755 32.9701 36.0472 33.6756 36.7597 33.4896C37.0756 33.4068 37.4094 33.4703 37.6756 33.6636C38.0841 33.9605 38.2335 34.5115 38.0306 34.9736Z" fill="#333333"/>
</g>
<defs>
<clipPath id="clip0_108_8610">
<rect width="40" height="40" fill="white"/>
</clipPath>
</defs>
</svg>
