<svg width="20" height="21" viewBox="0 0 20 21" fill="none" xmlns="http://www.w3.org/2000/svg">
<path d="M9.0498 2.49097H10.958C11.3838 2.49097 11.8692 2.64361 12.3096 2.91577C12.6948 3.15396 13.0176 3.46574 13.2236 3.79858L13.3047 3.94312L13.9014 5.15405L13.9053 5.16089L13.9092 5.1687C14.1179 5.55825 14.5337 5.82395 15 5.82397C15.8947 5.82397 16.7622 6.20023 17.376 6.85718H17.377C18.0004 7.52419 18.3087 8.38141 18.251 9.28394V9.28491L17.8174 16.1677C17.7484 17.251 17.3886 18.047 16.8281 18.573C16.2675 19.0989 15.4504 19.4079 14.3672 19.408H5.63379C4.5677 19.408 3.74437 19.0919 3.17578 18.5574C2.60745 18.023 2.24346 17.2228 2.18262 16.1619V16.1599L1.74902 9.28491V9.28394C1.69119 8.37982 2.00145 7.51584 2.62207 6.85913L2.62402 6.85718C3.23777 6.2002 4.10527 5.82399 5 5.82397C5.45933 5.82397 5.88944 5.55584 6.09766 5.1394L6.09668 5.13843L6.69629 3.94897C6.89258 3.55987 7.25216 3.19089 7.69434 2.91772C8.13678 2.6444 8.62366 2.49103 9.0498 2.49097ZM9.0498 2.74097C8.62272 2.74103 8.18208 2.90307 7.82031 3.12671C7.45802 3.3507 7.11531 3.67328 6.9209 4.0564L6.91992 4.05933L6.31934 5.25854C6.05186 5.76901 5.54717 6.07397 5 6.07397C4.21325 6.07399 3.47849 6.37428 2.91504 6.91089L2.80176 7.02417C2.23407 7.6317 1.94082 8.43458 2.00098 9.26831L2.43457 16.1472C2.48961 17.0691 2.77138 17.8422 3.34375 18.3816C3.91653 18.9213 4.7068 19.158 5.63379 19.158H14.3672C15.2906 19.1579 16.0781 18.9208 16.6504 18.3816C17.2221 17.8427 17.5061 17.0702 17.5654 16.1482V16.1472L17.999 9.2644V9.26245C18.0487 8.43709 17.769 7.63494 17.1982 7.02417H17.1992L17.1953 7.02124C16.6192 6.41554 15.8392 6.07397 15 6.07397C14.4489 6.07395 13.9407 5.76453 13.6748 5.2644L13.0723 4.05933C12.8814 3.67766 12.5384 3.357 12.1777 3.13452C11.8171 2.91207 11.3771 2.74979 10.9502 2.74976H9.5498V2.74097H9.0498Z" fill="#965036" stroke="#965036"/>
<path d="M8.75 7.49097H11.25C11.2801 7.49097 11.3113 7.50341 11.3369 7.52905C11.3626 7.5547 11.375 7.58582 11.375 7.61597C11.375 7.64611 11.3626 7.67724 11.3369 7.70288C11.3113 7.72852 11.2801 7.74097 11.25 7.74097H8.75C8.71985 7.74097 8.68873 7.72852 8.66309 7.70288C8.63744 7.67724 8.625 7.64611 8.625 7.61597C8.625 7.58582 8.63744 7.5547 8.66309 7.52905C8.68873 7.50341 8.71985 7.49097 8.75 7.49097Z" fill="#965036" stroke="#965036"/>
<path d="M9.99976 10.4075C11.5652 10.4075 12.8336 11.6751 12.8337 13.2405C12.8337 14.806 11.5653 16.0745 9.99976 16.0745C8.43438 16.0743 7.16675 14.8059 7.16675 13.2405C7.16692 11.6752 8.43449 10.4076 9.99976 10.4075ZM9.99976 10.6575C8.57387 10.6576 7.41692 11.8146 7.41675 13.2405C7.41675 14.6665 8.57376 15.8243 9.99976 15.8245C11.4259 15.8245 12.5837 14.6666 12.5837 13.2405C12.5836 11.8145 11.4258 10.6575 9.99976 10.6575Z" fill="#965036" stroke="#965036"/>
</svg>
