<svg width="30" height="30" viewBox="0 0 30 30" fill="none" xmlns="http://www.w3.org/2000/svg">
<path d="M15 3C21.6114 3 27 8.38864 27 15C27 21.6114 21.6114 27 15 27C8.38864 27 3 21.6114 3 15C3 8.38864 8.38864 3 15 3ZM14.5371 7.96289C13.7486 7.96311 13.0996 8.61188 13.0996 9.40039V14.5254C13.0998 15.7328 13.8074 17.0609 14.8135 17.7705L15.0186 17.9043L18.8936 20.2168V20.2158C19.1343 20.37 19.3894 20.4248 19.625 20.4248C20.1136 20.4248 20.5923 20.18 20.8633 19.7227L20.8643 19.7236C21.2602 19.0757 21.0806 18.2557 20.4883 17.8242L20.3643 17.7432L16.4941 15.4336L16.4883 15.4297C16.4 15.3783 16.264 15.2395 16.1455 15.0312C16.0273 14.8234 15.9747 14.6321 15.9746 14.5254V9.40039C15.9746 8.61175 15.3258 7.96289 14.5371 7.96289Z" fill="white" stroke="white"/>
</svg>
