<svg width="16" height="16" viewBox="0 0 16 16" fill="none" xmlns="http://www.w3.org/2000/svg">
<path d="M15.1665 8.40002V10.9334C15.1665 13.86 13.8598 15.1667 10.9332 15.1667H8.39984C5.47317 15.1667 4.1665 13.86 4.1665 10.9334V8.93335C4.1665 8.66002 4.39317 8.43335 4.6665 8.43335C4.93984 8.43335 5.1665 8.66002 5.1665 8.93335V10.9334C5.1665 13.32 6.01317 14.1667 8.39984 14.1667H10.9332C13.3198 14.1667 14.1665 13.32 14.1665 10.9334V8.40002C14.1665 6.01335 13.3198 5.16669 10.9332 5.16669H8.93317C8.65984 5.16669 8.43317 4.94002 8.43317 4.66669C8.43317 4.39335 8.65984 4.16669 8.93317 4.16669H10.9332C13.8598 4.16669 15.1665 5.47335 15.1665 8.40002Z" fill="black"/>
<path d="M9.43316 4.66668V6.80002C9.43316 8.67335 8.67316 9.43335 6.79983 9.43335H4.6665C4.4665 9.43335 4.27983 9.31335 4.2065 9.12668C4.1265 8.94002 4.17316 8.72668 4.31316 8.58002L8.57983 4.31335C8.71983 4.17335 8.93983 4.12668 9.1265 4.20668C9.31316 4.28002 9.43316 4.46668 9.43316 4.66668ZM5.87316 8.43335H6.79983C8.1265 8.43335 8.43316 8.12668 8.43316 6.80002V5.87335L5.87316 8.43335Z" fill="black"/>
<path d="M1.8335 5.6L1.8335 8.26666C1.8335 8.54 1.60683 8.76666 1.3335 8.76666C1.06016 8.76666 0.833496 8.54 0.833496 8.26666L0.833496 5.6C0.833496 5.32666 1.06016 5.1 1.3335 5.1C1.60683 5.1 1.8335 5.32666 1.8335 5.6Z" fill="black"/>
<path d="M3.8335 11.3333C3.8335 11.6066 3.60683 11.8333 3.3335 11.8333C1.9535 11.8333 0.833496 10.7133 0.833496 9.33331L0.833496 7.58665C0.833496 7.31331 1.06016 7.08665 1.3335 7.08665C1.60683 7.08665 1.8335 7.31331 1.8335 7.58665V9.33331C1.8335 10.16 2.50683 10.8333 3.3335 10.8333C3.60683 10.8333 3.8335 11.06 3.8335 11.3333Z" fill="black"/>
<path d="M11.8335 3.20667C11.8335 3.48 11.6068 3.70667 11.3335 3.70667C11.0602 3.70667 10.8335 3.48 10.8335 3.20667C10.8335 2.44667 10.2135 1.83333 9.46016 1.83333L5.3335 1.83333C5.06016 1.83333 4.8335 1.60667 4.8335 1.33333C4.8335 1.06 5.06016 0.833332 5.3335 0.833332L9.46016 0.833332C10.7668 0.833332 11.8335 1.9 11.8335 3.20667Z" fill="black"/>
<path d="M5.83349 1.33331V3.33331C5.83349 5.10665 5.10682 5.83331 3.33349 5.83331H1.33349C1.13349 5.83331 0.946822 5.71331 0.873489 5.52665C0.793489 5.33998 0.840155 5.12665 0.980155 4.97998L4.98015 0.97998C5.12016 0.83998 5.34016 0.793314 5.52682 0.873313C5.71349 0.946647 5.83349 1.13331 5.83349 1.33331ZM2.54016 4.83331H3.33349C4.55349 4.83331 4.83349 4.55331 4.83349 3.33331V2.53998L2.54016 4.83331Z" fill="black"/>
</svg>
