<svg width="20" height="20" viewBox="0 0 20 20" fill="none" xmlns="http://www.w3.org/2000/svg">
<g clip-path="url(#clip0_64_8079)">
<path fill-rule="evenodd" clip-rule="evenodd" d="M16.6015 3.4297L18.5038 4.52735C18.7812 4.70313 18.7968 5.06251 18.6327 5.39063C18.6132 5.42188 15.1952 10.1875 15.1718 10.2227C14.9413 10.543 14.6015 10.7266 14.3437 10.5781L13.4452 10.0586C13.1874 9.91017 13.1757 9.52345 13.3397 9.16407L15.7772 3.78517C15.953 3.46095 16.3046 3.26954 16.6015 3.4297Z" fill="#FBAD24"/>
<path fill-rule="evenodd" clip-rule="evenodd" d="M3.71873 3.39844C4.44919 3.39844 5.06248 3.85156 5.24216 4.46094C5.81248 3.58203 7.72263 3.67187 8.11326 4.64844C8.99998 4.44531 10.1054 5.01953 10.0742 5.80469V7.16406H2.31248C1.55857 5.85937 1.71873 3.39844 3.71873 3.39844Z" fill="#59BB5F"/>
<path fill-rule="evenodd" clip-rule="evenodd" d="M12.7539 8.22266C15.3984 8.13672 15.3984 4.30469 12.7539 4.21875C10.1094 4.30859 10.1094 8.13672 12.7539 8.22266Z" fill="#F04D4E"/>
<path fill-rule="evenodd" clip-rule="evenodd" d="M8.68744 6.44146C8.67963 5.2149 6.74603 5.02349 6.41791 6.17193C5.99994 5.5274 4.6015 5.5938 4.31635 6.30865C3.66791 6.16021 2.85541 6.57818 2.88275 7.1563V8.1524H8.69135C8.68744 7.23443 8.68744 7.20708 8.68744 6.44146Z" fill="#59BB5F"/>
<path fill-rule="evenodd" clip-rule="evenodd" d="M9.61328 8.53906C11.9727 8.46094 11.9727 5.04687 9.61328 4.96875C7.25781 5.04687 7.25781 8.46094 9.61328 8.53906Z" fill="#F04D4E"/>
<path fill-rule="evenodd" clip-rule="evenodd" d="M10.2969 7.16406H18.4492C18.4492 10.0977 16.7617 12.6523 14.2617 13.9883H10.2969H6.32812C3.83203 12.6563 2.14453 10.0977 2.14453 7.16406H10.2969Z" fill="#F9F9FA"/>
<path fill-rule="evenodd" clip-rule="evenodd" d="M10.2383 13.9883C10.2344 13.9883 10.2305 13.9883 10.2266 13.9883H10.2383ZM2.84375 19.5234L5.09766 16.9062C6.26172 15.5117 8.24219 16.1367 9.82813 16.0039C10.8594 16.0039 13.5391 14.5859 14.6289 14.1016C15.418 13.7344 14.8984 12.5469 14.0898 12.8867C12.082 13.7773 11.5313 14 10.2344 13.9883C10.7813 13.9883 11.2305 13.5391 11.2305 12.9922C11.2305 12.4453 10.7813 11.9961 10.2344 11.9961C8.83594 11.9961 7.4375 11.9961 6.03906 11.9961C5.30078 11.9961 4.66797 12.2852 4.1875 12.8437C3.13281 14.0703 2.07422 15.2969 1.01953 16.5234L2.84375 19.5234Z" fill="#FCCEC0"/>
<path fill-rule="evenodd" clip-rule="evenodd" d="M0.78498 15.7227L1.80842 15.1329C1.97248 15.0391 2.18342 15.0938 2.27717 15.2579L4.2381 18.6524C4.33186 18.8165 4.27717 19.0274 4.11311 19.1212L3.08967 19.711C2.9256 19.8048 2.71467 19.7501 2.62092 19.586L0.65998 16.1915C0.56623 16.0274 0.620917 15.8165 0.78498 15.7227Z" fill="#F04D4E"/>
<path fill-rule="evenodd" clip-rule="evenodd" d="M17.5506 3.97656C17.5506 3.97656 18.5819 2.79688 17.7186 1.22266C17.7186 1.22266 16.3905 2.16406 17.5506 3.97656Z" fill="#59BB5F"/>
<path fill-rule="evenodd" clip-rule="evenodd" d="M11.9452 2.57819C11.9452 2.57819 11.0507 0.40241 14.0975 0.425847C14.1249 3.46882 11.9452 2.57819 11.9452 2.57819Z" fill="#59BB5F"/>
<path fill-rule="evenodd" clip-rule="evenodd" d="M8.19123 1.06641L6.75764 0.238281C5.71076 2.16016 8.48811 3.76172 9.62873 1.89453L8.19123 1.06641Z" fill="#F04D4E"/>
<path d="M16.7344 7.37114H14.2383C13.9688 7.37114 13.9688 6.96098 14.2383 6.95708H16.7344C17.0039 6.96098 17.0039 7.37114 16.7344 7.37114ZM17.7148 6.87895C17.5547 6.88286 17.4492 6.68364 17.5469 6.55083L18.4414 5.30083C18.5391 5.11723 18.5859 4.82036 18.3984 4.70708L16.4922 3.60551C16.3047 3.50395 16.0664 3.69145 15.9609 3.85551L14.9336 6.13286C14.8281 6.37895 14.4414 6.20317 14.5586 5.96098L15.5859 3.69536C15.793 3.30083 16.2813 3.01958 16.6992 3.24223L18.6172 4.3477C19.0273 4.60161 19.0156 5.16801 18.7812 5.5352L17.8828 6.78911C17.8398 6.8477 17.7773 6.87895 17.7148 6.87895Z" fill="#2A2A27"/>
<path d="M16.3826 5.13292C16.3631 5.1837 15.4295 4.60167 15.3865 4.58995C15.1521 4.45324 15.3592 4.09777 15.5935 4.23449L16.4881 4.75011C16.6677 4.84777 16.5818 5.14074 16.3826 5.13292Z" fill="#2A2A27"/>
<path d="M17.3203 7.36336C17.3008 7.41414 16.3672 6.83211 16.3242 6.82039C16.0898 6.69148 16.3008 6.3243 16.5312 6.46492L17.4258 6.98055C17.6054 7.0782 17.5234 7.37117 17.3203 7.36336Z" fill="#2A2A27"/>
<path d="M7.28896 7.37112H3.15224C2.8827 7.37112 2.8827 6.96096 3.15224 6.95705H7.28505C7.55458 6.96096 7.55849 7.37112 7.28896 7.37112ZM2.0663 6.80862C1.98036 6.80862 1.89833 6.75393 1.87099 6.66408C1.55067 5.67971 1.66005 4.6094 2.14442 3.94143C2.82411 2.89846 4.74208 2.96096 5.30849 4.08596C6.0663 3.38283 7.72255 3.53518 8.22646 4.41799C8.78505 4.35158 9.34364 4.4883 9.74989 4.8008C9.82021 4.85549 9.84755 4.94924 9.8202 5.03127C9.71083 5.26955 9.37099 5.12502 9.16005 5.2344C8.94911 5.30471 8.79677 5.00002 8.97646 4.87502C8.71864 4.80471 8.42958 4.79299 8.15614 4.84377C8.06239 4.8633 7.96864 4.81252 7.92958 4.72658C7.58974 3.89455 5.90224 3.82033 5.41005 4.57815C5.3202 4.71487 5.08583 4.6758 5.04677 4.51565C4.77724 3.45705 3.04677 3.29299 2.48036 4.18362C2.07411 4.7383 1.98817 5.68362 2.26552 6.53518C2.30849 6.66799 2.20302 6.81252 2.0663 6.80862Z" fill="#2A2A27"/>
<path d="M14.5195 7.37115H11.3515C11.2226 7.37505 11.1171 7.24224 11.1523 7.11724C11.2265 6.80865 11.2031 6.47661 11.0898 6.18365C11.0468 6.07818 11.1015 5.95708 11.207 5.91802C11.621 5.80865 11.6132 6.69146 11.5976 6.95708H14.3945C15.2148 5.0899 12.7656 3.50786 11.4062 5.04302C11.332 5.12896 11.1992 5.13677 11.1132 5.06255C11.0273 4.98833 11.0195 4.85943 11.0937 4.77349C11.5117 4.29302 12.121 4.01568 12.7578 4.01568C14.371 3.96099 15.5117 5.86724 14.707 7.26177C14.664 7.32818 14.5937 7.37115 14.5195 7.37115Z" fill="#2A2A27"/>
<path d="M6.65234 7.3712H2.88281C2.76953 7.3712 2.67578 7.27745 2.67578 7.16417C2.67578 6.42589 3.48437 6.01182 4.20703 6.08214C4.59766 5.44932 5.76953 5.32823 6.35547 5.81261C6.74219 5.15245 7.76562 4.9962 8.36328 5.44151C8.46094 5.50792 8.48047 5.65245 8.40625 5.73839C8.32812 5.83604 8.17188 5.84385 8.08984 5.7501C7.57812 5.46885 6.87891 5.53526 6.62109 6.22276C6.59766 6.29698 6.53516 6.35557 6.45703 6.36729C6.38281 6.37901 6.30078 6.34776 6.25391 6.28526C5.91797 5.76573 4.74219 5.81651 4.50391 6.38682C4.41406 6.58214 4.19922 6.47276 4.03516 6.48057C3.71484 6.48057 3.26562 6.63292 3.12891 6.94932H6.65234C6.92188 6.96104 6.92188 7.3712 6.65234 7.3712Z" fill="#2A2A27"/>
<path d="M11.3515 7.37116H8.58586C8.31633 7.37116 8.31633 6.96101 8.58586 6.9571H11.1796C11.3984 5.0821 8.75383 4.46101 8.12102 6.24226C8.03899 6.49616 7.64055 6.35944 7.73039 6.10944C8.17571 4.64851 10.2656 4.28523 11.1757 5.51569C11.5546 5.99616 11.6952 6.61335 11.5546 7.21101C11.5312 7.30476 11.4491 7.37116 11.3515 7.37116Z" fill="#2A2A27"/>
<path d="M15.7305 13.1914C15.5469 13.1992 15.4492 12.9453 15.5977 12.8281C16.0352 12.4531 16.4297 12.0273 16.7734 11.5703C16.8437 11.4805 16.9727 11.4609 17.0625 11.5273C17.1523 11.5938 17.1719 11.7266 17.1055 11.8164C16.6992 12.2969 16.2891 12.8984 15.7305 13.1914ZM3.91016 12.2266C3.85156 12.2266 3.79297 12.2031 3.75 12.1523C2.5625 10.7227 1.9375 8.99609 1.9375 7.16797C1.9375 7.05469 2.03125 6.96094 2.14453 6.96094H18.4492C18.5625 6.96094 18.6562 7.05469 18.6562 7.16797C18.6562 8.36719 18.3867 9.51953 17.8555 10.5977C17.7305 10.8398 17.3711 10.6563 17.4844 10.4141C17.957 9.45703 18.2109 8.43359 18.2422 7.375H2.35156C2.39844 9.03125 2.98828 10.5898 4.06641 11.8906C4.17969 12.0156 4.07812 12.2305 3.91016 12.2266Z" fill="#2A2A27"/>
<path d="M3.98038 18.4142C3.90616 18.4142 3.83976 18.3751 3.80069 18.3126L2.09757 15.3634C1.99991 15.2813 1.93741 15.1407 2.03897 15.0313L4.03507 12.7149C4.5546 12.1134 5.24991 11.7931 6.04288 11.7931H10.2382C11.2148 11.7618 11.8046 12.9884 11.1874 13.7306C11.9062 13.6212 12.5819 13.3321 14.0077 12.7032C15.0624 12.2618 15.7499 13.8165 14.7108 14.297C13.328 14.922 10.8944 16.211 9.82804 16.2149H7.06241C6.33585 16.2149 5.72647 16.4923 5.25382 17.0431L4.13663 18.3399C4.09366 18.3868 4.03897 18.4142 3.98038 18.4142ZM2.46085 15.1681L4.01163 17.8517L4.94132 16.7735C5.48819 16.1368 6.22257 15.8009 7.06241 15.8009H9.82804C10.5858 15.8009 12.4179 14.9259 13.6288 14.3478C14.1327 14.0235 14.9882 13.9962 14.7773 13.3126C14.6757 13.0821 14.4023 12.9767 14.1718 13.0782C12.1405 13.9767 11.5546 14.211 10.2343 14.1954H7.73819C7.46866 14.1954 7.46866 13.7853 7.73819 13.7813H10.2343C11.2733 13.7618 11.2733 12.2188 10.2343 12.1993H6.04288C5.36319 12.1993 4.79288 12.461 4.34757 12.9767L2.46085 15.1681Z" fill="#2A2A27"/>
<path d="M2.91786 19.9648C2.72254 19.9648 2.53504 19.8594 2.44129 19.6914L0.480356 16.2969C0.328013 16.0469 0.421763 15.6875 0.679575 15.5469L1.70301 14.957C1.96473 14.8047 2.30067 14.8945 2.45301 15.1563L4.41395 18.5508C4.56629 18.8125 4.47645 19.1484 4.21473 19.3008C4.01942 19.3867 3.1327 20 2.91786 19.9648ZM0.886606 15.9023C0.824106 15.9375 0.796763 16.0273 0.835825 16.0898L2.79676 19.4844C2.83192 19.5469 2.92176 19.5703 2.98426 19.5352L4.0077 18.9453C4.07411 18.9063 4.09364 18.8242 4.05848 18.7578L2.09754 15.3633C2.05848 15.2969 1.97645 15.2734 1.91004 15.3125L0.886606 15.9023Z" fill="#2A2A27"/>
<path d="M17.5508 4.18366C17.4805 4.18366 17.4141 4.14851 17.3789 4.08991C16.1289 2.13288 17.5859 1.06647 17.6016 1.05476C17.6992 0.984443 17.8477 1.01569 17.9023 1.12507C18.8203 2.83601 17.7344 4.24226 17.5508 4.18366ZM17.6563 1.56257C17.3984 1.85944 17.0117 2.53522 17.5664 3.59382C17.7774 3.22663 18.0586 2.48835 17.6563 1.56257Z" fill="#2A2A27"/>
<path d="M17.5508 4.1836C17.3789 4.18751 17.2774 3.96876 17.3984 3.83985C17.4375 3.79298 18.4141 2.70704 19.4727 3.19142C19.5742 3.23829 19.6211 3.35938 19.5742 3.46485C19.5274 3.57032 19.4024 3.61329 19.3008 3.56642C18.3555 3.19532 17.7695 4.20313 17.5508 4.1836Z" fill="#2A2A27"/>
<path d="M12.953 5.35167C12.8514 5.35167 12.7576 5.27354 12.7498 5.17198C12.7381 5.07432 12.7108 5.05089 12.7108 5.05089C12.4412 5.08995 12.4022 4.67979 12.6639 4.64464C12.7186 4.61339 12.9959 4.68761 13.0584 4.83214C13.1639 4.78526 13.2967 4.75011 13.4334 4.78136C13.6951 4.83995 13.6092 5.24229 13.3475 5.1837C13.2186 5.15636 13.0897 5.35557 12.953 5.35167Z" fill="#2A2A27"/>
<path d="M9.13262 6.19932C8.9959 6.20323 8.8709 6.0001 8.73809 6.03135C8.47247 6.09385 8.39044 5.67979 8.65215 5.62901C8.78887 5.59776 8.92169 5.63292 9.02715 5.67979C9.09356 5.53526 9.3709 5.46104 9.42559 5.49229C9.6834 5.53526 9.63262 5.91417 9.37872 5.90245C9.32012 6.00011 9.34356 6.19542 9.13262 6.19932Z" fill="#2A2A27"/>
<path d="M12.6172 2.90636C12.2109 2.90636 11.8906 2.77746 11.8672 2.76964C11.8164 2.75011 11.7734 2.70714 11.7539 2.65636C11.7383 2.62121 11.3867 1.7423 11.8672 1.03527C12.2383 0.484487 12.9805 0.207144 14.0976 0.218862C14.2109 0.218862 14.3008 0.312612 14.3008 0.421987C14.3086 1.89855 13.8437 2.87121 12.6172 2.90636ZM12.1094 2.41417C13.1758 2.76574 13.9023 2.01964 13.8906 0.632925C12.5039 0.621206 11.7578 1.35167 12.1094 2.41417Z" fill="#2A2A27"/>
<path d="M11.9453 2.78525C11.7695 2.79306 11.6679 2.55478 11.8007 2.43368L12.6328 1.60165C12.8203 1.41025 13.1171 1.70712 12.9257 1.89462L12.0937 2.72665C12.0507 2.76181 12 2.78525 11.9453 2.78525Z" fill="#2A2A27"/>
<path d="M8.18728 2.92975C7.37869 2.94537 6.58572 2.34772 6.39041 1.54694C6.2615 1.06647 6.32791 0.56256 6.57791 0.132873C6.6365 0.0352167 6.7615 6.0467e-05 6.85916 0.0586542L9.73025 1.71881C9.82791 1.7774 9.86306 1.9024 9.80447 2.00006C9.46072 2.59772 8.83181 2.92975 8.18728 2.92975ZM6.84353 0.527404C6.22635 2.07037 8.31228 3.26178 9.33181 1.9649L6.84353 0.527404Z" fill="#2A2A27"/>
<path d="M7.46461 1.61721C7.27711 1.62502 7.18336 1.36331 7.3318 1.25002C7.64039 1.03518 7.83961 1.58987 7.46461 1.61721Z" fill="#2A2A27"/>
<path d="M8.21852 2.06643C8.03102 2.07424 7.93727 1.81252 8.0857 1.69924C8.3943 1.4844 8.58961 2.03909 8.21852 2.06643Z" fill="#2A2A27"/>
</g>
<defs>
<clipPath id="clip0_64_8079">
<rect width="20" height="20" fill="white"/>
</clipPath>
</defs>
</svg>
