<svg width="40" height="40" viewBox="0 0 40 40" fill="none" xmlns="http://www.w3.org/2000/svg">
<path fill-rule="evenodd" clip-rule="evenodd" d="M17.9111 16.4722C24.6405 16.4722 28.9229 20.5761 28.9229 27.0252C28.9229 31.9284 26.4475 35.4759 22.3033 36.8949C23.6406 37.3434 25.1189 37.5781 26.7191 37.5781C34.3581 37.5781 39.2192 32.2284 39.2192 23.8213C39.2192 15.4143 34.358 2.42188 26.7191 2.42188C21.0585 2.42188 16.9233 9.55625 15.1611 16.6723C16.1186 16.5402 17.0451 16.4722 17.9111 16.4722Z" fill="#FFE6B4"/>
<path d="M20.1084 33.1301C23.4798 32.389 25.612 29.0552 24.8709 25.6838C24.1298 22.3125 20.796 20.1802 17.4247 20.9213C14.0533 21.6624 11.9211 24.9962 12.6622 28.3676C13.4033 31.7389 16.7371 33.8712 20.1084 33.1301Z" fill="#FFCD69"/>
<path fill-rule="evenodd" clip-rule="evenodd" d="M12.5162 27.0252C12.5162 23.5734 15.3145 20.7752 18.7662 20.7752C22.218 20.7752 25.0163 23.5734 25.0163 27.0252C25.0163 30.477 22.218 33.2752 18.7662 33.2752C15.3145 33.2752 12.5162 30.477 12.5162 27.0252ZM22.303 36.8949C26.4471 35.4759 28.9225 31.9284 28.9225 27.0252C28.9225 20.5762 24.6402 16.4722 17.9107 16.4722C17.0448 16.4722 16.1182 16.5401 15.1608 16.6722C8.67711 17.5672 0.78125 21.406 0.78125 27.0253C0.78125 33.4744 11.1813 37.5782 17.9107 37.5782C19.5238 37.5782 20.9963 37.3423 22.303 36.8949Z" fill="white"/>
<path d="M15.1816 16.5902C16.9552 9.50141 21.0798 2.42188 26.7186 2.42188C34.3575 2.42188 39.2187 15.4144 39.2187 23.8213C39.2187 32.2283 34.3576 37.5781 26.7186 37.5781C25.1666 37.5781 23.7293 37.3573 22.4241 36.9349" stroke="#333333" stroke-width="1.5" stroke-miterlimit="2.6131" stroke-linecap="round" stroke-linejoin="round"/>
<path d="M32.5215 11.2631C31.1235 8.57937 29.1075 5.9375 26.7188 5.9375" stroke="#333333" stroke-width="1.5" stroke-miterlimit="2.6131" stroke-linecap="round" stroke-linejoin="round"/>
<path d="M23.1849 31.4443C25.6256 29.0035 25.6256 25.0463 23.1849 22.6055C20.7441 20.1648 16.7869 20.1648 14.3461 22.6055C11.9054 25.0463 11.9054 29.0035 14.3461 31.4443C16.7869 33.885 20.7441 33.885 23.1849 31.4443Z" stroke="#333333" stroke-width="1.5" stroke-miterlimit="2.6131" stroke-linecap="round" stroke-linejoin="round"/>
<path d="M4.86328 20.5303V20.5309" stroke="#333333" stroke-width="1.5" stroke-miterlimit="2.6131" stroke-linecap="round" stroke-linejoin="round"/>
<path d="M8.03711 18.7322C11.234 17.2765 14.9319 16.4722 17.9107 16.4722C24.6402 16.4722 28.9224 20.5761 28.9224 27.0251C28.9224 33.4743 24.6401 37.578 17.9107 37.578C11.1813 37.5781 0.78125 33.4743 0.78125 27.0252C0.78125 25.5259 1.34344 24.1533 2.29086 22.9296" stroke="#333333" stroke-width="1.5" stroke-miterlimit="2.6131" stroke-linecap="round" stroke-linejoin="round"/>
<path d="M23.1849 31.4443C25.6256 29.0035 25.6256 25.0463 23.1849 22.6055C20.7441 20.1648 16.7869 20.1648 14.3461 22.6055C11.9054 25.0463 11.9054 29.0035 14.3461 31.4443C16.7869 33.885 20.7441 33.885 23.1849 31.4443Z" stroke="#333333" stroke-width="1.5" stroke-miterlimit="2.6131" stroke-linecap="round" stroke-linejoin="round"/>
<path d="M18.1074 23.9703C19.7945 23.6065 21.4571 24.6793 21.8209 26.3664" stroke="#333333" stroke-width="1.5" stroke-miterlimit="2.6131" stroke-linecap="round" stroke-linejoin="round"/>
</svg>
