<svg width="34" height="24" viewBox="0 0 34 24" fill="none" xmlns="http://www.w3.org/2000/svg">
<g clip-path="url(#clip0_108_8105)">
<rect width="34" height="24" rx="3" fill="#F93939"/>
<path d="M30.7619 0H3.2381C1.44974 0 0 1.43269 0 3.2V20.8C0 22.5673 1.44974 24 3.2381 24H30.7619C32.5503 24 34 22.5673 34 20.8V3.2C34 1.43269 32.5503 0 30.7619 0Z" fill="#F93939"/>
<path fill-rule="evenodd" clip-rule="evenodd" d="M0 6.3999H34V17.5999H0V6.3999Z" fill="#FFDA2C"/>
<path fill-rule="evenodd" clip-rule="evenodd" d="M14.5713 9.95516V13.9872C14.5713 15.1072 13.4833 16.0032 12.1427 16.0032H8.90465C7.56731 16 6.47607 15.0992 6.47607 13.984V9.95196C6.47607 9.03676 7.20141 8.27196 8.19874 8.02396C8.49988 7.19196 9.42598 7.93756 10.5237 7.93756C11.6279 7.93756 12.5475 7.19676 12.8486 8.02556C13.8427 8.27996 14.5713 9.04636 14.5713 9.95516Z" fill="#D4AF2C"/>
<path fill-rule="evenodd" clip-rule="evenodd" d="M14.5712 11.2002H16.1903V16.0002H14.5712V11.2002ZM4.85693 11.2002H6.47598V16.0002H4.85693V11.2002Z" fill="#CBCBCB"/>
<path fill-rule="evenodd" clip-rule="evenodd" d="M14.5712 14.3999H16.1903V15.9999H14.5712V14.3999ZM4.85693 14.3999H6.47598V15.9999H4.85693V14.3999Z" fill="#1A47B8"/>
<path fill-rule="evenodd" clip-rule="evenodd" d="M14.5712 9.6001H16.1903V11.2001H14.5712V9.6001ZM4.85693 9.6001H6.47598V11.2001H4.85693V9.6001Z" fill="#D4AF2C"/>
<path fill-rule="evenodd" clip-rule="evenodd" d="M8.09521 9.6001H9.71426V12.0001H8.09521V9.6001ZM11.3333 12.8001H12.9524V15.2001H11.3333V12.8001Z" fill="#AF010D"/>
<path fill-rule="evenodd" clip-rule="evenodd" d="M8.09521 12.7998H9.71426V15.1998H8.09521V12.7998Z" fill="#FFDA2C"/>
<path fill-rule="evenodd" clip-rule="evenodd" d="M11.3335 9.6001H12.9525V12.0001H11.3335V9.6001Z" fill="#AE6A3E"/>
<path fill-rule="evenodd" clip-rule="evenodd" d="M9.71426 9.6L8.09521 8H12.9524L11.3333 9.6H9.71426Z" fill="#AF010D"/>
<path fill-rule="evenodd" clip-rule="evenodd" d="M9.71436 6.3999H11.3334V7.9999H9.71436V6.3999Z" fill="#D4AF2C"/>
</g>
<defs>
<clipPath id="clip0_108_8105">
<rect width="34" height="24" rx="3" fill="white"/>
</clipPath>
</defs>
</svg>
