<svg width="22" height="22" viewBox="0 0 22 22" fill="none" xmlns="http://www.w3.org/2000/svg">
<path d="M15.0696 3.34155C17.6052 3.34155 19.6662 5.40695 19.6663 7.96558C19.6663 9.00203 19.5012 9.9591 19.2141 10.8464L19.2131 10.8494C18.5248 13.0277 17.1132 14.7847 15.5881 16.0955C14.061 17.4079 12.4485 18.248 11.4075 18.6023L11.4016 18.6042C11.316 18.6344 11.1705 18.6579 11.0002 18.658C10.8297 18.658 10.6836 18.6345 10.5979 18.6042L10.593 18.6023L10.177 18.447C9.14995 18.031 7.74793 17.2441 6.41138 16.0955C4.88625 14.7847 3.47475 13.0277 2.78638 10.8494L2.7854 10.8464L2.68384 10.5095C2.45994 9.71794 2.33325 8.87232 2.33325 7.96558C2.33333 5.40695 4.39429 3.34155 6.92993 3.34155C8.42419 3.34156 9.76396 4.06801 10.5999 5.1853L11.0002 5.72046L11.4006 5.1853C12.2365 4.06817 13.5755 3.34166 15.0696 3.34155Z" fill="#F81111" stroke="#F81111"/>
</svg>
