<svg width="20" height="21" viewBox="0 0 20 21" fill="none" xmlns="http://www.w3.org/2000/svg">
<path d="M14.1667 15.8583H10.8334L7.12507 18.3249C6.57507 18.6916 5.83341 18.3 5.83341 17.6333V15.8583C3.33341 15.8583 1.66675 14.1916 1.66675 11.6916V6.69157C1.66675 4.19157 3.33341 2.5249 5.83341 2.5249H14.1667C16.6667 2.5249 18.3334 4.19157 18.3334 6.69157V11.6916C18.3334 14.1916 16.6667 15.8583 14.1667 15.8583Z" stroke="black" stroke-miterlimit="10" stroke-linecap="round" stroke-linejoin="round"/>
<path d="M10 9.96655V9.79159C10 9.22492 10.35 8.9249 10.7 8.68324C11.0417 8.4499 11.3833 8.14991 11.3833 7.59991C11.3833 6.83325 10.7667 6.21655 10 6.21655C9.23334 6.21655 8.6167 6.83325 8.6167 7.59991" stroke="black" stroke-linecap="round" stroke-linejoin="round"/>
<path d="M9.99617 11.9584H10.0037" stroke="black" stroke-linecap="round" stroke-linejoin="round"/>
</svg>
