<svg width="40" height="40" viewBox="0 0 40 40" fill="none" xmlns="http://www.w3.org/2000/svg">
<g clip-path="url(#clip0_108_8737)">
<path d="M23.1092 14.7455C25.2959 14.0297 27.3129 11.8715 28.5663 10.2766C28.1225 9.99799 27.6371 9.73029 27.107 9.48363C23.1403 7.63816 22.3112 5.80029 22.3112 5.80029L19.6833 11.8515C19.6833 11.8515 19.6699 11.8687 19.645 11.9017C20.1672 13.6495 21.1775 15.3778 23.1092 14.7455Z" fill="#FFDDCC"/>
<path d="M30.7026 39.5728C30.7026 39.5728 30.4576 34.741 29.4721 31.3865C28.4866 28.0321 28.3553 19.2841 32.5598 14.3511C32.5598 14.3511 31.4439 12.0831 28.5664 10.2769C27.3129 11.8718 25.2959 14.0299 23.1093 14.7457C21.1776 15.3781 20.1673 13.6498 19.6451 11.902C19.2583 12.4175 16.0423 16.8906 15.6102 23.6581C15.3997 26.9551 14.7724 29.4536 14.1541 31.1938C13.1978 33.8848 12.7017 36.717 12.7017 39.5728" fill="#8FD7F7"/>
<path d="M28.3243 31.7238C27.7099 29.6323 27.5359 26.3354 27.8811 23.3245C28.1788 20.7284 28.9831 17.1391 31.1019 14.2655C30.6949 13.6832 29.9491 12.7682 28.7911 11.8862C26.724 14.2803 22.1369 18.3285 19.4788 14.4168C18.4514 16.3041 17.0715 19.5527 16.8045 23.7344C16.6199 26.6258 16.1076 29.2703 15.2818 31.5944C14.3638 34.1776 13.8984 36.8619 13.8984 39.5727H29.5043C29.4721 39.0123 29.1996 34.7038 28.3243 31.7238Z" fill="#A2FFF7"/>
<path d="M13.1069 34.2287L14.2892 31.847L11.5961 31.1235C11.5961 31.1235 10.5449 34.2149 11.0705 35.4646C11.5961 36.7144 13.9604 37.8982 14.2892 37.0432C14.6181 36.1882 13.1069 34.2287 13.1069 34.2287Z" fill="#FFDDCC"/>
<path d="M13.7383 29.1865C13.7383 29.1865 26.4959 30.611 28.5314 29.1865L29.0711 31.8467C29.0711 31.8467 20.4916 33.8199 17.3903 32.5045C14.2891 31.189 13.7383 29.1865 13.7383 29.1865Z" fill="#CF99FF"/>
<path d="M14.7135 31.8469L17.1119 31.2312C17.1119 31.2312 16.8424 32.6362 17.8147 35.8591C17.8147 35.8591 17.473 37.5692 18.5899 37.7665C19.7067 37.9639 22.5111 38.6874 22.39 37.5035C22.2688 36.3195 19.8381 35.6618 19.8381 35.6618C19.8381 35.6618 20.6694 30.2683 20.2209 28.7555C19.7724 27.2427 14.7134 27.7031 14.7134 27.7031V31.8469H14.7135Z" fill="#FFDDCC"/>
<path d="M27.4338 20.353L32.389 29.2817C32.389 29.2817 26.4963 28.1912 22.4923 26.81L20.4707 30.583C20.4707 30.583 32.8672 36.8508 36.0496 33.3053C39.5438 29.4124 30.8638 14.3511 30.8638 14.3511" fill="#8FD7F7"/>
<path d="M27.4339 20.3533L28.4801 19.7727L33.4353 28.7013C33.9263 29.5858 33.1661 30.6426 32.1713 30.4585C31.9461 30.4169 27.0097 29.497 23.0729 28.2605L22.1182 30.0423C25.401 31.5495 29.1766 33.2004 32.8543 33.2004C35.609 33.2004 35.9132 31.2081 35.5329 28.8959C35.2622 27.2505 34.6318 25.2064 33.6591 22.8203C32.3796 19.6815 30.8435 16.7877 30.1709 15.564L27.4339 20.3533Z" fill="#A2FFF7"/>
<path d="M18.7966 14.8791C18.5107 13.8685 17.9494 12.6928 15.906 12.9699C14.2395 13.1959 13.8702 14.7218 13.8026 15.6574C13.5501 15.6631 13.2619 15.7339 13.11 15.9954C12.8482 16.4462 13.0159 17.4071 13.738 17.9029C14.0039 18.0854 14.272 18.2547 14.5221 18.3924C15.0103 19.2812 15.7851 20.0898 16.9572 19.8986C19.3885 19.502 19.0688 15.8413 18.7966 14.8791Z" fill="#FFDDCC"/>
<path d="M18.7966 14.8791C18.5107 13.8685 17.9494 12.6928 15.906 12.9699C14.2395 13.1959 13.8702 14.7218 13.8026 15.6574C13.5501 15.6631 13.2619 15.7339 13.11 15.9954C12.8482 16.4462 13.0159 17.4071 13.738 17.9029C14.0039 18.0854 14.272 18.2547 14.5221 18.3924C15.0103 19.2812 15.7851 20.0898 16.9572 19.8986C19.3885 19.502 19.0688 15.8413 18.7966 14.8791Z" fill="#FFDDCC"/>
<path d="M17.2115 32.9018C17.2115 32.9018 16.7797 30.6631 17.6995 27.1771C18.7222 23.3007 28.1515 13.9711 32.6497 16.3918C32.6497 16.3918 29.7236 11.482 28.0701 10.7559C28.0701 10.7559 25.9162 12.6344 20.208 15.7916L16.4576 18.0345L12.8226 17.5146C12.8226 17.5146 6.53753 31.3865 10.8077 32.9652C15.078 34.5438 17.2115 32.9018 17.2115 32.9018Z" fill="#AE79F2"/>
<path d="M14.2913 32.454C13.3524 32.454 12.32 32.2483 11.2228 31.8427C11.0792 31.7896 10.8952 31.6824 10.7446 31.322C10.4997 30.7359 10.1106 28.8101 11.7806 23.6004C12.4154 21.6197 13.1377 19.8247 13.5577 18.8283L16.7079 19.2789C20.5303 16.993 24.5526 14.9255 28.1159 12.2441C28.6835 12.7789 29.4588 13.7552 30.2221 14.8455C25.0115 15.4706 17.8787 21.8075 16.5425 26.8716C15.9073 29.2792 15.8754 31.1553 15.9365 32.2028C15.4281 32.3788 14.8312 32.454 14.2913 32.454Z" fill="#CF99FF"/>
<path d="M23.3224 6.19459C23.0861 5.92921 22.5963 5.59835 22.1399 5.73417C21.7414 5.8528 21.4308 6.30955 21.3576 6.92442C20.9632 6.66767 20.5547 6.46382 20.169 6.32613C17.8999 5.51596 14.6214 6.02562 14.6506 7.83895C14.662 8.54374 15.0041 9.15767 15.9645 10.3384C17.4341 12.1449 18.5354 13.4989 20.169 13.4297C21.5924 13.3695 23.1437 12.2407 23.4538 10.733C23.5682 10.177 23.4981 9.64135 23.3038 9.14382C23.8284 7.91579 23.864 6.80297 23.3224 6.19459Z" fill="#FFDDCC"/>
<path d="M21.553 26.8742C21.1917 26.0075 20.6145 25.2406 19.8604 24.6718C19.8557 24.6682 19.851 24.6647 19.8462 24.6611C19.0815 24.0871 18.0859 23.5468 17.8866 24.4335C17.7912 24.8583 18.3079 25.258 18.679 25.5721C17.0876 24.57 14.3359 23.6269 14.3359 25.3246C14.3359 26.6258 16.3614 29.1539 18.7855 29.77C20.6518 30.2444 20.6518 30.2444 20.6518 30.2444L21.9694 27.7853L21.553 26.8742Z" fill="#FFDDCC"/>
<path d="M39.3499 3.71236C38.9853 2.90228 38.0945 2.248 37.1636 2.40638C36.4534 2.52715 36.0875 3.1251 35.5517 3.53356C34.9841 3.12168 34.5075 2.48826 33.7756 2.3886C32.8555 2.2633 31.9416 2.91228 31.5815 3.71236C30.471 6.17937 33.9706 8.7039 35.5517 10.0654C37.1399 8.69766 40.4605 6.1798 39.3499 3.71236Z" fill="#F794E9"/>
<path d="M38.4877 3.67106C38.2041 3.04097 37.5113 2.53217 36.7873 2.65525C36.2349 2.74918 35.9503 3.21422 35.5335 3.532C35.0921 3.21166 34.7213 2.71901 34.1522 2.64149C33.4365 2.54405 32.7257 3.04884 32.4456 3.67106C31.5819 5.58986 34.3038 7.55337 35.5335 8.61226C36.7688 7.5485 39.3516 5.59012 38.4877 3.67106Z" fill="#FFBDE6"/>
<path d="M8.40951 18.5966C8.0449 17.7866 7.15404 17.1323 6.22319 17.2907C5.51293 17.4114 5.14704 18.0094 4.61122 18.4178C4.0437 18.006 3.56704 17.3725 2.83516 17.2729C1.91507 17.1476 1.00114 17.7966 0.641053 18.5966C-0.46946 21.0636 3.0302 23.5882 4.61122 24.9496C6.19951 23.5819 9.52011 21.064 8.40951 18.5966Z" fill="#F794E9"/>
<path d="M7.54728 18.5553C7.26369 17.9253 6.57087 17.4165 5.84685 17.5395C5.29446 17.6335 5.00985 18.0985 4.59309 18.4163C4.15164 18.0959 3.78096 17.6033 3.21173 17.5258C2.49609 17.4283 1.78523 17.9331 1.50514 18.5553C0.64147 20.4741 3.36335 22.4376 4.59309 23.4965C5.82839 22.4328 8.41113 20.4744 7.54728 18.5553Z" fill="#FFBDE6"/>
<path opacity="0.6" d="M12.3449 29.658C12.6753 29.658 12.9432 29.3519 12.9432 28.9743C12.9432 28.5967 12.6753 28.2905 12.3449 28.2905C12.0144 28.2905 11.7466 28.5967 11.7466 28.9743C11.7466 29.3519 12.0144 29.658 12.3449 29.658Z" fill="white"/>
<path opacity="0.6" d="M37.1842 5.57748C37.5147 5.57748 37.7825 5.27135 37.7825 4.89372C37.7825 4.51609 37.5147 4.20996 37.1842 4.20996C36.8538 4.20996 36.5859 4.51609 36.5859 4.89372C36.5859 5.27135 36.8538 5.57748 37.1842 5.57748Z" fill="white"/>
<path opacity="0.6" d="M16.6716 22.6366C17.0492 22.6366 17.3553 22.254 17.3553 21.7819C17.3553 21.3099 17.0492 20.9272 16.6716 20.9272C16.2939 20.9272 15.9878 21.3099 15.9878 21.7819C15.9878 22.254 16.2939 22.6366 16.6716 22.6366Z" fill="white"/>
<path d="M35.5377 10.451C35.4384 10.451 35.3392 10.4166 35.2591 10.3477C33.4556 8.7954 29.9078 6.33378 31.1817 3.50566C31.6483 2.46959 32.7823 1.79472 33.8209 1.93617C34.5139 2.03044 35.0202 2.51677 35.5285 2.94959C35.9894 2.52181 36.4245 2.06694 37.0767 1.95609C38.2642 1.75412 39.3064 2.58284 39.722 3.50566C40.9865 6.31292 37.6327 8.7842 35.8163 10.3477C35.7362 10.4165 35.637 10.451 35.5377 10.451ZM33.5308 2.77002C32.8501 2.77002 32.2125 3.29617 31.9605 3.85591C30.9574 6.08284 34.1259 8.28181 35.5371 9.4642C36.9522 8.26754 39.9369 6.06156 38.9434 3.85591C38.6693 3.24728 37.9721 2.66993 37.22 2.79737C36.6345 2.89685 36.2433 3.5013 35.7966 3.84164C35.6467 3.95583 35.4396 3.95822 35.287 3.84762C34.7551 3.46181 34.2528 2.77002 33.5308 2.77002Z" fill="#333333"/>
<path d="M4.62612 25.3133C4.5268 25.3133 4.42757 25.2789 4.34749 25.21C2.54398 23.6577 -1.00379 21.1961 0.270052 18.368C0.736633 17.3319 1.87065 16.657 2.90928 16.7985C3.60227 16.8927 4.1086 17.3791 4.61689 17.8119C5.07774 17.3841 5.51287 16.9292 6.16509 16.8184C7.35262 16.6164 8.39475 17.4451 8.81039 18.368C10.0748 21.1752 6.72108 23.6465 4.90467 25.21C4.82467 25.2788 4.72544 25.3133 4.62612 25.3133ZM2.6192 17.6323C1.93851 17.6323 1.30091 18.1585 1.04886 18.7182C0.0458641 20.9451 3.21433 23.1441 4.62544 24.3265C6.04057 23.1298 9.02527 20.9239 8.03176 18.7182C7.75766 18.1096 7.06048 17.5322 6.30834 17.6597C5.72287 17.7592 5.33168 18.3637 4.88501 18.7039C4.7351 18.8181 4.528 18.8205 4.37535 18.7099C3.84356 18.3241 3.34116 17.6323 2.6192 17.6323Z" fill="#333333"/>
<path d="M37.4928 16.7994C37.8805 14.994 37.1141 13.6192 35.4926 13.2117C29.9422 11.8167 28.3491 5.57936 24.5113 2.07423C21.5361 -0.642948 16.4667 -0.927136 14.8936 3.44568C12.1488 3.9321 11.2254 7.44133 13.2298 9.32261C13.7713 9.83073 14.4905 10.1383 15.3695 10.2388C15.5044 10.4098 15.641 10.5794 15.7792 10.7479C15.0314 10.6074 14.2803 10.6748 13.6226 10.9559C11.0725 12.045 10.719 15.4919 12.3386 17.5011C11.6489 19.0635 7.73229 28.2431 9.2499 31.8744C9.53469 32.5559 9.9917 33.0242 10.6078 33.2686C10.4415 34.2912 10.4646 35.0412 10.6793 35.5512C10.9636 36.2268 11.6583 36.8516 12.379 37.247C12.3118 37.9954 12.2757 38.7477 12.2757 39.4879C12.2757 39.7235 12.4669 39.9147 12.7027 39.9147C12.9385 39.9147 13.1297 39.7236 13.1297 39.4879C13.1297 38.8617 13.1557 38.2262 13.2057 37.5921C13.4063 37.6481 13.5966 37.6789 13.7663 37.6789C13.7735 37.6789 13.7808 37.6789 13.7879 37.6788C14.2243 37.672 14.552 37.4666 14.6873 37.1152C15.0296 36.2258 14.0524 34.7239 13.6064 34.1069L13.67 33.9789C14.7321 34.0581 15.8416 33.9494 16.8256 33.5207C16.9479 34.2264 17.1309 34.9918 17.3734 35.8066C17.3263 36.1188 17.2467 36.9674 17.6483 37.5547C17.9681 38.0225 18.4855 38.0965 18.996 38.1977C19.8611 38.3691 20.659 38.5106 21.3028 38.5106C22.0023 38.5106 22.8976 38.263 22.8071 37.3783C22.6884 36.2191 21.0695 35.5398 20.3085 35.2829C20.368 34.8677 20.467 34.1415 20.5585 33.3079C21.8088 33.3054 23.3034 33.1818 25.0096 32.9396C26.4649 33.4839 28.1027 34.0149 29.6931 34.3588C30.1285 36.9715 30.26 39.4835 30.2614 39.5094C30.273 39.7375 30.4615 39.9146 30.6874 39.9146C30.6947 39.9146 30.7021 39.9144 30.7095 39.9141C30.9449 39.9021 31.1262 39.7016 31.1143 39.4663C31.113 39.4409 30.9896 37.0791 30.5865 34.5321C33.3782 35.0061 35.3149 34.6648 36.3477 33.5148C38.0449 31.625 37.4374 27.3261 34.5456 20.7377C35.9944 19.9262 37.143 18.4288 37.4928 16.7994ZM15.0766 7.79432C15.071 7.45047 15.2326 7.1656 15.5706 6.92346C16.7609 6.07064 18.7224 6.22953 20.0197 6.69252C20.379 6.82073 20.7587 7.01201 21.1179 7.2456C21.3785 7.41551 21.738 7.24722 21.7748 6.93851C21.8623 6.20415 22.4167 5.79355 22.995 6.44304C23.4008 6.89851 23.3654 7.85398 22.9026 8.93654C22.8587 9.03927 22.8569 9.15526 22.8975 9.25936C23.0742 9.71141 23.1177 10.1641 23.0269 10.605C22.7499 11.9509 21.3132 12.9079 20.1452 12.9574C18.7271 13.0167 17.7063 11.7635 16.2937 10.0277C15.3815 8.90697 15.0858 8.36423 15.0766 7.79432ZM23.6272 13.253C23.0584 13.6041 22.4607 13.9618 21.8383 14.324C21.5293 14.218 21.2427 14.003 20.9815 13.6817C21.8294 13.4485 22.6111 12.9209 23.1552 12.2388C23.3044 12.5801 23.4587 12.9206 23.6272 13.253ZM20.9626 14.8271C20.6458 15.0069 19.372 15.741 19.372 15.741C19.3143 15.0764 19.2102 14.295 19.0625 13.6532C19.3662 13.7548 19.6855 13.8112 20.0273 13.8127C20.3041 14.2487 20.6167 14.5876 20.9626 14.8271ZM13.4796 16.1599C13.5256 16.0807 13.6374 16.0386 13.812 16.0347C14.032 16.0298 14.2123 15.8583 14.2282 15.6388C14.2968 14.6913 14.6531 13.5246 15.9614 13.3473C17.8622 13.0894 18.4973 14.5757 18.5457 16.2349L16.3659 17.5377L13.6411 17.1482C13.3975 16.7767 13.3754 16.3394 13.4796 16.1599ZM13.8907 36.8071C13.8567 36.8233 13.7091 36.8525 13.4098 36.7653C12.7126 36.562 11.7431 35.8776 11.4665 35.2203C11.3834 35.023 11.2824 34.5536 11.4293 33.5477C11.9051 33.6913 12.3524 33.795 12.7721 33.8672L12.7251 33.9619C12.6525 34.1082 12.6697 34.283 12.7695 34.4123C13.4252 35.262 14.0305 36.4229 13.8907 36.8071ZM16.7463 32.6136C15.6908 33.1936 14.4069 33.2239 13.2465 33.0583C12.127 32.8987 10.5409 32.7488 10.038 31.5455C8.69571 28.3341 12.3412 19.6371 13.0836 17.9306L16.3948 18.404C16.4917 18.4178 16.5904 18.398 16.6744 18.3477C16.6744 18.3477 23.4197 14.3836 24.029 14.0082C24.4719 14.8068 25.1855 15.9974 26.111 17.2209C23.6473 18.7409 20.9796 21.1999 19.1314 23.6595C18.4157 23.3351 17.5323 23.481 17.4473 24.3986C16.4334 23.9761 15.2631 23.6936 14.5363 24.0946C14.2499 24.2525 13.9086 24.5832 13.9086 25.2612C13.9086 26.8888 15.5687 28.467 16.827 29.2853C16.6049 30.9312 16.6854 32.0984 16.7463 32.6136ZM21.9575 37.4651C21.9634 37.5226 21.9526 37.5324 21.9469 37.5377C21.6086 37.8453 19.8312 37.4932 19.162 37.3606C18.9066 37.31 18.5195 37.3152 18.354 37.0743C18.1248 36.7406 18.1892 36.0707 18.2297 35.8634C18.2434 35.7947 18.24 35.7236 18.2198 35.6565C17.6331 33.7127 17.4015 31.7607 17.6314 29.7343C18.3538 30.0749 19.1462 30.233 19.9163 30.4286C19.8684 32.5251 19.4155 35.4865 19.4106 35.5177C19.3775 35.7323 19.5112 35.9376 19.7208 35.9946C20.4211 36.185 21.889 36.7949 21.9575 37.4651ZM20.4273 29.6778C19.3145 29.3952 18.2226 29.1753 17.2469 28.5326C16.2652 27.8859 14.7625 26.5706 14.7625 25.2612C14.7625 24.9447 14.8931 24.8725 14.949 24.8418C15.4877 24.5445 17.0897 25.0151 18.4473 25.8694C18.8838 26.1443 19.3444 25.5157 18.9507 25.1827L18.8772 25.1208C18.7104 24.9808 18.2673 24.6088 18.2996 24.465C18.3201 24.3741 18.3473 24.3382 18.3548 24.3354C18.7351 24.1915 19.5294 24.8922 19.7345 25.064C20.5692 25.7629 21.0414 26.7313 21.4859 27.7033L20.4273 29.6778ZM20.6451 32.4541C20.6859 32.0121 20.7206 31.5603 20.7438 31.1234C21.2706 31.3763 22.1977 31.8075 23.3534 32.2864C22.352 32.3925 21.4461 32.4488 20.6451 32.4541ZM35.7121 32.9447C34.8353 33.9212 32.9119 34.1418 30.15 33.5826C30.149 33.5824 30.1479 33.5824 30.147 33.5822C26.4708 32.8373 22.325 30.9337 21.0505 30.3225L22.6902 27.2641C25.8117 28.3007 29.063 29.0302 32.2949 29.6318C32.6326 29.6941 32.9157 29.3108 32.746 29.0051L27.7952 20.0897C27.6808 19.8836 27.4208 19.8094 27.2147 19.9236C27.0085 20.038 26.9341 20.2977 27.0485 20.5038L28.6322 23.3556C28.4204 25.2035 28.4367 26.8046 28.5089 27.9615C26.7572 27.5569 24.4806 26.9807 22.624 26.3406C22.4261 26.2723 22.2074 26.3578 22.1084 26.5425L21.9929 26.758C21.5332 25.6794 20.8376 24.769 19.8727 24.0949C21.6794 21.7124 24.2673 19.3421 26.6428 17.8959C28.2808 19.893 29.865 21.0396 31.3577 21.3055C32.1626 21.4489 33.0009 21.3694 33.7694 21.0929C36.4328 27.1698 37.1247 31.372 35.7121 32.9447ZM29.3695 24.6836L31.5543 28.6181C31.0093 28.5088 30.2505 28.3521 29.3775 28.1584C29.3129 27.2765 29.2774 26.0803 29.3695 24.6836Z" fill="#333333"/>
</g>
<defs>
<clipPath id="clip0_108_8737">
<rect width="40" height="40" fill="white"/>
</clipPath>
</defs>
</svg>
