<svg width="40" height="40" viewBox="0 0 40 40" fill="none" xmlns="http://www.w3.org/2000/svg">
<g clip-path="url(#clip0_108_8505)">
<path d="M13.4781 24.7135C13.2443 23.673 10.7862 22.7143 8.86361 24.7135C8.86361 24.7135 7.67156 22.1059 4.98284 23.891L6.74139 19.6979L7.13899 19.8788C7.82754 20.192 8.63968 19.8869 8.95147 19.1977L9.27489 18.4827C9.72762 17.4819 9.18797 16.3122 8.13267 16.0071L6.88429 15.6461C5.3148 15.1924 3.65198 15.9726 2.99934 17.4691L0.832327 22.4377C0.00933531 24.3246 0.462156 26.5407 1.99258 27.9177C6.15506 31.6628 13.1846 30.3023 13.1846 30.3023" fill="#FFDDCC"/>
<path d="M2.16377 26.3792C1.20283 25.5146 0.667017 24.3191 0.604795 23.082C0.125308 24.8102 0.633598 26.6948 1.99283 27.9177C6.15531 31.6628 13.1849 30.3023 13.1849 30.3023L13.2648 28.7801C12.4338 28.9221 6.04975 29.8756 2.16377 26.3792Z" fill="#FFCCBC"/>
<path d="M26.522 24.7135C26.7557 23.673 29.2139 22.7143 31.1364 24.7135C31.1364 24.7135 32.3285 22.1059 35.0172 23.891L33.2586 19.6979L32.861 19.8788C32.1725 20.192 31.3603 19.8869 31.0486 19.1977L30.7251 18.4827C30.2724 17.4819 30.8121 16.3122 31.8674 16.0071L33.1157 15.6461C34.6852 15.1924 36.348 15.9726 37.0007 17.4691L39.1677 22.4377C39.9907 24.3246 39.5379 26.5407 38.0074 27.9177C33.845 31.6628 26.8154 30.3023 26.8154 30.3023" fill="#FFDDCC"/>
<path d="M39.223 22.5718C39.3011 23.9852 38.7582 25.3961 37.6654 26.3792C33.9803 29.6948 28.049 29.0088 26.7368 28.8078L26.8153 30.3023C26.8153 30.3023 33.8448 31.6628 38.0073 27.9177C39.5018 26.5731 39.968 24.4288 39.223 22.5718Z" fill="#FFCCBC"/>
<path d="M31.2764 39.5727L29.9266 29.3519C29.6104 26.9574 28.0542 24.9073 25.8328 23.9588C22.1071 22.3679 17.893 22.3679 14.1672 23.9588C11.9458 24.9073 10.3896 26.9574 10.0734 29.3519L8.72363 39.5727" fill="#9AFFA2"/>
<path d="M15.7912 23.9586C17.4 23.2717 19.0998 22.882 20.8119 22.7883C18.5588 22.665 16.2842 23.0547 14.1672 23.9586C11.9458 24.9072 10.3896 26.9572 10.0734 29.3518L8.72363 39.5725H10.3476L11.6973 29.3518C12.0135 26.9572 13.5697 24.9072 15.7912 23.9586Z" fill="#20D9A8"/>
<path d="M12.6812 39.9999C12.4263 39.9999 12.2222 39.7688 12.2574 39.5141L12.9056 34.8187C12.9379 34.5849 13.1539 34.4217 13.3874 34.4537C13.6211 34.486 13.7846 34.7017 13.7523 34.9355L13.1041 39.631C13.0746 39.845 12.8913 39.9999 12.6812 39.9999Z" fill="#333333"/>
<path d="M27.4618 39.9999C27.2517 39.9999 27.0685 39.845 27.039 39.631L26.3908 34.9355C26.3585 34.7017 26.5219 34.486 26.7558 34.4537C26.989 34.4217 27.2053 34.5848 27.2375 34.8187L27.8858 39.5141C27.9209 39.7689 27.7168 39.9999 27.4618 39.9999Z" fill="#333333"/>
<path d="M20 27.6066H19.9996C18.7367 27.6066 17.7129 26.5828 17.7129 25.3199V17.9521H22.2866V25.3199C22.2866 26.5828 21.2628 27.6066 20 27.6066Z" fill="#FFDDCC"/>
<path d="M26.2998 16.3432C26.5231 15.5082 26.7645 14.0607 26.1966 12.5307C24.8545 8.91555 19.8055 7.05282 17.9388 8.37333C16.9589 9.06658 16.6587 10.8028 16.4249 10.7291C16.2339 10.669 16.5722 9.55504 16.2872 9.41264C15.9139 9.22615 14.5154 10.7285 13.8786 12.392C13.3306 13.8239 13.3936 15.2538 13.639 16.4232C14.271 18.053 15.202 18.7995 15.7329 19.1361C18.3403 20.7891 22.7388 19.8079 26.2998 16.3432Z" fill="#666666"/>
<path d="M14.4178 16.3375C13.573 16.233 12.6182 16.7939 12.6182 17.7956C12.6182 18.6076 13.2719 19.2659 14.0784 19.2659C14.1395 19.2659 14.1994 19.261 14.2585 19.2536C14.906 21.8319 17.2308 23.7405 20 23.7405C22.7694 23.7405 25.0941 21.8319 25.7417 19.2535C25.8008 19.2609 25.8606 19.2658 25.9218 19.2658C26.7282 19.2658 27.382 18.6075 27.382 17.7955C27.382 17.0066 26.7645 16.3647 25.9898 16.3286L23.7685 13.8994C21.8821 16.4664 18.0612 16.5091 16.1179 13.9849L16.0521 13.8994L14.4178 16.3375Z" fill="#FFDDCC"/>
<path d="M39.5568 22.2667L37.3901 17.2981C36.6541 15.6105 34.7647 14.7238 32.9952 15.2355L31.747 15.5964C30.4662 15.9667 29.7825 17.4388 30.3342 18.6587L30.6577 19.3737C31.0612 20.2654 32.1415 20.6726 33.0331 20.269L34.1764 22.9956C32.9767 22.5978 31.7787 23.0424 31.0442 24.0459C29.8348 23.0426 27.8233 22.6753 26.5778 23.8448C25.7371 23.393 24.7993 23.0827 23.8792 22.8414C24.8909 22.0583 25.6673 20.9702 26.063 19.6876C27.0376 19.6144 27.8082 18.7937 27.8082 17.7953C27.8082 17.0654 27.3986 16.4314 26.7937 16.1148C27.6436 12.2771 25.0279 8.94093 21.4441 7.83289C19.607 7.26503 17.6818 7.37409 16.7134 9.24281C16.5462 8.97255 16.2071 8.91973 15.9313 9.02717C15.2538 9.29067 14.0619 10.7205 13.4805 12.2395C13.0218 13.4382 12.9142 14.7606 13.158 16.1745C12.5701 16.5048 12.1918 17.1168 12.1918 17.7954C12.1918 18.7937 12.9624 19.6145 13.937 19.6877C14.3326 20.9703 15.1091 22.0583 16.1207 22.8414C15.2007 23.0827 14.2632 23.3929 13.4226 23.8445C12.177 22.6749 10.1656 23.0421 8.95578 24.0459C8.22168 23.0428 7.02373 22.5976 5.82356 22.9956L6.96689 20.269C7.85852 20.6726 8.93877 20.2655 9.34228 19.3737L9.6657 18.6587C10.2171 17.4396 9.53416 15.9669 8.25296 15.5964L7.00476 15.2355C5.23553 14.7237 3.34587 15.6105 2.60988 17.2981L0.443218 22.2667C-0.461483 24.3412 0.0473205 26.7397 1.70929 28.2352C3.99177 30.2891 7.08271 30.8614 9.43202 30.9551L8.30142 39.5169C8.27151 39.7435 8.43194 39.9587 8.65758 39.9947C8.89194 40.0321 9.11758 39.8644 9.14869 39.6288L10.4983 29.408C10.9611 25.9033 13.9352 24.1314 17.1359 23.4827C17.186 23.5081 17.2354 23.5347 17.2862 23.5588V25.3201C17.2862 26.8166 18.5036 28.034 20.0002 28.034C21.4966 28.034 22.7139 26.8165 22.7139 25.3201V23.5588C22.7647 23.5347 22.8141 23.5081 22.8642 23.4827C26.0643 24.1313 29.0389 25.9022 29.5019 29.408L30.8514 39.6288C30.8825 39.8643 31.1081 40.0321 31.3425 39.9947C31.5681 39.9587 31.7286 39.7436 31.6987 39.5169L30.5681 30.9545C32.9175 30.8609 36.008 30.2895 38.2909 28.2352C39.9527 26.7398 40.4614 24.3412 39.5568 22.2667ZM9.651 29.2961L9.54433 30.1038C7.33134 30.0255 4.40151 29.5081 2.28074 27.5998C0.892876 26.3509 0.469115 24.345 1.22655 22.6084L3.3933 17.6398C3.95826 16.3443 5.40886 15.6635 6.76749 16.0566L8.0157 16.4175C8.80501 16.6458 9.22903 17.5508 8.88715 18.3065L8.56373 19.0214C8.2486 19.7181 7.4798 19.6161 6.92014 19.3088C6.66672 19.2223 6.47638 19.2969 6.34912 19.5325L4.59074 23.7256C4.43134 24.1061 4.87672 24.4759 5.22117 24.2469C6.36245 23.4891 7.84023 23.5097 8.47647 24.891C8.59954 25.1601 8.96775 25.2233 9.17305 25.0096C10.0342 24.114 11.5182 23.5696 12.6521 24.3236C11.0271 25.4808 9.91706 27.2818 9.651 29.2961ZM14.2787 12.5451C14.7232 11.3837 15.5135 10.4034 15.9707 10.0061C15.9666 10.0625 15.9619 10.1161 15.9583 10.1589C15.9237 10.5564 15.8846 11.0069 16.297 11.137C16.7881 11.2914 17.006 10.691 17.1514 10.3441C17.9505 8.43657 19.2221 8.04058 21.1917 8.64964C24.2619 9.59888 26.6299 12.385 26.0043 15.7121L24.1953 13.7336V13.3705C24.1953 12.3181 23.3392 11.462 22.2866 11.462C22.0506 11.462 21.8595 11.6533 21.8595 11.8893C21.8595 12.1253 22.051 12.3167 22.287 12.3167C22.868 12.3167 23.3407 12.7894 23.3407 13.3705V13.7528C21.613 15.9623 18.1679 15.9471 16.457 13.7243C16.2852 13.4669 15.9024 13.3562 15.6976 13.6615L14.1989 15.8977C14.126 15.8982 14.0533 15.9035 13.981 15.9114C13.7894 14.6956 13.8884 13.5649 14.2787 12.5451ZM21.8592 25.3201C21.8592 26.3453 21.0252 27.1793 19.9998 27.1793C18.9747 27.1793 18.1407 26.3453 18.1407 25.3201V23.889C19.3469 24.2587 20.653 24.2587 21.8592 23.889V25.3201ZM20 23.3131C17.4795 23.3131 15.2892 21.6008 14.6736 19.1493C14.6254 18.9573 14.4529 18.8261 14.2595 18.8261C13.6333 18.8261 13.0464 18.5097 13.0464 17.7955C13.0464 17.1178 13.7336 16.6835 14.366 16.7616C14.5257 16.7811 14.6836 16.7094 14.7734 16.5755L16.0892 14.6124C18.1354 16.828 21.7748 16.8011 23.787 14.5534L25.6737 16.617C25.75 16.7005 25.8562 16.7502 25.9692 16.7555C26.5213 16.7812 26.9537 17.238 26.9537 17.7955C26.9537 18.3706 26.4905 18.8384 25.921 18.8384C25.6785 18.8384 25.4028 18.8462 25.3266 19.1494C24.7107 21.6009 22.5205 23.3131 20 23.3131ZM37.7193 27.5998C35.5983 29.5084 32.6687 30.0254 30.4556 30.1035L30.349 29.2961C30.083 27.2819 28.9731 25.4811 27.3483 24.3237C28.4816 23.5692 29.966 24.1142 30.8269 25.0095C31.0319 25.2227 31.398 25.1596 31.5228 24.8925C32.1631 23.5155 33.6294 23.4836 34.7789 24.2468C35.1236 24.4756 35.5691 24.1071 35.4093 23.7255L33.6509 19.5325C33.5236 19.2968 33.3333 19.2223 33.0799 19.3087L32.6823 19.4896C32.2178 19.7011 31.6443 19.4814 31.4363 19.0214L31.1129 18.3064C30.771 17.5508 31.195 16.6457 31.9843 16.4174L33.2325 16.0565C34.5909 15.6635 36.0418 16.3443 36.6067 17.6397L38.7735 22.6083C39.5308 24.345 39.1072 26.3509 37.7193 27.5998Z" fill="#333333"/>
<path d="M20.0001 4.63564C19.764 4.63564 19.5728 4.44427 19.5728 4.20829V0.42735C19.5728 0.191368 19.764 0 20.0001 0C20.2362 0 20.4275 0.191368 20.4275 0.42735V4.20829C20.4275 4.44436 20.2362 4.63564 20.0001 4.63564Z" fill="#333333"/>
<path d="M12.9603 6.54685C12.8126 6.54685 12.6689 6.47019 12.5898 6.33309L10.6994 3.05865C10.5814 2.85429 10.6515 2.59292 10.8558 2.47489C11.0602 2.35668 11.3216 2.42694 11.4395 2.6313L13.3299 5.90574C13.491 6.18472 13.284 6.54685 12.9603 6.54685Z" fill="#333333"/>
<path d="M7.74334 11.7645C7.67086 11.7645 7.59744 11.746 7.53009 11.7071L4.25573 9.81662C4.05137 9.69867 3.98129 9.4373 4.09932 9.23286C4.21719 9.0285 4.4783 8.95824 4.683 9.07645L7.95736 10.967C8.32642 11.18 8.1712 11.7645 7.74334 11.7645Z" fill="#333333"/>
<path d="M32.4304 11.7605C32.0025 11.7605 31.8472 11.1761 32.2163 10.963L35.4905 9.07251C35.6949 8.95439 35.9563 9.02456 36.0742 9.22892C36.1922 9.43336 36.1222 9.69473 35.9178 9.81268L32.6435 11.7032C32.5763 11.7421 32.5028 11.7605 32.4304 11.7605Z" fill="#333333"/>
<path d="M27.2121 6.54432C26.8884 6.54432 26.6814 6.18218 26.8424 5.90321L28.7329 2.62876C28.8509 2.42432 29.1124 2.3544 29.3165 2.47235C29.5209 2.59038 29.591 2.85175 29.473 3.05611L27.5825 6.33056C27.5035 6.46765 27.3597 6.54432 27.2121 6.54432Z" fill="#333333"/>
</g>
<defs>
<clipPath id="clip0_108_8505">
<rect width="40" height="40" fill="white"/>
</clipPath>
</defs>
</svg>
