<svg width="18" height="18" viewBox="0 0 18 18" fill="none" xmlns="http://www.w3.org/2000/svg">
<path d="M4.05005 1.57495H13.95C14.775 1.57495 15.45 2.24995 15.45 3.07495V4.72495C15.45 5.32495 15.075 6.07495 14.7 6.44995L11.475 9.29995C11.025 9.67495 10.725 10.425 10.725 11.025V14.25C10.725 14.7 10.425 15.3 10.05 15.525L9.00005 16.2C8.02505 16.8 6.67505 16.125 6.67505 14.925V10.95C6.67505 10.425 6.37505 9.74995 6.07505 9.37495L3.22505 6.37495C2.85005 5.99995 2.55005 5.32495 2.55005 4.87495V3.14995C2.55005 2.24995 3.22505 1.57495 4.05005 1.57495Z" stroke="black" stroke-miterlimit="10" stroke-linecap="round" stroke-linejoin="round"/>
<path opacity="0.4" d="M8.1975 1.57495L4.5 7.49995" stroke="black" stroke-miterlimit="10" stroke-linecap="round" stroke-linejoin="round"/>
</svg>
