<svg width="20" height="20" viewBox="0 0 20 20" fill="none" xmlns="http://www.w3.org/2000/svg">
<g clip-path="url(#clip0_64_8153)">
<path d="M14.5899 6.39884C14.1731 5.9438 13.5251 5.32962 13.2494 6.71641C13.1557 7.18794 12.9367 7.55141 12.749 7.84407C12.5467 6.82016 11.938 5.76036 11.3645 5.04579C11.1499 4.77844 10.3884 3.71567 10.2421 1.9377C10.2203 1.67235 9.90507 1.54774 9.70792 1.72673C7.82385 3.43704 6.78971 5.7893 6.75132 8.43747C6.75132 8.43747 5.96679 7.77618 5.54057 6.54594C5.42581 6.21466 4.98167 6.15145 4.78897 6.44438C4.75198 6.50063 4.71768 6.55696 4.68675 6.61165C3.23311 9.18196 2.53386 12.3033 3.1803 15.2072C4.26116 20.0703 11.4109 21.4299 15.196 18.3733C18.8994 15.3829 17.7222 9.81688 14.5899 6.39884Z" fill="#ED694A"/>
<path d="M4.18636 15.5124C3.54741 12.5774 4.22374 9.42572 5.64323 6.81517C5.60733 6.72857 5.5728 6.639 5.54053 6.54587C5.42577 6.21458 4.98163 6.15138 4.78893 6.44431C4.75194 6.50056 4.71768 6.55689 4.68675 6.61158C3.23311 9.18189 2.53386 12.3032 3.1803 15.2071C3.67331 17.4253 5.42909 18.9141 7.55218 19.5879C5.89593 18.7856 4.59889 17.4102 4.18636 15.5124Z" fill="#D8553A"/>
<path d="M7.76228 8.38861C7.84075 5.98521 8.71005 3.83013 10.2659 2.17459C10.2552 2.08342 10.2473 2.00189 10.2422 1.94002C10.2199 1.6724 9.91618 1.53818 9.71989 1.7156C7.90017 3.36084 6.79103 5.68931 6.75122 8.43728L7.09181 8.70178C7.25954 8.83205 7.48681 8.82638 7.647 8.70705C7.74259 8.62603 7.7563 8.50377 7.76228 8.38861Z" fill="#D8553A"/>
<path d="M13.4469 9.95383C13.1391 9.61773 12.6605 9.16406 12.4569 10.1884C12.3877 10.5366 12.2258 10.8052 12.0873 11.0213C11.9379 10.265 11.4883 9.48223 11.0647 8.95445C10.9062 8.75699 10.3437 7.97203 10.2356 6.65871C10.2195 6.4627 9.98674 6.3707 9.84112 6.50289C8.44951 7.76613 7.68565 9.50363 7.65733 11.4596C7.65733 11.4596 7.07783 10.9711 6.76307 10.0625C6.6783 9.81777 6.35022 9.77109 6.20791 9.98746C6.18061 10.029 6.15526 10.0706 6.13241 10.111C5.05869 12.0095 4.54221 14.3149 5.01967 16.4598C5.81803 20.0519 11.099 21.0561 13.8947 18.7984C16.6301 16.5896 15.7606 12.4785 13.4469 9.95383Z" fill="#F4A32C"/>
<path d="M6.01541 16.7416C5.59268 14.6449 6.03053 12.3951 6.95885 10.5217C6.88811 10.3832 6.82108 10.23 6.76303 10.0625C6.67826 9.81784 6.35018 9.77113 6.20787 9.98749C6.18057 10.029 6.15522 10.0707 6.13237 10.1111C5.05869 12.0096 4.54225 14.315 5.01963 16.4599C5.39096 18.1305 6.73201 19.241 8.34155 19.7242C7.19799 19.1507 6.2976 18.1432 6.01541 16.7416Z" fill="#E89528"/>
<path d="M12.4036 13.1993C12.1952 12.9718 11.8712 12.6647 11.7333 13.3581C11.6865 13.5939 11.5769 13.7756 11.4831 13.9219C11.3819 13.4099 11.0776 12.8801 10.7908 12.5228C10.6836 12.3891 10.3028 11.8578 10.2296 10.9687C10.2187 10.836 10.0612 10.7737 9.96257 10.8633C9.02054 11.7184 8.50347 12.8946 8.48429 14.2186C8.48429 14.2186 8.09198 13.888 7.87894 13.2729C7.82155 13.1073 7.59948 13.0756 7.50315 13.2221C7.48464 13.2502 7.46753 13.2784 7.45202 13.3057C6.72522 14.5909 6.37558 16.1515 6.69878 17.6035C7.23921 20.0351 10.8141 20.7149 12.7066 19.1866C13.3547 18.6632 13.7566 17.9258 13.838 17.11C13.961 15.8745 13.4855 14.38 12.4036 13.1993Z" fill="#F4D44E"/>
<path d="M11.4355 16.2112C11.3195 16.0845 11.1389 15.9134 11.0621 16.2997C11.0361 16.431 10.975 16.5323 10.9227 16.6138C10.8664 16.3286 10.6968 16.0333 10.5371 15.8343C10.4773 15.7598 10.2652 15.4638 10.2244 14.9685C10.2183 14.8945 10.1305 14.8599 10.0756 14.9097C9.55078 15.3861 9.26266 16.0414 9.25199 16.7791C9.25199 16.7791 9.03344 16.5949 8.91473 16.2522C8.88273 16.1599 8.75902 16.1422 8.70539 16.2239C8.69508 16.2395 8.68555 16.2552 8.67695 16.2705C8.27203 16.9865 8.07723 17.856 8.2573 18.6649C8.66738 20.5099 12.0286 20.4539 12.2348 18.3899C12.3032 17.7016 12.0383 16.869 11.4355 16.2112Z" fill="#EAE9E8"/>
<path d="M9.03773 19.031C8.85765 18.3074 9.05246 17.5296 9.45738 16.8891C9.46598 16.8755 9.47555 16.8615 9.48582 16.8474C9.53949 16.7744 9.6632 16.7902 9.69516 16.8727C9.81387 17.1793 10.0324 17.3441 10.0324 17.3441C10.0412 16.8019 10.2376 16.3097 10.5984 15.9149C10.5177 15.8032 10.2709 15.5338 10.2244 14.9685C10.2183 14.8945 10.1305 14.8599 10.0756 14.9097C9.55078 15.3861 9.26266 16.0414 9.25199 16.7791C9.25199 16.7791 9.03344 16.5949 8.91473 16.2522C8.88277 16.1599 8.75902 16.1423 8.70539 16.2239C8.69508 16.2396 8.68555 16.2553 8.67695 16.2705C8.27203 16.9865 8.07723 17.856 8.2573 18.6649C8.42394 19.4147 9.10855 19.8654 9.86543 19.9741C9.45715 19.7736 9.14336 19.4561 9.03773 19.031Z" fill="#F7E7A1"/>
<path d="M7.21098 2.65801C8.05571 1.97094 8.05383 0.685508 7.21098 0C6.36626 0.687031 6.36809 1.9725 7.21098 2.65801Z" fill="#D8553A"/>
<path d="M17.3357 8.17241C18.1804 7.48534 18.1785 6.19991 17.3357 5.5144C16.9496 5.82839 16.4928 7.4869 17.3357 8.17241Z" fill="#D8553A"/>
<path d="M2.37442 8.69557C2.9832 8.20038 2.98188 7.27401 2.37442 6.77991C2.09617 7.0062 1.76695 8.20151 2.37442 8.69557Z" fill="#D8553A"/>
<path d="M12.9182 4.57362C13.527 4.07843 13.5257 3.15206 12.9182 2.65796C12.3094 3.15312 12.3108 4.07956 12.9182 4.57362Z" fill="#D8553A"/>
<path d="M8.43398 11.1454C8.57379 9.49496 9.20406 8.02742 10.2623 6.90863C10.2516 6.82754 10.2426 6.7443 10.2356 6.65871C10.2195 6.4627 9.98668 6.3707 9.84105 6.50289C8.73832 7.50391 8.03059 8.80297 7.76988 10.2723L7.76949 10.2722C7.75016 10.3812 7.72617 10.5399 7.71102 10.6646C7.71105 10.6648 7.71109 10.6648 7.71117 10.665C7.67949 10.9253 7.66113 11.1903 7.65723 11.4596C7.68668 11.4654 8.3534 11.808 8.43398 11.1454Z" fill="#E89528"/>
<path d="M7.67296 17.9484C7.38565 16.592 7.63034 15.1455 8.19878 13.8922C8.08866 13.7378 7.96815 13.5304 7.87897 13.2729C7.82155 13.1072 7.59952 13.0756 7.50315 13.2221C7.48468 13.2502 7.46749 13.2784 7.45202 13.3057C6.72522 14.5909 6.37558 16.1515 6.69878 17.6035C6.9519 18.7422 7.87054 19.4968 8.97019 19.8202C8.33011 19.3953 7.84593 18.7664 7.67296 17.9484Z" fill="#E8C842"/>
<path d="M9.52137 13.6259C9.6166 12.9452 9.895 12.1953 10.3332 11.5683C10.2855 11.3912 10.248 11.1912 10.2296 10.9687C10.2187 10.836 10.0611 10.7737 9.96258 10.8633C9.37563 11.3961 8.95434 12.0539 8.715 12.794L8.71438 12.7939C8.67672 12.9102 8.62348 13.1028 8.59121 13.2549C8.59148 13.2548 8.59176 13.2548 8.59203 13.2547C8.52594 13.565 8.48918 13.8871 8.48438 14.2186C9.01141 14.2844 9.44738 14.1539 9.52137 13.6259Z" fill="#E8C842"/>
</g>
<defs>
<clipPath id="clip0_64_8153">
<rect width="20" height="20" fill="white"/>
</clipPath>
</defs>
</svg>
