<svg width="22" height="22" viewBox="0 0 22 22" fill="none" xmlns="http://www.w3.org/2000/svg">
<path d="M14.5557 2.41174C14.9062 2.01501 15.4378 1.88224 15.9258 2.07092L15.9307 2.07288C16.4203 2.25567 16.7334 2.7088 16.7334 3.23596V9.64807H19.3789C19.8775 9.64823 20.3039 9.92623 20.5078 10.3795C20.7109 10.8315 20.6347 11.3378 20.3047 11.7145L13.3652 19.5983C13.1244 19.8713 12.7866 20.0152 12.4395 20.0153C12.2878 20.0153 12.1359 19.9887 11.9902 19.9362H11.9912C11.5016 19.7534 11.1885 19.3002 11.1885 18.7731V12.361H8.54395C8.04511 12.361 7.61796 12.083 7.41406 11.6295C7.21099 11.1775 7.28609 10.6703 7.61621 10.2936L7.61719 10.2946L14.5557 2.41174ZM15.4736 2.35999C15.2764 2.35999 15.0261 2.4297 14.832 2.65784L7.89453 10.5485C7.55216 10.9336 7.69121 11.3465 7.74512 11.4723C7.80522 11.6123 8.02836 11.9948 8.54395 11.9948H11.376C11.4756 11.9948 11.5633 12.0827 11.5635 12.1823V18.7828C11.5636 19.3191 11.9705 19.5409 12.126 19.5992C12.2587 19.649 12.7236 19.7761 13.0811 19.36L20.0195 11.4674L20.0186 11.4664C20.2731 11.1785 20.2612 10.8768 20.2158 10.6901L20.168 10.5465L20.0908 10.4059C19.9788 10.2391 19.7564 10.0231 19.3691 10.0231H16.5371C16.4374 10.0231 16.3496 9.93526 16.3496 9.83557V3.23596C16.3496 2.74146 16.0031 2.51536 15.8271 2.43713C15.7533 2.39983 15.6854 2.38305 15.6465 2.37561C15.6166 2.36992 15.5865 2.36639 15.5576 2.36389L15.4736 2.35999Z" fill="black" stroke="black"/>
<path d="M1.375 3.47919H7.79199C7.89155 3.47938 7.97949 3.5671 7.97949 3.66669C7.97949 3.76627 7.89155 3.854 7.79199 3.85419H1.375C1.27531 3.85419 1.1875 3.76638 1.1875 3.66669C1.1875 3.567 1.27531 3.47919 1.375 3.47919Z" fill="black" stroke="black"/>
<path d="M6.875 19.0208H1.375C0.999167 19.0208 0.6875 18.7091 0.6875 18.3333C0.6875 17.9575 0.999167 17.6458 1.375 17.6458H6.875C7.25083 17.6458 7.5625 17.9575 7.5625 18.3333C7.5625 18.7091 7.25083 19.0208 6.875 19.0208Z" fill="black"/>
<path d="M4.125 11.6875H1.375C0.999167 11.6875 0.6875 11.3758 0.6875 11C0.6875 10.6242 0.999167 10.3125 1.375 10.3125H4.125C4.50083 10.3125 4.8125 10.6242 4.8125 11C4.8125 11.3758 4.50083 11.6875 4.125 11.6875Z" fill="black"/>
</svg>
