<svg width="22" height="22" viewBox="0 0 22 22" fill="none" xmlns="http://www.w3.org/2000/svg">
<path d="M15.0605 2.85901C15.3964 2.47512 16.0358 2.71401 16.0361 3.2262V10.3268H19.3691C19.8567 10.3271 20.1108 10.8931 19.791 11.2565L12.8516 19.1393L12.8506 19.1403C12.5146 19.5243 11.875 19.2856 11.875 18.7731V11.6735H8.54297C8.06986 11.6735 7.80655 11.1111 8.12109 10.7438L15.0596 2.85999L15.0605 2.85901Z" fill="#965036" stroke="#965036"/>
<path d="M7.79167 4.35419H1.375C0.999167 4.35419 0.6875 4.04252 0.6875 3.66669C0.6875 3.29085 0.999167 2.97919 1.375 2.97919H7.79167C8.1675 2.97919 8.47917 3.29085 8.47917 3.66669C8.47917 4.04252 8.1675 4.35419 7.79167 4.35419Z" fill="#965036"/>
<path d="M6.875 19.0208H1.375C0.999167 19.0208 0.6875 18.7091 0.6875 18.3333C0.6875 17.9575 0.999167 17.6458 1.375 17.6458H6.875C7.25083 17.6458 7.5625 17.9575 7.5625 18.3333C7.5625 18.7091 7.25083 19.0208 6.875 19.0208Z" fill="#965036"/>
<path d="M4.125 11.6875H1.375C0.999167 11.6875 0.6875 11.3758 0.6875 11C0.6875 10.6242 0.999167 10.3125 1.375 10.3125H4.125C4.50083 10.3125 4.8125 10.6242 4.8125 11C4.8125 11.3758 4.50083 11.6875 4.125 11.6875Z" fill="#965036"/>
</svg>
