<svg width="28" height="28" viewBox="0 0 28 28" fill="none" xmlns="http://www.w3.org/2000/svg">
<g clip-path="url(#clip0_114_2391)">
<path d="M26.1331 15.8665C26.1331 24.2665 20.9998 27.5332 17.7331 27.5332C15.3998 27.5332 14.4665 26.5999 13.9998 26.5999C13.5331 26.5999 12.5998 27.5332 10.2665 27.5332C6.99979 27.5332 1.86646 24.2665 1.86646 15.8665C1.86646 8.39988 6.06646 6.53321 10.2665 6.53321H10.2711C11.541 6.50701 12.8048 6.71422 13.9998 7.14455H14.0045C15.1994 6.71422 16.4633 6.50701 17.7331 6.53321C21.9331 6.53321 26.1331 8.39988 26.1331 15.8665Z" fill="#F44335"/>
<path d="M17.7332 6.5332C17.4919 6.5332 17.2619 6.54114 17.0369 6.55234C20.9896 6.76047 24.7332 8.81987 24.7332 15.8665C24.7332 23.7532 20.2107 27.1132 16.9539 27.4954C17.1951 27.5192 17.4532 27.5332 17.7332 27.5332C20.9999 27.5332 26.1332 24.2665 26.1332 15.8665C26.1332 8.39987 21.9332 6.5332 17.7332 6.5332Z" fill="#C81E1E"/>
<path d="M15.4233 7.89586C14.9822 7.58953 14.5059 7.33728 14.0046 7.14453L15.4233 7.89586Z" fill="#F44335"/>
<path d="M13.9998 4.84386V7.14453C12.8048 6.7142 11.541 6.50699 10.2712 6.53319H10.2665C9.69522 6.32499 9.17496 5.99724 8.7405 5.57186C6.99516 3.78919 7.5785 0.50386 7.5785 0.50386C7.5785 0.50386 10.9945 0.11186 12.7445 1.89453C13.4687 2.7174 13.9088 3.75148 13.9998 4.84386Z" fill="#60A917"/>
<path d="M12.7446 1.89473C11.185 0.308068 8.31128 0.444334 7.69995 0.494734C8.83582 0.576401 10.3558 0.889068 11.3446 1.89473C12.0688 2.7176 12.509 3.75169 12.6 4.84407V6.74947C13.0769 6.8415 13.5453 6.97372 14 7.14473V4.84407C13.909 3.75169 13.4688 2.7176 12.7446 1.89473Z" fill="#549414"/>
<path d="M3.84203 14.4667C3.82236 14.4668 3.80271 14.4656 3.78323 14.463C3.66037 14.4476 3.54866 14.384 3.47269 14.2862C3.39672 14.1885 3.36271 14.0645 3.37816 13.9417C3.88589 9.89848 6.13896 7.93335 10.2666 7.93335C10.5244 7.93335 10.7333 8.14228 10.7333 8.40002C10.7333 8.65775 10.5244 8.86668 10.2666 8.86668C6.64343 8.86668 4.74876 10.5163 4.30449 14.0584C4.27512 14.2915 4.077 14.4664 3.84203 14.4667Z" fill="#F5F5F5"/>
<path d="M3.73327 16.3332C3.991 16.3332 4.19993 16.1243 4.19993 15.8666C4.19993 15.6088 3.991 15.3999 3.73327 15.3999C3.47554 15.3999 3.2666 15.6088 3.2666 15.8666C3.2666 16.1243 3.47554 16.3332 3.73327 16.3332Z" fill="#F5F5F5"/>
<path d="M1.3999 15.8666C1.3999 24.7058 6.83844 28 10.2666 28C11.425 28.0188 12.5707 27.756 13.6051 27.2342C13.7304 27.1699 13.8598 27.114 13.9924 27.0666C14.1312 27.1104 14.2659 27.1665 14.3947 27.2342C15.4291 27.756 16.5748 28.0188 17.7332 28C21.1614 28 26.5999 24.7058 26.5999 15.8666C26.5999 7.7667 21.7778 6.06664 17.7332 6.06664C16.6288 6.05605 15.5286 6.20457 14.4666 6.50764V4.19997C14.4666 3.32217 14.4666 1.68837 16.0752 0.886637C16.2244 0.812112 16.3225 0.66364 16.3326 0.497151C16.3426 0.330662 16.2631 0.171448 16.124 0.0794842C15.9848 -0.0124795 15.8072 -0.0232219 15.658 0.0513038C14.6897 0.517562 13.9801 1.39164 13.7227 2.43504C13.5446 2.12075 13.3278 1.83007 13.0773 1.56984C11.1896 -0.355163 7.67377 0.0228371 7.52537 0.0401037C7.32043 0.0637606 7.15535 0.219169 7.11937 0.422304C7.0937 0.566037 6.5155 3.96897 8.40877 5.9005C8.49884 5.99104 8.59544 6.07597 8.69717 6.15904C5.0735 6.60284 1.3999 8.79664 1.3999 15.8666ZM7.99344 0.943104C8.87497 0.905304 11.1593 0.945904 12.4109 2.22084C13.064 2.96152 13.458 3.89482 13.5332 4.87944V6.5053C12.5043 6.2137 11.4396 6.06731 10.3702 6.07037C9.8861 5.88701 9.44485 5.60619 9.07377 5.2453C7.8399 3.98344 7.9099 1.79897 7.99344 0.943104ZM10.2666 6.99997C11.4749 6.97598 12.6777 7.17044 13.817 7.57397H13.8216L13.8356 7.57864C14.3017 7.7585 14.7446 7.99351 15.1549 8.27864C15.2912 8.3777 15.4703 8.39561 15.6235 8.32549C15.7767 8.25537 15.8802 8.10812 15.8943 7.94022C15.9084 7.77233 15.8309 7.60987 15.6916 7.51517C15.5604 7.42184 15.4237 7.33457 15.2828 7.25057C16.088 7.07764 16.9097 6.99361 17.7332 6.99997C22.9972 6.99997 25.6666 9.98337 25.6666 15.8666C25.6666 24.0258 20.8006 27.0666 17.7332 27.0666C16.7126 27.0855 15.703 26.8533 14.7932 26.3904C14.5505 26.2484 14.2798 26.1607 13.9999 26.1333C13.72 26.1607 13.4493 26.2484 13.2066 26.3904C12.2968 26.8533 11.2872 27.0855 10.2666 27.0666C7.19917 27.0666 2.33324 24.0258 2.33324 15.8666C2.33324 9.98337 5.00257 6.99997 10.2666 6.99997Z" fill="black"/>
</g>
<defs>
<clipPath id="clip0_114_2391">
<rect width="28" height="28" fill="white"/>
</clipPath>
</defs>
</svg>
