<svg width="12" height="12" viewBox="0 0 12 12" fill="none" xmlns="http://www.w3.org/2000/svg">
<g clip-path="url(#clip0_26_51048)">
<path d="M8.32618 12H3.67388C3.16309 12 2.74063 11.6023 2.70985 11.0924L2.66612 10.368L2.82062 6.92754L2.19214 2.51585L2.05109 0.179203C2.04523 0.0820312 2.12244 0 2.2198 0H9.78027C9.87763 0 9.95483 0.0820312 9.94897 0.179203L9.78812 2.84395L9.19032 6.74738L9.33395 10.368L9.29021 11.0924C9.25946 11.6023 8.83698 12 8.32618 12Z" fill="#E7EFFF"/>
<path d="M9.78023 0H9.05589C9.15325 0 9.23046 0.0820312 9.2246 0.179203L8.56586 11.0924C8.53506 11.6023 8.1126 12 7.60181 12H8.32614C8.83694 12 9.2594 11.6023 9.29017 11.0924L9.33391 10.368L9.19028 6.74738L9.78808 2.84395L9.94893 0.179203C9.95479 0.0820312 9.87759 0 9.78023 0Z" fill="#D3DBFE"/>
<path d="M2.66612 10.3678H9.33397L9.78814 2.84371C9.26098 2.58481 8.47395 2.30045 7.55309 2.38691C6.25219 2.50906 5.74067 3.27212 4.54559 3.32675C3.99066 3.35213 3.1902 3.22925 2.19214 2.5156L2.66612 10.3678Z" fill="#70DAFF"/>
<path d="M9.33396 10.3682L9.7187 3.99413L9.78813 2.84408C9.58769 2.74564 9.34959 2.64357 9.08095 2.55957L8.60962 10.3682H9.33396Z" fill="#28C3FF"/>
<path d="M7.24344 5.5777C7.48346 5.5777 7.67804 5.38312 7.67804 5.1431C7.67804 4.90307 7.48346 4.7085 7.24344 4.7085C7.00342 4.7085 6.80884 4.90307 6.80884 5.1431C6.80884 5.38312 7.00342 5.5777 7.24344 5.5777Z" fill="#28C3FF"/>
<path d="M4.39682 7.14276C4.61503 7.14276 4.79193 6.96586 4.79193 6.74765C4.79193 6.52944 4.61503 6.35254 4.39682 6.35254C4.17861 6.35254 4.00171 6.52944 4.00171 6.74765C4.00171 6.96586 4.17861 7.14276 4.39682 7.14276Z" fill="#28C3FF"/>
<path d="M7.51785 9.03424C7.75788 9.03424 7.95246 8.83966 7.95246 8.59964C7.95246 8.35962 7.75788 8.16504 7.51785 8.16504C7.27783 8.16504 7.08325 8.35962 7.08325 8.59964C7.08325 8.83966 7.27783 9.03424 7.51785 9.03424Z" fill="#28C3FF"/>
</g>
<defs>
<clipPath id="clip0_26_51048">
<rect width="12" height="12" fill="white"/>
</clipPath>
</defs>
</svg>
