<svg width="14" height="14" viewBox="0 0 14 14" fill="none" xmlns="http://www.w3.org/2000/svg">
<g clip-path="url(#clip0_26_51059)">
<path d="M13 3.39371C13.5738 4.48115 14 5.68088 14 7C14 10.866 10.866 14 7 14C3.134 14 0 10.866 0 7C0 3.134 3.134 0 7 0C8.34307 0 9.65226 0.411004 10.7179 1.06679C10.7179 1.06679 12.3703 2.20024 13 3.39371Z" fill="#FF405C"/>
<path d="M14 7C14 5.68088 13.5738 4.48115 13 3.39371C12.3703 2.20024 10.7179 1.06679 10.7179 1.06679C9.65226 0.411004 8.34307 0 7 0V14C10.866 14 14 10.866 14 7Z" fill="#C1126B"/>
<path d="M11.0648 4.98267C11.3634 5.61959 11.5367 6.248 11.5367 7.00004C11.5367 9.50554 9.50554 11.5367 7.00001 11.5367C4.49447 11.5367 2.46338 9.50554 2.46338 7.00004C2.46338 4.49453 4.49453 2.46338 7.00004 2.46338C7.79145 2.46338 8.47299 2.63206 9.12068 2.9883C9.12068 2.98832 10.4988 3.77561 11.0648 4.98267Z" fill="#FFF4F4"/>
<path d="M11.5367 7.00004C11.5367 6.24797 11.3634 5.61959 11.0648 4.98267C10.4988 3.77563 9.12067 2.98832 9.12067 2.98832C8.47295 2.63209 7.79141 2.46338 7 2.46338V11.5367C9.50551 11.5367 11.5367 9.50554 11.5367 7.00004Z" fill="#EEE1DC"/>
<path d="M6.99999 9.13573C8.17939 9.13573 9.13549 8.17964 9.13549 7.00024C9.13549 5.82084 8.17939 4.86475 6.99999 4.86475C5.82059 4.86475 4.8645 5.82084 4.8645 7.00024C4.8645 8.17964 5.82059 9.13573 6.99999 9.13573Z" fill="#FF405C"/>
<path d="M9.13549 7.00024C9.13549 5.82085 8.17939 4.86475 7 4.86475V9.13573C8.17939 9.13573 9.13549 8.17963 9.13549 7.00024Z" fill="#C1126B"/>
<path d="M6.91369 7.56804C6.80276 7.56804 6.69191 7.52554 6.60755 7.44064C6.43961 7.27157 6.44051 6.99836 6.60955 6.83038L11.935 1.53991C12.1041 1.37197 12.3773 1.3729 12.5453 1.54191C12.7132 1.71098 12.7123 1.98422 12.5433 2.15217L7.21781 7.44264C7.13362 7.52625 7.02364 7.56804 6.91369 7.56804Z" fill="#00337A"/>
<path d="M12.5335 1.32864L12.1404 0.193378C12.0754 0.00560833 11.8363 -0.0493526 11.6958 0.0911396L9.46432 2.32261C9.39957 2.38736 9.3722 2.48057 9.39164 2.57004L9.71927 4.07805C9.74066 4.17649 9.81522 4.25475 9.91251 4.28083L11.4619 4.69662C11.5548 4.72156 11.654 4.69501 11.722 4.627L13.9211 2.42794C14.0553 2.29373 14.0122 2.06653 13.8381 1.99085L12.6805 1.48737C12.6115 1.45734 12.5582 1.39978 12.5335 1.32864Z" fill="#00AEEE"/>
<path d="M12.5452 1.54201C12.5419 1.5387 12.5383 1.53589 12.535 1.53271L6.61768 7.45004C6.70069 7.52846 6.807 7.56814 6.91359 7.56814C7.02354 7.56814 7.13354 7.52636 7.21771 7.44277L12.5432 2.1523C12.7123 1.98432 12.7132 1.71111 12.5452 1.54201Z" fill="#002659"/>
<path d="M13.8374 1.99166L12.6798 1.48818C12.6573 1.47839 12.6367 1.46537 12.6179 1.4502L9.8269 4.2412C9.85236 4.25916 9.88077 4.2733 9.91186 4.28164L11.4613 4.69743C11.5542 4.72237 11.6533 4.69582 11.7214 4.62781L13.9204 2.42875C14.0546 2.29454 14.0115 2.06734 13.8374 1.99166Z" fill="#0089FF"/>
</g>
<defs>
<clipPath id="clip0_26_51059">
<rect width="14" height="14" fill="white"/>
</clipPath>
</defs>
</svg>
