<svg width="22" height="22" viewBox="0 0 22 22" fill="none" xmlns="http://www.w3.org/2000/svg">
<path d="M15.0696 2.65405C17.9808 2.65405 20.3537 5.04004 20.3538 7.96558C20.3538 10.9632 19.0329 13.4883 17.2649 15.4236C15.4924 17.3638 13.2972 18.6806 11.6262 19.2537L11.6184 19.2566C11.4597 19.3136 11.2461 19.3454 11.0002 19.3455C10.7541 19.3455 10.5399 19.3137 10.3811 19.2566V19.2556L10.3733 19.2537L10.0549 19.1375C8.43054 18.5134 6.39664 17.2409 4.73462 15.4207C2.9664 13.484 1.64575 10.9585 1.64575 7.96558C1.64583 5.03139 4.01818 2.65405 6.92993 2.65405C8.34663 2.65406 9.66678 3.20676 10.6448 4.19312L11.0002 4.55054L11.3547 4.19312C12.3327 3.20684 13.653 2.65414 15.0696 2.65405ZM15.0793 3.02905C13.5273 3.02905 12.0857 3.75519 11.1575 5.00952L11.1565 5.0105C11.1388 5.03448 11.0909 5.06909 11.009 5.06909C10.9272 5.06908 10.8792 5.03448 10.8616 5.0105L10.8586 5.00757L10.676 4.7771C9.73375 3.65923 8.38523 3.02906 6.92993 3.02905C4.22198 3.02905 2.02083 5.2447 2.02075 7.96558C2.02075 11.2699 3.61273 13.827 5.44556 15.6326C7.27213 17.432 9.37333 18.5219 10.4993 18.907L10.5022 18.908C10.6606 18.9608 10.8548 18.9753 11.0042 18.9753C11.1535 18.9753 11.3476 18.9608 11.5061 18.908L11.511 18.907C12.6316 18.522 14.7321 17.4346 16.5598 15.6365C18.3939 13.832 19.9885 11.2746 19.9885 7.96558C19.9884 5.24479 17.7872 3.02919 15.0793 3.02905Z" stroke="#C7C7C7"/>
</svg>
