<svg width="25" height="24" viewBox="0 0 25 24" fill="none" xmlns="http://www.w3.org/2000/svg">
<path d="M9.49634 3.31494C10.7495 2.34421 12.7344 2.23606 14.1233 3.02881L14.3928 3.19971L20.1536 7.22998C20.6226 7.55844 21.0664 8.09711 21.3938 8.72412C21.7212 9.3513 21.9094 10.0244 21.9094 10.6001V17.3804C21.9093 19.654 20.0639 21.5003 17.7903 21.5005H7.01001C4.7377 21.5005 2.89012 19.6457 2.88989 17.3706V10.4702L2.89771 10.2651C2.93439 9.7765 3.09773 9.22084 3.35864 8.69092C3.65669 8.08564 4.06114 7.55672 4.48755 7.22412L9.49634 3.31494ZM12.3997 13.7505C11.7136 13.7506 11.1497 14.3144 11.1497 15.0005V18.0005C11.1498 18.6864 11.7137 19.2504 12.3997 19.2505C13.0857 19.2505 13.6495 18.6865 13.6497 18.0005V15.0005C13.6497 14.3143 13.0858 13.7505 12.3997 13.7505Z" fill="#965036" stroke="#965036"/>
</svg>
