<svg width="40" height="40" viewBox="0 0 40 40" fill="none" xmlns="http://www.w3.org/2000/svg">
<g clip-path="url(#clip0_108_8681)">
<path d="M22.9914 0.427246H17.0085C13.2322 0.427246 10.1709 3.48853 10.1709 7.26485V33.7606H29.829V7.26485C29.829 3.48853 26.7677 0.427246 22.9914 0.427246Z" fill="#F5F5F5"/>
<path d="M18.2906 0.427246H17.0085C13.2322 0.427246 10.1709 3.48853 10.1709 7.26485V33.7606H11.4529V7.26485C11.4529 3.48853 14.5142 0.427246 18.2906 0.427246Z" fill="#D6D6D6"/>
<path d="M20 16.0381C23.3043 16.0381 25.9829 13.3594 25.9829 10.0552C25.9829 6.7509 23.3043 4.07227 20 4.07227C16.6957 4.07227 14.0171 6.7509 14.0171 10.0552C14.0171 13.3594 16.6957 16.0381 20 16.0381Z" fill="#FCDECA"/>
<path d="M16.0684 9.20071C16.0684 7.10943 17.1421 5.26977 18.7676 4.2002C16.0547 4.7684 14.0171 7.1737 14.0171 10.0554C14.0171 13.3597 16.6957 16.0383 20 16.0383C21.213 16.0383 22.3409 15.6763 23.2837 15.0559C22.8859 15.1393 22.4738 15.1836 22.0513 15.1836C18.747 15.1836 16.0684 12.505 16.0684 9.20071Z" fill="#F9CDAF"/>
<path d="M19.4475 7.71252L19.9978 6.94047L20.5807 7.73833C21.7985 9.40517 24.2365 9.53432 25.6246 8.01175C24.7896 5.7138 22.5867 4.07227 20.0001 4.07227C17.4134 4.07227 15.2104 5.71398 14.3755 8.01218L14.3918 8.02987C15.7955 9.55329 18.2452 9.39953 19.4475 7.71252Z" fill="#F9ED99"/>
<path d="M14.3918 8.02985C14.8628 8.54105 15.4519 8.8625 16.0718 9.00139C16.1375 6.99293 17.1939 5.23575 18.7674 4.2002C16.7731 4.60404 15.0597 6.09789 14.3755 8.01216L14.3918 8.02985Z" fill="#FFC480"/>
<path d="M10.5981 14.1025C9.65397 14.1025 8.88867 14.8678 8.88867 15.8119V34.4444C8.88867 37.2766 11.1847 39.5726 14.0169 39.5726H25.9827C26.0568 39.5726 26.1304 39.5701 26.2037 39.5671V22.2418L21.2885 14.1025H10.5981Z" fill="#FF80A1"/>
<path d="M26.2036 22.2419L21.2884 14.1284L18.7192 16.9383C17.6978 18.0554 18.1967 19.8561 19.6473 20.2884L26.2036 22.2419Z" fill="#F5F5F5"/>
<path d="M29.4014 14.1025H26.2036V39.5671C28.9332 39.4512 31.1108 37.2025 31.1108 34.4444V15.8119C31.1108 14.8678 30.3455 14.1025 29.4014 14.1025Z" fill="#FF80A1"/>
<path d="M3.79821 22.906C4.60067 22.906 5.2512 22.2555 5.2512 21.453C5.2512 20.6505 4.60067 20 3.79821 20C2.99574 20 2.34521 20.6505 2.34521 21.453C2.34521 22.2555 2.99574 22.906 3.79821 22.906Z" fill="#FFF8D9"/>
<path d="M3.62727 21.453C3.62727 20.8809 3.95872 20.3875 4.43923 20.1505C4.24564 20.055 4.02863 20 3.79821 20C2.99573 20 2.34521 20.6505 2.34521 21.453C2.34521 22.2555 2.99573 22.906 3.79821 22.906C4.02863 22.906 4.24564 22.8509 4.43923 22.7555C3.95872 22.5185 3.62727 22.025 3.62727 21.453Z" fill="white"/>
<path d="M36.43 30.7209C37.2325 30.7209 37.883 30.0704 37.883 29.2679C37.883 28.4655 37.2325 27.8149 36.43 27.8149C35.6276 27.8149 34.9771 28.4655 34.9771 29.2679C34.9771 30.0704 35.6276 30.7209 36.43 30.7209Z" fill="#FFF8D9"/>
<path d="M36.2591 29.2679C36.2591 28.6959 36.5906 28.2025 37.0711 27.9655C36.8775 27.87 36.6605 27.8149 36.43 27.8149C35.6276 27.8149 34.9771 28.4655 34.9771 29.2679C34.9771 30.0704 35.6276 30.7209 36.43 30.7209C36.6605 30.7209 36.8775 30.6659 37.0711 30.5704C36.5906 30.3333 36.2591 29.84 36.2591 29.2679Z" fill="white"/>
<path d="M11.4528 24.8718V14.1025H10.5981C9.65397 14.1025 8.88867 14.8678 8.88867 15.8119V34.4444C8.88867 37.2766 11.1847 39.5726 14.0169 39.5726H25.9827C26.0018 39.5726 26.0206 39.5715 26.0397 39.5712C17.9732 39.5098 11.4528 32.9527 11.4528 24.8718Z" fill="#F46080"/>
<path d="M26.2035 25.6258C27.1476 25.6258 27.9129 24.8605 27.9129 23.9164C27.9129 22.9724 27.1476 22.207 26.2035 22.207C25.2595 22.207 24.4941 22.9724 24.4941 23.9164C24.4941 24.8605 25.2595 25.6258 26.2035 25.6258Z" fill="#F9ED99"/>
<path d="M25.7762 23.9164C25.7762 23.1993 26.2183 22.5862 26.8446 22.3325C26.6464 22.2522 26.4304 22.207 26.2035 22.207C25.2594 22.207 24.4941 22.9723 24.4941 23.9164C24.4941 24.8605 25.2594 25.6258 26.2035 25.6258C26.4304 25.6258 26.6464 25.5806 26.8446 25.5004C26.2183 25.2468 25.7762 24.6337 25.7762 23.9164Z" fill="#FFC480"/>
<path d="M38.9541 14.4559H35.7364C35.367 14.4683 35.1644 13.9788 35.4341 13.7264L37.9223 11.2382H35.6358C35.3999 11.2382 35.2085 11.047 35.2085 10.8109C35.2085 10.5748 35.3999 10.3835 35.6358 10.3835H38.9541C39.3234 10.3711 39.526 10.8606 39.2563 11.113L36.7681 13.6012H38.9541C39.19 13.6012 39.3814 13.7925 39.3814 14.0286C39.3814 14.2646 39.19 14.4559 38.9541 14.4559Z" fill="#333333"/>
<path d="M4.36381 5.36941H1.14611C0.776797 5.38181 0.574147 4.89232 0.843891 4.63993L3.33201 2.15181H1.04551C0.809532 2.15181 0.618164 1.96052 0.618164 1.72446C0.618164 1.48839 0.809532 1.29711 1.04551 1.29711H4.36372C4.73304 1.28471 4.93569 1.7742 4.66594 2.02659L2.17782 4.51471H4.36381C4.59979 4.51471 4.79116 4.706 4.79116 4.94206C4.79116 5.17813 4.59979 5.36941 4.36381 5.36941Z" fill="#333333"/>
<path d="M22.564 12.2636C21.7261 12.2636 21.0444 11.6118 21.0444 10.8107C21.0444 10.5746 21.2358 10.3833 21.4718 10.3833C21.7078 10.3833 21.8991 10.5746 21.8991 10.8107C21.8991 11.1405 22.1974 11.4089 22.564 11.4089C22.9306 11.4089 23.2289 11.1405 23.2289 10.8107C23.2289 10.5746 23.4202 10.3833 23.6562 10.3833C23.8922 10.3833 24.0836 10.5746 24.0836 10.8107C24.0836 11.6118 23.4019 12.2636 22.564 12.2636Z" fill="#333333"/>
<path d="M17.4356 12.2636C16.5977 12.2636 15.916 11.6118 15.916 10.8107C15.916 10.5746 16.1074 10.3833 16.3434 10.3833C16.5793 10.3833 16.7707 10.5746 16.7707 10.8107C16.7707 11.1405 17.069 11.4089 17.4356 11.4089C17.8022 11.4089 18.1005 11.1405 18.1005 10.8107C18.1005 10.5746 18.2918 10.3833 18.5278 10.3833C18.7638 10.3833 18.9552 10.5746 18.9552 10.8107C18.9552 11.6118 18.2735 12.2636 17.4356 12.2636Z" fill="#333333"/>
<path d="M3.79831 23.3334C2.76147 23.3334 1.91797 22.4899 1.91797 21.4531C1.91797 20.4163 2.76147 19.5728 3.79831 19.5728C4.83515 19.5728 5.67865 20.4163 5.67865 21.4531C5.67865 22.4899 4.83515 23.3334 3.79831 23.3334ZM3.79831 20.4275C3.23276 20.4275 2.77267 20.8875 2.77267 21.4531C2.77267 22.0187 3.23276 22.4787 3.79831 22.4787C4.36387 22.4787 4.82395 22.0187 4.82395 21.4531C4.82395 20.8875 4.36387 20.4275 3.79831 20.4275Z" fill="#333333"/>
<path d="M36.4301 31.1484C35.3933 31.1484 34.5498 30.3049 34.5498 29.268C34.5498 28.2312 35.3933 27.3877 36.4301 27.3877C37.467 27.3877 38.3105 28.2312 38.3105 29.268C38.3105 30.3049 37.467 31.1484 36.4301 31.1484ZM36.4301 28.2424C35.8646 28.2424 35.4045 28.7025 35.4045 29.268C35.4045 29.8336 35.8646 30.2937 36.4301 30.2937C36.9957 30.2937 37.4558 29.8336 37.4558 29.268C37.4558 28.7025 36.9957 28.2424 36.4301 28.2424Z" fill="#333333"/>
<path d="M30.2563 13.8542V7.26496C30.2563 3.25906 26.9972 0 22.9913 0H17.0084C13.0025 0 9.74348 3.25906 9.74348 7.26496V13.8542C8.98963 14.1845 8.46143 14.9376 8.46143 15.812V34.4444C8.46143 37.5078 10.9536 40 14.017 40C14.017 40 26.1415 39.9974 26.2204 39.994H26.2219C29.2031 39.8674 31.5384 37.4298 31.5384 34.4444V15.812C31.5384 14.9375 31.0101 14.1845 30.2563 13.8542ZM10.5982 7.26496C10.5982 3.73034 13.4738 0.854701 17.0084 0.854701H22.9913C26.526 0.854701 29.4016 3.73034 29.4016 7.26496V13.6752H26.2038C25.9678 13.6752 25.7765 13.8665 25.7765 14.1026V20.7074L22.8181 15.8085C24.9431 14.7638 26.4101 12.5789 26.4101 10.0553C26.4101 6.52068 23.5345 3.64504 19.9999 3.64504C16.4653 3.64504 13.5896 6.52068 13.5896 10.0553C13.5896 11.3981 14.0067 12.6443 14.7155 13.6752H10.5982V7.26496ZM25.1237 7.90898C23.3522 9.39385 21.3974 8.52538 20.3425 6.68846C20.1819 6.45573 19.8072 6.45795 19.6495 6.69265L19.0992 7.4647C18.1559 8.84034 16.0812 9.05538 14.8756 7.90991C15.7166 5.90872 17.6966 4.49974 19.9998 4.49974C22.3027 4.49974 24.2825 5.90829 25.1237 7.90898ZM14.5933 8.7818C16.2954 10.1091 18.9336 9.52709 20.0019 7.67086C21.0781 9.51684 23.7066 10.1027 25.406 8.77957C25.5027 9.18949 25.5554 9.61624 25.5554 10.0553C25.5554 12.2691 24.2529 14.1824 22.3747 15.0743L21.6544 13.8815C21.5771 13.7534 21.4383 13.6751 21.2886 13.6751H15.7918C14.9532 12.7021 14.4443 11.4376 14.4443 10.0553C14.4443 9.61709 14.4969 9.19111 14.5933 8.7818ZM25.2645 21.5159L19.7695 19.8787C18.6458 19.582 18.224 18.0593 19.0348 17.2266L21.2188 14.8379L25.2645 21.5159ZM25.7765 39.1453H14.017C11.4249 39.1453 9.31613 37.0365 9.31613 34.4444V15.812C9.31613 15.105 9.89126 14.5299 10.5982 14.5299H20.3424L18.4041 16.6498C17.1665 17.9209 17.8105 20.2449 19.5255 20.6979L24.8329 22.2791C24.3652 22.6715 24.0671 23.2597 24.0671 23.9165C24.0671 24.9484 24.8024 25.8117 25.7765 26.0103V39.1453ZM26.2038 25.1985C25.4969 25.1985 24.9218 24.6234 24.9218 23.9165C24.9218 23.2096 25.4969 22.6344 26.2038 22.6344C26.9107 22.6344 27.4859 23.2096 27.4859 23.9165C27.4859 24.6234 26.9107 25.1985 26.2038 25.1985ZM30.6837 34.4444C30.6837 36.8197 28.9367 38.7851 26.6312 39.1003V26.0103C27.6053 25.8117 28.3406 24.9484 28.3406 23.9165C28.3406 22.8846 27.6053 22.0215 26.6312 21.8229V14.5299H29.4016C30.1085 14.5299 30.6837 15.105 30.6837 15.812V34.4444Z" fill="#333333"/>
</g>
<defs>
<clipPath id="clip0_108_8681">
<rect width="40" height="40" fill="white"/>
</clipPath>
</defs>
</svg>
