<svg width="28" height="28" viewBox="0 0 28 28" fill="none" xmlns="http://www.w3.org/2000/svg">
<path d="M14.0001 27.5898C8.70359 27.5898 4.70992 22.7778 5.68604 17.572L8.15113 4.42498C8.5876 2.09705 10.6202 0.410156 12.9887 0.410156H15.0115C17.3799 0.410156 19.4125 2.09705 19.849 4.42498L22.3141 17.572C23.2902 22.7778 19.2966 27.5898 14.0001 27.5898Z" fill="#80D261"/>
<path d="M14 25.8911C9.76294 25.8911 6.57635 22.0411 7.35554 17.8851L9.82063 4.73804C10.1063 3.21461 11.4386 2.10889 12.9886 2.10889H15.0114C16.5613 2.10889 17.8937 3.21461 18.1793 4.73804L20.6444 17.8851C21.4252 22.0495 18.2284 25.8911 14 25.8911Z" fill="#FFE177"/>
<path d="M14 23.343C16.3454 23.343 18.2468 21.4416 18.2468 19.0962C18.2468 16.7507 16.3454 14.8494 14 14.8494C11.6545 14.8494 9.75317 16.7507 9.75317 19.0962C9.75317 21.4416 11.6545 23.343 14 23.343Z" fill="#FE860A"/>
<path d="M14.2565 14.8569C15.347 15.6256 16.0594 16.8949 16.0594 18.3305C16.0594 20.676 14.158 22.5773 11.8126 22.5773C11.7265 22.5773 11.641 22.5748 11.5562 22.5697C12.2473 23.0568 13.0902 23.343 14.0001 23.343C16.3455 23.343 18.2469 21.4416 18.2469 19.0961C18.2469 16.8367 16.4826 14.9895 14.2565 14.8569Z" fill="#FE7701"/>
<path d="M21.9759 3.80762H6.02417C5.2691 3.80762 4.65698 4.41973 4.65698 5.1748V10.9341C4.65698 11.6891 5.2691 12.3012 6.02417 12.3012H13.0373C13.1099 12.3012 13.1794 12.3301 13.2307 12.3813L13.8066 12.9572C13.9134 13.064 14.0865 13.064 14.1933 12.9572L14.7692 12.3813C14.8205 12.33 14.8901 12.3012 14.9626 12.3012H21.9758C22.7309 12.3012 23.343 11.6891 23.343 10.9341V5.1748C23.343 4.41973 22.7309 3.80762 21.9759 3.80762Z" fill="#02C7DD"/>
<path d="M21.9758 3.80762H20.8821C21.6372 3.80762 22.2493 4.41973 22.2493 5.1748V10.9341C22.2493 11.6891 21.6372 12.3012 20.8821 12.3012H21.9758C22.7309 12.3012 23.343 11.6891 23.343 10.9341V5.1748C23.343 4.41973 22.7309 3.80762 21.9758 3.80762Z" fill="#07B2CD"/>
<path d="M14 14.4392C11.4321 14.4392 9.34302 16.5283 9.34302 19.0962C9.34302 19.8438 9.52453 20.5872 9.86791 21.2459C9.97269 21.4468 10.2204 21.5247 10.4212 21.4201C10.6221 21.3154 10.7001 21.0677 10.5954 20.8668C10.3087 20.3169 10.1633 19.7211 10.1633 19.0962C10.1633 16.9806 11.8845 15.2596 14 15.2596C16.1155 15.2596 17.8366 16.9807 17.8366 19.0962C17.8366 21.2118 16.1155 22.9329 14 22.9329C13.1638 22.9329 12.3693 22.6687 11.7021 22.169C11.5208 22.0332 11.2638 22.07 11.128 22.2513C10.9922 22.4326 11.029 22.6897 11.2103 22.8255C12.0204 23.4324 12.9851 23.7532 14 23.7532C16.5678 23.7532 18.657 21.6641 18.657 19.0962C18.657 16.5284 16.5678 14.4392 14 14.4392Z" fill="black"/>
<path d="M8.90382 5.09619C8.67731 5.09619 8.49367 5.27978 8.49367 5.50635V6.7804C8.49367 7.25673 8.10615 7.6443 7.62977 7.6443H6.76587V5.50635C6.76587 5.27978 6.58223 5.09619 6.35571 5.09619C6.1292 5.09619 5.94556 5.27978 5.94556 5.50635V10.6026C5.94556 10.8291 6.1292 11.0127 6.35571 11.0127C6.58223 11.0127 6.76587 10.8291 6.76587 10.6026V8.46461H7.62977C8.1061 8.46461 8.49367 8.85218 8.49367 9.32851V10.6026C8.49367 10.8291 8.67731 11.0127 8.90382 11.0127C9.13034 11.0127 9.31398 10.8291 9.31398 10.6026V9.32851C9.31398 8.82008 9.08752 8.36355 8.73013 8.05446C9.08752 7.74536 9.31398 7.28883 9.31398 6.7804V5.50635C9.31398 5.27978 9.13039 5.09619 8.90382 5.09619Z" fill="black"/>
<path d="M13.1506 5.9165C13.3772 5.9165 13.5608 5.73292 13.5608 5.50635C13.5608 5.27978 13.3772 5.09619 13.1506 5.09619H10.6025C10.376 5.09619 10.1924 5.27978 10.1924 5.50635V10.6026C10.1924 10.8291 10.376 11.0127 10.6025 11.0127H13.1506C13.3772 11.0127 13.5608 10.8291 13.5608 10.6026C13.5608 10.376 13.3772 10.1924 13.1506 10.1924H11.0127V8.46461H11.8766C12.1031 8.46461 12.2867 8.28103 12.2867 8.05446C12.2867 7.82789 12.1031 7.6443 11.8766 7.6443H11.0127V5.9165H13.1506Z" fill="black"/>
<path d="M20.3702 5.09619C19.4416 5.09619 18.686 5.8517 18.686 6.7804V9.32851C18.686 10.2572 19.4415 11.0127 20.3702 11.0127C21.2989 11.0127 22.0545 10.2572 22.0545 9.32851V6.7804C22.0545 5.8517 21.2989 5.09619 20.3702 5.09619ZM21.2341 9.32846C21.2341 9.80479 20.8466 10.1924 20.3702 10.1924C19.8939 10.1924 19.5063 9.80479 19.5063 9.32846V6.78035C19.5063 6.30402 19.8939 5.91645 20.3702 5.91645C20.8466 5.91645 21.2341 6.30402 21.2341 6.78035V9.32846Z" fill="black"/>
<path d="M17.8076 5.50635C17.8076 5.27978 17.624 5.09619 17.3975 5.09619H14.8494C14.6228 5.09619 14.4392 5.27978 14.4392 5.50635C14.4392 5.73292 14.6228 5.9165 14.8494 5.9165H15.7133V10.6026C15.7133 10.8291 15.8969 11.0127 16.1234 11.0127C16.3499 11.0127 16.5336 10.8291 16.5336 10.6026V5.9165H17.3975C17.624 5.9165 17.8076 5.73286 17.8076 5.50635Z" fill="black"/>
<path d="M21.9759 3.39746H19.9808C19.1882 1.35324 17.2277 0 15.0114 0H12.9886C11.8801 0 10.8161 0.337969 9.91169 0.97732C9.72673 1.10808 9.68276 1.36402 9.81358 1.54902C9.94433 1.73398 10.2002 1.77795 10.3853 1.64713C11.1504 1.10622 12.0506 0.820312 12.9886 0.820312H15.0114C16.7771 0.820312 18.3509 1.83526 19.0886 3.39746H18.0871C17.4245 2.34363 16.2678 1.69876 15.0114 1.69876H12.9886C11.7322 1.69876 10.5755 2.34363 9.91294 3.39746H8.91211C8.98851 3.23641 9.07442 3.07989 9.16941 2.92901C9.29011 2.73733 9.23258 2.48407 9.04084 2.36337C8.84911 2.24262 8.5959 2.30021 8.47521 2.49195C8.2948 2.77845 8.14211 3.08197 8.01944 3.39752H6.02417C5.04417 3.39752 4.24683 4.1948 4.24683 5.17486V10.9341C4.24683 11.9142 5.04417 12.7115 6.02417 12.7115H6.18003L5.28283 17.4965C4.79507 20.098 5.48479 22.7583 7.17518 24.795C8.86557 26.8319 11.3531 28 14 28C16.6469 28 19.1345 26.8319 20.8248 24.795C22.5152 22.7583 23.205 20.098 22.7172 17.4965L21.82 12.7115H21.9759C22.9559 12.7115 23.7532 11.9142 23.7532 10.9341V5.1748C23.7532 4.19475 22.9559 3.39746 21.9759 3.39746ZM12.9886 2.51902H15.0114C15.7958 2.51902 16.5301 2.84375 17.054 3.39741H10.946C11.4699 2.8438 12.2042 2.51902 12.9886 2.51902ZM21.9109 17.6476C22.3536 20.0086 21.7277 22.4227 20.1936 24.2711C18.6596 26.1196 16.4021 27.1797 14 27.1797C11.5979 27.1797 9.34048 26.1196 7.80644 24.2711C6.2724 22.4227 5.64644 20.0086 6.08914 17.6476L7.01467 12.7114H7.90837L6.95244 17.8095C6.55808 19.9128 7.11595 22.0637 8.48298 23.7108C9.84923 25.3571 11.8601 26.3012 14 26.3012C16.1399 26.3012 18.1511 25.3566 19.5181 23.7094C20.8845 22.0631 21.4419 19.9127 21.0476 17.8095L20.0917 12.7113H20.9854L21.9109 17.6476ZM22.9329 10.9341C22.9329 11.4618 22.5035 11.8911 21.9759 11.8911H21.3335C21.3291 11.8911 21.3247 11.8911 21.3203 11.8911H19.6053C19.6009 11.8911 19.5965 11.8911 19.592 11.8911H18.7616C18.5351 11.8911 18.3514 12.0747 18.3514 12.3013C18.3514 12.5279 18.5351 12.7115 18.7616 12.7115H19.2571L20.2413 17.9607C20.5905 19.8233 20.0968 21.7277 18.8869 23.1856C17.6762 24.6443 15.895 25.481 14 25.481C12.105 25.481 10.3241 24.6449 9.11423 23.187C7.90356 21.7282 7.40951 19.8233 7.75875 17.9607L8.74296 12.7115H12.9807L13.5167 13.2474C13.65 13.3807 13.825 13.4473 14 13.4473C14.1751 13.4473 14.3501 13.3807 14.4834 13.2474L15.0193 12.7115H16.7928C17.0194 12.7115 17.203 12.5279 17.203 12.3014C17.203 12.0748 17.0194 11.8912 16.7928 11.8912H14.9627C14.78 11.8912 14.6082 11.9624 14.4793 12.0914L14 12.5706L13.5209 12.0915C13.3918 11.9623 13.2201 11.8911 13.0373 11.8911H8.40865C8.40384 11.891 8.39903 11.891 8.39427 11.8911H6.68091C6.67572 11.891 6.67052 11.891 6.66538 11.8911H6.02412C5.49644 11.8911 5.06708 11.4617 5.06708 10.9341V5.1748C5.06708 4.64712 5.49644 4.21777 6.02412 4.21777H8.29955C8.30584 4.21794 8.31104 4.21794 8.31744 4.21777H10.1398C10.1448 4.21788 10.1498 4.21783 10.1548 4.21777H17.8453C17.8474 4.21783 17.8496 4.21783 17.8517 4.21783C17.8529 4.21783 17.8541 4.21777 17.8553 4.21777H19.6824C19.6888 4.21794 19.694 4.21794 19.7003 4.21777H21.9757C22.5034 4.21777 22.9327 4.64712 22.9327 5.1748V10.9341H22.9329Z" fill="black"/>
</svg>
