<svg width="50" height="50" viewBox="0 0 50 50" fill="none" xmlns="http://www.w3.org/2000/svg">
<g clip-path="url(#clip0_108_9062)">
<path fill-rule="evenodd" clip-rule="evenodd" d="M24.9819 7.87998C26.3688 6.4377 27.8664 3.40654 25.2809 0.732422H1.2207C0.951074 0.732422 0.732422 0.951074 0.732422 1.2207V28.6831H3.03838H8.02666V23.1827L5.97256 21.1259C5.17812 20.3342 5.17812 19.0358 5.97256 18.2441C6.76426 17.4497 8.0626 17.4497 8.85703 18.2441L10.1969 19.5812L11.5367 18.2441C12.3284 17.4497 13.6268 17.4497 14.4185 18.2441C15.2129 19.0358 15.2129 20.3342 14.4185 21.1259L12.3645 23.1826V28.683H14.615C19.3017 28.683 22.7176 24.9708 22.8864 20.3258C22.9086 19.7417 22.8366 19.6725 23.1604 19.642C30.2277 19.0219 30.2277 10.3325 24.9875 8.83486C24.6304 8.69375 24.5279 8.21211 24.9819 7.87998Z" fill="#B3E59F"/>
<path fill-rule="evenodd" clip-rule="evenodd" d="M17.1007 49.2675H8.83203V39.5206C9.40225 39.2991 10.0251 39.1773 10.6757 39.1773C11.34 39.1773 11.974 39.3047 12.5553 39.5372C13.264 38.7953 14.2633 38.333 15.3705 38.333C17.4909 38.333 19.2155 40.0299 19.2599 42.1393C20.3035 42.8368 20.9928 44.0271 20.9928 45.3753C20.9928 47.5263 19.2488 49.2675 17.1007 49.2675Z" fill="#B3E59F"/>
<path fill-rule="evenodd" clip-rule="evenodd" d="M8.02688 49.2676H10.1972H12.3647C12.3647 43.7533 12.3647 28.6943 12.3647 23.1827L14.4187 21.126C15.2131 20.3343 15.2131 19.036 14.4187 18.2443C13.627 17.4498 12.3286 17.4498 11.5369 18.2443L10.1971 19.5813L8.85725 18.2443C8.06282 17.4498 6.76448 17.4498 5.97278 18.2443C5.17834 19.036 5.17834 20.3343 5.97278 21.126L8.02678 23.1827C8.02688 28.6943 8.02688 43.7533 8.02688 49.2676Z" fill="#BE8282"/>
<path fill-rule="evenodd" clip-rule="evenodd" d="M46.4965 42.1812L42.7401 40.9271C42.2694 40.7722 42.2362 40.6115 42.1421 40.1244L41.893 38.8345L41.2009 35.2524C38.7206 36.5646 35.8777 37.9183 36.6777 40.0359L38.0119 42.7986C38.1946 43.1778 38.4078 43.4547 38.9808 43.6513L45.1179 45.7634L46.5822 44.1468L46.4965 42.1812Z" fill="#C8C5C9"/>
<path fill-rule="evenodd" clip-rule="evenodd" d="M48.9545 44.4843C49.1981 43.831 49.4888 43.2801 48.8023 43.0282L46.4963 42.1812L45.1177 45.7632C44.8215 46.5272 45.018 48.0192 45.4471 48.7003H47.3903L48.9545 44.4843Z" fill="#9FD4FE"/>
<path fill-rule="evenodd" clip-rule="evenodd" d="M34.4988 30.9255V27.8389H30.316C30.2136 27.8389 30.2026 27.8389 30.1445 27.7531L28.7189 25.6797C27.4953 23.9025 24.871 25.6021 26.1001 27.3462L28.1707 30.2777C28.6386 30.9227 28.6773 30.9255 29.4413 30.9255H34.4988Z" fill="#FFECE4"/>
<path fill-rule="evenodd" clip-rule="evenodd" d="M41.4775 27.2991L39.9301 25.0707C37.4221 23.2354 36.6774 24.2984 35.847 24.9461L33.5327 27.8389V30.9254V35.2605L37.004 37.1871L41.2006 35.2522L42.0532 30.9504L41.984 30.5103L41.4775 27.2991Z" fill="#9FD4FE"/>
<path fill-rule="evenodd" clip-rule="evenodd" d="M42.0868 22.6983C40.2515 14.676 37.1013 19.9356 34.0036 18.4712C33.5552 19.1771 33.2949 20.0158 33.2949 20.9156C33.2949 22.6595 34.4216 24.1765 35.8472 24.946C35.9468 25.0014 36.0465 25.0512 36.1489 25.0955C36.7025 25.3502 37.2922 25.4914 37.8708 25.4914C38.6708 25.4914 39.3518 25.3392 39.9304 25.0706C40.949 24.5946 41.6411 23.7447 42.0868 22.6983Z" fill="#FFECE4"/>
<path fill-rule="evenodd" clip-rule="evenodd" d="M42.0869 22.6982C43.2025 19.3183 42.4384 16.6331 39.7338 15.678C38.1698 15.1244 36.5061 16.0323 33.7241 14.6455C32.9213 16.24 33.1289 17.6324 34.0037 18.4712C34.8756 19.3072 37.9013 18.4573 37.9013 20.4173C37.9013 23.609 42.0869 22.6982 42.0869 22.6982Z" fill="#6F6571"/>
<path fill-rule="evenodd" clip-rule="evenodd" d="M46.4964 28.9488C45.8846 28.7385 44.9352 28.409 43.9857 28.0907C43.0362 27.7696 42.0867 27.4623 41.4777 27.299C40.7497 27.1053 39.9773 27.5067 39.7309 28.2319C39.4735 28.9849 39.8776 29.8236 40.6333 30.07L41.9842 30.5102L44.4867 31.324C44.6113 31.3684 44.5752 31.4652 44.5752 31.6092V34.0342C44.5752 34.8315 45.212 35.4875 46.0091 35.4902C46.8008 35.493 47.4763 34.8452 47.4763 34.0452V31.5787V30.261C47.4541 29.6686 47.0583 29.1399 46.4964 28.9488Z" fill="#FFECE4"/>
<path fill-rule="evenodd" clip-rule="evenodd" d="M41.2009 35.252L33.5329 35.2603L31.1079 38.0783C30.6788 38.5738 30.3052 39.1413 30.3052 39.933V41.0458V45.8818L32.1377 47.039L33.9868 45.8818L33.973 42.5655C33.973 41.616 33.8207 41.6355 34.629 41.1814L36.6774 40.0354C37.8458 39.3655 40.7828 38.0838 41.2009 35.252Z" fill="#ECEAEC"/>
<path fill-rule="evenodd" clip-rule="evenodd" d="M33.9868 45.8818H30.3051C29.5134 45.8818 27.5867 46.7372 27.3403 48.6999H33.9924L33.9868 45.8818Z" fill="#9FD4FE"/>
<path fill-rule="evenodd" clip-rule="evenodd" d="M32.3566 41.9791L32.3677 45.8823H33.9871L33.9732 42.566C33.9732 41.6165 33.821 41.6359 34.6293 41.1819L36.6777 40.0359C37.8459 39.366 40.783 38.0844 41.201 35.2524H39.4542C38.6708 37.9515 35.2493 38.7071 33.0126 39.9584C32.2044 40.4123 32.3566 41.0268 32.3566 41.9791Z" fill="#DAD8DB"/>
<path fill-rule="evenodd" clip-rule="evenodd" d="M46.0011 43.5153L46.563 43.7202L48.3069 44.3597C48.808 44.5451 48.7886 44.8884 48.6475 45.3147L48.9547 44.4843C49.1982 43.831 49.489 43.2801 48.8024 43.0282L46.4965 42.1812L45.9844 43.5071L46.0011 43.5153Z" fill="#72BFFC"/>
<path fill-rule="evenodd" clip-rule="evenodd" d="M36.6777 40.0354L37.4722 41.6825C38.1697 41.2895 39.2383 40.8659 40.2515 39.8859C40.4369 39.706 40.4203 39.8112 40.4674 40.0604L40.6916 41.2092C40.7857 41.6964 40.8189 41.8542 41.2867 42.0119L45.9317 43.648L46.4965 42.1808L42.74 40.9268C42.2694 40.7718 42.2362 40.6111 42.1421 40.124L41.893 38.8341L41.7047 37.8541L41.2009 35.252C40.7829 38.0839 37.8459 39.3656 36.6777 40.0354Z" fill="#B6B1B7"/>
<path fill-rule="evenodd" clip-rule="evenodd" d="M32.3705 46.895L32.3732 48.6999H33.9927L33.9871 45.9372V45.8818H32.3677L32.3705 46.895Z" fill="#72BFFC"/>
<path fill-rule="evenodd" clip-rule="evenodd" d="M37.8709 25.4914C38.6709 25.4914 39.3519 25.3392 39.9305 25.0706C40.9491 24.5944 41.6412 23.7446 42.0869 22.6982C42.0869 22.6982 41.1872 22.892 40.2239 22.7841C39.9 23.4401 39.4654 23.9993 38.9007 24.4201C38.6903 24.5751 38.4661 24.7136 38.2197 24.8271C37.7242 25.0596 37.1512 25.2035 36.4951 25.2396C36.9463 25.4001 37.4113 25.4914 37.8709 25.4914Z" fill="#FFDDCE"/>
<path fill-rule="evenodd" clip-rule="evenodd" d="M40.2235 22.7839C41.1869 22.8919 42.0865 22.698 42.0865 22.698C43.2021 19.3181 42.4381 16.6329 39.7335 15.6778C39.2214 15.4951 38.6981 15.4702 38.1279 15.4702C39.8664 16.1263 40.7743 17.5187 40.8657 19.3596C40.8768 19.6143 40.874 19.8772 40.8547 20.1485C40.8049 20.8683 40.6443 21.6406 40.3758 22.4545C40.3288 22.568 40.2789 22.676 40.2235 22.7839Z" fill="#5D5360"/>
<path fill-rule="evenodd" clip-rule="evenodd" d="M45.1181 29.998C45.6855 30.1779 46.0759 30.7204 46.098 31.3129L46.0427 35.4902C46.8205 35.4735 47.4767 34.8341 47.4767 34.0451V31.5786V30.2609C47.4545 29.6686 47.0587 29.1399 46.4967 28.9488C45.8849 28.7385 44.9355 28.409 43.9859 28.0907C43.0364 27.7696 42.0869 27.4623 41.4779 27.299C40.7499 27.1053 39.9775 27.5067 39.7312 28.2319C39.7229 28.2541 39.7146 28.279 39.709 28.3012L45.1181 29.998Z" fill="#FFDDCE"/>
<path fill-rule="evenodd" clip-rule="evenodd" d="M28.1707 30.2774C28.6386 30.9225 28.6773 30.9252 29.4413 30.9252H33.5328V29.6324H29.9701C29.206 29.6324 29.1673 29.6297 28.6967 28.9847L26.6289 26.0531C26.4517 25.804 26.3548 25.5549 26.3216 25.314C25.779 25.768 25.541 26.5514 26.1001 27.3458L28.1707 30.2774Z" fill="#FFDDCE"/>
<path fill-rule="evenodd" clip-rule="evenodd" d="M10.0308 28.6832V39.2162V49.2676H10.1969H12.3644V39.4654V28.6832V23.1828L14.4184 21.126C15.2128 20.3343 15.2128 19.036 14.4184 18.2443C13.8702 17.6934 13.0785 17.5246 12.381 17.7349C12.8626 18.521 12.763 19.5674 12.0875 20.2457L10.0308 22.2997V28.6832Z" fill="#AF7373"/>
<path fill-rule="evenodd" clip-rule="evenodd" d="M12.3643 39.9884C14.4432 40.0354 16.118 41.7157 16.1622 43.7946C17.2059 44.4922 17.8951 45.6825 17.8951 47.0307C17.8951 47.8639 17.6321 48.6335 17.1893 49.2646C19.2959 49.2203 20.9928 47.4958 20.9928 45.3753C20.9928 44.0271 20.3035 42.8368 19.2599 42.1393C19.2155 40.0299 17.491 38.333 15.3705 38.333C14.2632 38.333 13.2639 38.7953 12.5553 39.5372C12.4916 39.5123 12.4279 39.4874 12.3643 39.4652V39.9884Z" fill="#95D6A4"/>
<path fill-rule="evenodd" clip-rule="evenodd" d="M14.6149 28.6832C19.3016 28.6832 22.7175 24.971 22.8863 20.326C22.9085 19.7419 22.8365 19.6727 23.1604 19.6422C30.2276 19.0221 30.2276 10.3327 24.9874 8.83506C24.6303 8.69385 24.5278 8.21221 24.9818 7.87998C26.3688 6.4377 27.8663 3.40654 25.2808 0.732422H20.3174C22.1998 3.14072 20.8738 5.754 19.6419 7.03291C19.2128 7.34844 19.3097 7.80244 19.6475 7.93535C24.5971 9.35264 25.6794 17.386 19.0024 17.9701C18.6979 17.9978 18.7672 18.0643 18.745 18.6151C18.6177 22.1169 18.0612 25.8789 12.3643 26.2748V28.6831H14.6149V28.6832Z" fill="#95D6A4"/>
<path fill-rule="evenodd" clip-rule="evenodd" d="M39.4375 35.2523H39.4541H41.2009L42.0535 30.9506L41.9843 30.5104L40.6334 30.0703C40.4285 30.0039 40.2486 29.8932 40.1019 29.752L39.4375 35.2523Z" fill="#72BFFC"/>
<path fill-rule="evenodd" clip-rule="evenodd" d="M38.438 25.4639L39.8276 28.0106C40.1432 27.4293 40.827 27.1248 41.4774 27.2992L39.93 25.0708C39.4927 25.2729 38.9999 25.4085 38.438 25.4639Z" fill="#72BFFC"/>
<path d="M11.2112 6.77466C11.5716 6.8521 11.9074 6.88686 12.2194 6.88686C14.1787 6.88686 15.1998 5.51206 15.4854 4.67202C15.6157 4.28911 15.4107 3.873 15.0278 3.74282C14.6447 3.61255 14.2288 3.81753 14.0985 4.20053C14.0765 4.26499 13.5375 5.77661 11.5187 5.34233C11.1232 5.25727 10.7338 5.50903 10.6488 5.90464C10.5639 6.30024 10.8157 6.68969 11.2112 6.77466Z" fill="#333333"/>
<path d="M14.7852 12.4484C14.39 12.3639 14.0003 12.6153 13.9154 13.0108C13.8305 13.4063 14.0823 13.7957 14.4778 13.8806C14.8385 13.9581 15.1744 13.9928 15.4867 13.9928C17.4474 13.9928 18.4691 12.6179 18.7547 11.778C18.885 11.3951 18.68 10.979 18.297 10.8488C17.9143 10.7185 17.4981 10.9235 17.3678 11.3065C17.3458 11.3711 16.8064 12.8823 14.7852 12.4484Z" fill="#333333"/>
<path d="M3.63003 12.663C3.98941 12.7398 4.32427 12.7744 4.6355 12.7744C6.598 12.7744 7.62037 11.3999 7.90611 10.5606C8.03648 10.1777 7.83179 9.76157 7.44878 9.6312C7.06617 9.50053 6.64986 9.70551 6.51939 10.0885C6.49732 10.1529 5.95855 11.6631 3.93589 11.2304C3.54126 11.1462 3.15123 11.3981 3.06656 11.7938C2.98218 12.1893 3.23443 12.5785 3.63003 12.663Z" fill="#333333"/>
<path d="M21.2394 25.3446C21.3572 25.4153 21.4869 25.4488 21.6152 25.4488C21.8641 25.4488 22.1069 25.3218 22.2442 25.0928C23.082 23.6943 23.5572 22.0552 23.6185 20.3537C23.6188 20.3452 23.6191 20.3368 23.6194 20.3285C25.2608 20.1114 26.6589 19.4565 27.6812 18.4218C28.6631 17.4278 29.2797 16.0881 29.4174 14.649C29.6933 11.7661 28.147 9.2086 25.6189 8.27169C27.1087 6.64376 28.7258 3.24151 25.8076 0.223445C25.5266 -0.0674725 25.0628 -0.0753827 24.772 0.205965C24.4811 0.487117 24.4733 0.950789 24.7545 1.24151C27.3981 3.97559 24.9317 6.86065 24.4895 7.33487C24.0974 7.64942 23.899 8.09757 23.9568 8.54688C24.0123 8.98087 24.3042 9.35225 24.7182 9.51612C24.7405 9.52491 24.7633 9.53263 24.7864 9.53917C27.2264 10.2365 28.1415 12.6044 27.9592 14.5092C27.7738 16.448 26.3988 18.6227 23.0921 18.9129C22.1702 18.9995 22.163 19.7328 22.1599 20.046C22.1592 20.1158 22.1584 20.1988 22.1546 20.2994C22.1022 21.7558 21.6987 23.1529 20.9876 24.3398C20.7796 24.6869 20.8924 25.1367 21.2394 25.3446Z" fill="#333333"/>
<path d="M49.2674 48.5351H48.233C48.233 48.5351 49.6838 44.6264 49.7052 44.571C49.8871 44.0981 50.0936 43.5621 49.8527 43.0313C49.709 42.7144 49.4405 42.4819 49.0549 42.3404C49.0549 42.3404 42.9236 40.2156 42.9074 40.2094C42.8925 40.1471 41.9471 35.2537 41.9471 35.2537L42.6893 31.5093L43.8429 31.8847V34.0341C43.8429 35.2367 44.8136 36.2185 46.0066 36.2226H46.0141C46.5896 36.2226 47.1554 35.9876 47.5674 35.5771C47.981 35.1649 48.2089 34.6209 48.2089 34.0453V30.2612C48.2089 30.252 48.2087 30.2429 48.2084 30.2338C48.1749 29.3394 47.5817 28.5444 46.7347 28.2564L46.3469 28.1229C45.7416 27.9142 42.4759 26.8213 41.9287 26.6645L40.9812 25.3001C41.7392 24.7568 42.3362 23.9819 42.7606 22.9854C42.7667 22.9713 42.7713 22.957 42.7763 22.9428C42.778 22.9378 42.7806 22.9332 42.7822 22.928C42.7834 22.9246 42.7843 22.9212 42.7854 22.9177C42.7859 22.916 42.7865 22.9143 42.7871 22.9126C43.3869 21.0874 43.4746 19.4079 43.0402 18.055C42.5696 16.5896 41.5105 15.529 39.9782 14.9879C39.2497 14.7299 38.5465 14.7356 37.8027 14.7421C36.7183 14.7507 35.5962 14.7605 34.0508 13.9903C33.6899 13.8101 33.2513 13.956 33.0698 14.3164C32.2716 15.9019 32.2978 17.4457 33.1132 18.5621C32.7535 19.2882 32.5653 20.0919 32.5653 20.9158C32.5653 22.5286 33.4175 24.1028 34.7691 25.1215L33.181 27.1067H30.5891L29.3225 25.2646C28.8093 24.5194 28.0333 24.1326 27.1908 24.202C26.3548 24.2716 25.5912 24.7949 25.2454 25.5352C24.9117 26.2497 25.0051 27.0636 25.5021 27.7689L27.578 30.7081C28.1771 31.5338 28.4209 31.6581 29.4416 31.6581H32.8006V34.989L30.5538 37.5999C30.097 38.1276 29.5729 38.8697 29.5729 39.9334V45.2659C28.9616 45.4412 28.2465 45.8192 27.6628 46.4266C27.092 47.0206 26.7409 47.7395 26.6257 48.5354H20.4732C21.249 47.708 21.7255 46.5967 21.7255 45.3757C21.7255 43.9546 21.0753 42.6254 19.9692 41.7507C19.7299 39.4305 17.7409 37.601 15.3708 37.601C14.5581 37.601 13.7816 37.8083 13.0969 38.1963V29.4159H14.615C16.5844 29.4159 18.4285 28.8085 19.9482 27.6594C20.2709 27.4155 20.3347 26.9561 20.0907 26.6335C19.8469 26.3109 19.3874 26.2469 19.0647 26.491C17.8015 27.4462 16.2628 27.951 14.615 27.951H13.0969V23.4861L14.9355 21.645C15.4588 21.1236 15.7468 20.4276 15.7468 19.6853C15.7468 18.943 15.4588 18.247 14.9374 17.7275C14.416 17.2044 13.72 16.9162 12.9776 16.9162C12.2353 16.9162 11.5394 17.2043 11.0195 17.726L10.1971 18.5467L9.3752 17.7266C8.85254 17.2039 8.15615 16.9162 7.41406 16.9162C7.41328 16.9162 7.4123 16.9162 7.41162 16.9162C6.66992 16.9168 5.97471 17.2049 5.45576 17.7256C4.93252 18.247 4.64443 18.943 4.64443 19.6852C4.64443 20.4276 4.93252 21.1235 5.45449 21.6437L7.29434 23.486V27.9509H0.732422C0.327832 27.9509 0 28.2788 0 28.6834C0 29.0879 0.32793 29.4158 0.732422 29.4158H7.29424V37.0822C7.29424 37.4868 7.62217 37.8146 8.02666 37.8146C8.43125 37.8146 8.75908 37.4868 8.75908 37.0822V23.1827C8.75908 22.9886 8.68203 22.8024 8.54492 22.6651L6.48965 20.6071C6.24434 20.3627 6.10918 20.0352 6.10918 19.685C6.10918 19.3349 6.24434 19.0075 6.49141 18.7612C6.73564 18.5162 7.06279 18.381 7.41269 18.3807H7.41387C7.76465 18.3807 8.09326 18.5162 8.33975 18.7626L9.67959 20.0996C9.96553 20.3849 10.4284 20.3849 10.7144 20.0996L12.0557 18.7611C12.3001 18.5158 12.6275 18.3806 12.9776 18.3806C13.3277 18.3806 13.6553 18.5157 13.9016 18.7629C14.1469 19.0073 14.2819 19.3347 14.2819 19.6848C14.2819 20.035 14.1469 20.3625 13.9004 20.6082L11.8463 22.6649C11.7092 22.8022 11.6321 22.9883 11.6321 23.1825V48.5351H8.75908V40.4647C8.75908 40.0601 8.43115 39.7323 8.02666 39.7323C7.62207 39.7323 7.29424 40.0601 7.29424 40.4647V48.5351H1.86465C1.46006 48.5351 1.13223 48.8629 1.13223 49.2675C1.13223 49.6721 1.46016 50 1.86465 50H49.2675C49.6721 50 49.9999 49.6721 49.9999 49.2675C49.9999 48.8629 49.672 48.5351 49.2674 48.5351ZM17.1008 48.5351H13.0968V40.0315C13.6978 39.4087 14.5045 39.0655 15.3707 39.0655C17.0757 39.0655 18.492 40.4512 18.5277 42.1547C18.5327 42.3938 18.6541 42.6154 18.8529 42.7483C19.7344 43.3375 20.2604 44.3196 20.2604 45.3754C20.2605 47.1176 18.8431 48.5351 17.1008 48.5351ZM34.713 41.9815C34.8054 41.9218 36.3563 41.0545 36.3563 41.0545L37.352 43.1161C37.577 43.5831 37.9012 44.0549 38.7424 44.3433L44.271 46.2461C44.2108 46.898 44.273 47.788 44.5555 48.5351H34.7258C34.7258 48.5351 34.7135 42.0331 34.713 41.9815ZM45.5376 42.6329L44.688 44.8404L39.2183 42.9579C38.8561 42.8338 38.7817 42.7087 38.6714 42.4796L37.6395 40.3431C38.5975 39.821 39.9855 39.0193 40.9338 37.7321L41.4228 40.263C41.5243 40.7887 41.6294 41.3323 42.508 41.6216L45.5376 42.6329ZM40.5997 34.5177L34.2654 34.5269V28.0958L36.0591 25.8538C36.6532 26.0959 37.275 26.2238 37.8708 26.2238C38.5094 26.2238 39.1068 26.1347 39.6562 25.96L40.1868 26.7241C39.6629 26.9672 39.2356 27.4129 39.0379 27.9951C38.8503 28.5438 38.8922 29.158 39.1528 29.6799C39.4135 30.202 39.8587 30.5879 40.4063 30.7665C40.4064 30.7665 40.4066 30.7666 40.4067 30.7666L41.2864 31.0528L40.5997 34.5177ZM45.8694 29.5076L46.2607 29.6423C46.5313 29.7343 46.7286 29.9943 46.7439 30.2773V34.0452C46.7439 34.2286 46.6691 34.4042 46.5334 34.5395C46.394 34.6784 46.205 34.7578 46.0142 34.7578C46.0133 34.7578 46.0125 34.7578 46.0118 34.7578C45.6235 34.7564 45.3078 34.4318 45.3078 34.0341V31.6092C45.3078 31.5947 45.3088 31.581 45.3095 31.5683C45.3433 30.9221 44.9169 30.6997 44.732 30.6339C44.7259 30.6318 44.7197 30.6296 44.7136 30.6277L40.8606 29.3738C40.6887 29.3177 40.5477 29.1941 40.4636 29.0257C40.3757 28.8496 40.3616 28.6519 40.4247 28.4677C40.5453 28.1125 40.9249 27.9097 41.2883 28.0066C41.8006 28.1439 45.2668 29.2999 45.8694 29.5076ZM34.1102 15.621C35.6264 16.2252 36.8253 16.2156 37.8148 16.2067C38.4786 16.2012 39.0039 16.1965 39.4897 16.3687C42.3812 17.3897 41.9789 20.4174 41.5198 22.0473C40.8349 22.1262 39.7261 22.131 39.1164 21.6379C38.7915 21.3751 38.6336 20.9757 38.6336 20.4172C38.6336 18.5492 36.8157 18.3387 35.7296 18.2129C35.3056 18.1638 34.6652 18.0897 34.511 17.943C34.5107 17.9427 34.5103 17.9424 34.5101 17.9421C33.9395 17.3947 33.8038 16.5702 34.1102 15.621ZM34.0301 20.9155C34.0301 20.4073 34.1307 19.9113 34.32 19.4512C34.7069 19.5687 35.1379 19.619 35.561 19.668C36.947 19.8286 37.1687 19.9879 37.1687 20.4172C37.1687 21.6838 37.7291 22.4012 38.1993 22.7801C38.9368 23.3745 39.9123 23.5403 40.7232 23.5537C40.4088 23.9246 40.041 24.2103 39.6217 24.4062C39.1176 24.6402 38.5284 24.7588 37.8706 24.7588C37.412 24.7588 36.9225 24.6452 36.452 24.4287C35.2465 23.8805 34.0301 22.5815 34.0301 20.9155ZM29.4415 30.1929C29.2812 30.1929 29.102 30.1929 29.0235 30.1828C28.9594 30.117 28.83 29.9388 28.7691 29.855L26.699 26.9241C26.5052 26.6491 26.4626 26.3902 26.5726 26.1546C26.6961 25.8902 27.0002 25.6875 27.3121 25.6614C27.6262 25.6364 27.9025 25.7854 28.1154 26.0945L29.5384 28.1638C29.7816 28.5228 30.0682 28.5712 30.3163 28.5712H32.8005V30.1928H29.4415V30.1929ZM31.0376 39.9331C31.0376 39.3899 31.2871 38.9905 31.6617 38.5578C31.6622 38.5572 31.6627 38.5566 31.6632 38.556L33.8693 35.9923L40.247 35.9854C39.5841 37.6233 37.8515 38.5623 36.7554 39.1563C36.5908 39.2455 34.2704 40.5429 34.2704 40.5429C33.3818 41.042 33.2052 41.2862 33.2317 42.1711C33.2317 42.1711 33.2406 42.4253 33.2406 42.5686L33.2514 45.1495H31.0375L31.0376 39.9331ZM28.1141 48.5351C28.2108 48.1257 28.413 47.7596 28.7188 47.4413C29.2804 46.857 30.0291 46.6144 30.3052 46.6144H33.2563L33.2609 48.5351H28.1141ZM46.3636 48.5351C46.3136 48.5351 46.2205 48.5351 46.0897 48.3454C45.6777 47.7475 45.653 46.4148 45.7739 46.0976L46.921 43.1171L48.4678 43.6853C48.4345 43.7945 46.6707 48.5351 46.6707 48.5351H46.3636Z" fill="#333333"/>
</g>
<defs>
<clipPath id="clip0_108_9062">
<rect width="50" height="50" fill="white"/>
</clipPath>
</defs>
</svg>
