<svg width="40" height="40" viewBox="0 0 40 40" fill="none" xmlns="http://www.w3.org/2000/svg">
<path d="M32.3405 22.0412L32.3431 22.0392C32.3431 22.0392 32.3147 21.9975 32.2683 21.9279C32.1934 21.812 32.1205 21.6941 32.0463 21.5775L32.0251 21.551C31.6402 20.9408 30.9844 19.8325 30.4981 18.6526C30.5014 18.6493 30.5061 18.6453 30.5094 18.642C30.1662 17.7847 29.8959 16.9003 29.6653 15.99C29.4805 15.2712 29.3288 14.5319 29.2235 13.7799C28.6762 10.1912 29.5998 6.32557 31.0374 2.87597C28.5636 3.28473 24.7046 3.33773 19.2887 1.7875C15.8126 0.79177 10.4623 0.923606 8.03495 1.04882C10.0138 5.11851 11.472 10.0203 10.6737 14.4398C10.5816 14.9612 10.469 15.4819 10.3371 15.99C10.0774 16.9864 9.77466 17.9537 9.3871 18.8845L7.39962 22.4401L7.40095 22.4407C7.12535 22.8707 6.8524 23.3046 6.59668 23.7478C7.33271 24.5097 10.4524 27.3756 15.9398 27.4995L16.0213 27.5479C16.0213 27.5479 21.2643 27.7923 23.6426 27.4989C23.6598 27.4969 23.6824 27.4889 23.6996 27.4863C29.768 27.1888 32.8109 23.5577 32.8109 23.5577L33.1673 23.3463C32.8996 22.9025 32.6187 22.4732 32.3405 22.0412Z" fill="#F4CFC6"/>
<path d="M34.1174 25.1189C33.8405 24.5054 33.5172 23.9184 33.1674 23.3447L32.811 23.5561C32.811 23.5561 29.5124 27.5138 22.916 27.5138L16.1466 27.5078C16.1473 27.5078 16.1473 27.5072 16.1479 27.5072C10.528 27.4542 7.34142 24.5187 6.59612 23.7469C6.33245 24.1954 6.08799 24.6505 5.87732 25.1189C4.90743 27.276 4.54504 29.6901 4.47217 32.1373C5.07239 32.2625 15.561 34.5448 19.6181 38.9716C19.842 39.2154 20.1395 39.3347 20.4429 39.3347C20.7463 39.3347 21.0431 39.2161 21.2677 38.9716C22.8378 37.2564 25.3248 35.8579 27.8178 34.7893C31.0236 33.4106 34.236 32.566 35.5292 32.2559C35.4696 29.7696 35.1072 27.3157 34.1174 25.1189Z" fill="#A2C5D3"/>
<path d="M13.4635 28.9126L14.9217 31.34C13.3648 32.2237 12.3625 32.7915 12.3625 32.7915L11.0435 30.1528C11.0428 30.1528 11.9862 29.6778 13.4635 28.9126Z" fill="#F7D300"/>
<path d="M26.2143 29.4928L24.7369 31.8612C22.9495 30.8456 21.1548 29.8294 19.3674 28.8137C18.4505 28.2924 17.5403 27.7783 16.6234 27.2635C14.0973 25.8252 11.5772 24.4009 9.0504 22.9692C8.56877 22.6989 8.07389 22.4154 7.67838 22.0391C7.5598 21.9205 7.44121 21.7953 7.34184 21.6562C6.8602 21.0096 6.70849 20.1589 6.84033 19.3606C6.93904 18.8068 7.17025 18.2788 7.48692 17.817C7.65188 17.5732 7.86984 17.2632 8.06064 17.2632C8.16598 17.2632 8.27198 17.3619 8.35081 17.6196C8.52902 18.1999 8.87219 18.6948 9.28095 19.1433C9.58437 19.4666 9.92092 19.7701 10.2575 20.047C11.8011 21.3137 13.503 22.3756 15.2182 23.3979C16.5836 24.2094 17.9623 25.0011 19.3542 25.7795C20.2578 26.281 21.1681 26.7819 22.0783 27.2701C22.3288 27.4086 22.5798 27.5471 22.8303 27.6789C23.9585 28.2857 25.0927 28.8793 26.2275 29.4729L26.2143 29.4928Z" fill="#EDEDED"/>
<path d="M28.8464 30.8184C28.4046 31.6889 27.9693 32.5667 27.5334 33.4438C26.6032 32.9158 25.6665 32.3885 24.7363 31.8605L26.2137 29.492L26.2269 29.4722C27.0988 29.9213 27.9759 30.3698 28.8464 30.8184Z" fill="#F7D300"/>
<path d="M35.5292 32.2568C35.5888 34.6252 35.3774 37.0195 35.1595 39.2362C35.1529 39.2892 35.1462 39.3349 35.1396 39.3879H20.4429V39.3349C20.7463 39.3349 21.0431 39.2163 21.2677 38.9719C22.8378 37.2567 25.3248 35.8581 27.8177 34.7895C31.0235 33.4109 34.236 32.5669 35.5292 32.2568Z" fill="#F4CFC6"/>
<path d="M31.7164 16.4907C32.838 17.4672 33.4846 18.8525 32.9367 20.31C32.7188 20.8771 32.4154 21.2335 32.0199 21.5436C31.7761 21.7284 31.4918 21.9 31.1758 22.0842C30.3577 22.5658 29.507 23.0474 28.7021 23.5092C26.4986 24.7692 24.2892 26.016 22.0792 27.2695C21.1689 26.7812 20.2586 26.2797 19.355 25.7789C23.8142 23.3316 28.7485 20.416 30.5094 18.6412C30.5491 18.6014 30.5889 18.5557 30.628 18.516C30.7008 18.4365 30.773 18.3576 30.8327 18.2788C31.3733 17.5991 31.6436 17.0055 31.7164 16.4907Z" fill="#EDEDED"/>
<path d="M20.4431 39.3348V39.3878H4.85526C4.85526 39.3348 4.84863 39.2891 4.84201 39.2361C4.62405 36.9803 4.40675 34.5463 4.47234 32.1382C5.07256 32.2634 15.5611 34.5457 19.6183 38.9725C19.8428 39.2163 20.1396 39.3348 20.4431 39.3348Z" fill="#F4CFC6"/>
<path d="M16.1485 27.5075C16.3068 27.4286 16.4651 27.3425 16.6235 27.2637C17.5404 27.7784 18.4506 28.2925 19.3675 28.8139C17.6854 29.7705 16.1352 30.6477 14.9215 31.3407L13.4634 28.9133C14.2352 28.5164 15.1454 28.0414 16.1485 27.5075Z" fill="#EDEDED"/>
<path d="M33.0117 21.6158L32.9852 21.5747C33.2535 21.2859 33.4873 20.9335 33.6649 20.4624C34.2234 18.9791 33.7755 17.3812 32.4876 16.1238C32.4843 14.9246 31.5747 13.8885 29.9264 13.2055C29.368 8.67932 31.1885 3.87293 32.8467 0.599556L31.6648 0.000662493C29.8741 3.5344 27.8999 8.79194 28.6584 13.7613C28.7631 14.5046 28.9168 15.2758 29.1162 16.0509C29.3328 16.9055 29.5694 17.6674 29.831 18.3736C28.2543 19.7953 24.6715 22.0597 19.408 24.9607C18.138 24.2479 16.8607 23.5139 15.5908 22.7573C13.6828 21.6198 12.1193 20.6221 10.6903 19.4481C10.4823 19.2772 10.2709 19.0937 10.0675 18.8989C10.4107 18.0529 10.7095 17.1387 10.9884 16.0542C11.1222 15.5388 11.2395 14.9982 11.3369 14.4496C12.2803 9.23913 10.2246 3.71592 8.3338 0L7.15324 0.600881C8.90752 4.04982 10.8082 9.11392 10.0834 13.8633C8.46763 14.5298 7.55405 15.5335 7.50834 16.6981C7.25725 16.8803 7.06977 17.1533 6.93528 17.352C6.54706 17.9277 6.29465 18.5366 6.186 19.1619C6.00911 20.1815 6.23502 21.2071 6.80543 21.9769C6.81537 21.9901 6.82796 22.0001 6.83856 22.0133C6.2761 22.8931 5.71033 23.802 5.26447 24.7858C4.27272 26.9972 3.89112 29.4723 3.80434 31.9143C3.79904 31.9322 3.78711 31.9461 3.78314 31.9646C3.7626 32.064 3.76989 32.1607 3.79175 32.2528C3.72948 34.7663 3.96864 37.2288 4.17136 39.3143L4.17997 39.3872L4.84246 39.3865H5.50496C5.50496 39.3117 5.49833 39.2454 5.4884 39.1699C5.3082 37.3169 5.10017 35.1492 5.11011 32.9338C7.70377 33.5586 15.8226 35.7501 19.1782 39.4137C19.5147 39.786 19.9957 39.9987 20.4972 39.9987C20.9987 39.9987 21.4797 39.7854 21.8135 39.4163C24.9803 35.9588 32.2332 33.7964 34.9972 33.0723C34.9985 35.236 34.7958 37.3454 34.6202 39.15L34.6003 39.3024L35.914 39.4707L35.9366 39.2984C36.344 35.1121 36.9012 29.3783 34.8348 24.7865C34.328 23.655 33.6589 22.6182 33.0117 21.6158ZM31.6125 22.5811C31.7205 22.5175 31.8278 22.4539 31.9338 22.3896C32.0862 22.6261 32.2372 22.86 32.3843 23.0925C32.1504 23.3582 29.4607 26.2771 24.3337 26.7349L25.2227 26.2301C26.5232 25.4934 27.8237 24.7567 29.1215 24.0147L29.5607 23.7643C30.2378 23.3767 30.9367 22.9779 31.6125 22.5811ZM31.1633 16.296V16.2973C31.1633 16.298 31.1626 16.2987 31.1626 16.3C31.1249 16.567 31.0043 16.8624 30.8182 17.1804C30.6711 16.7253 30.532 16.2443 30.4001 15.7243C30.3219 15.4195 30.2557 15.1174 30.1928 14.8167C30.7473 15.1631 31.2567 15.662 31.1633 16.296ZM31.0725 19.0222L31.154 18.9367L31.2137 18.8738C31.3018 18.7777 31.3892 18.6803 31.4488 18.6002C31.7019 18.2822 31.9106 17.9681 32.0729 17.6614C32.4724 18.2444 32.7778 19.0573 32.4247 19.9947C32.161 20.6956 31.735 20.9719 30.9414 21.4383C30.2703 21.8325 29.5766 22.2286 28.9035 22.6129L28.4637 22.864C27.1678 23.6053 25.8687 24.3407 24.5695 25.0767L22.1296 26.4613C21.6784 26.2168 21.2272 25.9717 20.7721 25.7206C26.182 22.7122 29.6469 20.4591 31.0725 19.0222ZM9.75087 15.5156C9.73431 15.5832 9.72305 15.6574 9.70583 15.7236C9.52033 16.4424 9.32688 17.0758 9.11886 17.6654C9.06718 17.5567 9.02147 17.4454 8.98636 17.3315C8.94396 17.1943 8.89162 17.0824 8.83531 16.9863C8.83465 16.977 8.83796 16.9684 8.83663 16.9585C8.74654 16.3457 9.21889 15.8607 9.75087 15.5156ZM7.49111 19.3898C7.55802 19.0063 7.7051 18.6253 7.92968 18.2557C8.37156 19.1759 9.13476 19.8867 9.84892 20.4737C11.3415 21.7 12.9527 22.7288 14.9117 23.8968C18.4481 26.0048 22.0401 27.9466 25.3486 29.6737L24.5278 30.9046L9.37855 22.3214C8.81146 22.0007 8.22582 21.6688 7.86939 21.1878C7.51894 20.7162 7.37783 20.0431 7.49111 19.3898ZM28.0489 31.0696L27.3374 32.4953L25.6838 31.5585L26.5312 30.2879C27.0459 30.5542 27.5527 30.8152 28.0489 31.0696ZM15.186 30.4084L14.4201 29.1331C15.0071 28.8284 15.6537 28.4898 16.3447 28.1248C16.3486 28.1248 16.352 28.1255 16.3559 28.1255V28.1189C16.4527 28.0678 16.5514 28.0155 16.6494 27.9638L18.0718 28.7701L15.186 30.4084ZM13.2409 29.7433L14.0332 31.063L12.6612 31.8421L11.9437 30.4064C12.2637 30.2441 12.7089 30.0169 13.2409 29.7433ZM8.726 23.4748L14.3512 26.6614C10.7029 26.1658 8.38614 24.4308 7.43281 23.5635C7.56266 23.3502 7.6945 23.1376 7.82898 22.9249C8.1271 23.1303 8.4345 23.3098 8.726 23.4748ZM20.8337 38.5253C20.7158 38.6558 20.572 38.675 20.4965 38.675C20.421 38.675 20.2772 38.6558 20.1567 38.5226C16.3778 34.3966 7.51165 32.1263 5.1439 31.5797C5.25056 29.4087 5.61427 27.2437 6.47153 25.3317C6.56031 25.135 6.66035 24.9415 6.76038 24.7481C7.92173 25.7584 10.2742 27.3841 13.853 27.9347C13.6106 28.0606 13.3767 28.1818 13.1568 28.2957C13.1534 28.2977 13.1495 28.2977 13.1462 28.2997C13.1442 28.301 13.1435 28.3024 13.1415 28.3037C11.7019 29.0477 10.7738 29.5134 10.7585 29.5207C10.4319 29.685 10.2994 30.0825 10.4631 30.4091L11.788 33.0591C11.8695 33.2214 12.014 33.3439 12.1875 33.3963C12.2511 33.4155 12.316 33.4248 12.381 33.4248C12.4943 33.4248 12.6069 33.3956 12.7082 33.3386L15.2814 31.8778C15.2847 31.8758 15.2887 31.8752 15.292 31.8732C15.294 31.8719 15.2946 31.8705 15.2966 31.8692L19.4153 29.5306L27.291 33.9925C27.3917 34.0495 27.5044 34.0786 27.6176 34.0786C27.6826 34.0786 27.7475 34.0694 27.8111 34.0501C27.9847 33.9972 28.1291 33.8746 28.2106 33.7123L29.5276 31.0749C29.6899 30.7496 29.5594 30.3548 29.2361 30.1898C27.8939 29.5035 26.4695 28.7674 25.0015 27.995C29.5137 27.4405 32.1948 25.1688 33.0879 24.2744C33.28 24.6196 33.4641 24.9687 33.6258 25.3298C34.5043 27.2828 34.866 29.4982 34.9654 31.7122C31.9735 32.4701 24.329 34.71 20.8337 38.5253Z" fill="#333333"/>
<path d="M38.4279 16.2343C38.0794 16.1171 37.7051 16.3065 37.5899 16.653L37.4229 17.1552C34.7365 13.3406 37.415 10.1526 37.5382 10.0102C37.7773 9.7346 37.7489 9.31723 37.4746 9.07675C37.1983 8.8356 36.781 8.86475 36.5398 9.13902C36.5027 9.18142 33.1525 13.1173 36.1913 17.6971L35.7786 17.5593C35.4308 17.4427 35.0565 17.6315 34.9406 17.978C34.8246 18.3251 35.0121 18.7001 35.3592 18.8161L37.3467 19.4786C37.4163 19.5017 37.4872 19.513 37.5561 19.513C37.8337 19.513 38.092 19.3374 38.1848 19.0599L38.8473 17.0724C38.9625 16.7252 38.7751 16.3503 38.4279 16.2343Z" fill="#333333"/>
<path d="M5.05967 18.6403C4.9444 18.2939 4.57009 18.105 4.22162 18.2216L3.80889 18.3594C6.84774 13.7796 3.49752 9.84376 3.46042 9.80136C3.21927 9.52642 2.80124 9.49794 2.52564 9.73908C2.2507 9.98023 2.22288 10.3983 2.46336 10.6739C2.58725 10.8156 5.28492 13.9843 2.57731 17.8182L2.4097 17.3154C2.29377 16.9689 1.91946 16.7794 1.57165 16.8967C1.2245 17.0126 1.03702 17.3876 1.15295 17.7347L1.81545 19.7222C1.9082 19.9998 2.16657 20.1753 2.44415 20.1753C2.51371 20.1753 2.58394 20.1641 2.6535 20.1409L4.64098 19.4784C4.98813 19.3625 5.17561 18.9875 5.05967 18.6403Z" fill="#333333"/>
<path d="M19.0059 16.2007H20.3308V18.1882H19.0059V16.2007Z" fill="#333333"/>
</svg>
