<svg width="25" height="24" viewBox="0 0 25 24" fill="none" xmlns="http://www.w3.org/2000/svg">
<path d="M19.1699 22H5.16992C2.16992 22 2.16992 20.65 2.16992 19V18C2.16992 17.45 2.61992 17 3.16992 17H21.1699C21.7199 17 22.1699 17.45 22.1699 18V19C22.1699 20.65 22.1699 22 19.1699 22Z" stroke="#474747" stroke-width="1.5" stroke-linecap="round" stroke-linejoin="round"/>
<path d="M20.92 13V17H3.46997V13C3.46997 9.16 6.17997 5.95 9.78997 5.18C10.33 5.06 10.89 5 11.47 5H12.92C13.5 5 14.07 5.06 14.61 5.18C18.22 5.96 20.92 9.16 20.92 13Z" stroke="#474747" stroke-width="1.5" stroke-linecap="round" stroke-linejoin="round"/>
<path d="M14.7 4.5C14.7 4.74 14.67 4.96 14.61 5.18C14.07 5.06 13.5 5 12.92 5H11.47C10.89 5 10.33 5.06 9.78995 5.18C9.72995 4.96 9.69995 4.74 9.69995 4.5C9.69995 3.12 10.82 2 12.2 2C13.58 2 14.7 3.12 14.7 4.5Z" stroke="#474747" stroke-width="1.5" stroke-linecap="round" stroke-linejoin="round"/>
<path d="M15.2 11H9.19995" stroke="#474747" stroke-width="1.5" stroke-linecap="round" stroke-linejoin="round"/>
</svg>
