<svg width="25" height="24" viewBox="0 0 25 24" fill="none" xmlns="http://www.w3.org/2000/svg">
<path d="M3.16992 17.5H21.1699C21.4438 17.5 21.6699 17.7261 21.6699 18V19C21.6699 19.4203 21.6688 19.7795 21.627 20.0996C21.5857 20.4152 21.5094 20.6528 21.3838 20.835C21.1529 21.1698 20.6218 21.5 19.1699 21.5H5.16992C3.71805 21.5 3.18697 21.1698 2.95605 20.835C2.83045 20.6528 2.75415 20.4152 2.71289 20.0996C2.67109 19.7795 2.66992 19.4203 2.66992 19V18C2.66992 17.7261 2.89606 17.5 3.16992 17.5Z" fill="#965036" stroke="#965036"/>
<path d="M10.2004 4.50024C10.2004 3.22156 11.4143 2.21173 12.7678 2.58228L12.7708 2.58325C13.6481 2.81836 14.2201 3.61517 14.2004 4.55591C14.1921 4.7301 14.168 4.88781 14.1252 5.05884L13.9993 5.55981L14.5042 5.66919C17.8894 6.40062 20.4202 9.40114 20.4202 13.0002V14.5002C20.42 14.7739 20.1939 15.0001 19.9202 15.0002H4.46997C4.19619 15.0002 3.9701 14.774 3.96997 14.5002V13.0002C3.96997 9.40124 6.51 6.39118 9.8938 5.66919L10.4114 5.55884L10.2727 5.0481C10.2246 4.87149 10.2005 4.69601 10.2004 4.50024ZM9.20044 9.75024C8.5143 9.75024 7.95044 10.3141 7.95044 11.0002C7.95056 11.6863 8.51437 12.2502 9.20044 12.2502H15.2004C15.8863 12.25 16.4503 11.6861 16.4504 11.0002C16.4504 10.3143 15.8864 9.7505 15.2004 9.75024H9.20044Z" fill="#965036" stroke="#965036"/>
</svg>
