<svg width="16" height="16" viewBox="0 0 16 16" fill="none" xmlns="http://www.w3.org/2000/svg">
<g clip-path="url(#clip0_26_52868)">
<path d="M10.602 12.4873L10.8186 13.654L8.00002 14.1265L5.1814 13.654L5.39802 12.4873H10.602Z" fill="#5FA7EE"/>
<path d="M2.17642 11.9509L2.35914 12.097L4.03345 10.6245C4.07392 10.5889 4.09714 10.5376 4.09714 10.4838V7.87009C4.09714 7.35675 4.39898 6.89141 4.86773 6.68213L5.39814 6.44531L5.72032 10.5994C5.72236 10.6255 5.72107 10.6518 5.71654 10.6777L5.58295 11.437L2.35911 13.398H1.38336C1.20373 13.398 1.05811 13.2524 1.05811 13.0728V12.1621C1.05811 11.9825 1.20373 11.8368 1.38336 11.8368H1.85132C1.96948 11.8368 2.08414 11.8771 2.17642 11.9509Z" fill="#FED2A4"/>
<path d="M13.8239 11.9509L13.6412 12.097L11.9669 10.6245C11.9264 10.5889 11.9032 10.5376 11.9032 10.4838V7.87009C11.9032 7.35675 11.6013 6.89141 11.1326 6.68213L10.6022 6.44531L10.28 10.5994C10.278 10.6255 10.2792 10.6518 10.2838 10.6777L10.4174 11.437L13.6412 13.3981H14.6169C14.7966 13.3981 14.9422 13.2524 14.9422 13.0728V12.1621C14.9422 11.9825 14.7966 11.8369 14.6169 11.8369H14.149C14.0308 11.8368 13.9162 11.8771 13.8239 11.9509Z" fill="#FFBD86"/>
<path d="M10.6022 12.4874L10.2838 10.6777C10.2793 10.6519 10.278 10.6256 10.28 10.5994L10.6022 6.44536L8.78079 5.78711H7.2196L5.39819 6.44536L5.72038 10.5994C5.72241 10.6256 5.72113 10.6519 5.7166 10.6777L5.39819 12.4874H10.6022Z" fill="#E175A5"/>
<path d="M10.4759 7.875C9.94866 8.79931 9.18082 9.70263 8.20707 10.4795C7.3346 11.1755 6.39985 11.6879 5.48235 12.0091L5.39819 12.4875H10.6022L10.2836 10.677C10.2792 10.6517 10.2779 10.626 10.2797 10.6004L10.4759 7.875Z" fill="#DE5791"/>
<path d="M8.78067 6.56746C8.78067 6.99859 8.43117 7.34805 8.00008 7.34805C7.56898 7.34805 7.21948 6.99855 7.21948 6.56746V5.30762H8.78067V6.56746Z" fill="#F6A96C"/>
<path d="M2.92159 16.0002H9.86362V14.439L3.12128 13.3089C2.38465 13.1854 1.71362 13.7534 1.71362 14.5003V14.7923C1.71362 15.4594 2.25444 16.0002 2.92159 16.0002Z" fill="#6CBFF8"/>
<path d="M13.0787 16.0002H6.13672V14.439L12.8791 13.3089C13.6157 13.1854 14.2867 13.7534 14.2867 14.5003V14.7923C14.2867 15.4594 13.7459 16.0002 13.0787 16.0002Z" fill="#75CFF9"/>
<path d="M12.879 13.3089L12.7029 13.3384C12.2569 14.2823 11.3132 15.2569 10.0437 16.0002H13.0787C13.7458 16.0002 14.2866 15.4594 14.2866 14.7923V14.5003C14.2866 13.7534 13.6156 13.1854 12.879 13.3089Z" fill="#6CBFF8"/>
<path d="M6.13681 14.439L4.16837 14.7786C3.87328 14.8295 3.65771 15.0855 3.65771 15.3849C3.65771 15.7247 3.93318 16.0002 4.273 16.0002H6.13681V14.439Z" fill="#FED2A4"/>
<path d="M8.00008 1.56119C8.43119 1.56119 8.78067 1.2117 8.78067 0.780594C8.78067 0.349484 8.43119 0 8.00008 0C7.56897 0 7.21948 0.349484 7.21948 0.780594C7.21948 1.2117 7.56897 1.56119 8.00008 1.56119Z" fill="#8D562F"/>
<path d="M5.91846 3.70557C5.91846 4.86441 6.86539 5.80207 8.02771 5.78698C9.17164 5.77213 10.0817 4.81854 10.0817 3.67454V3.05523C10.0817 1.9056 9.14971 0.973633 8.00008 0.973633C6.85046 0.973633 5.91849 1.9056 5.91849 3.05523L5.91846 3.70557Z" fill="#FED2A4"/>
<path d="M9.81971 2.04438C9.46421 1.40585 8.78274 0.973633 8.00005 0.973633C6.85043 0.973633 5.91846 1.9056 5.91846 3.05523V3.70557C8.61036 3.7056 9.61071 2.37816 9.81971 2.04438Z" fill="#B36D3C"/>
<path d="M4.27134 10.9206C4.30547 10.938 4.34187 10.9462 4.37775 10.9462C4.4689 10.9462 4.55656 10.8929 4.59465 10.8011C4.64203 10.687 4.58709 10.5555 4.47703 10.4993L4.09703 10.3052V10.4836C4.09703 10.5375 4.07384 10.5887 4.03334 10.6243L3.90771 10.7348L4.27134 10.9206Z" fill="#FFBD86"/>
<path d="M11.9032 10.4836V10.3052L11.523 10.4993C11.413 10.5556 11.3581 10.6871 11.4056 10.8012C11.4437 10.8929 11.5313 10.9462 11.6225 10.9462C11.6583 10.9462 11.6948 10.938 11.7289 10.9206L12.0925 10.7348L11.9668 10.6243C11.9263 10.5888 11.9032 10.5375 11.9032 10.4836Z" fill="#F6A96C"/>
<path d="M7.55994 2.56448C7.57907 2.56448 7.5985 2.56211 7.61791 2.5572C8.60347 2.30639 9.24119 1.49551 9.29479 1.42542C9.17194 1.32767 9.03775 1.24357 8.8946 1.17529C8.76925 1.32673 8.24453 1.91407 7.50232 2.10295C7.37688 2.13486 7.30107 2.26245 7.33297 2.38789C7.35994 2.49392 7.45529 2.56448 7.55994 2.56448Z" fill="#8D562F"/>
<path d="M4.56285 3.69423H4.47198V3.4082C4.47198 3.27877 4.36704 3.17383 4.2376 3.17383C4.10817 3.17383 4.00323 3.27877 4.00323 3.4082V3.69423H3.91235C3.78292 3.69423 3.67798 3.79917 3.67798 3.92861C3.67798 4.05805 3.78292 4.16298 3.91235 4.16298H4.00323V4.44902C4.00323 4.57845 4.10817 4.68339 4.2376 4.68339C4.36704 4.68339 4.47198 4.57845 4.47198 4.44902V4.16298H4.56285C4.69229 4.16298 4.79723 4.05805 4.79723 3.92861C4.79723 3.79917 4.69229 3.69423 4.56285 3.69423Z" fill="#F8E883"/>
<path d="M11.838 0.864156H11.7471V0.578125C11.7471 0.448687 11.6422 0.34375 11.5128 0.34375C11.3833 0.34375 11.2784 0.448687 11.2784 0.578125V0.864156H11.1875C11.058 0.864156 10.9531 0.969094 10.9531 1.09853C10.9531 1.22797 11.058 1.33291 11.1875 1.33291H11.2784V1.61894C11.2784 1.74837 11.3833 1.85331 11.5128 1.85331C11.6422 1.85331 11.7471 1.74837 11.7471 1.61894V1.33291H11.838C11.9675 1.33291 12.0724 1.22797 12.0724 1.09853C12.0724 0.969094 11.9675 0.864156 11.838 0.864156Z" fill="#F8E883"/>
<path d="M13.005 4.84267H12.9141V4.55664C12.9141 4.4272 12.8092 4.32227 12.6797 4.32227C12.5503 4.32227 12.4454 4.4272 12.4454 4.55664V4.84267H12.3545C12.225 4.84267 12.1201 4.94761 12.1201 5.07705C12.1201 5.20648 12.225 5.31142 12.3545 5.31142H12.4454V5.59742C12.4454 5.72686 12.5503 5.8318 12.6797 5.8318C12.8092 5.8318 12.9141 5.72686 12.9141 5.59742V5.31142H13.005C13.1345 5.31142 13.2394 5.20648 13.2394 5.07705C13.2394 4.94761 13.1345 4.84267 13.005 4.84267Z" fill="#F8E883"/>
<path d="M8.86692 9.83616C8.77907 9.83616 8.69064 9.827 8.6027 9.80841C8.37348 9.75997 8.16682 9.65166 8.00017 9.49544C7.83351 9.65166 7.62685 9.75997 7.3976 9.80841C7.06685 9.87825 6.72867 9.81519 6.44539 9.63072C6.33692 9.56009 6.30623 9.41491 6.37685 9.30644C6.44748 9.19794 6.59273 9.16731 6.70114 9.23791C6.87951 9.35406 7.09242 9.39372 7.3007 9.34978C7.50895 9.30578 7.6876 9.18331 7.80376 9.00494C7.84701 8.93853 7.92092 8.89844 8.00017 8.89844C8.07942 8.89844 8.15332 8.9385 8.19657 9.00494C8.31273 9.18331 8.49139 9.30578 8.69964 9.34978C8.90789 9.39375 9.12082 9.35406 9.2992 9.23791C9.4077 9.16731 9.55285 9.19794 9.62351 9.30644C9.69414 9.41491 9.66345 9.56009 9.55501 9.63072C9.34698 9.76616 9.10942 9.83616 8.86692 9.83616Z" fill="#DB387E"/>
</g>
<defs>
<clipPath id="clip0_26_52868">
<rect width="16" height="16" fill="white"/>
</clipPath>
</defs>
</svg>
