<svg width="50" height="50" viewBox="0 0 50 50" fill="none" xmlns="http://www.w3.org/2000/svg">
<mask id="mask0_108_9124" style="mask-type:luminance" maskUnits="userSpaceOnUse" x="0" y="0" width="50" height="50">
<path d="M0 3.8147e-06H50V50H0V3.8147e-06Z" fill="white"/>
</mask>
<g mask="url(#mask0_108_9124)">
<path fill-rule="evenodd" clip-rule="evenodd" d="M19.217 44.1597L17.3109 39.188L13.9131 40.442L16.8331 48.3379C18.8358 47.2115 19.6812 45.3776 19.253 44.2596L19.217 44.1597Z" fill="#EDEDED"/>
<path fill-rule="evenodd" clip-rule="evenodd" d="M29.0345 40.0452L30.8798 36.2139C29.2638 35.2816 25.2057 33.5033 24.6283 29.5719L23.6697 34.5464L23.1532 37.2319L17.3105 39.188L19.2166 44.1597L27.6976 41.2299C28.4875 40.9552 28.7804 40.5723 29.0345 40.0452Z" fill="#FFA21F"/>
<path fill-rule="evenodd" clip-rule="evenodd" d="M39.123 34.0443L34.5815 29.572H24.6284C25.2058 33.5034 29.2639 35.2817 30.8799 36.214L34.5981 38.303L34.5954 45.3223H39.6838V37.6149V36.0725C39.6838 34.971 39.7694 34.6797 39.123 34.0443Z" fill="#FFA21F"/>
<path fill-rule="evenodd" clip-rule="evenodd" d="M43.2642 49.0234C43.9271 46.8428 40.8773 45.3225 39.6867 45.3225H39.6839H34.5955V45.3861L34.5845 49.0234H43.2642Z" fill="#EDEDED"/>
<path fill-rule="evenodd" clip-rule="evenodd" d="M34.5901 24.8919L34.5984 20.1838L31.6095 15.4784C30.8443 15.8308 30.0294 16.025 29.2283 16.025C28.126 16.025 27.1841 15.8169 26.3856 15.4423L24.2447 18.5358C25.3829 18.2307 26.5873 18.8632 26.9713 19.9979C27.3719 21.1798 26.7393 22.4754 25.5625 22.8777L23.4492 23.6019L24.6287 29.5723H34.5819L34.5901 24.8919Z" fill="#FC4250"/>
<path fill-rule="evenodd" clip-rule="evenodd" d="M25.5624 22.8774C26.7392 22.4751 27.3719 21.1795 26.9712 19.9976C26.5873 18.8629 25.3829 18.2304 24.2446 18.5355C24.1977 18.5494 24.148 18.5632 24.101 18.5799L18.1589 20.6163C17.2806 20.9159 16.6646 21.7455 16.6313 22.6749V24.7389V28.6064C16.6313 29.8577 17.6811 30.8731 18.9214 30.8677C20.1646 30.8621 21.1783 29.8355 21.1729 28.5871L21.1563 24.3866L23.4491 23.6015L25.5624 22.8774Z" fill="#FDD99B"/>
<path fill-rule="evenodd" clip-rule="evenodd" d="M40.2088 23.99L43.4961 19.3124C44.2116 18.2914 43.9381 16.8626 42.9132 16.1552C41.8885 15.4477 40.474 15.7084 39.7695 16.7378L37.3993 20.1974L34.5981 20.1835L34.5898 24.8916L38.0983 24.8889C39.1536 24.8861 39.5596 24.8832 40.2088 23.99Z" fill="#FDD99B"/>
<path fill-rule="evenodd" clip-rule="evenodd" d="M31.6093 15.4783C33.7695 14.4905 35.5514 12.2655 35.5514 9.67705C35.5514 8.03184 34.927 6.53086 33.9049 5.40156C32.4546 6.37276 30.2943 6.8417 28.6755 6.96367C25.0982 7.23828 23.4048 12.1489 23.4048 12.1489C24.018 13.6028 24.9767 14.7818 26.3854 15.4422C27.1839 15.8168 28.1258 16.0249 29.2281 16.0249C30.0292 16.0249 30.8441 15.8306 31.6093 15.4783Z" fill="#FDD99B"/>
<path fill-rule="evenodd" clip-rule="evenodd" d="M33.9047 5.40156C35.3218 4.45547 36.0623 3.02676 34.9572 0.976465C31.1147 2.89912 28.8163 1.63965 26.6533 2.40811C22.9183 3.73428 21.7361 7.05791 23.4046 12.1489C23.4046 12.1489 25.098 7.23828 28.6754 6.96357C30.2942 6.8416 32.4544 6.37266 33.9047 5.40156Z" fill="#B3B3B3"/>
<path d="M26.9712 19.998C27.3719 21.18 26.7392 22.4755 25.5624 22.8778L21.1562 24.387L21.1729 28.5875C21.1783 29.8359 20.1646 30.8625 18.9214 30.8681C17.6811 30.8735 16.6313 29.8581 16.6313 28.6068V22.6753C16.6645 21.7459 17.2806 20.9163 18.1589 20.6167L24.101 18.5803C25.2778 18.178 26.5707 18.8161 26.9712 19.998Z" stroke="#333333" stroke-width="1.5" stroke-miterlimit="10" stroke-linecap="round" stroke-linejoin="round"/>
<path d="M23.4046 12.1489C23.4046 12.1489 25.098 7.23828 28.6754 6.96357C31.8798 6.71943 37.1921 5.12422 34.9572 0.976563C31.1147 2.89912 28.8163 1.63965 26.6533 2.40811C22.9183 3.73428 21.7361 7.05791 23.4046 12.1489Z" stroke="#333333" stroke-width="1.5" stroke-miterlimit="10" stroke-linecap="round" stroke-linejoin="round"/>
<path d="M33.9049 5.40166C34.927 6.53086 35.5513 8.03193 35.5513 9.67705C35.5513 13.1839 32.2833 16.0249 29.228 16.0249C26.1755 16.0249 24.3661 14.4268 23.4048 12.149" stroke="#333333" stroke-width="1.5" stroke-miterlimit="10" stroke-linecap="round" stroke-linejoin="round"/>
<path d="M34.5981 20.1835L37.3993 20.1974L39.7695 16.7378C40.4739 15.7084 41.8884 15.4477 42.9132 16.1551C43.9381 16.8625 44.2115 18.2914 43.4961 19.3123L40.2088 23.99C39.5596 24.8832 39.1535 24.886 38.0982 24.8889L34.5898 24.8916" stroke="#333333" stroke-width="1.5" stroke-miterlimit="10" stroke-linecap="round" stroke-linejoin="round"/>
<path d="M24.6284 29.5723H34.5815" stroke="#333333" stroke-width="1.5" stroke-miterlimit="10" stroke-linecap="round" stroke-linejoin="round"/>
<path d="M34.5955 45.3225H39.6866C40.8773 45.3225 43.927 46.8428 43.2642 49.0234H34.5845L34.5955 45.3225Z" stroke="#333333" stroke-width="1.5" stroke-miterlimit="10" stroke-linecap="round" stroke-linejoin="round"/>
<path d="M17.3109 39.188L19.253 44.2597C19.6812 45.3776 18.8358 47.2115 16.8331 48.3379L13.9131 40.442L17.3109 39.188Z" stroke="#333333" stroke-width="1.5" stroke-miterlimit="10" stroke-linecap="round" stroke-linejoin="round"/>
<path d="M24.2448 18.5358L26.3857 15.4423M17.311 39.1883L23.1537 37.2323L24.6288 29.5723L23.4493 23.6019M34.5959 45.3862L34.5985 38.3033L30.8803 36.2142L29.035 40.0456C28.7809 40.5727 28.488 40.9556 27.6979 41.2303L19.2171 44.1601M31.6096 15.4784L34.5985 20.1838L34.582 29.5723L39.1234 34.0446C39.7699 34.6799 39.6843 34.9713 39.6843 36.0727V37.6152" stroke="#333333" stroke-width="1.5" stroke-miterlimit="10" stroke-linecap="round" stroke-linejoin="round"/>
<path d="M17.2529 34.5469H23.6701" stroke="#333333" stroke-width="1.5" stroke-miterlimit="10" stroke-linecap="round" stroke-linejoin="round"/>
<path d="M13.5844 34.519H13.5596" stroke="#333333" stroke-width="1.5" stroke-miterlimit="10" stroke-linecap="round" stroke-linejoin="round"/>
<path d="M24.6284 29.572C25.2058 33.5034 29.2639 35.2817 30.8799 36.214L33.4876 37.7148" stroke="#333333" stroke-width="1.5" stroke-miterlimit="10" stroke-linecap="round" stroke-linejoin="round"/>
<path d="M10.0122 24.7393H16.6365" stroke="#333333" stroke-width="1.5" stroke-miterlimit="10" stroke-linecap="round" stroke-linejoin="round"/>
<path d="M6.10352 24.7393H6.12842" stroke="#333333" stroke-width="1.5" stroke-miterlimit="10" stroke-linecap="round" stroke-linejoin="round"/>
<path d="M39.687 41.3965V41.4214" stroke="#333333" stroke-width="1.5" stroke-miterlimit="10" stroke-linecap="round" stroke-linejoin="round"/>
</g>
</svg>
