<svg width="16" height="17" viewBox="0 0 16 17" fill="none" xmlns="http://www.w3.org/2000/svg">
<path d="M6.6665 13.1667C6.6665 13.9 7.2665 14.5 7.99984 14.5C8.73317 14.5 9.33317 13.9 9.33317 13.1667C9.33317 12.4333 8.73317 11.8333 7.99984 11.8333C7.2665 11.8333 6.6665 12.4333 6.6665 13.1667Z" fill="#787878"/>
<path d="M6.6665 3.83335C6.6665 4.56669 7.2665 5.16669 7.99984 5.16669C8.73317 5.16669 9.33317 4.56669 9.33317 3.83335C9.33317 3.10002 8.73317 2.50002 7.99984 2.50002C7.2665 2.50002 6.6665 3.10002 6.6665 3.83335Z" fill="#787878"/>
<path d="M6.6665 8.49998C6.6665 9.23331 7.2665 9.83331 7.99984 9.83331C8.73317 9.83331 9.33317 9.23331 9.33317 8.49998C9.33317 7.76665 8.73317 7.16665 7.99984 7.16665C7.2665 7.16665 6.6665 7.76665 6.6665 8.49998Z" fill="#787878"/>
</svg>
