<svg width="40" height="40" viewBox="0 0 40 40" fill="none" xmlns="http://www.w3.org/2000/svg">
<g clip-path="url(#clip0_108_9827)">
<path d="M25.6939 9.58565C25.7303 9.63558 25.7688 9.68284 25.8089 9.72808L19.0518 14.6533L20.4493 16.5707L27.2077 11.6446C27.2493 11.7165 27.2961 11.7867 27.3483 11.8544C27.9423 12.626 29.0493 12.8209 29.8694 12.296C30.7982 11.7016 31.0222 10.4582 30.3824 9.58034C30.1486 9.25948 29.8328 9.03386 29.4848 8.91073C29.2717 8.83534 29.1273 8.63972 29.1211 8.4137C29.1104 8.03222 28.985 7.64995 28.7355 7.32151C28.1445 6.54323 27.0329 6.34292 26.209 6.86862C25.2784 7.46237 25.0536 8.70706 25.6939 9.58565Z" fill="#F3F0F3"/>
<path d="M14.4163 12.8403C17.7851 10.3849 21.9377 10.3448 23.6913 12.7507C25.445 15.1567 24.1357 19.0977 20.7669 21.5531C17.3981 24.0084 14.1724 23.373 12.4188 20.967C10.6651 18.5611 11.0476 15.2957 14.4163 12.8403Z" fill="#F6A96C"/>
<path d="M27.4135 33.4248H5.95547C2.99 33.4248 0.585938 31.0208 0.585938 28.0553C0.585938 20.0768 7.05383 13.6089 15.0323 13.6089H18.3366C26.3152 13.6089 32.783 20.0768 32.783 28.0553C32.783 31.0208 30.3791 33.4248 27.4135 33.4248Z" fill="#D88A55"/>
<path d="M25.9104 15.752C28.3777 18.3436 29.8923 21.8506 29.8923 25.7114C29.8923 28.6769 27.4884 31.0809 24.5229 31.0809H3.06469C2.46039 31.0809 1.88 30.9795 1.33789 30.7955C2.27398 32.3694 3.99109 33.4246 5.95531 33.4246H27.4134C30.3789 33.4246 32.7829 31.0206 32.7829 28.0552C32.783 22.8542 30.0341 18.2959 25.9104 15.752Z" fill="#C57A44"/>
<path d="M34.3618 13.6311C34.3982 13.681 34.4368 13.7283 34.4769 13.7735L27.7197 18.6987L29.1172 20.6161L35.8757 15.69C35.9173 15.7619 35.9641 15.8321 36.0163 15.8998C36.6103 16.6715 37.7172 16.8663 38.5374 16.3415C39.4661 15.747 39.6902 14.5036 39.0504 13.6258C38.8165 13.3049 38.5007 13.0793 38.1528 12.9561C37.9396 12.8808 37.7953 12.6851 37.789 12.4591C37.7784 12.0776 37.6529 11.6954 37.4035 11.3669C36.8125 10.5886 35.7008 10.3883 34.877 10.914C33.9464 11.5078 33.7214 12.7525 34.3618 13.6311Z" fill="#F3F0F3"/>
<path d="M23.0853 16.8857C26.4541 14.4303 30.6066 14.3902 32.3603 16.7961C34.114 19.2021 32.8047 23.1431 29.4359 25.5985C26.067 28.0539 22.8414 27.4184 21.0877 25.0125C19.3341 22.6065 19.7165 19.3412 23.0853 16.8857Z" fill="#F6A96C"/>
<path d="M32.3602 16.796C31.2902 15.328 29.3268 14.7724 27.1936 15.1187C28.3606 15.3338 29.3578 15.8923 30.0164 16.796C31.7701 19.202 30.4608 23.143 27.0921 25.5984C26.0526 26.356 25.0268 26.819 24.0537 27.0269C25.6364 27.3941 27.5127 27.0002 29.4358 25.5984C32.8046 23.143 34.1139 19.202 32.3602 16.796Z" fill="#EA9B58"/>
<path d="M24.3631 13.718L27.2078 11.6446C27.2494 11.7165 27.2962 11.7867 27.3484 11.8544C27.9424 12.626 29.0493 12.8209 29.8695 12.296C30.7982 11.7016 31.0223 10.4582 30.3825 9.58034C30.1486 9.25948 29.8329 9.03386 29.4849 8.91073C29.2718 8.83534 29.1274 8.63972 29.1211 8.4137C29.1105 8.03222 28.985 7.64995 28.7356 7.32151C28.1446 6.54323 27.0329 6.34292 26.2091 6.86862C25.2785 7.46245 25.0536 8.70722 25.6939 9.58573C25.7304 9.63565 25.7689 9.68292 25.809 9.72815L23.0381 11.7478" stroke="#333333" stroke-width="1.5" stroke-miterlimit="10" stroke-linecap="round" stroke-linejoin="round"/>
<path d="M13.6357 13.4707C13.8757 13.2556 14.1359 13.0452 14.4169 12.8403C17.7857 10.3849 21.9382 10.3448 23.6919 12.7507C24.1264 13.3469 24.3729 14.0372 24.4466 14.7759" stroke="#333333" stroke-width="1.5" stroke-miterlimit="10" stroke-linecap="round" stroke-linejoin="round"/>
<path d="M5.29492 17.3833C7.86313 15.0388 11.2805 13.6089 15.032 13.6089H18.3362C20.9718 13.6089 23.4426 14.3147 25.5698 15.5476" stroke="#333333" stroke-width="1.5" stroke-miterlimit="10" stroke-linecap="round" stroke-linejoin="round"/>
<path d="M16.1505 33.4248H5.95547C2.99 33.4248 0.585938 31.0208 0.585938 28.0553C0.585938 24.8428 1.63453 21.8752 3.40813 19.4761" stroke="#333333" stroke-width="1.5" stroke-miterlimit="10" stroke-linecap="round" stroke-linejoin="round"/>
<path d="M32.0035 23.3618C32.5087 24.8333 32.783 26.4121 32.783 28.055C32.783 31.0205 30.379 33.4246 27.4134 33.4246H19.041" stroke="#333333" stroke-width="1.5" stroke-miterlimit="10" stroke-linecap="round" stroke-linejoin="round"/>
<path d="M33.0256 17.7668L35.8749 15.69C35.9166 15.7619 35.9634 15.8321 36.0155 15.8998C36.6095 16.6715 37.7165 16.8663 38.5366 16.3415C39.4654 15.747 39.6895 14.5036 39.0496 13.6258C38.8158 13.3049 38.5 13.0793 38.152 12.9561C37.9389 12.8808 37.7945 12.6851 37.7883 12.4591C37.7777 12.0776 37.6522 11.6954 37.4027 11.3669C36.8117 10.5886 35.7001 10.3883 34.8762 10.914C33.9456 11.5079 33.7208 12.7526 34.3611 13.6311C34.3975 13.6811 34.436 13.7283 34.4762 13.7736L31.6445 15.8375" stroke="#333333" stroke-width="1.5" stroke-miterlimit="10" stroke-linecap="round" stroke-linejoin="round"/>
<path d="M23.0853 16.8857C26.4541 14.4303 30.6066 14.3902 32.3603 16.7961C34.114 19.2021 32.8047 23.1431 29.4359 25.5985C26.067 28.0539 22.8414 27.4184 21.0877 25.0125C19.3341 22.6065 19.7165 19.3412 23.0853 16.8857Z" stroke="#333333" stroke-width="1.5" stroke-miterlimit="10" stroke-linecap="round" stroke-linejoin="round"/>
</g>
<defs>
<clipPath id="clip0_108_9827">
<rect width="40" height="40" fill="white"/>
</clipPath>
</defs>
</svg>
