<svg width="28" height="29" viewBox="0 0 28 29" fill="none" xmlns="http://www.w3.org/2000/svg">
<rect width="28" height="28" transform="translate(0 0.5)" fill="white"/>
<path d="M8.19873 5.13736L8.81561 5.74986C9.09999 5.46545 9.43761 5.23984 9.80919 5.08592C10.1808 4.93199 10.579 4.85277 10.9812 4.85277C11.3834 4.85277 11.7817 4.93199 12.1533 5.08592C12.5249 5.23984 12.8625 5.46545 13.1469 5.74986L13.7637 5.12861C13.0243 4.39241 12.0229 3.97981 10.9794 3.98145C9.93598 3.98309 8.93585 4.39884 8.19873 5.13736Z" fill="black"/>
<path d="M6.5625 21.9375C6.80412 21.9375 7 21.7416 7 21.5C7 21.2584 6.80412 21.0625 6.5625 21.0625C6.32088 21.0625 6.125 21.2584 6.125 21.5C6.125 21.7416 6.32088 21.9375 6.5625 21.9375Z" fill="black"/>
<path d="M13.755 16.6219C13.829 16.5861 13.8914 16.5301 13.935 16.4605C13.9786 16.3908 14.0018 16.3103 14.0018 16.2281C14.0018 16.1459 13.9786 16.0654 13.935 15.9958C13.8914 15.9261 13.829 15.8702 13.755 15.8344C13.1522 15.5319 12.487 15.3746 11.8125 15.375C10.7517 15.3754 9.72725 15.7612 8.92969 16.4606C8.13213 17.1599 7.61584 18.1253 7.47688 19.1769C5.00938 19.6231 3.0625 20.5594 3.0625 21.9375C3.0625 23.9281 7.11812 25 10.9375 25C11.5438 25.8222 12.4204 26.4045 13.4133 26.6445C14.4062 26.8845 15.452 26.767 16.3669 26.3125C16.4405 26.2764 16.5025 26.2204 16.5458 26.1508C16.5892 26.0811 16.612 26.0007 16.6119 25.9187C16.6116 25.838 16.589 25.7588 16.5465 25.6901C16.5041 25.6214 16.4434 25.5657 16.3712 25.5294C15.9076 25.2977 15.5011 24.966 15.1813 24.5581C16.1116 24.3643 17.0003 24.0073 17.8063 23.5038C18.2111 24.4531 18.9725 25.2055 19.9266 25.5991C20.8806 25.9926 21.9511 25.9959 22.9075 25.6081C22.9877 25.5752 23.0564 25.5191 23.1047 25.447C23.153 25.375 23.1788 25.2902 23.1788 25.2034C23.1788 25.1167 23.153 25.0319 23.1047 24.9598C23.0564 24.8878 22.9877 24.8317 22.9075 24.7988C22.339 24.5715 21.8517 24.1791 21.5084 23.6722C21.1651 23.1654 20.9817 22.5672 20.9817 21.955C20.9817 21.3428 21.1651 20.7447 21.5084 20.2378C21.8517 19.7309 22.339 19.3385 22.9075 19.1113C22.9877 19.0783 23.0564 19.0222 23.1047 18.9502C23.153 18.8781 23.1788 18.7933 23.1788 18.7066C23.1788 18.6198 23.153 18.535 23.1047 18.463C23.0564 18.3909 22.9877 18.3348 22.9075 18.3019C21.9511 17.9141 20.8806 17.9174 19.9266 18.3109C18.9725 18.7045 18.2111 19.4569 17.8063 20.4063C16.625 19.575 14.4375 19.015 11.9219 18.8969C12.0433 18.4071 12.2703 17.9497 12.5869 17.5567C12.9036 17.1638 13.3022 16.8447 13.755 16.6219ZM7.39375 23.8013C5.20625 23.3637 3.9375 22.5675 3.9375 21.9375C3.9375 21.3075 5.1975 20.5113 7.39375 20.0738C7.70936 20.6442 7.87493 21.2855 7.87493 21.9375C7.87493 22.5895 7.70936 23.2308 7.39375 23.8013ZM15.2075 25.7875C14.66 25.9112 14.0909 25.9015 13.548 25.7591C13.0051 25.6167 12.5044 25.3459 12.0881 24.9694C12.8214 24.9296 13.5517 24.8478 14.2756 24.7244C14.5258 25.1275 14.8406 25.4867 15.2075 25.7875ZM17.7056 21.4388C17.7594 21.4988 17.8287 21.5428 17.9059 21.566C17.9831 21.5892 18.0652 21.5905 18.1431 21.57C18.2209 21.5505 18.2919 21.51 18.3482 21.4529C18.4045 21.3958 18.4441 21.3243 18.4625 21.2462C18.6234 20.5488 19.0235 19.9296 19.5933 19.4965C20.1632 19.0633 20.8668 18.8434 21.5819 18.875C21.1251 19.2441 20.7567 19.7107 20.5037 20.2406C20.2506 20.7705 20.1192 21.3503 20.1192 21.9375C20.1192 22.5247 20.2506 23.1045 20.5037 23.6344C20.7567 24.1643 21.1251 24.6309 21.5819 25C20.8666 25.0329 20.1625 24.8141 19.5918 24.3817C19.0211 23.9493 18.62 23.3306 18.4581 22.6331C18.4397 22.5551 18.4001 22.4836 18.3438 22.4265C18.2875 22.3694 18.2165 22.3289 18.1388 22.3094C18.1024 22.3051 18.0657 22.3051 18.0294 22.3094C17.9683 22.3095 17.908 22.3224 17.8522 22.3473C17.7965 22.3722 17.7465 22.4084 17.7056 22.4538C16.9794 23.25 14.5513 24.125 10.9375 24.125C10.0595 24.1271 9.18244 24.0686 8.3125 23.95C8.60305 23.3189 8.7535 22.6323 8.7535 21.9375C8.7535 21.2427 8.60305 20.5561 8.3125 19.925C9.18244 19.8064 10.0595 19.7479 10.9375 19.75C14.5513 19.75 16.9794 20.625 17.7056 21.4388ZM11.0294 18.875H10.9375C10.0848 18.8759 9.2329 18.93 8.38688 19.0369C8.55075 18.2495 8.9808 17.5425 9.60468 17.035C10.2286 16.5274 11.0082 16.2502 11.8125 16.25C12.0702 16.2505 12.327 16.2798 12.5781 16.3375C11.7793 16.9746 11.2308 17.8732 11.0294 18.875Z" fill="black"/>
<path d="M27.0287 10.5623C27.247 10.306 27.4044 10.0036 27.4893 9.67785C27.5742 9.35205 27.5842 9.01127 27.5187 8.68105V8.61105C27.1683 6.99 26.292 5.53021 25.026 4.45886C23.76 3.38751 22.1753 2.76468 20.5187 2.6873C18.6726 2.61305 16.8665 3.238 15.4612 4.4373C15.2707 4.18839 15.0616 3.95438 14.8355 3.7373C13.7921 2.78831 12.4352 2.25772 11.0248 2.24723C9.61446 2.23673 8.24982 2.74706 7.19241 3.68042C6.60963 4.19781 6.14041 4.83038 5.81436 5.5382C5.48831 6.24603 5.3125 7.01375 5.29803 7.79292C5.29584 9.50104 4.63082 11.1416 3.44303 12.3692C2.96677 12.1798 2.43913 12.1636 1.95218 12.3236C1.46524 12.4835 1.0499 12.8093 0.778655 13.2442C0.572557 13.5854 0.463623 13.9765 0.463623 14.3751C0.463623 14.7738 0.572557 15.1648 0.778655 15.506C0.944284 15.7883 1.17234 16.0289 1.44535 16.2094C1.71836 16.3899 2.02906 16.5055 2.35366 16.5473C2.42541 17.07 2.68366 17.5492 3.08082 17.8965C3.47799 18.2438 3.9873 18.4359 4.5149 18.4373C4.92036 18.4388 5.31788 18.325 5.66115 18.1092C6.09504 17.8381 6.42019 17.4235 6.58005 16.9375C6.73991 16.4515 6.72438 15.9249 6.53615 15.4492C7.7516 14.271 9.38032 13.6161 11.073 13.6248C11.8784 13.6102 12.6717 13.4253 13.4005 13.0823C13.8774 14.1777 14.6089 15.1433 15.5342 15.899C16.4596 16.6546 17.552 17.1784 18.7205 17.4267H18.7905C18.9344 17.4567 19.0811 17.4714 19.228 17.4704C19.758 17.4701 20.2709 17.2826 20.6762 16.9411C20.9575 16.7067 21.1823 16.4119 21.3338 16.0786C21.4853 15.7453 21.5596 15.3821 21.5512 15.0161C21.5462 14.7217 21.5771 14.4279 21.643 14.1411C21.7904 13.5014 22.1147 12.916 22.5788 12.4519C23.043 11.9877 23.6283 11.6634 24.268 11.516C24.5545 11.4478 24.8486 11.4169 25.143 11.4242C25.5011 11.4265 25.8554 11.3506 26.1811 11.2017C26.5068 11.0528 26.7961 10.8346 27.0287 10.5623ZM11.0599 12.7498C9.13645 12.753 7.29089 13.5101 5.91928 14.8586L5.67865 15.0992C5.61088 15.1678 5.5677 15.257 5.55583 15.3527C5.54396 15.4484 5.56407 15.5454 5.61303 15.6286C5.71976 15.8055 5.78321 16.0051 5.79822 16.2112C5.81322 16.4173 5.77935 16.624 5.69937 16.8145C5.61939 17.0051 5.49556 17.174 5.33794 17.3076C5.18033 17.4413 4.9934 17.5358 4.79235 17.5835C4.59131 17.6312 4.38184 17.6308 4.18098 17.5823C3.98013 17.5338 3.79357 17.4385 3.63648 17.3043C3.4794 17.17 3.35623 17.0006 3.277 16.8098C3.19777 16.6189 3.16472 16.4121 3.18053 16.2061C3.18889 16.1412 3.18262 16.0754 3.16218 16.0133C3.14173 15.9512 3.10764 15.8945 3.06241 15.8473C2.98092 15.7665 2.87093 15.7209 2.75616 15.7204H2.71678C2.51016 15.7379 2.30234 15.7062 2.11035 15.6279C1.91836 15.5496 1.74765 15.4269 1.61222 15.2698C1.47679 15.1128 1.38049 14.9259 1.33121 14.7245C1.28193 14.5231 1.28107 14.3129 1.3287 14.1111C1.37634 13.9093 1.47111 13.7216 1.60525 13.5635C1.7394 13.4054 1.90909 13.2813 2.10044 13.2014C2.29179 13.1215 2.49934 13.0881 2.7061 13.1039C2.91285 13.1197 3.11292 13.1843 3.28991 13.2923C3.37348 13.3423 3.47137 13.3631 3.56805 13.3512C3.66474 13.3393 3.75469 13.2955 3.82365 13.2267L4.0599 12.9861C5.41052 11.6013 6.1685 9.74478 6.17303 7.81042C6.18289 7.14793 6.33032 6.49472 6.60597 5.89221C6.88162 5.2897 7.27946 4.75105 7.77428 4.31042C8.66868 3.52038 9.82328 3.08837 11.0166 3.09725C12.2099 3.10613 13.358 3.55528 14.2405 4.35855C14.9622 5.00736 15.4709 5.85922 15.6998 6.80231C15.9287 7.74541 15.8672 8.73568 15.5232 9.64315C15.1792 10.5506 14.5689 11.3329 13.7724 11.8873C12.9759 12.4417 12.0304 12.7424 11.0599 12.7498ZM26.3724 10.0285C26.2173 10.207 26.0237 10.3478 25.8061 10.4402C25.5886 10.5327 25.3529 10.5745 25.1168 10.5623C24.7565 10.5573 24.3968 10.594 24.0449 10.6717C23.2449 10.8524 22.5124 11.2562 21.9325 11.8361C21.3525 12.4161 20.9488 13.1485 20.768 13.9485C20.6901 14.3019 20.6534 14.663 20.6587 15.0248C20.6665 15.2558 20.6226 15.4857 20.5303 15.6976C20.4379 15.9096 20.2994 16.0982 20.1249 16.2498C19.9687 16.3842 19.7838 16.4813 19.5845 16.5336C19.3851 16.5859 19.1764 16.5921 18.9743 16.5517H18.913C17.8651 16.3267 16.8874 15.8509 16.0637 15.1651C15.24 14.4793 14.5949 13.604 14.1837 12.6142C14.4834 12.4123 14.7632 12.1823 15.0193 11.9273C15.1443 11.8025 15.2626 11.671 15.3737 11.5335C15.6424 12.1837 16.0504 12.7671 16.5689 13.2425C17.0874 13.718 17.7039 14.074 18.3749 14.2854C18.5349 14.3355 18.7046 14.3466 18.8698 14.3177C19.035 14.2887 19.1908 14.2207 19.3243 14.1192C19.4643 14.0083 19.5767 13.8664 19.6526 13.7047C19.7285 13.543 19.7659 13.3659 19.7618 13.1873C19.7618 12.143 20.1766 11.1415 20.915 10.4031C21.6535 9.66464 22.655 9.2498 23.6993 9.2498C23.8087 9.2498 23.9137 9.2498 24.0187 9.2498C24.0856 9.25737 24.1534 9.24936 24.2168 9.22641C24.2802 9.20346 24.3374 9.16618 24.3839 9.11748C24.4305 9.06878 24.4652 9.00997 24.4853 8.94565C24.5055 8.88133 24.5104 8.81324 24.4999 8.74667C24.3284 7.89774 23.9311 7.1108 23.3497 6.46887C22.7683 5.82693 22.0244 5.35379 21.1966 5.09934C20.3687 4.84489 19.4875 4.81856 18.6459 5.02313C17.8044 5.22771 17.0336 5.6556 16.4149 6.26167C16.299 5.877 16.142 5.50591 15.9468 5.1548C17.1988 4.06172 18.8231 3.49159 20.4837 3.5623C21.9467 3.63388 23.3448 4.18775 24.4599 5.13747C25.5751 6.08719 26.3445 7.37935 26.648 8.8123V8.87355C26.6888 9.07265 26.684 9.2784 26.634 9.47539C26.584 9.67237 26.4901 9.8555 26.3593 10.011L26.3724 10.0285ZM16.6249 7.33792C17.0508 6.76476 17.6245 6.31821 18.2847 6.04606C18.9449 5.77391 19.6667 5.68641 20.3728 5.79293C21.0788 5.89945 21.7427 6.19598 22.2932 6.65077C22.8437 7.10556 23.2602 7.7015 23.498 8.3748C22.2607 8.43223 21.0932 8.9645 20.2384 9.86087C19.3836 10.7572 18.9073 11.9487 18.9087 13.1873C18.9092 13.2305 18.8995 13.2731 18.8805 13.3119C18.8615 13.3506 18.8337 13.3844 18.7993 13.4104C18.7756 13.4292 18.7476 13.4418 18.7178 13.4471C18.688 13.4525 18.6574 13.4504 18.6287 13.441C17.9829 13.2415 17.3994 12.8791 16.9343 12.3887C16.4692 11.8983 16.1382 11.2964 15.973 10.641C16.4491 9.77007 16.6889 8.78968 16.6687 7.7973C16.6643 7.64855 16.6512 7.4998 16.6249 7.33792Z" fill="black"/>
</svg>
