<svg width="40" height="40" viewBox="0 0 40 40" fill="none" xmlns="http://www.w3.org/2000/svg">
<g clip-path="url(#clip0_108_9849)">
<path fill-rule="evenodd" clip-rule="evenodd" d="M31.7817 31.1949C30.7285 28.7812 27.3163 27.6448 23.7821 28.6445C22.6826 28.9555 21.6914 29.4393 20.8543 30.0379C18.786 31.5171 17.6591 33.6974 18.1686 35.7049C18.8844 38.5248 22.558 39.9358 26.374 38.8563C30.1899 37.7769 32.7032 34.6159 31.9874 31.796C31.9346 31.5878 31.8656 31.3873 31.7817 31.1949Z" fill="#FFCD69"/>
<path fill-rule="evenodd" clip-rule="evenodd" d="M18.1686 35.7048C17.6591 33.6973 18.786 31.5169 20.8543 30.0378C20.8546 30.0376 20.855 30.0373 20.8553 30.0371C19.3486 28.4329 16.5107 27.8285 13.6259 28.6445C11.6282 29.2095 9.98749 30.3451 8.98016 31.7036C8.06338 32.9401 7.67135 34.3612 8.01236 35.7048C8.72814 38.5247 12.4018 39.9357 16.2177 38.8563C17.2836 38.5548 18.2837 38.0766 19.1432 37.4631C18.6764 36.9663 18.3389 36.3754 18.1686 35.7048Z" fill="#FFE6B4"/>
<path fill-rule="evenodd" clip-rule="evenodd" d="M0.78125 13.9329C2.53169 18.3958 5.44783 21.2454 8.87122 22.7457H8.87333C12.2112 21.2829 15.0675 18.539 16.8309 14.2669C16.8724 14.1551 16.9172 14.0437 16.9653 13.9329C15.2147 9.46935 12.2973 6.62072 8.87333 5.12012H8.8695C5.44681 6.62103 2.5313 9.47076 0.78125 13.9329Z" fill="#CFD3DF"/>
<path fill-rule="evenodd" clip-rule="evenodd" d="M8.87305 5.12034C12.2971 6.62086 15.2144 9.46957 16.965 13.9331L22.9962 16.5508L28.73 19.0394C30.4645 17.597 31.9779 15.8802 33.149 13.9332C31.3463 10.936 28.7356 8.48045 25.749 6.73961C25.7486 6.74024 25.7483 6.74086 25.748 6.74149C22.1697 4.65573 18.0525 3.59458 14.1379 3.85793C12.3138 3.98082 10.5337 4.39105 8.87305 5.11877V5.12034Z" fill="#9EA6BF"/>
<path fill-rule="evenodd" clip-rule="evenodd" d="M22.9963 16.5508L16.9652 13.9331C16.9211 14.0455 16.8763 14.1569 16.8307 14.2672C15.6232 17.5189 17.1585 21.1844 20.3786 22.582C20.7938 22.7621 21.2173 22.8961 21.6435 22.9862C24.6371 23.6187 27.762 22.0842 29.0275 19.1683L28.7301 19.0393L22.9963 16.5508Z" fill="#CFD3DF"/>
<path fill-rule="evenodd" clip-rule="evenodd" d="M20.3785 22.5819C17.1584 21.1843 15.623 17.5188 16.8306 14.2671C15.0672 18.5391 12.2108 21.283 8.87305 22.7458V22.7467C12.7946 24.4646 17.3813 24.4121 21.6435 22.9862C21.2172 22.896 20.7937 22.762 20.3785 22.5819Z" fill="#9EA6BF"/>
<path fill-rule="evenodd" clip-rule="evenodd" d="M14.1644 3.85584C18.0712 3.59873 22.1786 4.6584 25.7488 6.73931C26.0568 6.16917 26.2321 5.518 26.2321 4.82778V0.781738H17.7309C15.9213 0.781738 14.4095 2.12125 14.1377 3.85763C14.1466 3.85701 14.1555 3.85646 14.1644 3.85584Z" fill="#9EA6BF"/>
<path fill-rule="evenodd" clip-rule="evenodd" d="M39.2184 7.86377C35.8805 7.86377 33.1494 10.5947 33.1494 13.9327C33.1494 17.2707 35.8804 20.0017 39.2184 20.0017V7.86377Z" fill="#CFD3DF"/>
<path d="M21.643 22.9862C13.6594 25.6569 4.5369 23.5084 0.78125 13.9328C6.72406 -1.21922 26.105 2.22089 33.1492 13.9328C31.9832 15.8715 30.4777 17.5819 28.7525 19.0204" stroke="#333333" stroke-width="1.5" stroke-miterlimit="2.6131" stroke-linecap="round" stroke-linejoin="round"/>
<path d="M8.87305 5.12012C12.2969 6.62064 15.2143 9.46935 16.9649 13.9328C15.2143 18.3962 12.297 21.2449 8.87312 22.7454" stroke="#333333" stroke-width="1.5" stroke-miterlimit="2.6131" stroke-linecap="round" stroke-linejoin="round"/>
<path fill-rule="evenodd" clip-rule="evenodd" d="M22.9964 16.5503L29.0276 19.1679C27.5819 22.4989 23.7097 24.0272 20.3787 22.5815C17.0478 21.1358 15.5195 17.2636 16.9651 13.9326L22.9964 16.5503Z" stroke="#333333" stroke-width="1.5" stroke-miterlimit="2.6131" stroke-linecap="round" stroke-linejoin="round"/>
<path d="M8.87305 10.7305L8.87352 10.731" stroke="#333333" stroke-width="1.5" stroke-miterlimit="2.6131" stroke-linecap="round" stroke-linejoin="round"/>
<path fill-rule="evenodd" clip-rule="evenodd" d="M39.2184 20.0017L39.2185 7.86377H39.2184C35.8805 7.86377 33.1494 10.5947 33.1494 13.9327C33.1494 17.2706 35.8805 20.0017 39.2184 20.0017Z" stroke="#333333" stroke-width="1.5" stroke-miterlimit="2.6131" stroke-linecap="round" stroke-linejoin="round"/>
<path d="M14.1387 3.85591C14.4003 2.18969 15.8039 0.889549 17.5164 0.788301M24.5476 0.781738H26.2327V4.82778C26.2327 5.51402 26.0594 6.16159 25.7548 6.72939" stroke="#333333" stroke-width="1.5" stroke-miterlimit="2.6131" stroke-linecap="round" stroke-linejoin="round"/>
<path d="M18.8655 37.6531C18.067 38.1783 17.1658 38.5878 16.2177 38.856C12.4018 39.9354 8.72816 38.5244 8.01239 35.7045C7.29661 32.8846 9.80986 29.7236 13.6258 28.6442C16.3509 27.8733 19.1218 28.3581 20.7006 29.882" stroke="#333333" stroke-width="1.5" stroke-miterlimit="2.6131" stroke-linecap="round" stroke-linejoin="round"/>
<path d="M26.6684 38.7682C30.4501 37.5689 32.8034 34.3503 31.9246 31.5793C31.0458 28.8084 27.2678 27.5343 23.4861 28.7337C19.7043 29.933 17.3511 33.1516 18.2299 35.9225C19.1086 38.6935 22.8867 39.9675 26.6684 38.7682Z" stroke="#333333" stroke-width="1.5" stroke-miterlimit="2.6131" stroke-linecap="round" stroke-linejoin="round"/>
<path d="M28.8696 32.3515C28.6242 31.9441 28.033 31.6873 27.5977 31.5671C26.6469 31.3045 25.5731 31.3854 24.6328 31.6513" stroke="#333333" stroke-width="1.5" stroke-miterlimit="2.6131" stroke-linecap="round" stroke-linejoin="round"/>
<path d="M18.6538 32.2641C18.3819 31.9071 17.8447 31.6784 17.4415 31.5671C16.4906 31.3045 15.4169 31.3854 14.4766 31.6513" stroke="#333333" stroke-width="1.5" stroke-miterlimit="2.6131" stroke-linecap="round" stroke-linejoin="round"/>
<path d="M8.89275 31.6487C5.99842 29.8204 4.375 27.3523 4.375 24.7803" stroke="#333333" stroke-width="1.5" stroke-miterlimit="2.6131" stroke-linecap="round" stroke-linejoin="round"/>
<path d="M2.65332 27.3883L4.37488 24.7803L6.98293 26.5019" stroke="#333333" stroke-width="1.5" stroke-miterlimit="2.6131" stroke-linecap="round" stroke-linejoin="round"/>
<path d="M35.6249 24.7803C35.6249 27.0913 34.3135 29.3276 31.9238 31.0912" stroke="#333333" stroke-width="1.5" stroke-miterlimit="2.6131" stroke-linecap="round" stroke-linejoin="round"/>
<path d="M21.0312 0.78125L21.0316 0.781641" stroke="#333333" stroke-width="1.5" stroke-miterlimit="2.6131" stroke-linecap="round" stroke-linejoin="round"/>
</g>
<defs>
<clipPath id="clip0_108_9849">
<rect width="40" height="40" fill="white"/>
</clipPath>
</defs>
</svg>
