<svg width="52" height="53" viewBox="0 0 52 53" fill="none" xmlns="http://www.w3.org/2000/svg">
<path fill-rule="evenodd" clip-rule="evenodd" d="M22.5786 10.2595C21.0758 10.2595 19.6928 11.1148 19.0208 12.459L18.4971 13.5095H14.625C11.9519 13.5095 9.75 15.7114 9.75 18.3845V34.6345C9.75 37.3077 11.9519 39.5095 14.625 39.5095H37.375C40.0481 39.5095 42.25 37.3077 42.25 34.6345V18.3845C42.25 15.7114 40.0481 13.5095 37.375 13.5095H33.5029L32.9792 12.459C32.3072 11.1148 30.9242 10.2595 29.4214 10.2595H22.5786ZM22.5786 13.5095H29.4214C29.7001 13.5095 29.9474 13.6634 30.072 13.9126L31.0464 15.8613C31.1814 16.1312 31.3889 16.3582 31.6456 16.5169C31.9024 16.6755 32.1982 16.7595 32.5 16.7595H37.375C38.2917 16.7595 39 17.4678 39 18.3845V34.6345C39 35.5512 38.2917 36.2595 37.375 36.2595H14.625C13.7083 36.2595 13 35.5512 13 34.6345V18.3845C13 17.4678 13.7083 16.7595 14.625 16.7595H19.5C19.8018 16.7595 20.0976 16.6755 20.3544 16.5169C20.6111 16.3582 20.8186 16.1312 20.9536 15.8613L21.928 13.9126C22.0526 13.6633 22.2999 13.5095 22.5786 13.5095Z" fill="#965036"/>
<path fill-rule="evenodd" clip-rule="evenodd" d="M4.875 3.75952C4.44404 3.75956 4.03074 3.93078 3.726 4.23552C3.42126 4.54026 3.25004 4.95356 3.25 5.38452V11.8845C3.25 12.3155 3.4212 12.7288 3.72595 13.0336C4.0307 13.3383 4.44402 13.5095 4.875 13.5095C5.30598 13.5095 5.7193 13.3383 6.02405 13.0336C6.3288 12.7288 6.5 12.3155 6.5 11.8845V7.00952H11.375C11.806 7.00952 12.2193 6.83832 12.524 6.53357C12.8288 6.22882 13 5.8155 13 5.38452C13 4.95354 12.8288 4.54022 12.524 4.23547C12.2193 3.93073 11.806 3.75952 11.375 3.75952H4.875Z" fill="#965036"/>
<path fill-rule="evenodd" clip-rule="evenodd" d="M4.875 39.5095C4.44402 39.5095 4.0307 39.6807 3.72595 39.9855C3.4212 40.2902 3.25 40.7035 3.25 41.1345V47.6345C3.25004 48.0655 3.42126 48.4788 3.726 48.7835C4.03074 49.0883 4.44404 49.2595 4.875 49.2595H11.375C11.806 49.2595 12.2193 49.0883 12.524 48.7836C12.8288 48.4788 13 48.0655 13 47.6345C13 47.2035 12.8288 46.7902 12.524 46.4855C12.2193 46.1807 11.806 46.0095 11.375 46.0095H6.5V41.1345C6.5 40.7035 6.3288 40.2902 6.02405 39.9855C5.7193 39.6807 5.30598 39.5095 4.875 39.5095Z" fill="#965036"/>
<path fill-rule="evenodd" clip-rule="evenodd" d="M40.625 3.75952C40.194 3.75952 39.7807 3.93073 39.476 4.23547C39.1712 4.54022 39 4.95354 39 5.38452C39 5.8155 39.1712 6.22882 39.476 6.53357C39.7807 6.83832 40.194 7.00952 40.625 7.00952H45.5V11.8845C45.5 12.3155 45.6712 12.7288 45.976 13.0336C46.2807 13.3383 46.694 13.5095 47.125 13.5095C47.556 13.5095 47.9693 13.3383 48.274 13.0336C48.5788 12.7288 48.75 12.3155 48.75 11.8845V5.38452C48.75 4.95356 48.5787 4.54026 48.274 4.23552C47.9693 3.93078 47.556 3.75956 47.125 3.75952H40.625Z" fill="#965036"/>
<path fill-rule="evenodd" clip-rule="evenodd" d="M47.125 39.5095C46.694 39.5095 46.2807 39.6807 45.976 39.9855C45.6712 40.2902 45.5 40.7035 45.5 41.1345V46.0095H40.625C40.194 46.0095 39.7807 46.1807 39.476 46.4855C39.1712 46.7902 39 47.2035 39 47.6345C39 48.0655 39.1712 48.4788 39.476 48.7836C39.7807 49.0883 40.194 49.2595 40.625 49.2595H47.125C47.556 49.2595 47.9693 49.0883 48.274 48.7835C48.5787 48.4788 48.75 48.0655 48.75 47.6345V41.1345C48.75 40.7035 48.5788 40.2902 48.274 39.9855C47.9693 39.6807 47.556 39.5095 47.125 39.5095Z" fill="#965036"/>
<path fill-rule="evenodd" clip-rule="evenodd" d="M26 20.0095C22.4294 20.0095 19.5 22.9389 19.5 26.5095C19.5 30.0801 22.4294 33.0095 26 33.0095C29.5706 33.0095 32.5 30.0801 32.5 26.5095C32.5 22.9389 29.5706 20.0095 26 20.0095ZM26 23.2595C27.8142 23.2595 29.25 24.6954 29.25 26.5095C29.25 28.3237 27.8142 29.7595 26 29.7595C24.1858 29.7595 22.75 28.3237 22.75 26.5095C22.75 24.6954 24.1858 23.2595 26 23.2595Z" fill="#965036"/>
</svg>
