<svg width="30" height="30" viewBox="0 0 30 30" fill="none" xmlns="http://www.w3.org/2000/svg">
<g clip-path="url(#clip0_110_4116)">
<rect width="30" height="30" rx="15" fill="#F9F2EA"/>
<path d="M14.9624 3C21.5984 3 26.9624 8.37582 26.9624 15C26.9624 21.6239 21.5863 27 14.9624 27C8.33854 27 2.9624 21.6239 2.9624 15C2.9624 8.37614 8.33854 3 14.9624 3ZM15.3491 10.2539C14.2834 9.64082 13.0171 9.63946 11.9604 10.2559C10.907 10.8704 10.2749 11.9721 10.2749 13.1875V17.375C10.2749 18.6041 10.908 19.6927 11.9604 20.3066C12.4892 20.6151 13.064 20.7627 13.6499 20.7627C14.2212 20.7627 14.8074 20.6156 15.3364 20.3076L15.3374 20.3086L18.9624 18.2207L18.9614 18.2197C20.0299 17.6049 20.6625 16.5027 20.6626 15.2754C20.6626 14.0463 20.0295 12.9567 18.9771 12.3428L18.9741 12.3418L15.3491 10.2539Z" fill="#965036" stroke="#965036"/>
</g>
<defs>
<clipPath id="clip0_110_4116">
<rect width="30" height="30" rx="15" fill="white"/>
</clipPath>
</defs>
</svg>
