<svg width="12" height="13" viewBox="0 0 12 13" fill="none" xmlns="http://www.w3.org/2000/svg">
<path d="M11.5312 6.03125H6.46875V0.96875C6.46875 0.709859 6.25889 0.5 6 0.5C5.74111 0.5 5.53125 0.709859 5.53125 0.96875V6.03125H0.46875C0.209859 6.03125 0 6.24111 0 6.5C0 6.75889 0.209859 6.96875 0.46875 6.96875H5.53125V12.0312C5.53125 12.2901 5.74111 12.5 6 12.5C6.25889 12.5 6.46875 12.2901 6.46875 12.0312V6.96875H11.5312C11.7901 6.96875 12 6.75889 12 6.5C12 6.24111 11.7901 6.03125 11.5312 6.03125Z" fill="white"/>
</svg>
