<svg width="28" height="28" viewBox="0 0 28 28" fill="none" xmlns="http://www.w3.org/2000/svg">
<g clip-path="url(#clip0_114_2405)">
<path d="M21.1892 10.2912C23.2195 8.26087 24.9598 10.0012 26.9901 7.97079C27.7911 7.16988 27.7911 5.87128 26.9901 5.07031L21.7693 6.23049L7.10067 20.8991L4.2002 26.12C5.48168 27.4015 7.55942 27.4014 8.84096 26.12C10.8713 24.0896 9.131 22.3493 11.1614 20.319L21.1892 10.2912Z" fill="#FFD185"/>
<path d="M7.681 24.9598C8.26697 24.3739 8.29989 23.9461 8.36547 23.0937C8.4463 22.0427 8.55705 20.6032 10.0014 19.1589L20.0292 9.13107C21.4736 7.68671 22.913 7.57602 23.9641 7.49513C24.8164 7.42955 25.2442 7.39663 25.8302 6.81066C26.6311 6.00969 27.1505 5.23055 26.9904 5.07036C26.3796 4.45962 25.4796 4.31512 24.7314 4.63589C24.8617 3.65751 24.5516 2.63171 23.7998 1.87986C22.5182 0.598316 20.4406 0.598316 19.159 1.87986C17.1287 3.91018 18.869 5.65048 16.8387 7.6808L6.81085 17.7086C4.78052 19.7389 3.04023 17.9986 1.0099 20.029C0.208939 20.83 0.208939 22.1285 1.0099 22.9295C1.62065 23.5402 2.52066 23.6847 3.26884 23.364C3.13851 24.3424 3.44861 25.3682 4.20041 26.12C4.84118 26.7608 6.39946 26.2413 7.681 24.9598Z" fill="#FFE8C2"/>
<path d="M7.68094 25.3699C7.90748 25.3699 8.09113 25.1863 8.09113 24.9597C8.09113 24.7332 7.90748 24.5496 7.68094 24.5496C7.4544 24.5496 7.27075 24.7332 7.27075 24.9597C7.27075 25.1863 7.4544 25.3699 7.68094 25.3699Z" fill="black"/>
<path d="M7.97098 19.2791C8.19752 19.2791 8.38117 19.0955 8.38117 18.8689C8.38117 18.6424 8.19752 18.4587 7.97098 18.4587C7.74444 18.4587 7.56079 18.6424 7.56079 18.8689C7.56079 19.0955 7.74444 19.2791 7.97098 19.2791Z" fill="black"/>
<path d="M20.3191 3.45026C20.5457 3.45026 20.7293 3.26661 20.7293 3.04007C20.7293 2.81353 20.5457 2.62988 20.3191 2.62988C20.0926 2.62988 19.9089 2.81353 19.9089 3.04007C19.9089 3.26661 20.0926 3.45026 20.3191 3.45026Z" fill="black"/>
<path d="M5.36038 25.3699C5.58693 25.3699 5.77057 25.1863 5.77057 24.9597C5.77057 24.7332 5.58693 24.5496 5.36038 24.5496C5.13384 24.5496 4.9502 24.7332 4.9502 24.9597C4.9502 25.1863 5.13384 25.3699 5.36038 25.3699Z" fill="black"/>
<path d="M11.4514 20.6091L21.4793 10.5812C22.3871 9.67341 23.1907 9.61161 24.1211 9.54002C25.0758 9.46657 26.1578 9.38333 27.2803 8.26089C28.2399 7.30126 28.2399 5.73992 27.2803 4.7803C26.7149 4.21489 25.9323 3.96845 25.1696 4.08642C25.1433 3.15141 24.7651 2.26512 24.0898 1.58979C22.6504 0.150409 20.3083 0.150409 18.8689 1.58979C17.7464 2.71229 17.6632 3.79426 17.5898 4.7489C17.5182 5.67932 17.4564 6.48291 16.5486 7.39074C16.3884 7.55093 16.3884 7.81066 16.5486 7.97086C16.7088 8.13105 16.9684 8.13105 17.1287 7.97086C18.2511 6.84841 18.3344 5.76644 18.4078 4.81185C18.4794 3.88138 18.5412 3.07779 19.449 2.16991C20.5685 1.05042 22.3902 1.05036 23.5097 2.16991C24.147 2.80718 24.444 3.68624 24.3247 4.58176C24.3052 4.72796 24.3654 4.87338 24.4833 4.96269C24.6009 5.0519 24.7573 5.07109 24.893 5.0129C25.5137 4.74682 26.2231 4.88323 26.7003 5.36041C27.34 6.00014 27.34 7.04104 26.7003 7.68077C25.7924 8.58865 24.9888 8.65046 24.0584 8.72205C23.1037 8.7955 22.0217 8.87874 20.8993 10.0012L10.8714 20.029C9.74894 21.1515 9.6657 22.2335 9.59231 23.188C9.52071 24.1185 9.45891 24.9221 8.55103 25.83C7.43154 26.9495 5.60986 26.9495 4.49037 25.83C3.8531 25.1927 3.55602 24.3137 3.67541 23.4181C3.69488 23.2719 3.63434 23.1263 3.51675 23.0372C3.39922 22.948 3.2428 22.9288 3.10716 22.9869C2.48641 23.2531 1.777 23.1166 1.29981 22.6394C0.660083 21.9997 0.660083 20.9588 1.29981 20.3191C2.2077 19.4112 3.01129 19.3494 3.94171 19.2779C4.89635 19.2044 5.97832 19.1212 7.10076 17.9987L15.9685 9.13103C16.1286 8.97084 16.1286 8.71111 15.9685 8.55092C15.8083 8.39073 15.5486 8.39073 15.3883 8.55092L6.52065 17.4186C5.61282 18.3264 4.80923 18.3882 3.87881 18.4598C2.92416 18.5333 1.84219 18.6165 0.719697 19.739C-0.239926 20.6986 -0.239872 22.2599 0.719697 23.2196C1.28505 23.7849 2.06769 24.0314 2.83037 23.9134C2.85667 24.8485 3.23492 25.7347 3.91026 26.4101C5.34964 27.8494 7.69171 27.8494 9.13109 26.4101C10.2536 25.2876 10.3368 24.2056 10.4102 23.2509C10.4818 22.3205 10.5436 21.517 11.4514 20.6091Z" fill="black"/>
</g>
<defs>
<clipPath id="clip0_114_2405">
<rect width="28" height="28" fill="white"/>
</clipPath>
</defs>
</svg>
