<svg width="25" height="24" viewBox="0 0 25 24" fill="none" xmlns="http://www.w3.org/2000/svg">
<path d="M8.7998 2.5H16.7998C18.7227 2.5 20.0731 2.98036 20.9463 3.85352C21.8194 4.72668 22.2998 6.07707 22.2998 8V16C22.2998 17.9229 21.8194 19.2733 20.9463 20.1465C20.0731 21.0196 18.7227 21.5 16.7998 21.5H3.7998C3.52595 21.5 3.2998 21.2739 3.2998 21V8C3.2998 6.07707 3.78016 4.72668 4.65332 3.85352C5.52648 2.98036 6.87688 2.5 8.7998 2.5ZM7.7998 13.25C7.11366 13.25 6.5498 13.8139 6.5498 14.5C6.5498 15.1861 7.11366 15.75 7.7998 15.75H14.7998C15.4859 15.75 16.0498 15.1861 16.0498 14.5C16.0498 13.8139 15.4859 13.25 14.7998 13.25H7.7998ZM7.7998 8.25C7.11366 8.25 6.5498 8.81386 6.5498 9.5C6.5498 10.1861 7.11366 10.75 7.7998 10.75H17.7998C18.4859 10.75 19.0498 10.1861 19.0498 9.5C19.0498 8.81386 18.4859 8.25 17.7998 8.25H7.7998Z" fill="#965036" stroke="#965036"/>
</svg>
