<svg width="25" height="24" viewBox="0 0 25 24" fill="none" xmlns="http://www.w3.org/2000/svg">
<path d="M8.7998 1.75H16.7998C18.926 1.75 20.4669 2.30971 21.4785 3.32129C22.4901 4.33287 23.0498 5.87378 23.0498 8V16C23.0498 18.1262 22.4901 19.6671 21.4785 20.6787C20.4669 21.6903 18.926 22.25 16.7998 22.25H3.7998C3.11595 22.25 2.5498 21.6839 2.5498 21V8C2.5498 5.87378 3.10951 4.33287 4.12109 3.32129C5.13267 2.30971 6.67358 1.75 8.7998 1.75ZM8.7998 2.25C6.94147 2.25 5.47462 2.68261 4.47852 3.67871C3.48242 4.67481 3.0498 6.14167 3.0498 8V21C3.0498 21.4161 3.38366 21.75 3.7998 21.75H16.7998C18.6581 21.75 20.125 21.3174 21.1211 20.3213C22.1172 19.3252 22.5498 17.8583 22.5498 16V8C22.5498 6.14167 22.1172 4.67481 21.1211 3.67871C20.125 2.68261 18.6581 2.25 16.7998 2.25H8.7998Z" fill="#474747" stroke="#474747"/>
<path d="M7.7998 9.25H17.7998C17.9337 9.25 18.0498 9.36614 18.0498 9.5C18.0498 9.63386 17.9337 9.75 17.7998 9.75H7.7998C7.66595 9.75 7.5498 9.63386 7.5498 9.5C7.5498 9.36614 7.66595 9.25 7.7998 9.25Z" fill="#474747" stroke="#474747"/>
<path d="M7.7998 14.25H14.7998C14.9337 14.25 15.0498 14.3661 15.0498 14.5C15.0498 14.6339 14.9337 14.75 14.7998 14.75H7.7998C7.66595 14.75 7.5498 14.6339 7.5498 14.5C7.5498 14.3661 7.66595 14.25 7.7998 14.25Z" fill="#474747" stroke="#474747"/>
</svg>
