<svg width="50" height="50" viewBox="0 0 50 50" fill="none" xmlns="http://www.w3.org/2000/svg">
<g clip-path="url(#clip0_108_8987)">
<mask id="mask0_108_8987" style="mask-type:luminance" maskUnits="userSpaceOnUse" x="0" y="0" width="50" height="50">
<path d="M0 3.8147e-06H50V50H0V3.8147e-06Z" fill="white"/>
</mask>
<g mask="url(#mask0_108_8987)">
<path fill-rule="evenodd" clip-rule="evenodd" d="M29.1475 24.5293C27.1406 25.5425 22.8454 25.5178 20.8496 24.4604V28.7419C20.8496 30.4847 23.2539 31.9082 24.9986 31.9082C26.7459 31.9082 29.1475 30.4847 29.1475 28.7419V24.5293Z" fill="#FFBD86"/>
<path fill-rule="evenodd" clip-rule="evenodd" d="M20.8883 28.2573C22.851 29.2953 27.1048 29.3366 29.0895 28.3729C29.1282 28.1775 29.1475 27.9764 29.1475 27.77V24.5293C27.1406 25.5425 22.8454 25.5178 20.8496 24.4604V27.77C20.8496 27.9351 20.8635 28.0975 20.8883 28.2573Z" fill="#F6A96C"/>
<path fill-rule="evenodd" clip-rule="evenodd" d="M21.7609 25.7986C21.2972 24.3972 21.8851 21.8725 18.1944 19.166L9.31972 18.0041C6.79667 18.0041 5.21767 20.0938 7.49501 23.0509L12.1215 28.5244L21.7609 25.7986Z" fill="#F6A96C"/>
<path fill-rule="evenodd" clip-rule="evenodd" d="M31.8003 19.1876C28.2642 21.6711 28.6672 24.2977 28.2393 25.7981L37.8787 28.5239L42.5024 23.0505C44.7798 20.0934 43.2036 18.0036 40.6806 18.0036L31.8003 19.1876Z" fill="#F6A96C"/>
<path fill-rule="evenodd" clip-rule="evenodd" d="M37.8787 28.524L33.2301 23.2404L28.2393 25.7982C28.2172 25.8148 28.1951 25.8285 28.173 25.845V27.7696C28.173 29.5125 26.7459 30.9388 24.9985 30.9388C23.2539 30.9388 21.8241 29.5125 21.8241 27.7696V25.845C21.802 25.8285 21.7798 25.8148 21.7605 25.7982L16.7669 23.2404L12.1211 28.524L15.7428 32.8082V41.2085H34.257V32.8082L37.8787 28.524Z" fill="#62DBFB"/>
<path d="M5.21758 0.732227H8.36992L5.06299 5.24756H8.81992" stroke="#333333" stroke-width="1.5" stroke-miterlimit="10" stroke-linecap="round" stroke-linejoin="round"/>
<path d="M10.377 8.78281H13.1704L10.6392 12.2383H13.5127" stroke="#333333" stroke-width="1.5" stroke-miterlimit="10" stroke-linecap="round" stroke-linejoin="round"/>
<path fill-rule="evenodd" clip-rule="evenodd" d="M47.0876 43.7581H2.90967V49.0059H47.0876V43.7581Z" fill="#D2CFE9"/>
<path fill-rule="evenodd" clip-rule="evenodd" d="M21.0045 25.8978C23.4475 27.6434 26.6468 27.6543 29.0925 25.9198C29.1174 25.9005 29.1449 25.8813 29.1698 25.8619C31.243 24.3477 32.7529 21.5558 32.7529 17.4781V17.2717C29.7081 17.2772 25.8904 14.5732 22.981 12.4312C21.5233 14.5099 19.6132 17.2717 17.3413 17.2661V17.4781C17.3413 21.2888 18.6802 23.9842 20.5655 25.5591C20.7092 25.6775 20.8555 25.7904 21.0045 25.8978Z" fill="#FED2A4"/>
<path fill-rule="evenodd" clip-rule="evenodd" d="M29.7192 17.3044C29.7192 21.8392 26.0893 25.5836 21.3882 26.1536C23.7761 27.6404 26.7738 27.566 29.0926 25.9196L29.0953 25.9167L29.1699 25.8617C31.2431 24.3474 32.7529 21.5555 32.7529 17.4779V17.2714C32.1536 15.8135 30.1517 15.8135 29.7137 17.0291C29.7192 17.12 29.7192 17.2135 29.7192 17.3044Z" fill="#FFBD86"/>
<path fill-rule="evenodd" clip-rule="evenodd" d="M17.3413 17.2661C19.6132 17.2717 21.5233 16.4401 22.981 14.3614C23.34 12.9395 23.4214 11.3933 20.1432 11.2749C18.4814 12.5249 17.3413 14.5238 17.3413 17.2661Z" fill="#01525A"/>
<path fill-rule="evenodd" clip-rule="evenodd" d="M22.9809 14.3612C25.8903 16.5033 29.708 17.2768 32.7527 17.2715V17.2659C32.7527 9.92556 24.5874 7.92947 20.1431 11.2748C20.8939 12.5247 21.8712 13.5434 22.9809 14.3612Z" fill="#016A74"/>
<path fill-rule="evenodd" clip-rule="evenodd" d="M29.7136 17.0291C30.7681 17.1998 31.8005 17.2742 32.7528 17.2714V17.2659C32.7528 12.2742 28.9766 9.75217 25.1616 9.70266C27.8172 11.2307 29.6142 13.9317 29.7136 17.0291Z" fill="#01525A"/>
<path d="M32.7528 17.2661C32.7528 7.1835 17.3413 7.1835 17.3413 17.2661" stroke="#333333" stroke-width="1.5" stroke-miterlimit="10" stroke-linecap="round" stroke-linejoin="round"/>
<path d="M20.1431 11.2748C22.8455 15.7736 28.4769 17.2604 32.6754 17.2715H32.7527" stroke="#333333" stroke-width="1.5" stroke-miterlimit="10" stroke-linecap="round" stroke-linejoin="round"/>
<path d="M22.981 14.3614C21.5233 16.4401 19.6132 17.2717 17.3413 17.2661" stroke="#333333" stroke-width="1.5" stroke-miterlimit="10" stroke-linecap="round" stroke-linejoin="round"/>
<path fill-rule="evenodd" clip-rule="evenodd" d="M37.8789 28.524L36.9956 26.7646L35.9798 26.3654L31.8639 31.2333C31.0717 32.1722 31.2041 32.6484 31.2041 33.8819V41.2085H34.2572V32.8082L37.8789 28.524Z" fill="#01D0FB"/>
<path fill-rule="evenodd" clip-rule="evenodd" d="M39.4521 22.2579L35.9795 26.3658L37.8787 28.5244L42.5023 23.0509C44.7798 20.0938 43.2035 18.004 40.6805 18.004L39.9793 18.0977C40.7937 18.9787 40.8378 20.4573 39.4521 22.2579Z" fill="#EA9B58"/>
<path d="M37.8791 28.5244L33.2305 23.2408" stroke="#333333" stroke-width="1.5" stroke-miterlimit="10" stroke-linecap="round" stroke-linejoin="round"/>
<path d="M35.0189 22.324L30.4614 24.6616" stroke="#333333" stroke-width="1.5" stroke-miterlimit="10" stroke-linecap="round" stroke-linejoin="round"/>
<path d="M21.1064 19.7742C21.5978 20.0551 22.1829 20.0551 22.6716 19.7742" stroke="#333333" stroke-width="1.5" stroke-miterlimit="10" stroke-linecap="round" stroke-linejoin="round"/>
<path d="M28.8908 19.7742C28.4022 20.0551 27.8171 20.0551 27.3257 19.7742" stroke="#333333" stroke-width="1.5" stroke-miterlimit="10" stroke-linecap="round" stroke-linejoin="round"/>
<path d="M28.1732 26.4731V27.7699C28.1732 29.5128 26.7461 30.939 24.9987 30.939C23.2541 30.939 21.8242 29.5128 21.8242 27.7699V26.4043" stroke="#333333" stroke-width="1.5" stroke-miterlimit="10" stroke-linecap="round" stroke-linejoin="round"/>
<path d="M12.1211 28.5244L16.7669 23.2408" stroke="#333333" stroke-width="1.5" stroke-miterlimit="10" stroke-linecap="round" stroke-linejoin="round"/>
<path d="M15.7432 35.903V32.8084L7.49501 23.0507C5.21767 20.0936 6.79667 18.0038 9.31972 18.0038L17.4243 19.0638M32.6728 19.0721L40.6809 18.0038C43.2039 18.0038 44.7802 20.0936 42.5028 23.0507L34.2574 32.8084V39.2676" stroke="#333333" stroke-width="1.5" stroke-miterlimit="10" stroke-linecap="round" stroke-linejoin="round"/>
<path fill-rule="evenodd" clip-rule="evenodd" d="M47.0878 43.7581H43.248V49.0059H47.0878V43.7581Z" fill="#C2BCE0"/>
<path fill-rule="evenodd" clip-rule="evenodd" d="M34.2572 39.2674H15.743H1.39707C1.07129 39.2674 0.803613 39.5289 0.800781 39.8538V39.8621V44.1353V44.1435C0.803613 44.4655 1.07129 44.73 1.39707 44.73H2.90977H47.0877H48.6004C48.9289 44.73 49.1994 44.4628 49.1994 44.1353V39.8621C49.1994 39.5344 48.9289 39.2674 48.6004 39.2674H34.2572Z" fill="#016A74"/>
<path fill-rule="evenodd" clip-rule="evenodd" d="M45.357 39.8621V44.1353C45.357 44.4601 45.092 44.7271 44.7662 44.73H47.0878H48.6005C48.929 44.73 49.1995 44.4628 49.1995 44.1353V39.8621C49.1995 39.5345 48.929 39.2674 48.6005 39.2674H44.7607C45.0893 39.2674 45.357 39.5345 45.357 39.8621Z" fill="#01525A"/>
<path d="M23.497 44.73H1.39697C1.06846 44.73 0.800781 44.4629 0.800781 44.1353V39.8621C0.800781 39.5345 1.06846 39.2674 1.39697 39.2674H48.6004C48.9289 39.2674 49.1993 39.5345 49.1993 39.8621V44.1353C49.1993 44.4629 48.9289 44.73 48.6004 44.73H26.7681" stroke="#333333" stroke-width="1.5" stroke-miterlimit="10" stroke-linecap="round" stroke-linejoin="round"/>
<path d="M47.0876 44.7302V49.2676H2.90967V44.7302" stroke="#333333" stroke-width="1.5" stroke-miterlimit="10" stroke-linecap="round" stroke-linejoin="round"/>
<path d="M19.7538 24.7715L14.981 22.3238" stroke="#333333" stroke-width="1.5" stroke-miterlimit="10" stroke-linecap="round" stroke-linejoin="round"/>
<path d="M17.3413 17.2659V17.478C17.3413 21.2885 18.6802 23.984 20.5655 25.5589C23.0804 27.6569 26.5694 27.7615 29.1698 25.8617C31.243 24.3475 32.7528 21.5556 32.7528 17.478V17.2659" stroke="#333333" stroke-width="1.5" stroke-miterlimit="10" stroke-linecap="round" stroke-linejoin="round"/>
<path d="M26.2045 23.1039C25.4509 23.5305 24.5465 23.5305 23.793 23.1039" stroke="#333333" stroke-width="1.5" stroke-miterlimit="10" stroke-linecap="round" stroke-linejoin="round"/>
</g>
</g>
<defs>
<clipPath id="clip0_108_8987">
<rect width="50" height="50" fill="white"/>
</clipPath>
</defs>
</svg>
