<svg width="25" height="24" viewBox="0 0 25 24" fill="none" xmlns="http://www.w3.org/2000/svg">
<path d="M14.7698 3.646C15.1044 3.08362 15.8214 2.89613 16.3645 3.21924L16.3713 3.22412L18.1018 4.21436C18.7693 4.5959 18.9998 5.44881 18.6155 6.12158C18.1127 6.99896 18.0072 7.91057 18.426 8.63428C18.845 9.35806 19.6879 9.72012 20.6995 9.72021C21.4706 9.72021 22.1021 10.3544 22.1096 11.1245V12.8804C22.1094 13.6522 21.4755 14.2796 20.7102 14.2798C19.6987 14.2798 18.8545 14.6418 18.4368 15.3667C18.045 16.0465 18.1174 16.8906 18.5471 17.7163L18.637 17.8804C19.0188 18.5416 18.7895 19.4038 18.1213 19.7856L16.3918 20.7759L16.384 20.7798C15.8409 21.1029 15.1239 20.9164 14.7893 20.354L14.6829 20.1694C14.1746 19.2926 13.4374 18.7427 12.6008 18.7427C11.816 18.7428 11.1217 19.2265 10.6233 20.0103L10.5256 20.1714L10.4202 20.354C10.0856 20.9164 9.36854 21.1029 8.82544 20.7798L8.8186 20.7759L7.08813 19.7856L6.96802 19.7085C6.39403 19.2979 6.21306 18.5082 6.57349 17.8774C7.08044 17.0012 7.19006 16.0909 6.77271 15.3667C6.35499 14.6419 5.51158 14.2799 4.50024 14.2798C3.72824 14.2798 3.10009 13.6457 3.09985 12.8804V11.1196C3.10002 10.3476 3.73478 9.72021 4.50024 9.72021C5.51143 9.72012 6.35488 9.35835 6.77271 8.63525C7.19032 7.91232 7.08067 7.00397 6.57349 6.13232H6.57446C6.21339 5.50045 6.39452 4.70162 6.96802 4.29053L7.08813 4.21436L8.8186 3.22412L8.82544 3.21924C9.37169 2.89435 10.0824 3.08713 10.3958 3.63721L10.3967 3.64014L10.5071 3.83057C11.0152 4.70727 11.7518 5.25712 12.5881 5.25732C13.4248 5.25732 14.1591 4.70741 14.6624 3.83057L14.7698 3.646ZM12.5999 8.24951C10.5339 8.24951 8.85008 9.93356 8.84985 11.9995C8.84985 14.0657 10.5337 15.7495 12.5999 15.7495C14.666 15.7495 16.3499 14.0657 16.3499 11.9995C16.3496 9.93356 14.6659 8.24951 12.5999 8.24951Z" fill="#965036" stroke="#965036"/>
</svg>
