<svg width="25" height="24" viewBox="0 0 25 24" fill="none" xmlns="http://www.w3.org/2000/svg">
<path d="M12.5999 15C14.2567 15 15.5999 13.6569 15.5999 12C15.5999 10.3431 14.2567 9 12.5999 9C10.943 9 9.59985 10.3431 9.59985 12C9.59985 13.6569 10.943 15 12.5999 15Z" stroke="#474747" stroke-width="1.5" stroke-miterlimit="10" stroke-linecap="round" stroke-linejoin="round"/>
<path d="M2.59985 12.8799V11.1199C2.59985 10.0799 3.44985 9.21994 4.49985 9.21994C6.30985 9.21994 7.04985 7.93994 6.13985 6.36994C5.61985 5.46994 5.92985 4.29994 6.83985 3.77994L8.56985 2.78994C9.35985 2.31994 10.3799 2.59994 10.8499 3.38994L10.9599 3.57994C11.8599 5.14994 13.3399 5.14994 14.2499 3.57994L14.3599 3.38994C14.8299 2.59994 15.8499 2.31994 16.6399 2.78994L18.3699 3.77994C19.2799 4.29994 19.5899 5.46994 19.0699 6.36994C18.1599 7.93994 18.8999 9.21994 20.7099 9.21994C21.7499 9.21994 22.6099 10.0699 22.6099 11.1199V12.8799C22.6099 13.9199 21.7599 14.7799 20.7099 14.7799C18.8999 14.7799 18.1599 16.0599 19.0699 17.6299C19.5899 18.5399 19.2799 19.6999 18.3699 20.2199L16.6399 21.2099C15.8499 21.6799 14.8299 21.3999 14.3599 20.6099L14.2499 20.4199C13.3499 18.8499 11.8699 18.8499 10.9599 20.4199L10.8499 20.6099C10.3799 21.3999 9.35985 21.6799 8.56985 21.2099L6.83985 20.2199C5.92985 19.6999 5.61985 18.5299 6.13985 17.6299C7.04985 16.0599 6.30985 14.7799 4.49985 14.7799C3.44985 14.7799 2.59985 13.9199 2.59985 12.8799Z" stroke="#474747" stroke-width="1.5" stroke-miterlimit="10" stroke-linecap="round" stroke-linejoin="round"/>
</svg>
