<svg width="40" height="40" viewBox="0 0 40 40" fill="none" xmlns="http://www.w3.org/2000/svg">
<g clip-path="url(#clip0_108_8325)">
<path d="M35.0591 32.3509C30.0904 38.1609 20.2372 42.1483 11.4941 38.7471C5.22692 36.3092 -0.551971 30.0041 0.042157 23.0809C0.418753 18.6936 3.38301 13.7281 7.82726 11.5505C11.3246 9.83675 14.3357 10.5368 16.2531 7.98815C17.9378 5.74858 16.5596 3.94952 17.9899 2.16475C20.2516 -0.657547 27.268 -0.614143 31.5541 1.67905C40.0416 6.22024 43.694 22.2539 35.0591 32.3509Z" fill="#E6EDFF"/>
<path d="M8.54836 8.63066C8.56606 11.1907 6.5053 13.2519 6.5053 13.2519C6.5053 13.2519 4.41576 11.1622 4.39806 8.60215C4.38036 6.04206 6.44113 3.98096 6.44113 3.98096C6.44113 3.98096 8.53066 6.07049 8.54836 8.63066Z" fill="#ED4848"/>
<path d="M5.75977 8.60215C5.74887 7.02598 6.52555 5.63985 7.12436 4.80649C6.7464 4.28674 6.44113 3.98096 6.44113 3.98096C6.44113 3.98096 4.38036 6.04206 4.39806 8.60215C4.41576 11.1622 6.5053 13.2519 6.5053 13.2519C6.5053 13.2519 6.80998 12.9465 7.18376 12.4263C6.57253 11.5857 5.77074 10.1842 5.75977 8.60215Z" fill="#CC4040"/>
<path d="M6.57555 9.46334C7.87096 11.6716 7.11683 14.4869 7.11683 14.4869C7.11683 14.4869 4.26245 13.722 2.96704 11.5138C1.67164 9.30564 2.42576 6.49023 2.42576 6.49023C2.42576 6.49023 5.28015 7.25517 6.57555 9.46334Z" fill="#E0E0E0"/>
<path d="M4.15853 11.2586C3.24772 9.70589 3.35019 7.8544 3.4913 6.89109C2.87223 6.6104 2.42576 6.49023 2.42576 6.49023C2.42576 6.49023 1.67164 9.30564 2.96704 11.5138C4.26245 13.7221 7.11683 14.4869 7.11683 14.4869C7.11683 14.4869 7.18321 14.2375 7.24279 13.8307C6.29521 13.4011 4.94202 12.5942 4.15853 11.2586Z" fill="#C9C9C9"/>
<path d="M6.19116 9.46334C4.89576 11.6716 5.64989 14.4869 5.64989 14.4869C5.64989 14.4869 8.50427 13.722 9.79967 11.5138C11.0951 9.30564 10.3409 6.49023 10.3409 6.49023C10.3409 6.49023 7.48657 7.25517 6.19116 9.46334Z" fill="#E0E0E0"/>
<path d="M10.3408 6.49023C10.3408 6.49023 9.91372 6.60513 9.31585 6.87279C9.46887 7.71602 9.69976 9.79789 8.69321 11.5138C7.8984 12.8686 6.51755 13.6795 5.56836 14.1044C5.61227 14.3463 5.64981 14.4869 5.64981 14.4869C5.64981 14.4869 8.50419 13.722 9.79959 11.5138C11.0949 9.30564 10.3408 6.49023 10.3408 6.49023Z" fill="#C9C9C9"/>
<path d="M7.95102 11.2099C6.27221 12.8622 6.26123 15.5304 6.26123 15.5304C6.26123 15.5304 8.97221 15.5196 10.651 13.8673C12.3298 12.215 12.3408 9.54688 12.3408 9.54688C12.3408 9.54688 9.62983 9.5576 7.95102 11.2099Z" fill="#ED4848"/>
<path d="M11.2933 9.65428C11.1292 10.5813 10.7228 11.939 9.71485 12.9311C8.70217 13.9278 7.31476 14.3268 6.37246 14.4868C6.26327 15.1037 6.26123 15.5303 6.26123 15.5303C6.26123 15.5303 8.97221 15.5196 10.651 13.8672C12.3298 12.215 12.3407 9.54688 12.3407 9.54688C12.3407 9.54688 11.9131 9.549 11.2933 9.65428Z" fill="#CC4040"/>
<path d="M4.81557 11.2099C6.49438 12.8622 6.50536 15.5304 6.50536 15.5304C6.50536 15.5304 3.79438 15.5196 2.11557 13.8673C0.43676 12.215 0.425781 9.54688 0.425781 9.54688C0.425781 9.54688 3.13676 9.5576 4.81557 11.2099Z" fill="#ED4848"/>
<path d="M3.05174 12.9311C2.04374 11.939 1.63736 10.5813 1.47327 9.65428C0.853356 9.549 0.425781 9.54688 0.425781 9.54688C0.425781 9.54688 0.436675 12.215 2.11548 13.8673C3.79429 15.5196 6.50527 15.5304 6.50527 15.5304C6.50527 15.5304 6.50323 15.1038 6.39404 14.4869C5.45182 14.3268 4.06433 13.9278 3.05174 12.9311Z" fill="#CC4040"/>
<path d="M35.7822 8.63066C35.8 11.1907 33.7392 13.2519 33.7392 13.2519C33.7392 13.2519 31.6497 11.1622 31.6319 8.60215C31.6142 6.04206 33.675 3.98096 33.675 3.98096C33.675 3.98096 35.7645 6.07049 35.7822 8.63066Z" fill="#ED4848"/>
<path d="M32.9937 8.60215C32.9828 7.02598 33.7594 5.63985 34.3582 4.80649C33.9803 4.28674 33.675 3.98096 33.675 3.98096C33.675 3.98096 31.6142 6.04206 31.6319 8.60215C31.6497 11.1622 33.7392 13.2519 33.7392 13.2519C33.7392 13.2519 34.0439 12.9465 34.4177 12.4263C33.8064 11.5857 33.0046 10.1842 32.9937 8.60215Z" fill="#CC4040"/>
<path d="M33.8094 9.46334C35.1048 11.6716 34.3507 14.4869 34.3507 14.4869C34.3507 14.4869 31.4963 13.722 30.2009 11.5138C28.9055 9.30564 29.6597 6.49023 29.6597 6.49023C29.6597 6.49023 32.514 7.25517 33.8094 9.46334Z" fill="#E0E0E0"/>
<path d="M31.3924 11.2586C30.4816 9.70589 30.5841 7.8544 30.7252 6.89109C30.1061 6.6104 29.6597 6.49023 29.6597 6.49023C29.6597 6.49023 28.9055 9.30564 30.2009 11.5138C31.4963 13.7221 34.3507 14.4869 34.3507 14.4869C34.3507 14.4869 34.4171 14.2375 34.4767 13.8307C33.5291 13.4011 32.1759 12.5942 31.3924 11.2586Z" fill="#C9C9C9"/>
<path d="M33.425 9.46334C32.1296 11.6716 32.8838 14.4869 32.8838 14.4869C32.8838 14.4869 35.7382 13.722 37.0336 11.5138C38.329 9.30564 37.5748 6.49023 37.5748 6.49023C37.5748 6.49023 34.7205 7.25517 33.425 9.46334Z" fill="#E0E0E0"/>
<path d="M37.5747 6.49023C37.5747 6.49023 37.1476 6.60513 36.5497 6.87279C36.7028 7.71602 36.9337 9.79789 35.9271 11.5138C35.1323 12.8686 33.7514 13.6795 32.8022 14.1044C32.8462 14.3463 32.8837 14.4869 32.8837 14.4869C32.8837 14.4869 35.7381 13.722 37.0335 11.5138C38.3288 9.30564 37.5747 6.49023 37.5747 6.49023Z" fill="#C9C9C9"/>
<path d="M35.1849 11.2099C33.5061 12.8622 33.4951 15.5304 33.4951 15.5304C33.4951 15.5304 36.2061 15.5196 37.8849 13.8673C39.5638 12.215 39.5747 9.54688 39.5747 9.54688C39.5747 9.54688 36.8637 9.5576 35.1849 11.2099Z" fill="#ED4848"/>
<path d="M38.5272 9.65428C38.3631 10.5813 37.9567 11.939 36.9487 12.9311C35.9361 13.9278 34.5486 14.3268 33.6063 14.4868C33.4972 15.1037 33.4951 15.5303 33.4951 15.5303C33.4951 15.5303 36.2061 15.5196 37.8849 13.8672C39.5637 12.215 39.5746 9.54688 39.5746 9.54688C39.5746 9.54688 39.147 9.549 38.5272 9.65428Z" fill="#CC4040"/>
<path d="M32.0495 11.2099C33.7283 12.8622 33.7392 15.5304 33.7392 15.5304C33.7392 15.5304 31.0283 15.5196 29.3495 13.8673C27.6706 12.215 27.6597 9.54688 27.6597 9.54688C27.6597 9.54688 30.3706 9.5576 32.0495 11.2099Z" fill="#ED4848"/>
<path d="M30.2855 12.931C29.2775 11.939 28.8712 10.5813 28.7071 9.65419C28.0872 9.54892 27.6597 9.54688 27.6597 9.54688C27.6597 9.54688 27.6706 12.215 29.3494 13.8673C31.0282 15.5196 33.7392 15.5304 33.7392 15.5304C33.7392 15.5304 33.7371 15.1038 33.6279 14.4869C32.6856 14.3267 31.2981 13.9277 30.2855 12.931Z" fill="#CC4040"/>
<path d="M14.1494 28.873H25.8332V33.1881H14.1494V28.873Z" fill="#E5A505"/>
<path d="M6.58087 30.8701C6.02572 32.4467 6.94002 34.1611 8.55568 34.573L27.9463 39.517C28.8684 39.7521 29.8176 39.2458 30.1389 38.3476C30.4824 37.3873 29.9866 36.3292 29.0302 35.9816L10.2203 29.1436C8.73959 28.6054 7.1053 29.3806 6.58087 30.8701Z" fill="#FDD2B5"/>
<path d="M28.7974 38.4107L9.40674 33.4667C7.79108 33.0548 6.87679 31.3404 7.43193 29.7638C7.45398 29.7011 7.47874 29.6402 7.5047 29.5801C7.09449 29.9021 6.76734 30.3408 6.58087 30.8702C6.02572 32.4468 6.94002 34.1612 8.55568 34.5731L27.9463 39.5171C28.8684 39.7522 29.8176 39.2459 30.1389 38.3477C30.1547 38.3036 30.1681 38.2591 30.1804 38.2146C29.7754 38.4511 29.2831 38.5345 28.7974 38.4107Z" fill="#F9C19B"/>
<path d="M10.2203 29.1436C8.73959 28.6054 7.1053 29.3806 6.58087 30.8701C6.02572 32.4467 6.94002 34.1611 8.55568 34.573L19.5537 37.3772L21.0477 33.0797L10.2203 29.1436Z" fill="#FCCA3D"/>
<path d="M9.23645 33.3813C7.67874 32.9841 6.77355 31.3764 7.20811 29.8486C6.93704 30.1318 6.71976 30.4754 6.58087 30.8699C6.02572 32.4465 6.94002 34.1609 8.55568 34.5728L19.5537 37.377L19.9896 36.123L9.23645 33.3813Z" fill="#E5A505"/>
<path d="M33.4179 30.8701C33.9731 32.4467 33.0588 34.1611 31.4431 34.573L12.0525 39.517C11.1304 39.7521 10.1812 39.2458 9.8599 38.3476C9.51641 37.3873 10.0122 36.3292 10.9686 35.9816L29.7785 29.1436C31.2592 28.6054 32.8935 29.3806 33.4179 30.8701Z" fill="#FDD2B5"/>
<path d="M33.4178 30.8702C33.2314 30.3407 32.9042 29.9021 32.494 29.5801C32.5199 29.6402 32.5447 29.7011 32.5668 29.7638C33.1219 31.3404 32.2076 33.0548 30.592 33.4667L11.2013 38.4107C10.7156 38.5345 10.2234 38.4511 9.81836 38.2146C9.83061 38.2591 9.84406 38.3036 9.85989 38.3477C10.1812 39.2459 11.1304 39.7522 12.0525 39.5171L31.4431 34.5731C33.0587 34.1612 33.973 32.4468 33.4178 30.8702Z" fill="#F9C19B"/>
<path d="M33.418 30.8701C32.8935 29.3806 31.2593 28.6054 29.7786 29.1436L17.5039 33.6058L19.4135 37.6402L31.4431 34.573C33.0589 34.1611 33.9732 32.4467 33.418 30.8701Z" fill="#FCCA3D"/>
<path d="M33.4179 30.87C33.3219 30.5974 33.1884 30.349 33.0258 30.1279C33.2833 31.5675 32.3954 33.0084 30.9324 33.3814L18.9028 36.4486L19.4135 37.6401L31.4431 34.5729C33.0587 34.161 33.973 32.4466 33.4179 30.87Z" fill="#E5A505"/>
<path d="M15.0929 20.8014L14.6887 15.019C12.4308 15.9162 10.8536 17.9933 10.5913 20.4151L10.1602 24.3951L5.91008 29.3206C5.33808 29.9835 5.39459 30.9804 6.03783 31.5744C6.66557 32.1541 7.63527 32.1481 8.25587 31.5607L12.4396 27.6001C14.2971 25.8485 15.2713 23.3523 15.0929 20.8014Z" fill="#FDD2B5"/>
<path d="M7.18668 29.7461L11.4368 24.8207L11.8679 20.8407C12.0806 18.8766 13.1583 17.1394 14.7625 16.0742L14.6887 15.019C12.4308 15.9162 10.8536 17.9933 10.5913 20.4151L10.1602 24.3951L5.91008 29.3206C5.33808 29.9835 5.39459 30.9804 6.03783 31.5744C6.39408 31.9033 6.86029 32.0432 7.31034 31.9957C6.67127 31.4013 6.61604 30.4075 7.18668 29.7461Z" fill="#F9C19B"/>
<path d="M24.907 20.7516L25.3112 14.9692C27.5692 15.8664 29.1464 17.9435 29.4087 20.3653L29.8397 24.3453L34.0899 29.2708C34.6619 29.9337 34.6053 30.9306 33.9621 31.5246C33.3344 32.1043 32.3647 32.0983 31.7441 31.5109L27.5603 27.5503C25.703 25.7987 24.7287 23.3025 24.907 20.7516Z" fill="#FDD2B5"/>
<path d="M34.0899 29.2708L29.8398 24.3453L29.4087 20.3653C29.1464 17.9436 27.5692 15.8665 25.3113 14.9692L25.2334 16.083C26.9336 17.1359 28.082 18.9267 28.3023 20.961L28.7334 24.941L32.9835 29.8664C33.5034 30.4689 33.5023 31.3463 33.0153 31.9474C33.3575 31.9148 33.6916 31.7743 33.9622 31.5245C34.6054 30.9306 34.6619 29.9336 34.0899 29.2708Z" fill="#F9C19B"/>
<path d="M15.0931 20.8014L14.6889 15.019C12.431 15.9162 10.8538 17.9933 10.5915 20.4151L10.4404 21.81H15.1034C15.1196 21.4758 15.1168 21.1391 15.0931 20.8014Z" fill="#5060A3"/>
<path d="M29.4087 20.3653C29.1464 17.9436 27.5692 15.8665 25.3112 14.9692L24.907 20.7516C24.8823 21.1061 24.8806 21.4594 24.8996 21.8099H29.5652L29.4087 20.3653Z" fill="#5060A3"/>
<path d="M25.8332 28.8728H14.1494L14.1807 15.2444L18.2177 13.0874H21.8395L25.8332 15.2041V28.8728Z" fill="#5C6BC0"/>
<path d="M15.6258 14.4722L14.1807 15.2443L14.1494 28.8727H15.5994L15.6258 14.4722Z" fill="#5060A3"/>
<path d="M19.991 18.9899C18.1401 18.9899 16.7768 17.246 17.2111 15.4339L17.7635 13.129V7.83398H22.2185V13.129L22.7709 15.4338C23.2052 17.2459 21.8419 18.9899 19.991 18.9899Z" fill="#FDD2B5"/>
<path d="M18.5728 15.4338L19.1252 13.129V7.83398H17.7635V13.129L17.2111 15.4338C16.7768 17.2459 18.1401 18.9898 19.991 18.9898C20.2268 18.9898 20.4545 18.9612 20.6718 18.908C19.1837 18.5441 18.1938 17.0151 18.5728 15.4338Z" fill="#F9C19B"/>
<path d="M22.2187 12.6623C21.5971 13.0789 20.8496 13.3221 20.0451 13.3221C19.1934 13.3221 18.4059 13.0489 17.7638 12.5864V13.1287L17.5977 13.8219C18.2677 14.3607 19.1185 14.6838 20.0451 14.6838C20.9304 14.6838 21.7466 14.3892 22.4019 13.8932L22.2187 13.1288V12.6623Z" fill="#F9C19B"/>
<path d="M20.0447 13.3224C17.8856 13.3224 16.1353 11.5721 16.1353 9.41292V3.21973H23.9541V9.41283C23.9541 11.5721 22.2038 13.3224 20.0447 13.3224Z" fill="#FDD2B5"/>
<path d="M23.9542 6.57574C23.9542 6.57574 19.4095 7.47472 16.1353 4.1543V5.43089C19.4094 8.75132 23.9542 7.85234 23.9542 7.85234V6.57574Z" fill="#F9C19B"/>
<path d="M16.9617 2.33457C16.9407 0.738828 18.292 0.384445 19.6481 0.428871C21.5536 0.491253 23.4595 1.25057 24.5998 2.81134C27.3599 6.58913 23.9543 9.68751 23.9543 9.68751V6.57559C23.9543 6.57559 19.4096 7.47457 16.1355 4.15415V9.64793C16.1355 9.64793 15.4514 9.52904 14.7037 7.94802C14.38 7.26342 14.2577 6.49679 14.3494 5.74223C14.512 4.40283 15.0711 2.38427 16.9617 2.33457Z" fill="#616161"/>
<path d="M15.725 8.96938C15.4012 8.28479 15.279 7.51815 15.3707 6.76359C15.4589 6.03687 15.6645 5.11074 16.1355 4.40708V4.15415C16.1706 4.18972 16.206 4.22419 16.2414 4.25883C16.6347 3.74266 17.192 3.3767 17.9829 3.35585C17.9619 1.7601 19.3133 1.40572 20.6694 1.45015C22.0633 1.49576 23.456 1.91627 24.5506 2.7487C23.4053 1.23134 21.5272 0.490402 19.6481 0.428871C18.292 0.384445 16.9406 0.738828 16.9617 2.33457C15.0711 2.38427 14.512 4.40283 14.3494 5.74232C14.2577 6.49687 14.38 7.26351 14.7037 7.9481C15.33 9.27236 15.9114 9.57066 16.0837 9.6327C15.9676 9.44657 15.8472 9.22785 15.725 8.96938Z" fill="#4C4C4C"/>
<path d="M39.5746 40H38.9905C38.7554 40 38.5649 39.8094 38.5649 39.5745C38.5649 39.3395 38.7554 39.1489 38.9905 39.1489H39.5746C39.8097 39.1489 40.0002 39.3395 40.0002 39.5745C40.0002 39.8094 39.8097 40 39.5746 40Z" fill="#333333"/>
<path d="M12.6414 9.24564C12.5488 9.16232 12.4479 9.12079 12.3387 9.12096C12.2867 9.12113 11.7131 9.1276 10.9358 9.28581C11.1056 7.73628 10.7681 6.44173 10.7517 6.38028C10.6611 6.13594 10.4874 6.03552 10.2305 6.07918C10.1718 6.09492 9.4823 6.28539 8.62834 6.73066C8.01566 4.97015 6.7983 3.73645 6.74196 3.67994C6.57583 3.51364 6.30621 3.51356 6.14 3.67986C6.0823 3.73756 4.84051 4.99713 4.26298 6.79901C3.3503 6.30403 2.59456 6.09501 2.53583 6.07918C2.27881 6.03543 2.10502 6.13577 2.01439 6.38028C1.99796 6.44181 1.66017 7.7362 1.82996 9.28581C1.05277 9.12769 0.479322 9.1213 0.427237 9.12105C0.211151 9.12105 -0.00084851 9.33611 2.55384e-06 9.54837C0.000513192 9.66454 0.0321728 12.4139 1.81685 14.1703C4.19958 16.5154 8.56681 16.5151 10.9492 14.1703C12.7338 12.414 12.7655 9.66462 12.766 9.54837C12.7665 9.43475 12.7216 9.32581 12.6414 9.24564ZM6.44187 4.62164C6.83524 5.0956 7.51421 6.02684 7.87702 7.17015C7.36085 7.5082 6.83396 7.93535 6.38136 8.46726C5.9657 7.97952 5.48792 7.57943 5.01345 7.25569C5.34673 6.07432 6.04205 5.1076 6.44187 4.62164ZM2.74664 7.04479C3.464 7.31032 4.91575 7.9653 5.86596 9.17986C5.53183 9.73024 5.30511 10.3367 5.17013 10.9654C4.50085 10.2845 3.62307 9.80896 2.71958 9.5179C2.55924 8.51518 2.65856 7.57467 2.74664 7.04479ZM2.4137 13.5636C1.28298 12.4508 0.97013 10.7979 0.883747 10.0035C1.69039 10.0875 3.38043 10.3944 4.51677 11.5128C5.64783 12.6261 5.9606 14.2797 6.04681 15.0738C5.24179 14.9912 3.55456 14.6863 2.4137 13.5636ZM6.384 12.8761C6.25336 12.5475 6.0909 12.2131 5.89047 11.8884C5.96936 11.0452 6.19234 10.3016 6.55787 9.67858C7.45702 8.14573 9.20817 7.34684 10.0194 7.04547C10.1076 7.57569 10.2067 8.51577 10.0464 9.51798C8.3486 10.0649 7.04749 11.2031 6.384 12.8761ZM10.3523 13.5636C9.28996 14.6091 7.73975 14.945 6.90213 15.0523C6.88545 14.879 6.8589 14.6663 6.81685 14.4255C7.33158 11.7893 9.26894 10.2756 11.8822 10.0034C11.7957 10.7982 11.4828 12.4508 10.3523 13.5636Z" fill="#333333"/>
<path d="M39.8753 9.24556C39.7827 9.16224 39.6818 9.12071 39.5726 9.12088C39.5206 9.12105 38.947 9.12752 38.1697 9.28573C38.3395 7.7362 38.002 6.44164 37.9855 6.3802C37.895 6.13586 37.7213 6.03543 37.4644 6.07909C37.4057 6.09484 36.7162 6.2853 35.8622 6.73058C35.2495 4.97015 34.0322 3.73637 33.9758 3.67994C33.8097 3.51364 33.5401 3.51356 33.3739 3.67986C33.3162 3.73756 32.0744 4.99713 31.4969 6.79901C30.5842 6.30403 29.8284 6.09501 29.7697 6.07918C29.5127 6.03543 29.3389 6.13577 29.2483 6.38028C29.2318 6.44181 28.8941 7.7362 29.0638 9.28581C28.2867 9.12769 27.7132 9.1213 27.6611 9.12105C27.445 9.12105 27.233 9.33611 27.2339 9.54837C27.2344 9.66454 27.2661 12.4139 29.0507 14.1703C31.4335 16.5154 35.8007 16.5151 38.1831 14.1703C39.9677 12.414 39.9994 9.66462 39.9999 9.54837C40.0004 9.43467 39.9555 9.32573 39.8753 9.24556ZM33.6758 4.62156C34.0691 5.09552 34.7481 6.02675 35.1109 7.17007C34.5947 7.50811 34.0678 7.93526 33.6152 8.46718C33.1996 7.97943 32.7218 7.57935 32.2473 7.2556C32.5806 6.07424 33.2759 5.10752 33.6758 4.62156ZM29.9805 7.04471C30.6979 7.31024 32.1496 7.96522 33.0998 9.17977C32.7657 9.73015 32.539 10.3366 32.404 10.9653C31.7347 10.2844 30.857 9.80888 29.9535 9.51781C29.7931 8.51509 29.8924 7.57458 29.9805 7.04471ZM29.6476 13.5635C28.5169 12.4507 28.204 10.7978 28.1176 10.0034C28.9243 10.0874 30.6143 10.3943 31.7507 11.5127C32.8817 12.626 33.1945 14.2796 33.2807 15.0737C32.4757 14.9911 30.7884 14.6862 29.6476 13.5635ZM33.6179 12.876C33.4873 12.5474 33.3248 12.213 33.1244 11.8883C33.2033 11.0451 33.4262 10.3015 33.7918 9.6785C34.6909 8.14564 36.4421 7.34675 37.2533 7.04539C37.3415 7.5756 37.4406 8.51569 37.2803 9.5179C35.5825 10.0648 34.2813 11.203 33.6179 12.876ZM37.5861 13.5635C36.5238 14.609 34.9736 14.9449 34.136 15.0522C34.1193 14.8789 34.0928 14.6662 34.0507 14.4254C34.5655 11.7892 36.5028 10.2755 39.1161 10.0033C39.0296 10.7981 38.7167 12.4508 37.5861 13.5635Z" fill="#333333"/>
<path d="M37.118 39.1487H30.1728C30.3263 38.956 30.4519 38.7358 30.5396 38.4907C30.9591 37.3176 30.3534 36.0183 29.189 35.5867L31.5484 34.9856C32.8947 34.6422 33.9043 33.4197 33.9956 32.0338C35.0013 31.3706 35.2023 29.9084 34.4118 28.9924L30.2483 24.1673L29.8316 20.3192C29.5752 17.9519 28.1568 15.9012 26.0363 14.8304C26.035 14.8296 26.0338 14.8287 26.0324 14.8279L22.6441 13.0322V12.8771C23.5756 12.1763 24.2179 11.1107 24.3528 9.89313C26.3611 7.84998 26.6403 4.88274 24.9434 2.56028C23.8095 1.00819 21.8845 0.0762765 19.662 0.00351054C18.3214 -0.0400639 16.7509 0.376957 16.5569 1.94555C15.1218 2.17849 14.1941 3.49091 13.927 5.69092C13.7521 7.13015 14.3877 9.18002 15.7435 9.94215C15.8843 11.0917 16.4775 12.1023 17.338 12.793V13.0747C17.338 13.0747 13.9621 14.88 13.9533 14.8856C11.8382 15.9577 10.4242 18.0042 10.1681 20.3688L9.7514 24.217L5.58783 29.0421C4.80008 29.9549 4.99668 31.4216 6.00664 32.0853C6.11779 33.4492 7.12128 34.6467 8.45038 34.9856L10.8098 35.5867C9.64545 36.0184 9.03974 37.3176 9.45923 38.4907C9.54689 38.7358 9.67243 38.956 9.82596 39.1487H0.425532C0.190468 39.1487 0 39.3393 0 39.5742C0 39.8092 0.190468 39.9998 0.425532 39.9998H37.118C37.353 39.9998 37.5435 39.8092 37.5435 39.5742C37.5435 39.3393 37.3529 39.1487 37.118 39.1487ZM26.2585 15.9408C27.7823 16.9407 28.7855 18.5661 28.9854 20.4107L29.0907 21.3844H26.2585V15.9408ZM26.2585 22.2354H29.183L29.4164 24.3907C29.4257 24.4766 29.4609 24.5576 29.5174 24.623L33.7675 29.5484C34.1918 30.0403 34.1505 30.7708 33.6734 31.2116C33.2117 31.6378 32.4928 31.6335 32.0365 31.2015L27.8523 27.2404C27.2086 26.6335 26.6737 25.9286 26.2586 25.1457V22.2354H26.2585ZM26.2585 26.7308C26.9279 27.6212 27.7933 28.3565 28.5991 29.1194L26.2585 29.9703V26.7308ZM29.2903 29.7737L31.4513 31.8195C31.8997 32.2439 32.5078 32.4226 33.0919 32.3582C32.8957 33.2199 32.1945 33.9416 31.338 34.1604L19.648 37.141L18.0884 33.8462L29.2903 29.7737ZM15.974 3.76045C15.8142 3.82598 15.7099 3.98147 15.7099 4.15415V8.78921C15.0362 7.97041 14.6426 6.85602 14.7718 5.79364C14.9371 4.43185 15.4533 2.80002 16.9728 2.76002C17.2054 2.75389 17.39 2.56189 17.3871 2.32913C17.3705 1.06206 18.6089 0.820106 19.634 0.854319C21.5931 0.918404 23.2777 1.72326 24.2561 3.06249C25.9593 5.39372 25.1231 7.42751 24.3798 8.52121V6.57568C24.342 6.27696 24.1728 6.13772 23.8723 6.15815C23.8288 6.16649 19.506 6.96649 16.4384 3.85551C16.3172 3.73245 16.1338 3.69491 15.974 3.76045ZM16.561 9.41262V5.11406C19.2106 7.26019 22.3217 7.19185 23.5288 7.06479V9.41253C23.5288 11.3336 21.966 12.8964 20.0448 12.8964C18.1237 12.8964 16.561 11.3336 16.561 9.41262ZM21.8961 17.6374C20.3102 19.6483 17.0395 17.9747 17.6248 15.5328L18.1569 13.3132C19.2992 13.8688 20.6802 13.886 21.836 13.3591L22.3571 15.5328C22.5346 16.2736 22.3666 17.0408 21.8961 17.6374ZM14.6053 15.4997L17.0738 14.1808L16.7973 15.3344C16.3106 17.3653 17.9035 19.4152 19.991 19.4152C22.0803 19.4152 23.6712 17.3644 23.1847 15.3344L22.8957 14.1288L25.4073 15.4599V28.4471H14.5757L14.6053 15.4997ZM14.5746 29.2981H25.4074V30.2796L19.9993 32.2456L14.5746 30.2736V29.2981ZM11.0141 20.4604C11.2146 18.6099 12.2223 16.9816 13.7531 15.9825L13.7407 21.3902H10.9134L11.0141 20.4604ZM6.32638 31.2612C5.84911 30.8204 5.80766 30.0899 6.23208 29.5981L10.4822 24.6726C10.5386 24.6073 10.5738 24.5262 10.5831 24.4404L10.822 22.2354H13.7388L13.732 25.2131C13.3182 25.9887 12.7863 26.6876 12.1469 27.2907L7.96306 31.2512C7.50672 31.683 6.78791 31.6874 6.32638 31.2612ZM13.7283 26.7973L13.7236 29.9643L11.4381 29.1335C12.2268 28.3868 13.0711 27.667 13.7283 26.7973ZM8.66068 34.1604C7.82425 33.9422 7.13047 33.2495 6.91991 32.4095C7.50026 32.4701 8.10306 32.2907 8.54825 31.8692L10.747 29.7878L18.7539 32.6985L12.2294 35.0703L8.66068 34.1604ZM10.2607 38.2041C9.99668 37.466 10.3795 36.6483 11.114 36.3813L17.2849 34.138L18.8077 37.3553L11.9474 39.1045C11.2345 39.2862 10.5092 38.8992 10.2607 38.2041ZM15.2188 39.1487L19.9993 37.9298L24.7798 39.1487H15.2188ZM29.7381 38.2041C29.4894 38.8992 28.7644 39.2864 28.0513 39.1045L21.7218 37.4906L27.7254 35.9599L28.8848 36.3813C29.6191 36.6483 30.002 37.4661 29.7381 38.2041Z" fill="#333333"/>
</g>
<defs>
<clipPath id="clip0_108_8325">
<rect width="40" height="40" fill="white"/>
</clipPath>
</defs>
</svg>
