<svg width="20" height="20" viewBox="0 0 20 20" fill="none" xmlns="http://www.w3.org/2000/svg">
<path d="M14.1333 5.1416C15.8 6.29993 16.95 8.1416 17.1833 10.2666" stroke="black" stroke-linecap="round" stroke-linejoin="round"/>
<path d="M2.90845 10.3083C3.12511 8.19168 4.25845 6.35002 5.90845 5.18335" stroke="black" stroke-linecap="round" stroke-linejoin="round"/>
<path d="M6.82495 17.45C7.79162 17.9416 8.89162 18.2166 10.05 18.2166C11.1666 18.2166 12.2166 17.9666 13.1583 17.5083" stroke="black" stroke-linecap="round" stroke-linejoin="round"/>
<path d="M10.0501 6.41678C11.3295 6.41678 12.3667 5.37957 12.3667 4.10011C12.3667 2.82065 11.3295 1.78345 10.0501 1.78345C8.77061 1.78345 7.7334 2.82065 7.7334 4.10011C7.7334 5.37957 8.77061 6.41678 10.0501 6.41678Z" stroke="black" stroke-linecap="round" stroke-linejoin="round"/>
<path d="M4.02492 16.5999C5.30438 16.5999 6.34159 15.5627 6.34159 14.2832C6.34159 13.0038 5.30438 11.9666 4.02492 11.9666C2.74546 11.9666 1.70825 13.0038 1.70825 14.2832C1.70825 15.5627 2.74546 16.5999 4.02492 16.5999Z" stroke="black" stroke-linecap="round" stroke-linejoin="round"/>
<path d="M15.9751 16.5999C17.2546 16.5999 18.2918 15.5627 18.2918 14.2832C18.2918 13.0038 17.2546 11.9666 15.9751 11.9666C14.6957 11.9666 13.6584 13.0038 13.6584 14.2832C13.6584 15.5627 14.6957 16.5999 15.9751 16.5999Z" stroke="black" stroke-linecap="round" stroke-linejoin="round"/>
</svg>
