<svg width="16" height="16" viewBox="0 0 16 16" fill="none" xmlns="http://www.w3.org/2000/svg">
<path d="M11.8605 9.29422C9.57793 9.29422 7.72095 7.43724 7.72095 5.15468C7.72095 2.87212 9.57793 1.01514 11.8605 1.01514C14.143 1.01514 16 2.87212 16 5.15468C16 7.43724 14.143 9.29422 11.8605 9.29422Z" fill="#4C4CFF"/>
<path d="M12.9881 10.5966C12.8839 10.4573 12.7109 10.3874 12.5393 10.4145C10.3626 10.761 8.19087 9.8804 6.87187 8.11768C5.55284 6.35498 5.32112 4.02325 6.26715 2.03246C6.34182 1.87534 6.32332 1.68983 6.2191 1.55055C6.11488 1.41128 5.94242 1.34155 5.77034 1.36851C4.68063 1.54171 3.63528 1.98447 2.74723 2.64898C1.2823 3.74517 0.331954 5.34615 0.0712413 7.15712C-0.189472 8.96808 0.270533 10.7721 1.36671 12.237C2.46287 13.7019 4.06388 14.6523 5.87485 14.9131C6.47953 15.0001 7.08344 15.0068 7.67425 14.9363C8.85276 14.7956 9.97905 14.3477 10.9548 13.6176C11.8429 12.9531 12.5626 12.075 13.0361 11.0785C13.1108 10.9214 13.0923 10.7358 12.9881 10.5966Z" fill="#FFDC00"/>
<path fill-rule="evenodd" clip-rule="evenodd" d="M15.0292 4.69286C14.9517 4.15816 14.7416 3.66585 14.4334 3.2504C14.352 3.30892 14.2563 3.33869 14.1605 3.33869C14.0405 3.33869 13.9206 3.29295 13.8291 3.20144C13.6637 3.03599 13.6483 2.77787 13.782 2.59457C13.3674 2.28262 12.8751 2.06886 12.3397 1.98817C12.3082 2.21645 12.1129 2.39244 11.876 2.39244C11.6376 2.39244 11.4412 2.21426 11.4116 1.98389C10.8731 2.05974 10.3771 2.26994 9.9589 2.57961C10.1046 2.76356 10.0928 3.03149 9.92288 3.20144C9.83137 3.29295 9.7114 3.33872 9.5915 3.33872C9.48759 3.33872 9.3838 3.30423 9.29835 3.23556C8.98497 3.65289 8.77115 4.14901 8.69214 4.6883C8.92892 4.71186 9.11384 4.91159 9.11384 5.15456C9.11384 5.39752 8.92892 5.59725 8.69214 5.62081C8.77115 6.16014 8.98497 6.65623 9.29835 7.07355C9.48237 6.92559 9.75208 6.93687 9.92285 7.10767C10.0928 7.27766 10.1047 7.54559 9.9589 7.72954C10.3771 8.03918 10.8731 8.2494 11.4116 8.32526C11.4412 8.09488 11.6376 7.91671 11.876 7.91671C12.1129 7.91671 12.3082 8.09269 12.3397 8.32098C12.8751 8.24028 13.3674 8.02652 13.782 7.71454C13.6483 7.53125 13.6637 7.27313 13.8291 7.10767C13.9938 6.94306 14.2502 6.92703 14.4334 7.05871C14.7416 6.64329 14.9517 6.15095 15.0292 5.61625C14.8074 5.57923 14.6381 5.3869 14.6381 5.15456C14.6381 4.92221 14.8074 4.72989 15.0292 4.69286Z" fill="#EBE5F1"/>
<path d="M11.1262 6.42002C11.0126 6.42002 10.8989 6.37903 10.8088 6.29599C10.6184 6.1206 10.6063 5.82411 10.7817 5.63382L11.3919 4.97171V3.65515C11.3919 3.39634 11.6017 3.18652 11.8605 3.18652C12.1193 3.18652 12.3291 3.39634 12.3291 3.65515V5.15473C12.3291 5.27241 12.2849 5.38579 12.2051 5.4723L11.4709 6.26897C11.3786 6.36922 11.2526 6.42002 11.1262 6.42002Z" fill="#00347B"/>
<path d="M12.988 10.5965C12.8838 10.4572 12.7108 10.3873 12.5392 10.4144C10.3624 10.761 8.19077 9.88033 6.87177 8.1176C6.67757 7.85807 6.50761 7.58596 6.36084 7.30469V14.9656C6.80241 14.9979 7.24183 14.9879 7.67421 14.9363C8.85272 14.7956 9.97902 14.3476 10.9548 13.6175C11.8428 12.953 12.5625 12.075 13.0361 11.0784C13.1107 10.9213 13.0922 10.7357 12.988 10.5965Z" fill="#FFBB17"/>
</svg>
