<svg width="20" height="20" viewBox="0 0 20 20" fill="none" xmlns="http://www.w3.org/2000/svg">
<path d="M13.9166 15.8166H6.08326C5.73326 15.8166 5.34159 15.5416 5.22492 15.2082L1.77492 5.55822C1.28326 4.17489 1.85826 3.74989 3.04159 4.59989L6.29159 6.92489C6.83326 7.29989 7.44992 7.10822 7.68326 6.49989L9.14992 2.59155C9.61659 1.34155 10.3916 1.34155 10.8583 2.59155L12.3249 6.49989C12.5583 7.10822 13.1749 7.29989 13.7083 6.92489L16.7583 4.74989C18.0583 3.81655 18.6833 4.29155 18.1499 5.79989L14.7833 15.2249C14.6583 15.5416 14.2666 15.8166 13.9166 15.8166Z" stroke="black" stroke-linecap="round" stroke-linejoin="round"/>
<path d="M5.41675 18.3333H14.5834" stroke="black" stroke-linecap="round" stroke-linejoin="round"/>
<path d="M7.91675 11.6667H12.0834" stroke="black" stroke-linecap="round" stroke-linejoin="round"/>
</svg>
