<svg width="28" height="28" viewBox="0 0 28 28" fill="none" xmlns="http://www.w3.org/2000/svg">
<path d="M5.98155 17.1862C5.9815 17.1821 5.98101 17.1781 5.98101 17.1739C5.98101 16.4777 6.54538 15.9133 7.24166 15.9133C7.37193 15.9133 7.49755 15.9331 7.61573 15.9697C7.55552 15.8226 7.52177 15.6619 7.52177 15.4931C7.52177 15.1074 7.69513 14.7624 7.96797 14.5312C7.61256 14.2471 7.1622 14.0769 6.67188 14.0769C5.52415 14.0769 4.59375 15.0073 4.59375 16.155C4.59375 16.3445 4.61962 16.5279 4.66714 16.7024C5.16731 16.7068 5.62516 16.8877 5.98155 17.1862Z" fill="#FB2B3A"/>
<path d="M5.94442 17.1561C5.7808 16.8592 5.6875 16.518 5.6875 16.155C5.6875 15.1966 6.33642 14.3903 7.21875 14.1501C7.04446 14.1027 6.8612 14.0769 6.67188 14.0769C5.52415 14.0769 4.59375 15.0073 4.59375 16.155C4.59375 16.3445 4.61962 16.5279 4.66714 16.7024C5.15014 16.7067 5.59355 16.8758 5.94442 17.1561Z" fill="#E41F2D"/>
<path d="M5.09737 19.8303C4.99155 19.6461 4.93046 19.4329 4.93046 19.205C4.93046 18.5088 5.49484 17.9443 6.19112 17.9443C6.21015 17.9443 6.22863 17.9464 6.24745 17.9472C6.08338 17.7366 5.98429 17.4732 5.9815 17.1862C5.62067 16.884 5.15588 16.7019 4.64844 16.7019C3.50071 16.7019 2.57031 17.6323 2.57031 18.78C2.57031 19.1633 2.67449 19.522 2.85545 19.8302H5.09737V19.8303Z" fill="#FB2B3A"/>
<path d="M5.09737 19.8303C4.99155 19.6461 4.93046 19.4329 4.93046 19.205C4.93046 18.5088 5.49484 17.9443 6.19112 17.9443C6.21015 17.9443 6.22863 17.9464 6.24745 17.9472C6.08338 17.7366 5.98429 17.4732 5.9815 17.1862C5.62067 16.884 5.15588 16.7019 4.64844 16.7019C3.50071 16.7019 2.57031 17.6323 2.57031 18.78C2.57031 19.1633 2.67449 19.522 2.85545 19.8302H5.09737V19.8303Z" fill="#FB2B3A"/>
<path d="M5.24322 16.7889C5.05477 16.7326 4.85527 16.7019 4.64844 16.7019C3.50071 16.7019 2.57031 17.6323 2.57031 18.78C2.57031 19.1633 2.67449 19.522 2.85545 19.8302H4.04551C3.86455 19.522 3.76037 19.1633 3.76037 18.78C3.76037 17.8392 4.38566 17.0449 5.24322 16.7889Z" fill="#E41F2D"/>
<path d="M18.342 14.0092C18.4073 14.1589 18.4444 14.3239 18.4465 14.4973C18.6598 14.3319 18.9268 14.2324 19.2176 14.2324C19.9139 14.2324 20.4783 14.7968 20.4783 15.493C20.4783 15.5575 20.4733 15.6208 20.4639 15.6826C20.6834 15.6387 20.9347 15.6945 21.1852 15.8313C21.1953 15.826 21.2058 15.8211 21.2155 15.8155C21.2182 15.817 21.221 15.8183 21.2236 15.8198C21.3322 15.0005 21.7703 14.3875 22.2945 14.3875C22.6846 14.3875 23.0268 14.7272 23.2214 15.2383C23.2715 15.1766 23.3251 15.1164 23.3831 15.0584C23.6739 14.7677 24.0175 14.5752 24.3596 14.4875C24.3559 14.4534 24.35 14.4196 24.341 14.3862C24.2609 14.0871 23.9819 13.8727 23.5983 13.769C24.1146 13.1077 24.2448 12.3521 23.8701 11.9774C23.5942 11.7015 23.1119 11.6997 22.6128 11.9238C22.6212 11.8435 22.626 11.7618 22.626 11.6787C22.626 10.6785 21.9945 9.86768 21.2155 9.86768C20.4365 9.86768 19.805 10.6785 19.805 11.6787C19.805 11.7606 19.8096 11.8411 19.8178 11.9202C19.3188 11.6963 18.8367 11.6982 18.5608 11.974C18.1856 12.3493 18.3167 13.1064 18.8349 13.7684C18.6393 13.821 18.471 13.9025 18.342 14.0092Z" fill="#68CA44"/>
<path d="M20.3843 15.9696C20.5025 15.9329 20.6281 15.9131 20.7583 15.9131C21.4546 15.9131 22.019 16.4776 22.019 17.1738C22.019 17.4655 21.9189 17.7334 21.7526 17.947C21.7714 17.9462 21.7899 17.9442 21.8089 17.9442C22.5051 17.9442 23.0695 18.5086 23.0695 19.2048C23.0695 19.4327 23.0085 19.6459 22.9026 19.8301H24.7682C24.7707 19.6372 24.7071 19.4272 24.5873 19.2187C25.42 19.1162 26.0463 18.674 26.0463 18.144C26.0463 17.7539 25.7066 17.4116 25.1952 17.217C25.2579 17.1663 25.3191 17.1119 25.3778 17.0531C26.0851 16.3459 26.2119 15.326 25.661 14.7752C25.1102 14.2244 24.0903 14.3511 23.3831 15.0584C23.3252 15.1163 23.2715 15.1765 23.2214 15.2382C23.0269 14.7271 22.6847 14.3875 22.2946 14.3875C21.7639 14.3875 21.3212 15.0155 21.2195 15.8501C20.9578 15.6992 20.6935 15.6365 20.4638 15.6825C20.4485 15.7825 20.4215 15.8787 20.3843 15.9696Z" fill="#80D261"/>
<path d="M21.3712 3.89169C21.4589 4.07145 21.4814 4.24382 21.4247 4.39558C21.2178 4.94858 20.0418 5.01968 18.7982 4.55439C17.5545 4.08911 16.714 3.26366 16.9209 2.71066C16.9953 2.51187 17.1953 2.37575 17.4782 2.304C15.514 1.9336 13.8902 2.26939 13.527 3.24003C13.0603 4.48773 14.853 6.31145 17.5312 7.31338C20.2094 8.31531 22.7589 8.11614 23.2257 6.86844C23.5513 5.99831 22.7776 4.84807 21.3712 3.89169Z" fill="white"/>
<path d="M15.2224 3.98362C15.4287 3.43204 16.0429 3.08609 16.8946 2.95768C16.8842 2.87122 16.8919 2.78821 16.9209 2.71066C16.9953 2.51187 17.1953 2.37575 17.4782 2.304C15.514 1.9336 13.8902 2.26939 13.527 3.24003C13.0603 4.48773 14.853 6.31145 17.5312 7.31338C17.6309 7.35067 17.7304 7.38578 17.8297 7.4198C15.9584 6.3949 14.8426 4.99868 15.2224 3.98362Z" fill="#EAF6FF"/>
<path d="M21.4195 4.38565C21.6261 3.8324 20.785 3.00715 19.5408 2.5424C18.2966 2.07764 17.1204 2.14937 16.9137 2.70261C16.7071 3.25585 17.5482 4.08111 18.7924 4.54586C20.0366 5.01062 21.2128 4.93889 21.4195 4.38565Z" fill="#FDB441"/>
<path d="M22.8688 19.8848C22.9953 19.6886 23.0696 19.4557 23.0696 19.2048C23.0696 18.5086 22.5052 17.9441 21.809 17.9441C21.7899 17.9441 21.7714 17.9462 21.7526 17.947C21.919 17.7334 22.0191 17.4655 22.0191 17.1737C22.0191 16.4775 21.4547 15.9131 20.7584 15.9131C20.6281 15.9131 20.5025 15.9329 20.3843 15.9696C20.4446 15.8225 20.4783 15.6617 20.4783 15.4929C20.4783 14.7967 19.9139 14.2323 19.2176 14.2323C18.9268 14.2323 18.6598 14.3317 18.4465 14.4972C18.4382 13.8081 17.8777 13.2518 17.1866 13.2518C16.8131 13.2518 16.4786 13.4152 16.2477 13.6733C16.0568 13.2199 15.6084 12.9016 15.0856 12.9016C14.6227 12.9016 14.2193 13.1518 14 13.5236C13.7808 13.1518 13.3773 12.9016 12.9145 12.9016C12.3917 12.9016 11.9433 13.2199 11.7523 13.6733C11.5215 13.4152 11.1869 13.2518 10.8134 13.2518C10.1223 13.2518 9.56185 13.8081 9.55354 14.4972C9.34026 14.3317 9.07322 14.2323 8.78239 14.2323C8.08616 14.2323 7.52173 14.7966 7.52173 15.4929C7.52173 15.6617 7.55547 15.8225 7.61569 15.9696C7.49751 15.9329 7.37189 15.9131 7.24162 15.9131C6.5454 15.9131 5.98097 16.4775 5.98097 17.1737C5.98097 17.4655 6.08104 17.7334 6.2474 17.947C6.22859 17.9462 6.21011 17.9441 6.19108 17.9441C5.49485 17.9441 4.93042 18.5086 4.93042 19.2048C4.93042 19.4557 5.00474 19.6886 5.13123 19.8848H22.8688Z" fill="#EA9B58"/>
<path d="M6.85416 19.8301C7.39437 16.8173 10.8895 14.4922 15.1212 14.4922C17.1305 14.4922 18.9738 15.0165 20.4136 15.8897C20.4552 15.7649 20.4783 15.6317 20.4783 15.4929C20.4783 14.7967 19.9139 14.2323 19.2176 14.2323C18.9268 14.2323 18.6598 14.3317 18.4465 14.4972C18.4382 13.8081 17.8777 13.2518 17.1866 13.2518C16.8131 13.2518 16.4786 13.4152 16.2477 13.6733C16.0568 13.2199 15.6084 12.9016 15.0856 12.9016C14.6227 12.9016 14.2193 13.1518 14 13.5236C13.7808 13.1518 13.3773 12.9016 12.9145 12.9016C12.3917 12.9016 11.9433 13.2199 11.7523 13.6733C11.5215 13.4152 11.1869 13.2518 10.8134 13.2518C10.1223 13.2518 9.56185 13.8081 9.55354 14.4972C9.34026 14.3317 9.07322 14.2323 8.78239 14.2323C8.08616 14.2323 7.52173 14.7966 7.52173 15.4929C7.52173 15.6617 7.55547 15.8225 7.61569 15.9696C7.49751 15.9329 7.37189 15.9131 7.24162 15.9131C6.5454 15.9131 5.98097 16.4775 5.98097 17.1737C5.98097 17.4655 6.08104 17.7334 6.2474 17.947C6.22859 17.9462 6.21011 17.9441 6.19108 17.9441C5.49485 17.9441 4.93042 18.5086 4.93042 19.2048C4.93042 19.4327 4.99151 19.6458 5.09733 19.8301H6.85416V19.8301Z" fill="#D88A55"/>
<path d="M3.46606 21.6343C4.57403 23.3873 6.35171 24.8261 8.53242 25.7368C8.70048 25.807 8.88078 25.8435 9.06289 25.8435H18.9372C19.1193 25.8435 19.2996 25.807 19.4676 25.7368C21.6483 24.8261 23.4261 23.3873 24.534 21.6343H3.46606Z" fill="#D8ECFE"/>
<path d="M6.75798 21.6343H3.46606C4.57403 23.3873 6.35171 24.8261 8.53242 25.7368C8.70048 25.807 8.88078 25.8435 9.06289 25.8435H12.3549C12.1728 25.8435 11.9924 25.807 11.8244 25.7368C9.64362 24.8261 7.86595 23.3873 6.75798 21.6343Z" fill="#C4E2FF"/>
<path d="M26.7695 21.6343H1.23047C0.777437 21.6343 0.410156 21.267 0.410156 20.814V20.6506C0.410156 20.1976 0.777437 19.8303 1.23047 19.8303H26.7695C27.2226 19.8303 27.5898 20.1976 27.5898 20.6506V20.814C27.5898 21.267 27.2226 21.6343 26.7695 21.6343Z" fill="#EAF6FF"/>
<path d="M2.73438 20.814V20.6506C2.73438 20.1976 3.10166 19.8303 3.55469 19.8303H1.23047C0.777437 19.8303 0.410156 20.1976 0.410156 20.6506V20.814C0.410156 21.267 0.777437 21.6343 1.23047 21.6343H3.55469C3.10166 21.6343 2.73438 21.267 2.73438 20.814Z" fill="#D8ECFE"/>
<path d="M6.00413 11.0258C6.5655 11.5871 7.4324 11.6568 8.06962 11.2347C8.21389 11.1392 8.2345 10.9352 8.11211 10.8128L6.21708 8.91777C6.09475 8.79543 5.89076 8.816 5.79517 8.96026C5.37309 9.59748 5.44271 10.4644 6.00413 11.0258Z" fill="#FE9901"/>
<path d="M11.2535 7.25952C11.3869 7.22375 11.4753 7.09376 11.4536 6.95742C11.3888 6.55137 11.2 6.16134 10.8871 5.84836C10.5741 5.53539 10.184 5.34666 9.77799 5.28185C9.6416 5.26009 9.51161 5.34852 9.4759 5.4819L8.94784 7.45267C8.89337 7.656 9.07942 7.84205 9.28274 7.78758L11.2535 7.25952Z" fill="#FB2B3A"/>
<path d="M5.6726 3.07565C5.63684 2.94227 5.50685 2.85384 5.37051 2.8756C4.96446 2.94041 4.57442 3.12914 4.26145 3.44211C3.94847 3.75509 3.75975 4.14512 3.69494 4.55117C3.67317 4.68757 3.7616 4.81756 3.89499 4.85327L5.86576 5.38139C6.06909 5.43585 6.25514 5.24981 6.20067 5.04648L5.6726 3.07565Z" fill="#68CA44"/>
<path d="M17.3874 7.69767C18.2321 8.01371 19.1067 8.22721 19.9166 8.31515C19.9316 8.31679 19.9466 8.31756 19.9613 8.31756C20.168 8.31756 20.3458 8.16181 20.3686 7.95164C20.393 7.72644 20.2303 7.52404 20.0051 7.49959C19.2623 7.41893 18.4564 7.22173 17.6748 6.92931C15.0435 5.94488 13.5793 4.27068 13.9111 3.38381C14.0754 2.94473 14.6826 2.65281 15.5769 2.58292C15.8764 2.55956 16.196 2.5623 16.529 2.5886C16.4411 2.84394 16.4024 3.34351 17.0282 3.95809C17.4228 4.34566 18.0003 4.69391 18.6544 4.93858C19.235 5.1558 19.8237 5.2719 20.3347 5.2719C20.3995 5.2719 20.4629 5.27004 20.525 5.26627C21.2664 5.22142 21.5941 4.926 21.7386 4.68456C22.6244 5.43755 23.0332 6.21247 22.8415 6.72478C22.6903 7.12887 22.2076 7.32749 21.8293 7.42287C21.6097 7.47827 21.4765 7.70123 21.5319 7.92091C21.5874 8.14059 21.8105 8.27342 22.0299 8.2183C22.8453 8.01262 23.3915 7.59557 23.6099 7.01222C23.8947 6.25092 23.57 5.34174 22.6955 4.45213C22.4065 4.15813 22.0662 3.87573 21.6864 3.61077C21.6024 3.46628 21.4834 3.31135 21.3174 3.14822C20.9227 2.76065 20.3452 2.4124 19.6911 2.16773C19.037 1.923 18.3725 1.80663 17.8206 1.84004C17.6906 1.84792 17.5738 1.86367 17.468 1.88527C16.7759 1.76096 16.1117 1.71825 15.513 1.76512C14.2694 1.86224 13.4276 2.33507 13.1428 3.09638C12.858 3.85768 13.1827 4.76686 14.0572 5.65646C14.8545 6.4677 16.0373 7.19252 17.3874 7.69767ZM21.0405 4.25198C20.9735 4.43102 20.155 4.62418 18.9418 4.17038C17.7286 3.71648 17.238 3.03354 17.3049 2.85449C17.3412 2.75737 17.5984 2.65614 18.0198 2.65614C18.3755 2.65614 18.8482 2.72833 19.4036 2.93609C19.9445 3.13849 20.4325 3.42915 20.7425 3.73354C21.0065 3.99276 21.0653 4.18564 21.0405 4.25198Z" fill="black"/>
<path d="M10.2345 16.3714C10.374 16.5499 10.6318 16.5814 10.8102 16.442C10.9887 16.3025 11.0202 16.0447 10.8806 15.8662C10.6414 15.5603 10.2818 15.3848 9.8937 15.3848C9.20316 15.3848 8.64136 15.9466 8.64136 16.6371C8.64136 16.8636 8.82494 17.0473 9.05151 17.0473C9.27808 17.0473 9.46167 16.8636 9.46167 16.6371C9.46167 16.3989 9.65548 16.2051 9.8937 16.2051C10.0276 16.2051 10.1518 16.2657 10.2345 16.3714Z" fill="black"/>
<path d="M12.8802 15.794C13.0587 15.9335 13.3165 15.902 13.456 15.7235C13.5386 15.6178 13.6627 15.5571 13.7966 15.5571C14.0348 15.5571 14.2286 15.7509 14.2286 15.9891C14.2286 16.2156 14.4122 16.3993 14.6388 16.3993C14.8654 16.3993 15.049 16.2156 15.049 15.9891C15.049 15.2986 14.4872 14.7368 13.7966 14.7368C13.4086 14.7368 13.0488 14.9123 12.8096 15.2183C12.6702 15.3968 12.7018 15.6545 12.8802 15.794Z" fill="black"/>
<path d="M17.2291 17.42C17.2713 17.4337 17.314 17.4402 17.356 17.4402C17.5288 17.4402 17.6897 17.33 17.7459 17.1567C17.7874 17.0291 17.8833 16.9297 18.0092 16.8839C18.1175 16.8443 18.235 16.8495 18.3395 16.8983C18.444 16.947 18.5234 17.0336 18.5629 17.1421C18.6404 17.3549 18.8757 17.4645 19.0886 17.3871C19.3015 17.3096 19.4112 17.0742 19.3336 16.8613C19.2192 16.547 18.9892 16.2961 18.686 16.1548C18.3828 16.0135 18.0427 15.9987 17.7284 16.1131C17.3637 16.2459 17.0857 16.5339 16.9657 16.9032C16.8958 17.1186 17.0137 17.35 17.2291 17.42Z" fill="black"/>
<path d="M11.5217 18.7134C11.5639 18.7271 11.6066 18.7337 11.6487 18.7337C11.8215 18.7337 11.9823 18.6235 12.0386 18.4502C12.0802 18.3226 12.1761 18.2231 12.3019 18.1773C12.4104 18.1379 12.5277 18.143 12.6323 18.1917C12.7368 18.2405 12.8161 18.327 12.8556 18.4355C12.9331 18.6483 13.1684 18.7582 13.3813 18.6806C13.5942 18.6031 13.7039 18.3677 13.6264 18.1549C13.512 17.8405 13.282 17.5896 12.9788 17.4483C12.6756 17.3069 12.3355 17.2921 12.0211 17.4065C11.6565 17.5393 11.3786 17.8272 11.2585 18.1966C11.1885 18.412 11.3063 18.6434 11.5217 18.7134Z" fill="black"/>
<path d="M26.7695 19.4201H25.4291C26.0591 19.1538 26.4564 18.6838 26.4564 18.1441C26.4564 17.7492 26.2452 17.3872 25.8716 17.1155C26.1607 16.7539 26.3451 16.3333 26.3983 15.9061C26.4677 15.3476 26.3088 14.843 25.9511 14.4852C25.6084 14.1425 25.1324 13.995 24.6343 14.0314C24.5369 13.8582 24.3921 13.7078 24.2063 13.5893C24.6012 12.8629 24.5965 12.1237 24.1602 11.6873C23.8809 11.4081 23.4752 11.3015 23.0191 11.3737C22.8969 10.2927 22.1347 9.45752 21.2156 9.45752C20.2974 9.45752 19.5358 10.291 19.4124 11.3703C18.9559 11.298 18.5503 11.4046 18.2709 11.684C17.94 12.0149 17.8578 12.5197 18.0092 13.061C17.7658 12.9219 17.485 12.8417 17.1867 12.8417C16.8901 12.8417 16.6014 12.9215 16.3491 13.0682C16.0374 12.7077 15.5801 12.4916 15.0856 12.4916C14.6838 12.4916 14.299 12.639 14.0001 12.8947C13.7011 12.6391 13.3164 12.4916 12.9145 12.4916C12.42 12.4916 11.9628 12.7077 11.651 13.0682C11.3987 12.9215 11.1099 12.8417 10.8134 12.8417C10.1149 12.8417 9.5112 13.2781 9.26335 13.8926C9.10908 13.846 8.94764 13.8222 8.78243 13.8222C8.48783 13.8222 8.211 13.8992 7.97043 14.0336C7.59216 13.8011 7.14749 13.6667 6.67188 13.6667C5.29982 13.6667 4.18359 14.7829 4.18359 16.155C4.18359 16.2155 4.18649 16.2752 4.19087 16.3346C3.03674 16.5501 2.16016 17.5643 2.16016 18.78C2.16016 19.0014 2.19007 19.2157 2.2447 19.4201H1.23047C0.552016 19.4201 0 19.972 0 20.6505V20.8139C0 21.4924 0.552016 22.0443 1.23047 22.0443H3.24341C4.39704 23.7763 6.17936 25.1984 8.37435 26.1152C8.5942 26.207 8.82585 26.2535 9.06287 26.2535H15.8594C16.0859 26.2535 16.2695 26.0699 16.2695 25.8434C16.2695 25.6169 16.0859 25.4332 15.8594 25.4332H9.06287C8.9349 25.4332 8.80966 25.408 8.6905 25.3582C6.84245 24.5864 5.31289 23.4371 4.2502 22.0443H23.7498C22.6871 23.4371 21.1575 24.5864 19.3095 25.3582C19.1903 25.408 19.0651 25.4332 18.9371 25.4332H17.8281C17.6016 25.4332 17.418 25.6169 17.418 25.8434C17.418 26.0699 17.6016 26.2535 17.8281 26.2535H18.9371C19.1741 26.2535 19.4058 26.207 19.6256 26.1152C21.8207 25.1984 23.603 23.7762 24.7566 22.0443H26.7695C27.448 22.0443 28 21.4923 28 20.8138V20.6505C28 19.972 27.448 19.4201 26.7695 19.4201ZM25.371 15.0652C25.546 15.2402 25.6217 15.5029 25.5841 15.8049C25.5419 16.145 25.3655 16.4853 25.0877 16.7632C25.0417 16.8091 24.9911 16.8546 24.9371 16.8982C24.823 16.9906 24.767 17.1368 24.7901 17.2818C24.8133 17.4267 24.9121 17.5483 25.0493 17.6005C25.4058 17.7361 25.6361 17.9494 25.6361 18.1441C25.6361 18.4001 25.2159 18.7281 24.5371 18.8117C24.4007 18.8284 24.2817 18.9124 24.2203 19.0354C24.1594 19.1573 24.1632 19.3014 24.2301 19.4201H23.4654C23.4745 19.3495 23.4796 19.2778 23.4796 19.2049C23.4796 18.7449 23.2924 18.3281 22.9906 18.0257L24.3257 16.6906C24.4858 16.5304 24.4858 16.2707 24.3257 16.1106C24.1655 15.9505 23.9058 15.9503 23.7456 16.1106L22.4055 17.4507C22.4206 17.36 22.4292 17.2677 22.4292 17.1739C22.4292 16.5794 22.1169 16.0567 21.6479 15.7605C21.7557 15.1622 22.056 14.7976 22.2946 14.7976C22.4891 14.7976 22.7025 15.0279 22.838 15.3842C22.8902 15.5212 23.0116 15.62 23.1564 15.6432C23.3014 15.6664 23.4473 15.6106 23.5399 15.4968C23.5831 15.4435 23.6279 15.3936 23.6731 15.3484C24.21 14.8115 24.9875 14.6818 25.371 15.0652ZM18.8509 12.264C18.9148 12.2002 19.0165 12.1685 19.142 12.1685C19.2869 12.1685 19.4636 12.2107 19.65 12.2944C19.7837 12.3544 19.9396 12.3385 20.0583 12.2525C20.1772 12.1665 20.241 12.0236 20.2258 11.8777C20.2187 11.8096 20.2152 11.7426 20.2152 11.6786C20.2152 10.9193 20.6732 10.2778 21.2155 10.2778C21.7577 10.2778 22.2158 10.9193 22.2158 11.6786C22.2158 11.7438 22.2121 11.8118 22.2049 11.8805C22.1894 12.0265 22.2532 12.1696 22.3721 12.2558C22.4909 12.342 22.6468 12.358 22.7808 12.2979C23.1285 12.1417 23.4425 12.1296 23.58 12.2673C23.7611 12.4483 23.6959 12.9774 23.275 13.5164C23.1904 13.6247 23.1657 13.7682 23.2092 13.8986C23.2527 14.029 23.3586 14.1289 23.4912 14.1648C23.5983 14.1937 23.6906 14.2331 23.7641 14.2796C23.6119 14.3568 23.4638 14.451 23.3235 14.5627C23.0518 14.1887 22.6896 13.9773 22.2946 13.9773C22.0536 13.9773 21.8269 14.0573 21.6257 14.2009V12.1661C21.6257 11.9396 21.4421 11.756 21.2156 11.756C20.989 11.756 20.8054 11.9396 20.8054 12.1661V14.9736C20.5887 14.3129 19.9707 13.8331 19.2408 13.8231C19.2554 13.7145 19.2269 13.6034 19.158 13.5154C18.7352 12.9756 18.6695 12.4455 18.8509 12.264ZM6.67188 14.487C6.9137 14.487 7.14356 14.539 7.35115 14.6321C7.19923 14.8837 7.11162 15.1783 7.11162 15.493C7.11162 15.4981 7.11162 15.5031 7.11167 15.5081C6.47588 15.5572 5.93912 15.9639 5.70172 16.5267C5.48669 16.4257 5.25514 16.3544 5.01211 16.3186C5.0068 16.2648 5.00391 16.2102 5.00391 16.155C5.00391 15.2353 5.7522 14.487 6.67188 14.487ZM2.98047 18.78C2.98047 17.8603 3.72876 17.112 4.64844 17.112C4.99598 17.112 5.31891 17.219 5.58627 17.4016C5.59683 17.479 5.61258 17.5552 5.63374 17.6297C4.9857 17.8597 4.52036 18.4789 4.52036 19.2049C4.52036 19.2778 4.5255 19.3495 4.53463 19.4201H3.10849C3.02613 19.2228 2.98047 19.0067 2.98047 18.78ZM27.1797 20.8139C27.1797 21.0401 26.9957 21.224 26.7695 21.224H1.23047C1.00428 21.224 0.820312 21.0401 0.820312 20.8139V20.6505C0.820312 20.4243 1.00428 20.2404 1.23047 20.2404H8.09375C8.32032 20.2404 8.50391 20.0567 8.50391 19.8302C8.50391 19.6037 8.32032 19.4201 8.09375 19.4201H5.36927C5.35128 19.3511 5.34062 19.2793 5.34062 19.2049C5.34062 18.736 5.72217 18.3544 6.18751 18.3544L6.19855 18.3551C6.20884 18.3558 6.21906 18.3564 6.2294 18.3569C6.38963 18.3645 6.53849 18.2773 6.61188 18.1352C6.68522 17.9931 6.66925 17.8213 6.57098 17.6951C6.45329 17.544 6.39105 17.3638 6.39105 17.1739C6.39105 16.705 6.77261 16.3234 7.24156 16.3234C7.32769 16.3234 7.41273 16.3362 7.49416 16.3615C7.64586 16.4086 7.81091 16.3638 7.91809 16.2468C8.02534 16.1297 8.05536 15.9613 7.99526 15.8144C7.95315 15.7116 7.93187 15.6034 7.93187 15.493C7.93187 15.0241 8.31343 14.6425 8.78237 14.6425C8.97154 14.6425 9.1513 14.7044 9.30212 14.8214C9.42517 14.9169 9.59159 14.9344 9.73175 14.8667C9.87191 14.7991 9.96171 14.6579 9.96357 14.5022C9.9692 14.039 10.3503 13.6621 10.8133 13.6621C11.0538 13.6621 11.2846 13.7659 11.4464 13.9469C11.5402 14.0517 11.6814 14.1012 11.8197 14.078C11.9584 14.0548 12.0755 13.9622 12.1302 13.8326C12.2635 13.5163 12.5712 13.3119 12.9144 13.3119C13.2178 13.3119 13.4915 13.469 13.6466 13.7321C13.7204 13.8572 13.8547 13.9339 13.9999 13.9339C14.1451 13.9339 14.2795 13.8572 14.3533 13.7321C14.5084 13.469 14.7821 13.3119 15.0855 13.3119C15.4286 13.3119 15.7364 13.5163 15.8697 13.8326C15.9243 13.9622 16.0415 14.0548 16.1802 14.078C16.3186 14.101 16.4597 14.0517 16.5535 13.9469C16.7153 13.7659 16.9461 13.6621 17.1866 13.6621C17.6496 13.6621 18.0307 14.039 18.0363 14.5022C18.0382 14.6579 18.128 14.7991 18.2681 14.8667C18.4083 14.9344 18.5747 14.9168 18.6978 14.8214C18.8486 14.7044 19.0284 14.6425 19.2175 14.6425C19.6865 14.6425 20.068 15.0241 20.068 15.493C20.068 15.6035 20.0467 15.7116 20.0046 15.8144C19.9445 15.9613 19.9746 16.1297 20.0818 16.2468C20.189 16.3638 20.354 16.4085 20.5057 16.3615C20.5872 16.3362 20.6722 16.3234 20.7583 16.3234C21.2273 16.3234 21.6088 16.705 21.6088 17.1739C21.6088 17.3638 21.5466 17.5441 21.4289 17.6951C21.3306 17.8213 21.3147 17.9931 21.388 18.1352C21.4614 18.2774 21.6107 18.3641 21.7705 18.3569C21.7808 18.3564 21.7911 18.3557 21.8013 18.3551L21.8088 18.3544C22.2778 18.3544 22.6593 18.736 22.6593 19.2049C22.6593 19.2793 22.6487 19.3511 22.6307 19.4201H10.0078C9.78124 19.4201 9.59766 19.6037 9.59766 19.8302C9.59766 20.0567 9.78124 20.2404 10.0078 20.2404H26.7695C26.9957 20.2404 27.1797 20.4243 27.1797 20.6505V20.8139Z" fill="black"/>
<path d="M5.95498 8.43104C5.74984 8.45166 5.56692 8.56207 5.45317 8.7339C4.91728 9.54295 5.02699 10.6288 5.71402 11.3159C6.10942 11.7113 6.63677 11.9154 7.16762 11.9154C7.55913 11.9154 7.9526 11.8042 8.29615 11.5767C8.46798 11.4629 8.57834 11.2799 8.59895 11.0748C8.61957 10.8697 8.54782 10.6686 8.40213 10.5228L6.50699 8.6277C6.36125 8.48217 6.15989 8.41015 5.95498 8.43104ZM6.29409 10.7358C5.92227 10.364 5.83204 9.79785 6.05352 9.33442L7.69557 10.9765C7.23215 11.1979 6.66592 11.1077 6.29409 10.7358Z" fill="black"/>
<path d="M9.20893 8.2078C9.2686 8.2078 9.32903 8.19992 9.38897 8.1839L11.3597 7.65584C11.6991 7.56489 11.9136 7.23688 11.8587 6.89289C11.7775 6.38457 11.5418 5.92312 11.1771 5.55846C10.8124 5.1938 10.351 4.9581 9.84271 4.87695C9.49894 4.82209 9.17065 5.03658 9.07982 5.37591L8.55175 7.34674C8.48777 7.58545 8.55394 7.83226 8.72867 8.00704C8.85954 8.13785 9.03087 8.2078 9.20893 8.2078ZM9.83893 5.71213C10.1258 5.78137 10.3858 5.92727 10.5971 6.13853C10.8083 6.34973 10.9541 6.60983 11.0235 6.89672L9.40532 7.33028L9.83893 5.71213Z" fill="black"/>
<path d="M3.78873 5.24936L5.75951 5.77736C5.81944 5.79344 5.87987 5.80132 5.93959 5.80132C6.1176 5.80132 6.28894 5.73137 6.4198 5.60051C6.59453 5.42578 6.6607 5.17892 6.59672 4.94021L6.06865 2.96938C5.97782 2.62999 5.6498 2.41572 5.30571 2.47041C4.79739 2.55157 4.33599 2.78727 3.97139 3.15187C3.60668 3.51653 3.37097 3.97798 3.28982 4.4863C3.23486 4.8304 3.44934 5.15841 3.78873 5.24936ZM4.55146 3.732C4.76261 3.52079 5.02276 3.37489 5.30954 3.30565L5.74315 4.92375L4.12501 4.49019C4.19424 4.20329 4.34015 3.94326 4.55146 3.732Z" fill="black"/>
</svg>
