<svg width="53" height="53" viewBox="0 0 53 53" fill="none" xmlns="http://www.w3.org/2000/svg">
<path d="M52.2812 26.5C52.2812 28.7 49.5785 30.5133 49.0371 32.5414C48.4785 34.6383 49.8922 37.5602 48.8309 39.3949C47.7523 41.2598 44.5082 41.4832 42.9957 42.9957C41.4832 44.5082 41.2598 47.7523 39.3949 48.8309C37.5602 49.8922 34.6383 48.4785 32.5414 49.0371C30.5133 49.5785 28.7 52.2812 26.5 52.2812C24.3 52.2812 22.4867 49.5785 20.4586 49.0371C18.3617 48.4785 15.4398 49.8922 13.6051 48.8309C11.7402 47.7523 11.5168 44.5082 10.0043 42.9957C8.4918 41.4832 5.24766 41.2598 4.16914 39.3949C3.10781 37.5602 4.52148 34.6383 3.96289 32.5414C3.42148 30.5133 0.71875 28.7 0.71875 26.5C0.71875 24.3 3.42148 22.4867 3.96289 20.4586C4.52148 18.3617 3.10781 15.4398 4.16914 13.6051C5.24766 11.7402 8.4918 11.5168 10.0043 10.0043C11.5168 8.4918 11.7402 5.24766 13.6051 4.16914C15.4398 3.10781 18.3617 4.52148 20.4586 3.96289C22.4867 3.42148 24.3 0.71875 26.5 0.71875C28.7 0.71875 30.5133 3.42148 32.5414 3.96289C34.6383 4.52148 37.5602 3.10781 39.3949 4.16914C41.2598 5.24766 41.4832 8.4918 42.9957 10.0043C44.5082 11.5168 47.7523 11.7402 48.8309 13.6051C49.8922 15.4398 48.4785 18.3617 49.0371 20.4586C49.5785 22.4867 52.2812 24.3 52.2812 26.5Z" fill="#965036"/>
<path d="M33.9509 18.817L24.1368 28.6311L19.0493 23.5479C17.945 22.4436 16.1532 22.4436 15.0489 23.5479C13.9446 24.6521 13.9446 26.4439 15.0489 27.5482L22.186 34.6854C23.2603 35.7596 25.0048 35.7596 26.079 34.6854L37.947 22.8174C39.0513 21.7131 39.0513 19.9213 37.947 18.817C36.8427 17.7127 35.0552 17.7127 33.9509 18.817Z" fill="#FFFCEE"/>
</svg>
