<svg width="14" height="14" viewBox="0 0 14 14" fill="none" xmlns="http://www.w3.org/2000/svg">
<path d="M7 14C3.14017 14 0 10.8598 0 7C0 3.14017 3.14017 0 7 0C10.8598 0 14 3.14017 14 7C14 10.8598 10.8598 14 7 14Z" fill="#4C4CFF"/>
<path fill-rule="evenodd" clip-rule="evenodd" d="M12.3596 6.21909C12.2284 5.3149 11.8732 4.4824 11.352 3.77987C11.2144 3.87882 11.0527 3.92916 10.8905 3.92916C10.6877 3.92916 10.4849 3.85182 10.3302 3.69708C10.0504 3.41729 10.0245 2.98081 10.2505 2.67086C9.54954 2.14335 8.71693 1.78188 7.81153 1.64542C7.75833 2.03145 7.42804 2.32904 7.02743 2.32904C6.62428 2.32904 6.29219 2.02775 6.24221 1.63818C5.33152 1.76646 4.49284 2.1219 3.78566 2.64555C4.03211 2.95661 4.01214 3.40969 3.72475 3.69708C3.57001 3.85182 3.36714 3.92922 3.16438 3.92922C2.98866 3.92922 2.81316 3.87089 2.66867 3.75477C2.13873 4.46048 1.77716 5.29942 1.64355 6.21138C2.04395 6.25121 2.35666 6.58895 2.35666 6.99981C2.35666 7.41067 2.04395 7.74842 1.64355 7.78825C1.77716 8.70026 2.13873 9.53915 2.66867 10.2449C2.97984 9.99465 3.43592 10.0137 3.72469 10.3025C4.01214 10.59 4.03217 11.0431 3.78566 11.3541C4.49284 11.8777 5.33152 12.2332 6.24221 12.3615C6.29219 11.9719 6.62428 11.6706 7.02743 11.6706C7.42804 11.6706 7.75838 11.9682 7.81153 12.3543C8.71693 12.2178 9.54954 11.8563 10.2505 11.3288C10.0244 11.0188 10.0504 10.5823 10.3302 10.3025C10.6086 10.0242 11.0423 9.99708 11.352 10.2198C11.8732 9.51728 12.2284 8.68473 12.3596 7.78054C11.9844 7.71793 11.6981 7.39271 11.6981 6.99981C11.6981 6.60691 11.9844 6.28169 12.3596 6.21909Z" fill="white"/>
<path d="M5.75854 9.13975C5.5665 9.13975 5.37409 9.07043 5.22173 8.93001C4.89989 8.63342 4.87945 8.13206 5.17603 7.81027L6.20781 6.69064V4.46433C6.20781 4.02668 6.56261 3.67188 7.00026 3.67188C7.43791 3.67188 7.79271 4.02668 7.79271 4.46433V7.00012C7.79271 7.19913 7.71785 7.39086 7.58298 7.53714L6.34147 8.88431C6.18525 9.05384 5.97218 9.13975 5.75854 9.13975Z" fill="#00347B"/>
</svg>
