<svg width="40" height="40" viewBox="0 0 40 40" fill="none" xmlns="http://www.w3.org/2000/svg">
<g clip-path="url(#clip0_108_9898)">
<path d="M11.7525 34.8544C6.53953 31.9538 3.01266 26.3888 3.01266 20C3.01266 10.6182 10.6181 3.01266 20 3.01266C23.2769 3.01266 26.3371 3.94055 28.9322 5.54781C28.9322 5.54781 29.8013 3.23672 29.6191 3.13258C26.7835 1.51211 23.4999 0.585938 20 0.585938C9.27789 0.585938 0.585938 9.27789 0.585938 20C0.585938 27.8073 5.19453 34.5384 11.8398 37.6209L11.7525 34.8544Z" fill="#D1F19E"/>
<path d="M30.1595 26.944C26.767 32.82 19.2533 34.8333 13.3772 31.4408C7.50111 28.0483 5.48791 20.5346 8.88041 14.6585C12.9756 7.56545 28.6252 2.41475 29.7578 3.06865C29.8252 3.10756 29.9006 3.20139 29.9819 3.34498C30.1607 3.661 30.9136 4.40811 31.1275 5.15069C31.3044 5.76467 30.9401 6.31537 31.1136 7.15201C32.2356 12.5615 33.0299 21.9722 30.1595 26.944Z" fill="#97D729"/>
<path d="M29.9814 4.90723C30.3082 5.48449 30.7298 6.86574 31.1132 8.71426C31.2299 8.81527 31.3451 8.91793 31.459 9.02207C31.3503 8.35949 31.2336 7.73254 31.1132 7.15176C30.9904 6.5598 31.1368 6.11105 31.1704 5.68168C30.7842 5.40957 30.3876 5.15121 29.9814 4.90723Z" fill="#8BC727"/>
<path d="M13.3771 31.4409C13.9653 31.7805 14.5698 32.0659 15.185 32.2987L16.4043 30.1867H22.7394C23.2886 30.1867 23.7691 29.818 23.9113 29.2875C24.1175 28.5172 23.5371 27.7602 22.7394 27.7602H17.8051L19.9559 24.0359H24.3871C24.9364 24.0359 25.4168 23.6672 25.559 23.1367C25.5879 23.0305 25.6012 22.9242 25.6012 22.8203C25.6012 22.1719 25.0746 21.6094 24.3871 21.6094H21.3567L23.5957 17.7312H26.077C26.6262 17.7312 27.1067 17.3625 27.2489 16.832C27.277 16.7258 27.2911 16.6195 27.2911 16.5156C27.2911 15.8664 26.7645 15.3047 26.077 15.3047H24.9965L27.1684 11.543C27.5036 10.9625 27.3043 10.2203 26.7246 9.88516C26.5332 9.775 26.3254 9.72266 26.1192 9.72266C25.6996 9.72266 25.2918 9.94062 25.0668 10.3297L22.895 14.0914L22.3551 13.1563C21.9567 12.4648 21.0106 12.3406 20.4465 12.9047C20.2129 13.1383 20.0911 13.4492 20.0911 13.7633C20.0911 13.9711 20.1442 14.1805 20.2536 14.3695L21.4942 16.518L19.2551 20.3961L17.7395 17.7711C17.3411 17.0805 16.395 16.9563 15.8309 17.5203C15.5973 17.7539 15.4754 18.0648 15.4754 18.3789C15.4754 18.5867 15.5286 18.7961 15.6379 18.9852L17.8543 22.8227L15.7036 26.5468L13.2371 22.2741C12.8379 21.5827 11.8926 21.4585 11.3286 22.0226C10.9395 22.4109 10.8606 23.0116 11.1356 23.4874L14.3028 28.9734L13.0065 31.2183C13.1283 31.2943 13.2518 31.3686 13.3771 31.4409Z" fill="#8BC727"/>
<path d="M31.113 7.15191C30.9395 6.31527 31.3037 5.76457 31.127 5.15059C30.913 4.40801 30.1602 3.66082 29.9813 3.34488C29.9001 3.20137 29.8248 3.10754 29.7573 3.06863C29.5246 2.93434 28.6793 3.04496 27.4474 3.36707C28.7695 7.92926 30.3558 19.6279 27.0339 25.3814C24.0659 30.5221 17.9438 32.7064 12.5234 30.901C12.798 31.0907 13.0825 31.2709 13.3766 31.4407C19.2527 34.8332 26.7663 32.82 30.1589 26.9439C33.0293 21.9721 32.235 12.5614 31.113 7.15191Z" fill="#8BC727"/>
<path d="M31.1135 7.15191C34.7117 10.2667 36.9878 14.8671 36.9879 19.9993C36.9879 29.3754 29.1995 37.0816 19.8239 36.9861C17.5312 36.9627 15.3474 36.485 13.3581 35.6386C12.929 35.456 12.7603 34.9355 12.9935 34.5317L16.4044 28.6237H22.7395C23.2887 28.6237 23.7692 28.255 23.9114 27.7245C24.1176 26.9542 23.5372 26.1971 22.7395 26.1971H17.8051L19.9558 22.4729H24.3871C24.9363 22.4729 25.4168 22.1042 25.559 21.5737C25.5879 21.4675 25.6011 21.3612 25.6011 21.2573C25.6011 20.6089 25.0746 20.0464 24.3871 20.0464H21.3566L23.5957 16.1682H26.0769C26.6261 16.1682 27.1066 15.7995 27.2488 15.269C27.2769 15.1628 27.291 15.0565 27.291 14.9526C27.291 14.3034 26.7644 13.7417 26.0769 13.7417H24.9965L27.1683 9.97996C27.5035 9.39949 27.3043 8.6573 26.7246 8.32215C26.5332 8.21199 26.3254 8.15965 26.1191 8.15965C25.6996 8.15965 25.2918 8.37762 25.0668 8.76668L22.8949 12.5284L22.3551 11.5932C21.9566 10.9018 21.0105 10.7776 20.4465 11.3417C20.2129 11.5753 20.091 11.8862 20.091 12.2003C20.091 12.4081 20.1441 12.6175 20.2535 12.8065L21.4941 14.955L19.2551 18.8331L17.7394 16.2081C17.341 15.5175 16.3949 15.3932 15.8308 15.9573C15.5972 16.1909 15.4754 16.5018 15.4754 16.8159C15.4754 17.0237 15.5285 17.2331 15.6379 17.4221L17.8543 21.2596L15.7035 24.9839L13.2371 20.7112C12.8379 20.0198 11.8926 19.8956 11.3285 20.4596C10.9394 20.8479 10.8605 21.4487 11.1355 21.9245L14.3027 27.4104L10.6282 33.7743C9.82591 35.1637 10.3852 36.9454 11.8407 37.6204C14.3216 38.7712 17.0861 39.4136 20.0004 39.4136C30.7222 39.4136 39.4144 30.7221 39.4144 19.9995C39.4144 12.9278 35.6333 6.73871 29.9818 3.34473C30.3085 3.92199 30.7301 5.30324 31.1135 7.15176V7.15191Z" fill="#DBF4B2"/>
<path d="M11.7509 22.9903L11.1356 21.9245C10.8606 21.4487 10.9395 20.8479 11.3286 20.4597C11.8926 19.8956 12.8379 20.0198 13.2371 20.7112L15.7036 24.9839L17.8543 21.2597L15.6379 17.4222C15.5286 17.2331 15.4754 17.0237 15.4754 16.8159C15.4754 16.5019 15.5973 16.1909 15.8309 15.9573C16.395 15.3933 17.3411 15.5175 17.7395 16.2081L19.2551 18.8331L21.4942 14.955L20.2536 12.8065C20.1442 12.6175 20.0911 12.4081 20.0911 12.2003C20.0911 11.8862 20.2129 11.5753 20.4465 11.3417C21.0106 10.7776 21.9567 10.9019 22.3551 11.5933L22.895 12.5284L25.0668 8.7667C25.2918 8.37764 25.6996 8.15967 26.1192 8.15967C26.3254 8.15967 26.5332 8.21201 26.7246 8.32217C27.3043 8.65732 27.5036 9.39951 27.1684 9.97998L24.9965 13.7417H26.077C26.7645 13.7417 27.2911 14.3034 27.2911 14.9526C27.2911 15.0565 27.277 15.1628 27.2489 15.269C27.1067 15.7995 26.6262 16.1683 26.077 16.1683H23.5957L21.3567 20.0464H24.3871C25.0746 20.0464 25.6012 20.6089 25.6012 21.2573C25.6012 21.3612 25.5879 21.4675 25.559 21.5737C25.4168 22.1042 24.9364 22.4729 24.3871 22.4729H19.9559L17.8051 26.1972H22.7395C23.5371 26.1972 24.1176 26.9542 23.9114 27.7245C23.7692 28.255 23.2887 28.6237 22.7395 28.6237H16.4043L12.9935 34.5317C12.7603 34.9355 12.929 35.456 13.3581 35.6386C15.3475 36.4851 17.5312 36.9627 19.8239 36.9861C29.1996 37.0815 36.9881 29.3754 36.9879 19.9994C36.9878 14.8671 34.7118 10.2666 31.1136 7.15186" stroke="#333333" stroke-width="1.5" stroke-miterlimit="10" stroke-linecap="round" stroke-linejoin="round"/>
<path d="M30.1605 3.45361C35.7129 6.87002 39.4144 13.0028 39.4144 19.9997C39.4144 30.7224 30.7222 39.4138 20.0004 39.4138C17.0861 39.4138 14.3216 38.7713 11.8407 37.6206C10.3852 36.9456 9.82591 35.1639 10.6282 33.7745L14.3027 27.4106L13.139 25.3949" stroke="#333333" stroke-width="1.5" stroke-miterlimit="10" stroke-linecap="round" stroke-linejoin="round"/>
<path d="M30.0936 3.56678L30.16 3.45365C30.1007 3.41717 30.0411 3.381 29.9814 3.34521C30.0178 3.40928 30.0552 3.48326 30.0936 3.56678Z" stroke="#333333" stroke-width="1.5" stroke-miterlimit="10" stroke-linecap="round" stroke-linejoin="round"/>
<path d="M29.4062 3.01281C26.6197 1.46648 23.4127 0.585938 20 0.585938C9.27789 0.585938 0.585938 9.27789 0.585938 20C0.585938 27.8073 5.19453 34.5384 11.8398 37.6209" stroke="#333333" stroke-width="1.5" stroke-miterlimit="10" stroke-linecap="round" stroke-linejoin="round"/>
<path d="M21.8701 3.11426C23.1412 3.25348 24.3701 3.53285 25.5411 3.93676" stroke="#333333" stroke-width="1.5" stroke-miterlimit="10" stroke-linecap="round" stroke-linejoin="round"/>
<path d="M10.4796 34.0709C5.97371 31.0162 3.0127 25.8539 3.0127 20.0001C3.0127 10.941 10.1039 3.53822 19.0382 3.03955" stroke="#333333" stroke-width="1.5" stroke-miterlimit="10" stroke-linecap="round" stroke-linejoin="round"/>
<path d="M32.1341 16.8988C32.1262 13.3505 31.6584 9.77912 31.1135 7.1517L30.3839 4.32037C30.1469 3.61123 29.9273 3.16654 29.7578 3.06865C28.6252 2.41475 12.9755 7.56545 8.88039 14.6584C5.69266 20.1798 7.27781 27.147 12.3558 30.7826" stroke="#333333" stroke-width="1.5" stroke-miterlimit="10" stroke-linecap="round" stroke-linejoin="round"/>
<path d="M14.457 31.996C20.1445 34.5761 26.9712 32.4654 30.159 26.9439C31.2841 24.995 31.8462 22.3642 32.0462 19.5596" stroke="#333333" stroke-width="1.5" stroke-miterlimit="10" stroke-linecap="round" stroke-linejoin="round"/>
</g>
<defs>
<clipPath id="clip0_108_9898">
<rect width="40" height="40" fill="white"/>
</clipPath>
</defs>
</svg>
