<svg width="40" height="40" viewBox="0 0 40 40" fill="none" xmlns="http://www.w3.org/2000/svg">
<g clip-path="url(#clip0_108_9747)">
<path d="M22.3438 39.4141H17.6562V28.0078H22.3438V39.4141Z" fill="#88C3E0"/>
<path d="M20 39.4141H22.3438V28.0078H20V39.4141Z" fill="#6EABC9"/>
<mask id="mask0_108_9747" style="mask-type:luminance" maskUnits="userSpaceOnUse" x="0" y="0" width="40" height="40">
<path d="M0 3.8147e-06H40V40H0V3.8147e-06Z" fill="white"/>
</mask>
<g mask="url(#mask0_108_9747)">
<path d="M25.8594 11.2109V24.5703C25.8594 26.4688 24.3204 28.0078 22.4219 28.0078H17.5781C15.6796 28.0078 14.1406 26.4688 14.1406 24.5703V11.2109C14.1406 10.5638 14.6653 10.0391 15.3125 10.0391C15.9597 10.0391 16.4844 10.5638 16.4844 11.2109V19.8047C16.4844 20.4519 17.0091 20.9766 17.6562 20.9766C18.3034 20.9766 18.8281 20.4519 18.8281 19.8047V11.2109C18.8281 10.5638 19.3528 10.0391 20 10.0391C20.6472 10.0391 21.1719 10.5638 21.1719 11.2109V19.8047C21.1719 20.4519 21.6966 20.9766 22.3438 20.9766C22.9909 20.9766 23.5156 20.4519 23.5156 19.8047V11.2109C23.5156 10.5638 24.0403 10.0391 24.6875 10.0391C25.3347 10.0391 25.8594 10.5638 25.8594 11.2109Z" fill="#A9DBF5"/>
<path d="M24.6875 10.0391C24.0403 10.0391 23.5156 10.5638 23.5156 11.2109V24.5703C23.5156 26.4688 21.9766 28.0078 20.0781 28.0078H22.4219C24.3204 28.0078 25.8594 26.4688 25.8594 24.5703V11.2109C25.8594 10.5638 25.3347 10.0391 24.6875 10.0391Z" fill="#88C3E0"/>
<path d="M29.0242 7.38281C29.0242 11.1366 26.0445 14.1797 20.3165 14.1797C14.5885 14.1797 8.28125 9.22414 8.28125 7.38281C8.28125 5.54148 14.5885 0.585938 20.3165 0.585938C26.0445 0.585938 29.0242 3.62898 29.0242 7.38281Z" fill="#62D152"/>
<path d="M20.3162 0.585938C19.9654 0.585938 19.6123 0.604765 19.2588 0.640078C24.1459 1.06351 26.6802 3.92094 26.6802 7.38281C26.6802 10.8447 24.1459 13.7021 19.2588 14.1255C19.6123 14.1609 19.9654 14.1797 20.3162 14.1797C26.0442 14.1797 29.0239 11.1366 29.0239 7.38281C29.0239 3.62898 26.0442 0.585938 20.3162 0.585938Z" fill="#48BD40"/>
<path d="M7.04065 19.7989C7.5262 19.7844 7.9226 20.2572 7.97057 20.7405C8.01846 21.2239 7.80034 21.6954 7.53073 22.0998C7.26135 22.5042 6.80299 22.5881 6.71893 23.3087C6.68315 23.6163 6.46089 23.9018 6.16682 23.9986C5.88276 24.1216 5.52706 24.056 5.29612 23.8499C4.75518 23.367 4.35682 23.6089 3.8869 23.4857C3.41713 23.3624 2.94112 23.1549 2.65612 22.7618C2.39721 22.4045 2.35909 21.8625 2.63401 21.5323C2.66862 21.4907 2.64792 21.4281 2.59487 21.4174C2.08862 21.3149 1.61096 21.0254 1.3576 20.578C1.09737 20.1183 1.12315 19.4906 1.46768 19.0965C1.49776 19.0621 1.48878 19.0089 1.44854 18.9871C1.12237 18.8115 0.803463 18.5906 0.676119 18.2465C0.551588 17.91 0.346588 16.7927 1.71409 16.2727C2.40401 16.0103 3.02479 16.3406 3.24885 16.4859C3.29151 16.5136 3.34885 16.4918 3.36237 16.4427C3.43346 16.1852 3.67831 15.5257 4.36823 15.2632C5.73565 14.7432 6.32393 15.7147 6.45417 16.049C6.58729 16.3909 6.49549 16.768 6.36838 17.1161C6.3526 17.159 6.3812 17.2048 6.42659 17.2105C6.94565 17.2761 7.38151 17.7282 7.49206 18.2449C7.60893 18.7913 7.40393 19.3741 7.04065 19.7989Z" fill="#62D152"/>
<path d="M7.97039 20.7405C7.92242 20.2572 7.52602 19.7845 7.04047 19.7989C7.40367 19.3742 7.60875 18.7913 7.49187 18.245C7.38117 17.7277 6.94437 17.2751 6.42453 17.2103C6.37969 17.2047 6.35258 17.1586 6.36805 17.1162C6.49531 16.7681 6.58711 16.3909 6.45398 16.049C6.32375 15.7147 5.73547 14.7432 4.36805 15.2633C4.14945 15.3464 3.97578 15.4695 3.83789 15.6069C3.98141 15.7731 4.06898 15.9431 4.11023 16.049C4.1743 16.2137 4.18625 16.3867 4.16719 16.5605C4.13109 16.8893 4.27828 17.2077 4.55609 17.3872C4.85172 17.5783 5.07367 17.897 5.14812 18.245C5.22227 18.5916 5.1668 18.9531 5.02352 19.2796C4.91812 19.5196 4.98117 19.8068 5.19172 19.9631C5.43055 20.1405 5.59664 20.4385 5.62664 20.7405C5.67445 21.2239 5.45633 21.6955 5.1868 22.0998C4.91742 22.5043 4.45906 22.5882 4.375 23.3087C4.36625 23.3838 4.34602 23.4575 4.31672 23.5276C4.62219 23.5285 4.92562 23.5193 5.29594 23.8499C5.52687 24.056 5.8825 24.1216 6.16664 23.9986C6.4607 23.9018 6.68297 23.6164 6.71875 23.3087C6.80281 22.5882 7.26117 22.5043 7.53055 22.0998C7.80008 21.6955 8.0182 21.2239 7.97039 20.7405Z" fill="#48BD40"/>
<path d="M11.2613 26.1318C13.0601 30.8684 14.1122 38.5816 12.0889 39.3513C10.0655 40.1208 5.73285 33.6552 3.9341 28.9185C2.13527 24.1819 3.55136 22.9679 5.57472 22.1983C7.59808 21.4288 9.46253 21.3951 11.2613 26.1318Z" fill="#F78E36"/>
<path d="M11.2617 26.1318C9.59855 21.7524 7.87934 21.451 6.03027 22.0387C7.01965 22.4841 7.97777 23.6562 8.91793 26.1318C10.5049 30.3106 11.5102 36.8052 10.3357 38.8057C11.0063 39.3115 11.612 39.5328 12.0893 39.3513C14.1126 38.5817 13.0605 30.8684 11.2617 26.1318Z" fill="#F86F1B"/>
<path d="M32.959 19.7989C32.4735 19.7844 32.0771 20.2572 32.0291 20.7405C31.9812 21.2239 32.1993 21.6954 32.4689 22.0998C32.7383 22.5042 33.1967 22.5881 33.2807 23.3087C33.3165 23.6163 33.5388 23.9018 33.8328 23.9986C34.1169 24.1216 34.4726 24.056 34.7035 23.8499C35.2445 23.367 35.6428 23.6089 36.1128 23.4857C36.5825 23.3624 37.0585 23.1549 37.3435 22.7618C37.6025 22.4045 37.6406 21.8625 37.3657 21.5323C37.331 21.4907 37.3517 21.4281 37.4048 21.4174C37.911 21.3149 38.3887 21.0254 38.6421 20.578C38.9023 20.1183 38.8765 19.4906 38.532 19.0965C38.5019 19.0621 38.5109 19.0089 38.5511 18.9871C38.8773 18.8115 39.1962 18.5906 39.3235 18.2465C39.4481 17.91 39.6531 16.7927 38.2856 16.2727C37.5957 16.0103 36.9749 16.3406 36.7508 16.4859C36.7082 16.5136 36.6508 16.4918 36.6373 16.4427C36.5662 16.1852 36.3214 15.5257 35.6314 15.2632C34.264 14.7432 33.6757 15.7147 33.5455 16.049C33.4124 16.3909 33.5042 16.768 33.6313 17.1161C33.6471 17.159 33.6185 17.2048 33.5731 17.2105C33.054 17.2761 32.6182 17.7282 32.5076 18.2449C32.3907 18.7913 32.5957 19.3741 32.959 19.7989Z" fill="#62D152"/>
<path d="M38.2857 16.2727C37.6936 16.0475 37.1531 16.2587 36.87 16.4151C37.1755 16.9154 37.061 17.4643 36.98 17.6831C36.8525 18.0272 36.5336 18.2481 36.2075 18.4237C36.1674 18.4455 36.1584 18.4987 36.1885 18.5331C36.533 18.9272 36.5588 19.5549 36.2985 20.0146C36.0451 20.4621 35.5675 20.7515 35.0614 20.854C35.0082 20.8647 34.9875 20.9273 35.0221 20.969C35.297 21.299 35.2589 21.841 35 22.1983C34.715 22.5915 34.2389 22.799 33.7692 22.9223C33.5715 22.974 33.3865 22.9615 33.1982 22.9652C33.2364 23.0616 33.2652 23.174 33.2809 23.3087C33.3167 23.6163 33.5389 23.9017 33.833 23.9986C34.1171 24.1216 34.4728 24.056 34.7037 23.8498C35.2446 23.367 35.643 23.6088 36.1129 23.4857C36.5827 23.3624 37.0587 23.1549 37.3437 22.7618C37.6026 22.4044 37.6407 21.8625 37.3659 21.5324C37.3312 21.4908 37.3519 21.4281 37.4051 21.4174C37.9112 21.3149 38.3889 21.0255 38.6422 20.578C38.9025 20.1183 38.8768 19.4905 38.5322 19.0965C38.5021 19.062 38.5111 19.0088 38.5513 18.9872C38.8774 18.8116 39.1963 18.5907 39.3237 18.2465C39.4482 17.9101 39.6532 16.7927 38.2857 16.2727Z" fill="#48BD40"/>
<path d="M28.7385 26.1318C26.9396 30.8684 25.8875 38.5816 27.9109 39.3513C29.9342 40.1208 34.2669 33.6552 36.0656 28.9185C37.8645 24.1819 36.4484 22.9679 34.425 22.1983C32.4017 21.4288 30.5372 21.3951 28.7385 26.1318Z" fill="#F78E36"/>
<path d="M34.4257 22.1983C33.4598 21.831 32.5302 21.6318 31.6268 22.0386C31.7775 22.0865 31.9293 22.1403 32.0819 22.1983C34.1052 22.9679 35.5214 24.1818 33.7225 28.9185C32.348 32.538 29.494 37.1667 27.3213 38.8056C27.4781 39.0726 27.6732 39.2606 27.9115 39.3513C29.9349 40.1207 34.2675 33.6551 36.0663 28.9185C37.8651 24.1818 36.4489 22.9679 34.4257 22.1983Z" fill="#F86F1B"/>
<path d="M22.3438 39.4141H17.6562V28.0078H22.3438V39.4141Z" stroke="#333333" stroke-width="1.5" stroke-miterlimit="10" stroke-linecap="round" stroke-linejoin="round"/>
<path d="M18.8281 14.1709V19.8047C18.8281 20.1281 18.6969 20.4211 18.4844 20.6328C18.2727 20.8454 17.9797 20.9766 17.6562 20.9766C17.0094 20.9766 16.4844 20.4516 16.4844 19.8047V13.6295" stroke="#333333" stroke-width="1.5" stroke-miterlimit="10" stroke-linecap="round" stroke-linejoin="round"/>
<path d="M25.8594 12.9988V24.5703C25.8594 26.4687 24.3203 28.0078 22.4219 28.0078H17.5781C15.6797 28.0078 14.1406 26.4687 14.1406 24.5703V12.7206" stroke="#333333" stroke-width="1.5" stroke-miterlimit="10" stroke-linecap="round" stroke-linejoin="round"/>
<path d="M23.5156 13.9002V19.8047C23.5156 20.1281 23.3844 20.4211 23.1719 20.6328C22.9602 20.8453 22.6672 20.9766 22.3438 20.9766C21.6969 20.9766 21.1719 20.4516 21.1719 19.8047V14.2471" stroke="#333333" stroke-width="1.5" stroke-miterlimit="10" stroke-linecap="round" stroke-linejoin="round"/>
<path d="M13.5118 2.49773C15.568 1.40344 17.99 0.585938 20.3165 0.585938C26.0445 0.585938 29.0242 3.62898 29.0242 7.38281C29.0242 11.1366 26.0445 14.1797 20.3165 14.1797C14.5884 14.1797 8.28125 9.22422 8.28125 7.38281C8.28125 6.56836 9.51539 5.14453 11.3875 3.80977" stroke="#333333" stroke-width="1.5" stroke-miterlimit="10" stroke-linecap="round" stroke-linejoin="round"/>
<path d="M31.7187 7.38281H14.2715" stroke="#333333" stroke-width="1.5" stroke-miterlimit="10" stroke-linecap="round" stroke-linejoin="round"/>
<path d="M15.8213 9.91504L17.1516 7.38301L15.8213 4.85098" stroke="#333333" stroke-width="1.5" stroke-miterlimit="10" stroke-linecap="round" stroke-linejoin="round"/>
<path d="M19.7178 10.6167L21.4168 7.38295L19.7178 4.14928" stroke="#333333" stroke-width="1.5" stroke-miterlimit="10" stroke-linecap="round" stroke-linejoin="round"/>
<path d="M24.1045 10.6167L25.8035 7.38295L24.1045 4.14928" stroke="#333333" stroke-width="1.5" stroke-miterlimit="10" stroke-linecap="round" stroke-linejoin="round"/>
<path d="M3.56161 23.3853C3.20669 23.2563 2.87505 23.0638 2.65606 22.7619C2.39724 22.4046 2.35903 21.8626 2.63396 21.5324C2.66856 21.4908 2.64794 21.4282 2.59481 21.4175C2.08864 21.315 1.61091 21.0256 1.35755 20.5781C1.09731 20.1185 1.1231 19.4906 1.46763 19.0966C1.49771 19.0622 1.48872 19.0089 1.44849 18.9873C1.12231 18.8117 0.803408 18.5907 0.676065 18.2467C0.551611 17.9102 0.346612 16.7928 1.71411 16.2728C2.40403 16.0104 3.02474 16.3407 3.2488 16.486C3.29146 16.5137 3.3488 16.4919 3.36231 16.4428C3.43341 16.1853 3.67825 15.5257 4.36817 15.2634C5.7356 14.7433 6.32388 15.7148 6.45411 16.0492C6.58731 16.391 6.49552 16.7681 6.36833 17.1162C6.35263 17.1592 6.38114 17.2049 6.42653 17.2106C6.9456 17.2763 7.38153 17.7284 7.49208 18.245C7.60895 18.7913 7.40395 19.3742 7.0406 19.799C7.52614 19.7846 7.92255 20.2574 7.9706 20.7406C8.00419 21.0804 7.90638 21.4144 7.75169 21.7234" stroke="#333333" stroke-width="1.5" stroke-miterlimit="10" stroke-linecap="round" stroke-linejoin="round"/>
<path d="M11.2613 26.1318C13.0601 30.8684 14.1122 38.5816 12.0889 39.3513C10.0655 40.1208 5.73285 33.6552 3.9341 28.9185C2.13527 24.1819 3.55136 22.9679 5.57472 22.1983C7.59808 21.4288 9.46253 21.3951 11.2613 26.1318Z" stroke="#333333" stroke-width="1.5" stroke-miterlimit="10" stroke-linecap="round" stroke-linejoin="round"/>
<path d="M3.34961 26.8413C4.6025 26.8159 6.9482 26.3849 10.3002 24.1831" stroke="#333333" stroke-width="1.5" stroke-miterlimit="10" stroke-linecap="round" stroke-linejoin="round"/>
<path d="M8.45801 28.9629C9.3702 28.5406 10.4051 27.9587 11.5599 27.1604" stroke="#333333" stroke-width="1.5" stroke-miterlimit="10" stroke-linecap="round" stroke-linejoin="round"/>
<path d="M4.4502 30.0308C4.86707 30.0242 5.42129 29.969 6.10957 29.8028" stroke="#333333" stroke-width="1.5" stroke-miterlimit="10" stroke-linecap="round" stroke-linejoin="round"/>
<path d="M5.97852 33.1182C7.28977 33.0179 9.4843 32.4843 12.4977 30.511" stroke="#333333" stroke-width="1.5" stroke-miterlimit="10" stroke-linecap="round" stroke-linejoin="round"/>
<path d="M8.17773 36.4395C9.36664 36.2173 11.0074 35.6677 13.0741 34.4125" stroke="#333333" stroke-width="1.5" stroke-miterlimit="10" stroke-linecap="round" stroke-linejoin="round"/>
<path d="M36.4189 23.3921C36.781 23.2632 37.1207 23.0693 37.3435 22.7619C37.6024 22.4045 37.6406 21.8626 37.3657 21.5324C37.331 21.4908 37.3517 21.4282 37.4048 21.4175C37.911 21.315 38.3887 21.0255 38.6421 20.578C38.9023 20.1184 38.8765 19.4907 38.532 19.0966C38.5019 19.0622 38.5109 19.009 38.5511 18.9872C38.8773 18.8116 39.1962 18.5907 39.3235 18.2466C39.448 17.9101 39.653 16.7928 38.2856 16.2728C37.5957 16.0104 36.9749 16.3407 36.7508 16.486C36.7082 16.5137 36.6508 16.4919 36.6373 16.4428C36.5662 16.1853 36.3214 15.5258 35.6314 15.2633C34.264 14.7433 33.6757 15.7147 33.5455 16.0491C33.4124 16.391 33.5041 16.7681 33.6313 17.1162C33.6471 17.1591 33.6185 17.2049 33.5731 17.2106C33.054 17.2762 32.6182 17.7283 32.5076 18.245C32.3907 18.7913 32.5957 19.3742 32.959 19.799C32.4735 19.7845 32.0771 20.2573 32.0291 20.7406C31.9921 21.1136 32.1136 21.4795 32.2948 21.8129" stroke="#333333" stroke-width="1.5" stroke-miterlimit="10" stroke-linecap="round" stroke-linejoin="round"/>
<path d="M35.3235 30.6688C35.6014 30.071 35.8515 29.4824 36.0656 28.9185C37.8645 24.1819 36.4483 22.9679 34.425 22.1983C32.4017 21.4289 30.5372 21.3951 28.7385 26.1318C26.9396 30.8685 25.8875 38.5817 27.9109 39.3513C29.3969 39.9164 32.1284 36.5792 34.187 32.8904" stroke="#333333" stroke-width="1.5" stroke-miterlimit="10" stroke-linecap="round" stroke-linejoin="round"/>
<path d="M36.6507 26.8413C35.3979 26.8159 33.0521 26.3849 29.7002 24.1831" stroke="#333333" stroke-width="1.5" stroke-miterlimit="10" stroke-linecap="round" stroke-linejoin="round"/>
<path d="M35.5495 30.0308C34.3294 30.0116 31.933 29.5754 28.4395 27.1606" stroke="#333333" stroke-width="1.5" stroke-miterlimit="10" stroke-linecap="round" stroke-linejoin="round"/>
<path d="M34.0221 33.1182C32.7108 33.0179 30.5163 32.4843 27.5029 30.511" stroke="#333333" stroke-width="1.5" stroke-miterlimit="10" stroke-linecap="round" stroke-linejoin="round"/>
<path d="M31.8232 36.4395C30.6343 36.2173 28.9935 35.6677 26.9268 34.4125" stroke="#333333" stroke-width="1.5" stroke-miterlimit="10" stroke-linecap="round" stroke-linejoin="round"/>
</g>
</g>
<defs>
<clipPath id="clip0_108_9747">
<rect width="40" height="40" fill="white"/>
</clipPath>
</defs>
</svg>
