<svg width="28" height="28" viewBox="0 0 28 28" fill="none" xmlns="http://www.w3.org/2000/svg">
<g clip-path="url(#clip0_114_2385)">
<path d="M8.79061 26.5534C8.19374 20.9534 4.72127 12.1544 0.635139 7.00331C0.519282 6.86069 0.459557 6.68064 0.467206 6.49705C0.474856 6.31346 0.549353 6.139 0.676672 6.00651L1.63614 5.01624C1.70391 4.92004 1.79212 4.84001 1.89445 4.7819C1.99678 4.72379 2.11069 4.68903 2.22803 4.68011C2.34537 4.67119 2.46324 4.68833 2.57317 4.73031C2.68311 4.77228 2.7824 4.83805 2.86394 4.92291C7.39061 10.2812 9.80001 17.2667 10.2667 19.6C10.6727 17.9077 11.373 16.2999 12.3354 14.8498C11.5542 12.5403 9.79487 5.57018 15.6021 1.96051C19.2939 -0.33689 24.8421 0.565643 27.1287 1.08784C27.2192 1.10849 27.3024 1.15316 27.3696 1.21716C27.4368 1.28115 27.4855 1.36209 27.5106 1.45145C27.5356 1.5408 27.5361 1.63526 27.5119 1.72485C27.4877 1.81445 27.4398 1.89586 27.3733 1.96051C26.747 2.57231 25.8104 3.78331 25.1426 6.11664C23.9498 10.2728 23.7552 11.914 22.0355 13.4312C19.5109 15.6581 15.0038 15.6217 15.0038 15.6217C13.6421 17.4328 11.9033 22.6077 10.9209 26.7064C10.8638 26.9421 10.7292 27.1517 10.5387 27.3016C10.3483 27.4516 10.1129 27.5332 9.87047 27.5334C9.60102 27.5329 9.34133 27.4324 9.14179 27.2514C8.94226 27.0703 8.8171 26.8215 8.79061 26.5534Z" fill="#93C14D"/>
<path d="M27.236 0.632715C24.9526 0.112381 19.2219 -0.840085 15.3574 1.56418C9.40463 5.26345 11.0417 12.3586 11.822 14.783C11.2031 15.7533 10.6917 16.788 10.2969 17.869C9.3127 14.6346 6.94903 9.03598 3.2199 4.62551C3.1164 4.50114 2.98766 4.40018 2.8422 4.3293C2.69675 4.25842 2.53789 4.21925 2.37616 4.21438C2.17349 4.21326 1.97292 4.25538 1.78782 4.33795C1.60273 4.42052 1.43739 4.54162 1.30283 4.69318L0.341496 5.68345C0.136584 5.89798 0.0163854 6.17952 0.00317114 6.4759C-0.0100431 6.77228 0.0846233 7.0634 0.269629 7.29532C4.09163 12.1132 7.7055 20.775 8.32663 26.6046C8.36377 26.9687 8.52838 27.3079 8.79138 27.5624C9.05438 27.817 9.39885 27.9703 9.76397 27.9955C10.1291 28.0207 10.4914 27.916 10.7868 27.7C11.0822 27.4841 11.2919 27.1706 11.3786 26.815C12.3008 22.966 13.9453 17.9951 15.252 16.0854C17.1087 16.0389 18.9388 15.6318 20.6401 14.8866C20.6991 14.8626 20.7526 14.8269 20.7973 14.7814C20.842 14.736 20.8769 14.682 20.8999 14.6225C20.9229 14.5631 20.9335 14.4996 20.931 14.436C20.9285 14.3723 20.913 14.3098 20.8855 14.2524C20.858 14.1949 20.8189 14.1437 20.7709 14.1019C20.7228 14.0601 20.6666 14.0286 20.6059 14.0093C20.5452 13.9901 20.4812 13.9834 20.4178 13.9898C20.3544 13.9962 20.293 14.0155 20.2374 14.0466C18.5862 14.7539 16.8124 15.1309 15.0163 15.1563H15.0079C14.9354 15.1563 14.864 15.1732 14.7992 15.2056C14.7344 15.238 14.678 15.285 14.6346 15.343C13.2224 17.2199 11.471 22.4251 10.471 26.5999C10.4379 26.734 10.3606 26.853 10.2515 26.9377C10.1424 27.0223 10.008 27.0678 9.86989 27.0666C9.71625 27.0657 9.56835 27.0081 9.4547 26.9047C9.34105 26.8013 9.26969 26.6595 9.25436 26.5066C8.61783 20.5286 4.91436 11.6507 1.0009 6.71618C0.955415 6.66228 0.93137 6.59353 0.933349 6.52303C0.935329 6.45254 0.963195 6.38524 1.01163 6.33398L1.97203 5.34325C2.01755 5.28682 2.07417 5.24035 2.13839 5.20671C2.20261 5.17308 2.27306 5.153 2.34536 5.14772C2.37681 5.14846 2.4077 5.15612 2.43585 5.17016C2.464 5.18419 2.48871 5.20425 2.50823 5.22891C6.8711 10.3893 9.31083 17.2013 9.80923 19.6932C9.83074 19.7987 9.88802 19.8934 9.97136 19.9614C10.0547 20.0295 10.159 20.0666 10.2666 20.0666C10.3741 20.0666 10.4784 20.0295 10.5618 19.9614C10.6451 19.8934 10.7024 19.7987 10.7239 19.6932C11.1209 18.0611 11.7978 16.5102 12.7245 15.1092V15.1026C12.7273 15.0984 12.731 15.0956 12.7334 15.0914C15.3219 11.1428 18.7015 7.77403 22.6584 5.19811C22.7629 5.13171 22.8367 5.02654 22.8636 4.90572C22.8905 4.7849 22.8683 4.65834 22.8019 4.55388C22.7355 4.44942 22.6304 4.37562 22.5095 4.34871C22.3887 4.32179 22.2622 4.34398 22.1577 4.41038C18.3598 6.87286 15.0761 10.0493 12.4888 13.7633C10.4663 6.64198 14.1222 3.42992 15.8488 2.35658C19.4207 0.135248 24.8569 1.04711 27.0241 1.53991C27.0341 1.54096 27.0435 1.54505 27.0511 1.55165C27.0587 1.55825 27.0641 1.56702 27.0666 1.57678C27.0694 1.58545 27.0696 1.59475 27.0672 1.60354C27.0648 1.61233 27.0599 1.62023 27.053 1.62625C25.9107 2.85648 25.1007 4.35754 24.6996 5.98772C24.5027 6.67325 24.3333 7.29018 24.1793 7.84971C23.414 10.6348 23.0649 11.9055 21.7321 13.081C21.6393 13.1629 21.5828 13.2783 21.575 13.4018C21.5673 13.5254 21.6089 13.6469 21.6908 13.7397C21.7727 13.8326 21.8881 13.8891 22.0116 13.8968C22.1351 13.9046 22.2567 13.8629 22.3495 13.781C23.8895 12.4212 24.288 10.9764 25.079 8.09752C25.2321 7.54078 25.401 6.92665 25.5966 6.24485C26.2168 4.07345 27.0843 2.89791 27.7059 2.29125C27.8324 2.16803 27.9233 2.01291 27.969 1.84229C28.0146 1.67167 28.0132 1.49189 27.9651 1.32196C27.917 1.15203 27.8238 0.998277 27.6954 0.87695C27.5671 0.755623 27.4083 0.671236 27.236 0.632715Z" fill="black"/>
</g>
<defs>
<clipPath id="clip0_114_2385">
<rect width="28" height="28" fill="white"/>
</clipPath>
</defs>
</svg>
