<svg width="50" height="50" viewBox="0 0 50 50" fill="none" xmlns="http://www.w3.org/2000/svg">
<g clip-path="url(#clip0_108_9181)">
<path d="M18.4468 40.2734V48.2912C18.4468 48.8306 18.884 49.2678 19.4233 49.2678H30.5769C31.1162 49.2678 31.5534 48.8306 31.5534 48.2912V40.2734H18.4468Z" fill="#FFCEBF"/>
<path d="M28.6235 40.2734V48.2912C28.6235 48.8306 28.1863 49.2678 27.647 49.2678H30.5767C31.116 49.2678 31.5532 48.8306 31.5532 48.2912V40.2734H28.6235Z" fill="#FFB09E"/>
<path d="M47.8016 2.81569L46.7395 2.20251C45.9861 1.76754 45.0228 2.02565 44.5878 2.77907L43.8689 4.02409C43.6237 3.25436 42.7946 2.81696 42.0083 3.07829C41.2648 3.32536 40.8653 4.13502 41.0681 4.89176L41.6913 7.21774C41.7591 7.47057 41.7236 7.73991 41.5927 7.96657L34.13 20.8924C33.5678 21.8662 32.5288 22.4661 31.4043 22.4661H27.2201V23.9965C27.2201 25.2208 26.2242 26.2167 25 26.2167C23.7758 26.2167 22.7799 25.2208 22.7799 23.9965V22.4661H17.6871C17.1249 22.4661 16.6054 22.1662 16.3243 21.6793L8.40723 7.96647C8.27637 7.73981 8.24092 7.47047 8.30859 7.21764L8.93184 4.89176C9.13457 4.13512 8.73506 3.32536 7.9917 3.07829C7.20547 2.81686 6.37617 3.25426 6.13096 4.02409L5.41211 2.77907C4.97715 2.02575 4.01387 1.76754 3.26055 2.20251L2.19844 2.81569C1.44512 3.25065 1.18701 4.21393 1.62187 4.96735L14.7016 27.622L18.4466 40.3708H31.5532L35.2982 27.622L48.3781 4.96735C48.813 4.21393 48.5549 3.25065 47.8016 2.81569Z" fill="#FFCEBF"/>
<path d="M16.3243 21.6795L8.40719 7.96657C8.27633 7.73991 8.24088 7.47057 8.30855 7.21774L8.9318 4.89186C9.13453 4.13522 8.73502 3.32545 7.99166 3.07838C7.20543 2.81696 6.37613 3.25436 6.13092 4.02418L5.37887 7.21774C5.31109 7.47057 5.34654 7.73991 5.4775 7.96657L13.3946 21.6794C13.6756 22.1663 14.1952 22.4662 14.7574 22.4662H17.6871C17.1249 22.4663 16.6053 22.1663 16.3243 21.6795Z" fill="#FFB09E"/>
<path d="M47.8018 2.81581L46.7396 2.20263C46.0186 1.78632 45.1062 2.00624 44.6479 2.68642L44.8721 2.81581C45.6254 3.25077 45.8835 4.21405 45.4486 4.96747L33.6382 25.4237L35.2985 27.6222L48.3783 4.96747C48.8132 4.21405 48.5551 3.25077 47.8018 2.81581Z" fill="#FFB09E"/>
<path d="M31.4043 22.4663H27.2201V23.9968C27.2201 25.221 26.2242 26.2169 25 26.2169C23.7758 26.2169 22.7799 25.221 22.7799 23.9968V22.4663H18.5957L14.7017 27.6222L18.4467 40.3709H31.5533L35.2983 27.6222L31.4043 22.4663Z" fill="#26A6FE"/>
<path d="M33.6379 25.4238L28.6235 40.371H31.5532L35.2982 27.6223L33.6379 25.4238Z" fill="#0593FC"/>
<path d="M24.9999 4.89619C26.5487 4.89619 27.9908 5.35859 29.1983 6.15059C29.2874 5.80439 29.3348 5.44141 29.3348 5.06738C29.3348 2.67324 27.394 0.732422 24.9999 0.732422C22.6058 0.732422 20.665 2.67324 20.665 5.06729C20.665 5.44131 20.7124 5.8043 20.8015 6.15049C22.009 5.35859 23.4511 4.89619 24.9999 4.89619Z" fill="#FFE177"/>
<path d="M25 0.732422C24.2971 0.732422 23.634 0.900781 23.0469 1.19766C24.4152 1.88965 25.3663 3.28516 25.4246 4.90908C26.812 4.98535 28.1021 5.43145 29.1984 6.15049C29.2875 5.8043 29.3349 5.44131 29.3349 5.06729C29.3349 2.67324 27.3941 0.732422 25 0.732422Z" fill="#FFD15B"/>
<path d="M25.0002 22.5201C24.1855 22.5201 23.3983 22.3426 22.6821 22.0064V23.9969C22.6821 25.277 23.7198 26.3146 24.9999 26.3146C26.28 26.3146 27.3177 25.277 27.3177 23.9969V22.002C26.6138 22.3336 25.8285 22.5199 25.0002 22.5201Z" fill="#F89580"/>
<path d="M25.3644 22.5066V23.0203C25.3644 24.2795 24.3601 25.3034 23.1089 25.3365C23.5288 25.9282 24.2189 26.3146 24.9997 26.3146C26.2798 26.3146 27.3175 25.277 27.3175 23.9969V22.002C26.7177 22.2845 26.0585 22.4604 25.3644 22.5066Z" fill="#EC806B"/>
<path d="M18.5118 14.2222H19.5707C19.7934 12.5326 21.2419 11.2239 22.9913 11.2239H27.008C28.7574 11.2239 30.206 12.5326 30.4286 14.2222H31.4875C31.9785 14.2222 32.4279 14.4016 32.7756 14.6972V12.5748C32.7756 8.28027 29.2941 4.79883 24.9996 4.79883C20.7051 4.79883 17.2236 8.28027 17.2236 12.5748V14.6972C17.5714 14.4016 18.0208 14.2222 18.5118 14.2222Z" fill="#FFD15B"/>
<path d="M19.5401 17.0606V14.6753C19.5401 14.4871 19.5559 14.3026 19.585 14.1226H18.5119C17.3563 14.1226 16.4194 15.0594 16.4194 16.215C16.4194 17.3707 17.3563 18.3074 18.5119 18.3074H19.6838C19.5898 17.9033 19.5401 17.4859 19.5401 17.0606Z" fill="#FFB09E"/>
<path d="M31.4876 14.1226H30.4146C30.4437 14.3026 30.4594 14.4871 30.4594 14.6753V17.0606C30.4594 17.4896 30.408 17.9066 30.314 18.3074H31.4876C32.6433 18.3074 33.5801 17.3706 33.5801 16.215C33.58 15.0594 32.6432 14.1226 31.4876 14.1226Z" fill="#F89580"/>
<path d="M19.4406 17.0607C19.4406 20.1312 21.9298 22.6201 25.0001 22.62C28.0703 22.6199 30.5591 20.131 30.5591 17.0607V14.6754C30.5591 12.7143 28.9692 11.1245 27.0081 11.1245H22.9914C21.0303 11.1245 19.4404 12.7144 19.4404 14.6754V17.0607H19.4406Z" fill="#FFCEBF"/>
<path d="M24.9998 4.79834C24.7976 4.79834 24.5978 4.8085 24.3994 4.82373C26.7353 6.14268 28.3201 8.6333 28.3562 11.4985C29.4576 11.9681 30.2669 12.994 30.4287 14.2218H31.4877C31.9787 14.2218 32.4281 14.4012 32.7758 14.6968V12.5744C32.7758 8.27979 29.2943 4.79834 24.9998 4.79834Z" fill="#FFC344"/>
<path d="M28.3537 11.3887C28.3556 11.4585 28.359 11.5278 28.359 11.5981V16.084C28.359 19.1542 25.8701 21.6432 22.8 21.6433C22.4234 21.6433 22.0558 21.6054 21.7002 21.5341C22.6233 22.2161 23.7646 22.6199 25.0004 22.6198C28.0706 22.6197 30.5595 20.1308 30.5595 17.0605V14.6752C30.5594 13.1901 29.6477 11.9188 28.3537 11.3887Z" fill="#FFB09E"/>
<path d="M18.4468 40.3711V48.2912C18.4468 48.8306 18.884 49.2678 19.4233 49.2678H30.5769C31.1162 49.2678 31.5534 48.8306 31.5534 48.2912V40.3711" stroke="#333333" stroke-width="1.5" stroke-miterlimit="10" stroke-linecap="round" stroke-linejoin="round"/>
<path d="M35.2983 27.622L48.3781 4.96735C48.8131 4.21403 48.555 3.25065 47.8016 2.81569L46.7395 2.20251C45.9861 1.76754 45.0228 2.02565 44.5878 2.77907L43.8689 4.02409C43.6237 3.25436 42.7946 2.81696 42.0083 3.07829C41.2648 3.32536 40.8653 4.13502 41.0681 4.89176L41.6913 7.21774C41.7591 7.47057 41.7236 7.73991 41.5927 7.96657L40.697 9.51803" stroke="#333333" stroke-width="1.5" stroke-miterlimit="10" stroke-linecap="round" stroke-linejoin="round"/>
<path d="M11.0127 21.2324L14.7018 27.6221" stroke="#333333" stroke-width="1.5" stroke-miterlimit="10" stroke-linecap="round" stroke-linejoin="round"/>
<path d="M22.7799 22.4662H17.6871C17.1249 22.4662 16.6054 22.1663 16.3243 21.6793L8.40723 7.96645C8.27637 7.73979 8.24092 7.47045 8.30859 7.21762L8.93184 4.89174C9.13457 4.1351 8.73506 3.32534 7.9917 3.07827C7.20547 2.81684 6.37617 3.25424 6.13096 4.02407L5.41211 2.77905C4.97715 2.02573 4.01387 1.76752 3.26055 2.20248L2.19844 2.81567C1.44512 3.25063 1.18701 4.21391 1.62187 4.96733L9.30351 18.2724" stroke="#333333" stroke-width="1.5" stroke-miterlimit="10" stroke-linecap="round" stroke-linejoin="round"/>
<path d="M38.9882 12.478L34.1301 20.8925C33.5679 21.8662 32.5289 22.4661 31.4044 22.4661H27.2202" stroke="#333333" stroke-width="1.5" stroke-miterlimit="10" stroke-linecap="round" stroke-linejoin="round"/>
<path d="M18.5956 22.4663L14.7017 27.6222L18.4467 40.3709H24.6335" stroke="#333333" stroke-width="1.5" stroke-miterlimit="10" stroke-linecap="round" stroke-linejoin="round"/>
<path d="M28.0513 40.3709H31.5531L35.2981 27.6222L31.4042 22.4663" stroke="#333333" stroke-width="1.5" stroke-miterlimit="10" stroke-linecap="round" stroke-linejoin="round"/>
<path d="M29.2218 6.0459C29.2944 5.73115 29.3348 5.4041 29.3348 5.06729C29.3348 2.67324 27.394 0.732422 24.9999 0.732422C22.6058 0.732422 20.665 2.67324 20.665 5.06729C20.665 5.4041 20.7054 5.73115 20.778 6.0459" stroke="#333333" stroke-width="1.5" stroke-miterlimit="10" stroke-linecap="round" stroke-linejoin="round"/>
<path d="M22.6821 22.1133V23.9969C22.6821 25.277 23.7198 26.3146 24.9999 26.3146C26.28 26.3146 27.3177 25.277 27.3177 23.9969V22.1133" stroke="#333333" stroke-width="1.5" stroke-miterlimit="10" stroke-linecap="round" stroke-linejoin="round"/>
<path d="M19.4836 14.1221H18.5119C17.3563 14.1221 16.4194 15.0589 16.4194 16.2146C16.4194 17.3701 17.3563 18.307 18.5119 18.307H19.5826" stroke="#333333" stroke-width="1.5" stroke-miterlimit="10" stroke-linecap="round" stroke-linejoin="round"/>
<path d="M23.4268 18.4634C24.0073 19.8649 25.9927 19.8649 26.5732 18.4634" stroke="#333333" stroke-width="1.5" stroke-miterlimit="10" stroke-linecap="round" stroke-linejoin="round"/>
<path d="M22.938 14.5356V15.4613" stroke="#333333" stroke-width="1.5" stroke-miterlimit="10" stroke-linecap="round" stroke-linejoin="round"/>
<path d="M27.0615 14.5356V15.4613" stroke="#333333" stroke-width="1.5" stroke-miterlimit="10" stroke-linecap="round" stroke-linejoin="round"/>
<path d="M20.7461 33.5476H20.7553C21.8913 33.5476 22.9538 33.064 23.774 32.2779C24.4681 31.6127 25.57 31.6217 26.2531 32.3048C27.0489 33.1006 28.1282 33.5477 29.2535 33.5477" stroke="#333333" stroke-width="1.5" stroke-miterlimit="10" stroke-linecap="round" stroke-linejoin="round"/>
<path d="M36.7065 38.6049C39.5889 35.6546 41.366 31.62 41.366 27.1697C41.366 26.603 41.3371 26.0431 41.281 25.4912" stroke="#333333" stroke-width="1.5" stroke-miterlimit="10" stroke-linecap="round" stroke-linejoin="round"/>
<path d="M8.71934 25.4912C8.66309 26.0431 8.63428 26.603 8.63428 27.1697C8.63428 31.62 10.4114 35.6547 13.2938 38.6049" stroke="#333333" stroke-width="1.5" stroke-miterlimit="10" stroke-linecap="round" stroke-linejoin="round"/>
<path d="M39.8882 42.3819C43.8399 38.5135 46.2967 33.1236 46.2967 27.17C46.2967 25.7339 46.1529 24.3308 45.8806 22.9736" stroke="#333333" stroke-width="1.5" stroke-miterlimit="10" stroke-linecap="round" stroke-linejoin="round"/>
<path d="M4.11924 22.9731C3.84697 24.3304 3.70312 25.7334 3.70312 27.1695C3.70312 33.1232 6.15986 38.5131 10.1116 42.3814" stroke="#333333" stroke-width="1.5" stroke-miterlimit="10" stroke-linecap="round" stroke-linejoin="round"/>
<path d="M25 45.0571V45.3719" stroke="#333333" stroke-width="1.5" stroke-miterlimit="10" stroke-linecap="round" stroke-linejoin="round"/>
<path d="M32.7761 14.5683V12.5748C32.7761 8.28027 29.2946 4.79883 25.0001 4.79883C20.7056 4.79883 17.2241 8.28027 17.2241 12.5748V14.5683" stroke="#333333" stroke-width="1.5" stroke-miterlimit="10" stroke-linecap="round" stroke-linejoin="round"/>
<path d="M19.4406 17.0603C19.4406 20.1307 21.9298 22.6196 25.0001 22.6195C28.0703 22.6194 30.5591 20.1305 30.5591 17.0603V14.6749C30.5591 12.7138 28.9692 11.124 27.0081 11.124H22.9914C21.0303 11.124 19.4404 12.7139 19.4404 14.6749V17.0603H19.4406Z" stroke="#333333" stroke-width="1.5" stroke-miterlimit="10" stroke-linecap="round" stroke-linejoin="round"/>
<path d="M30.417 18.307H31.4877C32.6434 18.307 33.5802 17.3702 33.5802 16.2146C33.5802 15.0589 32.6434 14.1221 31.4877 14.1221H30.5161" stroke="#333333" stroke-width="1.5" stroke-miterlimit="10" stroke-linecap="round" stroke-linejoin="round"/>
</g>
<defs>
<clipPath id="clip0_108_9181">
<rect width="50" height="50" fill="white"/>
</clipPath>
</defs>
</svg>
