<svg width="16" height="16" viewBox="0 0 16 16" fill="none" xmlns="http://www.w3.org/2000/svg">
<g clip-path="url(#clip0_26_52780)">
<path d="M6.60217 12.2366L7.61864 14.8957C7.6807 15.058 7.84195 15.1632 8.01542 15.1519C12.5014 14.8582 13.6489 12.8303 13.9227 11.5539C14.0609 10.9095 13.7647 10.2352 13.1956 9.90286C10.5432 8.35365 7.47214 11.0567 6.69561 11.8093C6.58142 11.92 6.54539 12.088 6.60217 12.2366Z" fill="url(#paint0_linear_26_52780)"/>
<path d="M6.89859 12.1223C6.88734 12.0921 6.8944 12.0586 6.91668 12.037C7.26943 11.6951 8.21543 10.8395 9.38009 10.2786C10.773 9.60777 12.003 9.57352 13.0357 10.1767C13.2757 10.3169 13.4624 10.5404 13.5613 10.8062C13.6432 11.0261 13.6609 11.2615 13.6125 11.4871C13.4969 12.0263 13.1841 12.8086 12.3509 13.473C11.3748 14.2514 9.90924 14.7096 7.99481 14.835C7.96127 14.8371 7.92781 14.8149 7.91524 14.7821L6.89859 12.1223Z" fill="url(#paint1_linear_26_52780)"/>
<path d="M5.39056 12.6463C5.34997 12.5372 5.24028 12.4668 5.12437 12.4771C2.83759 12.6812 1.68366 13.7739 2.14297 15.0074C2.61531 16.2759 4.09128 16.139 5.43228 15.6397C5.67747 15.5484 5.90903 15.475 6.12434 15.4158C6.27037 15.3756 6.34834 15.2184 6.2955 15.0765L5.39056 12.6463Z" fill="url(#paint2_linear_26_52780)"/>
<path d="M2.44061 14.8968C2.31073 14.5479 2.34004 14.2201 2.52776 13.9225C2.70611 13.6397 3.31342 12.9677 5.10829 12.7974L5.97604 15.1278C5.75729 15.1899 5.53748 15.2619 5.3217 15.3423C4.60961 15.6074 3.97789 15.7211 3.49489 15.6708C2.95867 15.6151 2.61379 15.3619 2.44061 14.8968Z" fill="url(#paint3_linear_26_52780)"/>
<path d="M13.2676 12.4027L12.325 9.87109C12.5711 9.94203 12.808 10.0439 13.0353 10.1768C13.2755 10.3169 13.4621 10.5408 13.561 10.8063C13.6429 11.0264 13.6608 11.2619 13.6122 11.4874C13.556 11.7492 13.4537 12.068 13.2676 12.4027Z" fill="url(#paint4_linear_26_52780)"/>
<path d="M12.6668 13.1919L11.3848 9.749C11.7117 9.74366 12.0254 9.78437 12.3251 9.87087L13.2678 12.4025C13.1237 12.6623 12.929 12.9321 12.6668 13.1919Z" fill="url(#paint5_linear_26_52780)"/>
<path d="M11.976 13.7404L10.5312 9.86062C10.8247 9.79027 11.1094 9.7533 11.3847 9.74902L12.6667 13.1919C12.5706 13.2874 12.4654 13.3812 12.3505 13.473C12.2327 13.5669 12.108 13.6561 11.976 13.7404Z" fill="url(#paint6_linear_26_52780)"/>
<path d="M11.2287 14.1374L9.73315 10.1212C10.0058 10.0087 10.2719 9.92184 10.5312 9.86084L11.9759 13.7406C11.748 13.8869 11.4987 14.019 11.2287 14.1374Z" fill="url(#paint7_linear_26_52780)"/>
<path d="M10.4408 14.4244L8.97559 10.4896C9.10696 10.4161 9.24199 10.3455 9.38018 10.2788C9.49896 10.2215 9.6169 10.1687 9.73337 10.1211L11.2289 14.1373C10.9835 14.2447 10.7207 14.3405 10.4408 14.4244Z" fill="url(#paint8_linear_26_52780)"/>
<path d="M10.4407 14.4241C10.1822 14.5017 9.90897 14.5696 9.62135 14.6271L8.24976 10.9437C8.47422 10.7882 8.71751 10.6332 8.97554 10.4893L10.4407 14.4241Z" fill="url(#paint9_linear_26_52780)"/>
<path d="M9.62124 14.6273C9.35221 14.6813 9.07043 14.7262 8.77639 14.762L7.55127 11.4719C7.75364 11.3059 7.98877 11.1244 8.24961 10.9438L9.62124 14.6273Z" fill="url(#paint10_linear_26_52780)"/>
<path d="M8.7765 14.7618C8.52475 14.7929 8.2641 14.8171 7.99466 14.8349C7.9611 14.8368 7.92781 14.8145 7.91525 14.7819L6.89857 12.1221C6.88738 12.0919 6.89435 12.0584 6.91669 12.0366C7.05016 11.9073 7.26847 11.7045 7.55138 11.4717L8.7765 14.7618Z" fill="url(#paint11_linear_26_52780)"/>
<path d="M7.73851 6.45968L5.74304 4.42933C5.62122 4.30536 5.59257 4.11496 5.67504 3.96196C7.80782 0.00458264 10.1293 -0.195636 11.4039 0.0862703C12.0474 0.228614 12.5374 0.778364 12.603 1.43415C12.9087 4.49055 9.17322 6.15924 8.16588 6.5524C8.01776 6.61021 7.84997 6.57311 7.73851 6.45968Z" fill="url(#paint12_linear_26_52780)"/>
<path d="M7.96549 6.23749C7.9883 6.2603 8.02171 6.2678 8.05058 6.25649C8.50818 6.07789 9.67974 5.57346 10.6742 4.74755C11.8636 3.75983 12.4063 2.65558 12.2874 1.46549C12.2597 1.18889 12.134 0.926237 11.9335 0.725706C11.7676 0.5598 11.5608 0.445737 11.3356 0.395956C10.7971 0.276862 9.95555 0.235925 9.0048 0.717331C7.89099 1.28121 6.86474 2.42346 5.95455 4.1123C5.93862 4.14189 5.94493 4.18158 5.96955 4.20664L7.96549 6.23749Z" fill="url(#paint13_linear_26_52780)"/>
<path d="M6.8617 7.39075C6.94398 7.47304 6.96251 7.6021 6.90485 7.70322C5.76817 9.69794 4.29445 10.2928 3.36373 9.36213C2.40657 8.40497 3.14498 7.11969 4.15679 6.10785C4.34179 5.92285 4.50476 5.74275 4.6482 5.5716C4.74548 5.4555 4.92088 5.44997 5.02798 5.55707L6.8617 7.39075Z" fill="url(#paint14_linear_26_52780)"/>
<path d="M3.58809 9.13791C3.85127 9.4011 4.16162 9.51078 4.51037 9.46388C4.84171 9.41928 5.70543 9.14647 6.60677 7.58507L4.84837 5.82666C4.7009 5.99979 4.54396 6.16969 4.38115 6.3325C3.84387 6.86979 3.47777 7.39704 3.32255 7.85719C3.15024 8.368 3.23712 8.78694 3.58809 9.13791Z" fill="url(#paint15_linear_26_52780)"/>
<path d="M10.3596 0.328668L12.2698 2.23889C12.3077 1.98554 12.3136 1.72773 12.2872 1.4657C12.2597 1.18907 12.1338 0.926231 11.9335 0.725918C11.7674 0.559824 11.5606 0.445668 11.3353 0.396012C11.0739 0.338199 10.7414 0.298637 10.3596 0.328668Z" fill="url(#paint16_linear_26_52780)"/>
<path d="M9.3916 0.547352L11.9894 3.14516C12.1303 2.85004 12.2237 2.54788 12.2697 2.23932L10.3594 0.329102C10.0632 0.352102 9.73698 0.416914 9.3916 0.547352Z" fill="url(#paint17_linear_26_52780)"/>
<path d="M8.60571 0.947426L11.5332 3.87486C11.7192 3.63724 11.8712 3.39374 11.9896 3.14518L9.39178 0.547363C9.26496 0.595051 9.13593 0.651707 9.00465 0.717926C8.87024 0.786113 8.73731 0.862426 8.60571 0.947426Z" fill="url(#paint18_linear_26_52780)"/>
<path d="M7.93408 1.4618L10.9645 4.4922C11.1802 4.29108 11.3699 4.08514 11.5331 3.87473L8.60571 0.947266C8.37793 1.09373 8.15405 1.26539 7.93408 1.4618Z" fill="url(#paint19_linear_26_52780)"/>
<path d="M7.34521 2.05916L10.3142 5.02813C10.4357 4.9392 10.556 4.84576 10.6741 4.74788C10.7757 4.6637 10.8727 4.57845 10.9645 4.49232L7.93406 1.46191C7.73428 1.64032 7.53793 1.83951 7.34521 2.05916Z" fill="url(#paint20_linear_26_52780)"/>
<path d="M7.34505 2.05908C7.16692 2.26189 6.99158 2.48214 6.81958 2.71977L9.59889 5.49908C9.83371 5.35968 10.0758 5.20283 10.314 5.02805L7.34505 2.05908Z" fill="url(#paint21_linear_26_52780)"/>
<path d="M6.81976 2.71973C6.65873 2.94191 6.50079 3.17951 6.34595 3.43201L8.82845 5.91451C9.06354 5.79951 9.32639 5.66116 9.59907 5.49904L6.81976 2.71973Z" fill="url(#paint22_linear_26_52780)"/>
<path d="M6.34573 3.43213C6.21273 3.64813 6.0823 3.8751 5.95411 4.11272C5.93839 4.14247 5.94486 4.182 5.96926 4.20697L7.96533 6.23782C7.98804 6.26054 8.02142 6.26813 8.05061 6.25688C8.2237 6.18929 8.49892 6.07507 8.82826 5.91463L6.34573 3.43213Z" fill="url(#paint23_linear_26_52780)"/>
</g>
<defs>
<linearGradient id="paint0_linear_26_52780" x1="11.5151" y1="9.11516" x2="8.60729" y2="15.4742" gradientUnits="userSpaceOnUse">
<stop stop-color="#FFCF42"/>
<stop offset="1" stop-color="#FFB500"/>
</linearGradient>
<linearGradient id="paint1_linear_26_52780" x1="9.58032" y1="13.3451" x2="12.2331" y2="7.54385" gradientUnits="userSpaceOnUse">
<stop stop-color="#FFB500" stop-opacity="0"/>
<stop offset="1" stop-color="#FF7000"/>
</linearGradient>
<linearGradient id="paint2_linear_26_52780" x1="5.19924" y1="12.4747" x2="3.52763" y2="16.1298" gradientUnits="userSpaceOnUse">
<stop stop-color="#FFCF42"/>
<stop offset="1" stop-color="#FFB500"/>
</linearGradient>
<linearGradient id="paint3_linear_26_52780" x1="3.52371" y1="16.1048" x2="5.89825" y2="10.9118" gradientUnits="userSpaceOnUse">
<stop stop-color="#FFB500" stop-opacity="0"/>
<stop offset="1" stop-color="#FF7000"/>
</linearGradient>
<linearGradient id="paint4_linear_26_52780" x1="12.9416" y1="11.0828" x2="14.038" y2="10.6743" gradientUnits="userSpaceOnUse">
<stop stop-color="#FFB500" stop-opacity="0"/>
<stop offset="1" stop-color="#FF7000"/>
</linearGradient>
<linearGradient id="paint5_linear_26_52780" x1="12.1722" y1="11.4159" x2="13.2775" y2="11.0043" gradientUnits="userSpaceOnUse">
<stop stop-color="#FFB500" stop-opacity="0"/>
<stop offset="1" stop-color="#FF7000"/>
</linearGradient>
<linearGradient id="paint6_linear_26_52780" x1="11.4001" y1="11.7459" x2="12.5054" y2="11.3343" gradientUnits="userSpaceOnUse">
<stop stop-color="#FFB500" stop-opacity="0"/>
<stop offset="1" stop-color="#FF7000"/>
</linearGradient>
<linearGradient id="paint7_linear_26_52780" x1="10.627" y1="12.0729" x2="11.7322" y2="11.6613" gradientUnits="userSpaceOnUse">
<stop stop-color="#FFB500" stop-opacity="0"/>
<stop offset="1" stop-color="#FF7000"/>
</linearGradient>
<linearGradient id="paint8_linear_26_52780" x1="9.84345" y1="12.372" x2="10.9487" y2="11.9604" gradientUnits="userSpaceOnUse">
<stop stop-color="#FFB500" stop-opacity="0"/>
<stop offset="1" stop-color="#FF7000"/>
</linearGradient>
<linearGradient id="paint9_linear_26_52780" x1="9.06878" y1="12.6947" x2="10.174" y2="12.2832" gradientUnits="userSpaceOnUse">
<stop stop-color="#FFB500" stop-opacity="0"/>
<stop offset="1" stop-color="#FF7000"/>
</linearGradient>
<linearGradient id="paint10_linear_26_52780" x1="8.29629" y1="13.0236" x2="9.40152" y2="12.612" gradientUnits="userSpaceOnUse">
<stop stop-color="#FFB500" stop-opacity="0"/>
<stop offset="1" stop-color="#FF7000"/>
</linearGradient>
<linearGradient id="paint11_linear_26_52780" x1="7.52466" y1="13.3548" x2="8.62989" y2="12.9432" gradientUnits="userSpaceOnUse">
<stop stop-color="#FFB500" stop-opacity="0"/>
<stop offset="1" stop-color="#FF7000"/>
</linearGradient>
<linearGradient id="paint12_linear_26_52780" x1="8.13008" y1="4.17709" x2="1.1376" y2="10.5362" gradientUnits="userSpaceOnUse">
<stop stop-color="#FFCF42"/>
<stop offset="1" stop-color="#FFB500"/>
</linearGradient>
<linearGradient id="paint13_linear_26_52780" x1="10.7487" y1="4.17952" x2="1.16868" y2="-4.20148" gradientUnits="userSpaceOnUse">
<stop stop-color="#FFB500" stop-opacity="0"/>
<stop offset="1" stop-color="#FF7000"/>
</linearGradient>
<linearGradient id="paint14_linear_26_52780" x1="4.87169" y1="7.80843" x2="0.852645" y2="14.1675" gradientUnits="userSpaceOnUse">
<stop stop-color="#FFCF42"/>
<stop offset="1" stop-color="#FFB500"/>
</linearGradient>
<linearGradient id="paint15_linear_26_52780" x1="9.21206" y1="10.4165" x2="-0.36797" y2="4.83608" gradientUnits="userSpaceOnUse">
<stop stop-color="#FFB500" stop-opacity="0"/>
<stop offset="1" stop-color="#FF7000"/>
</linearGradient>
<linearGradient id="paint16_linear_26_52780" x1="11.4243" y1="1.17425" x2="12.2516" y2="0.347003" gradientUnits="userSpaceOnUse">
<stop stop-color="#FFB500" stop-opacity="0"/>
<stop offset="1" stop-color="#FF7000"/>
</linearGradient>
<linearGradient id="paint17_linear_26_52780" x1="10.801" y1="1.73581" x2="11.6349" y2="0.901761" gradientUnits="userSpaceOnUse">
<stop stop-color="#FFB500" stop-opacity="0"/>
<stop offset="1" stop-color="#FF7000"/>
</linearGradient>
<linearGradient id="paint18_linear_26_52780" x1="10.1801" y1="2.30058" x2="11.014" y2="1.46668" gradientUnits="userSpaceOnUse">
<stop stop-color="#FFB500" stop-opacity="0"/>
<stop offset="1" stop-color="#FF7000"/>
</linearGradient>
<linearGradient id="paint19_linear_26_52780" x1="9.56122" y1="2.86772" x2="10.3951" y2="2.03386" gradientUnits="userSpaceOnUse">
<stop stop-color="#FFB500" stop-opacity="0"/>
<stop offset="1" stop-color="#FF7000"/>
</linearGradient>
<linearGradient id="paint20_linear_26_52780" x1="8.9632" y1="3.45605" x2="9.79738" y2="2.62219" gradientUnits="userSpaceOnUse">
<stop stop-color="#FFB500" stop-opacity="0"/>
<stop offset="1" stop-color="#FF7000"/>
</linearGradient>
<linearGradient id="paint21_linear_26_52780" x1="8.3472" y1="4.02599" x2="9.18106" y2="3.19212" gradientUnits="userSpaceOnUse">
<stop stop-color="#FFB500" stop-opacity="0"/>
<stop offset="1" stop-color="#FF7000"/>
</linearGradient>
<linearGradient id="paint22_linear_26_52780" x1="7.72707" y1="4.59182" x2="8.56094" y2="3.75795" gradientUnits="userSpaceOnUse">
<stop stop-color="#FFB500" stop-opacity="0"/>
<stop offset="1" stop-color="#FF7000"/>
</linearGradient>
<linearGradient id="paint23_linear_26_52780" x1="7.10462" y1="5.15583" x2="7.93848" y2="4.32197" gradientUnits="userSpaceOnUse">
<stop stop-color="#FFB500" stop-opacity="0"/>
<stop offset="1" stop-color="#FF7000"/>
</linearGradient>
<clipPath id="clip0_26_52780">
<rect width="16" height="16" fill="white"/>
</clipPath>
</defs>
</svg>
