<svg width="16" height="16" viewBox="0 0 16 16" fill="none" xmlns="http://www.w3.org/2000/svg">
<g clip-path="url(#clip0_26_52828)">
<path d="M4.64868 10.2192L10.2174 4.65051L11.3476 5.78067L5.77884 11.3494L4.64868 10.2192Z" fill="#E4EAF8"/>
<path d="M5.21997 10.7905L10.7887 5.2218L11.3476 5.78072L5.7789 11.3495L5.21997 10.7905Z" fill="#CBD9F8"/>
<path d="M10.5441 6.5864L9.41373 5.45605L9.07227 5.79752H9.0723L10.2026 6.92784L10.5441 6.5864Z" fill="#464655"/>
<path d="M6.92762 10.2026L5.79728 9.07227L5.45581 9.41373L6.58615 10.5441L6.92762 10.2026Z" fill="#464655"/>
<path d="M13.7231 1.52351L14.5294 0.717262C14.627 0.619637 14.7853 0.619637 14.883 0.717262L15.283 1.11726C15.3806 1.21489 15.3806 1.37317 15.283 1.47082L14.4767 2.27707L13.7231 1.52351Z" fill="#E4EAF8"/>
<path d="M15.2776 1.11173L14.8883 0.722418C14.7877 0.621824 14.6246 0.621824 14.524 0.722418L14.3359 0.910543L14.5371 1.11173C14.6377 1.21232 14.6377 1.37539 14.5371 1.47598L14.1064 1.90664L14.4767 2.27689L15.2776 1.47598C15.3782 1.37539 15.3782 1.21232 15.2776 1.11173Z" fill="#CBD9F8"/>
<path d="M11.9229 1.06292L12.4687 0.517043C12.664 0.321793 12.9806 0.321793 13.1758 0.517043L15.4829 2.82417C15.6782 3.01942 15.6782 3.33601 15.4829 3.53126L14.9371 4.07714L11.9229 1.06292Z" fill="#464655"/>
<path d="M15.4722 2.81357L13.1865 0.52782C12.9853 0.326664 12.6592 0.326664 12.458 0.52782L12.4487 0.537102L14.7252 2.81357C14.9264 3.01473 14.9264 3.34088 14.7252 3.54204L14.5635 3.7037L14.9371 4.07723L15.4723 3.54204C15.6734 3.34088 15.6734 3.01473 15.4722 2.81357Z" fill="#3C3C4D"/>
<path d="M1.52327 13.7231L0.717018 14.5294C0.619393 14.627 0.619393 14.7853 0.717018 14.883L1.11702 15.283C1.21464 15.3806 1.37292 15.3806 1.47058 15.283L2.27683 14.4767L1.52327 13.7231Z" fill="#E4EAF8"/>
<path d="M1.1053 14.9078C1.00727 15.0058 0.850055 15.008 0.749023 14.9149L1.11168 15.2776C1.21227 15.3782 1.37534 15.3782 1.47593 15.2776L2.27684 14.4767L1.90659 14.1064L1.1053 14.9078Z" fill="#CBD9F8"/>
<path d="M1.06292 11.9229L0.517043 12.4687C0.321793 12.664 0.321793 12.9806 0.517043 13.1758L2.82417 15.4829C3.01942 15.6782 3.33601 15.6782 3.53126 15.4829L4.07714 14.9371L1.06292 11.9229Z" fill="#464655"/>
<path d="M3.16984 15.1046C2.98168 15.2928 2.68425 15.3049 2.48193 15.1411L2.81331 15.4724C3.01446 15.6736 3.34062 15.6736 3.54178 15.4724L4.07696 14.9373L3.70709 14.5674L3.16984 15.1046Z" fill="#3C3C4D"/>
<path d="M13.7234 1.52302L14.5296 0.716773C14.6273 0.619148 14.7856 0.619148 14.8832 0.716773L15.2832 1.11677C15.3808 1.2144 15.3808 1.37268 15.2832 1.47034L14.477 2.27659L13.7234 1.52302Z" fill="#E4EAF8"/>
<path d="M15.2778 1.11173L14.8885 0.722418C14.7879 0.621824 14.6248 0.621824 14.5243 0.722418L14.3362 0.910543L14.5373 1.11173C14.6379 1.21232 14.6379 1.37539 14.5373 1.47598L14.1067 1.90664L14.4769 2.27689L15.2778 1.47598C15.3784 1.37539 15.3784 1.21232 15.2778 1.11173Z" fill="#CBD9F8"/>
<path d="M15.8492 4.6973L11.3028 0.150867C11.1016 -0.0502891 10.7755 -0.0502891 10.5743 0.150867L9.61356 1.11162C9.54288 1.1823 9.52188 1.2838 9.5505 1.37284C9.55841 1.39743 9.53513 1.42074 9.51053 1.4128C9.4215 1.38418 9.32 1.40518 9.24931 1.47587L8.28856 2.43662C8.08741 2.63777 8.08741 2.96393 8.28856 3.16509L12.835 7.71152C13.0362 7.91268 13.3623 7.91268 13.5635 7.71152L14.5242 6.75077C14.5949 6.68012 14.6159 6.57859 14.5873 6.48955C14.5794 6.46496 14.6027 6.44165 14.6273 6.44959C14.7163 6.47821 14.8178 6.45721 14.8885 6.38652L15.8492 5.42574C16.0504 5.22462 16.0504 4.89846 15.8492 4.6973Z" fill="#FF507D"/>
<path d="M11.9231 1.06292L12.469 0.517043C12.6642 0.321793 12.9808 0.321793 13.1761 0.517043L15.4832 2.82417C15.6784 3.01942 15.6784 3.33601 15.4832 3.53126L14.9373 4.07714L11.9231 1.06292Z" fill="#464655"/>
<path d="M15.4725 2.81357L13.1867 0.52782C12.9856 0.326664 12.6594 0.326664 12.4583 0.52782L12.449 0.537102L14.7254 2.81357C14.9266 3.01473 14.9266 3.34088 14.7254 3.54204L14.5638 3.7037L14.9373 4.07723L15.4725 3.54204C15.6736 3.34088 15.6736 3.01473 15.4725 2.81357Z" fill="#3C3C4D"/>
<path d="M15.8493 4.6973L11.3028 0.150867C11.1017 -0.0502891 10.7755 -0.0502891 10.5744 0.150867L10.5684 0.156867L15.1088 4.6973C15.31 4.89846 15.31 5.22462 15.1088 5.42577L12.829 7.70552L12.835 7.71152C13.0362 7.91268 13.3624 7.91268 13.5635 7.71152L14.5243 6.75077C14.595 6.68012 14.616 6.57859 14.5873 6.48955C14.5794 6.46496 14.6027 6.44165 14.6273 6.44959C14.7163 6.47821 14.8178 6.45721 14.8885 6.38652L15.8493 5.42574C16.0504 5.22462 16.0504 4.89846 15.8493 4.6973Z" fill="#D23C69"/>
<path d="M9.60294 1.12402C9.54129 1.1939 9.52341 1.2889 9.55048 1.37302C9.55838 1.39765 9.5351 1.42093 9.51051 1.41299C9.42635 1.38593 9.33135 1.4038 9.26147 1.46546L14.5348 6.73874C14.5964 6.66887 14.6143 6.57387 14.5872 6.48971C14.5793 6.46512 14.6026 6.4418 14.6272 6.44974C14.7113 6.4768 14.8063 6.45893 14.8762 6.39727L9.60294 1.12402Z" fill="#D23C69"/>
<path d="M15.8492 4.6973L11.3028 0.150867C11.1016 -0.0502891 10.7755 -0.0502891 10.5743 0.150867L9.61356 1.11162C9.54288 1.1823 9.52188 1.2838 9.5505 1.37284C9.55841 1.39743 9.53513 1.42074 9.51053 1.4128C9.4215 1.38418 9.32 1.40518 9.24931 1.47587L8.28856 2.43662C8.08741 2.63777 8.08741 2.96393 8.28856 3.16509L12.835 7.71152C13.0362 7.91268 13.3623 7.91268 13.5635 7.71152L14.5242 6.75077C14.5949 6.68012 14.6159 6.57859 14.5873 6.48955C14.5794 6.46496 14.6027 6.44165 14.6273 6.44959C14.7163 6.47821 14.8178 6.45721 14.8885 6.38652L15.8492 5.42574C16.0504 5.22462 16.0504 4.89846 15.8492 4.6973Z" fill="#FF507D"/>
<path d="M15.849 4.6973L11.3026 0.150867C11.1014 -0.0502891 10.7753 -0.0502891 10.5741 0.150867L10.5681 0.156867L15.1086 4.6973C15.3097 4.89846 15.3097 5.22462 15.1086 5.42577L12.8288 7.70552L12.8348 7.71152C13.036 7.91268 13.3621 7.91268 13.5633 7.71152L14.524 6.75077C14.5947 6.68012 14.6157 6.57859 14.5871 6.48955C14.5792 6.46496 14.6025 6.44165 14.6271 6.44959C14.7161 6.47821 14.8176 6.45721 14.8883 6.38652L15.849 5.42574C16.0502 5.22462 16.0502 4.89846 15.849 4.6973Z" fill="#D23C69"/>
<path d="M9.60294 1.12402C9.54129 1.1939 9.52341 1.2889 9.55048 1.37302C9.55838 1.39765 9.5351 1.42093 9.51051 1.41299C9.42635 1.38593 9.33135 1.4038 9.26147 1.46546L14.5348 6.73874C14.5964 6.66887 14.6143 6.57387 14.5872 6.48971C14.5793 6.46512 14.6026 6.4418 14.6272 6.44974C14.7113 6.4768 14.8063 6.45893 14.8762 6.39727L9.60294 1.12402Z" fill="#D23C69"/>
<path d="M7.71152 12.835L3.16509 8.28856C2.96393 8.08741 2.63777 8.08741 2.43662 8.28856L1.47587 9.24931C1.40518 9.32 1.38418 9.4215 1.4128 9.51053C1.42071 9.53513 1.39743 9.55844 1.37284 9.5505C1.2838 9.52184 1.1823 9.54288 1.11162 9.61356L0.150867 10.5743C-0.0502891 10.7755 -0.0502891 11.1016 0.150867 11.3028L4.6973 15.8492C4.89846 16.0504 5.22462 16.0504 5.42577 15.8492L6.38652 14.8885C6.45718 14.8178 6.47821 14.7163 6.44955 14.6273C6.44165 14.6027 6.46493 14.5793 6.48952 14.5873C6.57855 14.6159 6.68006 14.5949 6.75074 14.5243L7.71149 13.5635C7.91268 13.3623 7.91268 13.0362 7.71152 12.835Z" fill="#FF507D"/>
<path d="M7.71157 12.835L3.16513 8.28856C2.96398 8.08741 2.63782 8.08741 2.43666 8.28856L2.43066 8.29456L6.9711 12.835C7.17226 13.0362 7.17226 13.3623 6.9711 13.5635L4.69135 15.8432L4.69735 15.8492C4.89851 16.0504 5.22466 16.0504 5.42582 15.8492L6.38657 14.8885C6.45723 14.8178 6.47826 14.7163 6.4496 14.6273C6.4417 14.6027 6.46498 14.5794 6.48957 14.5873C6.5786 14.6159 6.6801 14.5949 6.75079 14.5243L7.71154 13.5635C7.91273 13.3623 7.91273 13.0362 7.71157 12.835Z" fill="#D23C69"/>
<path d="M1.46525 9.26172C1.40359 9.33159 1.38572 9.42659 1.41278 9.51075C1.42069 9.53537 1.3974 9.55866 1.37281 9.55072C1.28865 9.52366 1.19365 9.54153 1.12378 9.60319L6.39706 14.8765C6.45872 14.8066 6.47659 14.7116 6.44953 14.6274C6.44162 14.6028 6.4649 14.5796 6.4895 14.5875C6.57365 14.6145 6.66865 14.5967 6.73853 14.535L1.46525 9.26172Z" fill="#D23C69"/>
</g>
<defs>
<clipPath id="clip0_26_52828">
<rect width="16" height="16" fill="white"/>
</clipPath>
</defs>
</svg>
